<?xml version="1.0" encoding="utf-8"?>
<!-- Generator: Adobe Illustrator 24.2.3, SVG Export Plug-In . SVG Version: 6.00 Build 0)  -->
<svg version="1.1" id="Layer_1" xmlns="http://www.w3.org/2000/svg" xmlns:xlink="http://www.w3.org/1999/xlink" x="0px" y="0px"
	 viewBox="0 0 328.8 204.6" style="enable-background:new 0 0 328.8 204.6;" xml:space="preserve">
<style type="text/css">
	.st0{fill:#90939E;}
	.st1{fill:#11AFB4;}
	.st2{fill:#4D9EFF;}
	.st3{fill:#0B4682;}
	.st4{fill:#1C1E23;}
</style>
<g>
	<g>
		<g>
			<path class="st0" d="M-932.8,151.6h-2.9v8.3h-1.9v-8.3h-2.9v-1.7h7.7V151.6z"/>
			<path class="st0" d="M-917.4,149.9v10.1h-1.9v-4h-5v4h-1.9v-10.1h1.9v4.4h5v-4.4H-917.4z"/>
			<path class="st0" d="M-908.1,151.6v2.5h4.9v1.7h-4.9v2.4h5.5v1.7h-7.4v-10.1h7.4v1.7H-908.1z"/>
			<path class="st0" d="M-883.6,151.6v2.5h4.9v1.7h-4.9v2.4h5.5v1.7h-7.4v-10.1h7.4v1.7H-883.6z"/>
			<path class="st0" d="M-871.3,158.6l1-1.5c0.5,0.3,1,0.6,1.6,0.9c0.5,0.3,1.1,0.4,1.7,0.4c0.3,0,0.6,0,0.8-0.1
				c0.2-0.1,0.4-0.2,0.6-0.3c0.2-0.1,0.3-0.3,0.4-0.4c0.1-0.2,0.1-0.3,0.1-0.5c0-0.2-0.1-0.4-0.2-0.5s-0.3-0.3-0.5-0.4
				c-0.2-0.1-0.4-0.2-0.7-0.2c-0.3-0.1-0.6-0.1-0.9-0.2c-0.2,0-0.4-0.1-0.7-0.1c-0.3-0.1-0.5-0.1-0.8-0.2c-0.3-0.1-0.6-0.2-0.8-0.3
				c-0.3-0.1-0.5-0.3-0.7-0.5s-0.4-0.5-0.5-0.8c-0.1-0.3-0.2-0.6-0.2-1c0-0.6,0.1-1.1,0.4-1.5c0.2-0.4,0.5-0.7,0.9-0.9
				c0.4-0.2,0.8-0.4,1.2-0.5c0.5-0.1,0.9-0.1,1.3-0.1s0.8,0,1.1,0.1s0.6,0.1,0.9,0.2c0.3,0.1,0.6,0.2,0.8,0.4s0.6,0.3,0.9,0.6
				l-1.1,1.5c-0.5-0.3-0.9-0.6-1.4-0.8s-0.9-0.3-1.4-0.3c-0.2,0-0.4,0-0.6,0.1c-0.2,0-0.4,0.1-0.6,0.2c-0.2,0.1-0.3,0.2-0.5,0.3
				c-0.1,0.1-0.2,0.3-0.2,0.5c0,0.2,0.1,0.4,0.2,0.5c0.1,0.1,0.3,0.3,0.6,0.3c0.2,0.1,0.5,0.2,0.8,0.2c0.3,0.1,0.5,0.1,0.8,0.2
				c0.2,0,0.4,0.1,0.7,0.1c0.3,0,0.5,0.1,0.8,0.2c0.3,0.1,0.6,0.2,0.8,0.3c0.3,0.1,0.5,0.3,0.7,0.5c0.2,0.2,0.4,0.5,0.5,0.8
				s0.2,0.7,0.2,1.1c0,0.5-0.1,1-0.3,1.4s-0.4,0.7-0.8,1c-0.3,0.3-0.7,0.4-1.2,0.6s-1,0.2-1.6,0.2c-0.5,0-1,0-1.4-0.1
				c-0.4-0.1-0.8-0.2-1.1-0.3s-0.6-0.3-0.9-0.5C-870.7,159-871,158.8-871.3,158.6z"/>
			<path class="st0" d="M-856.7,158.6l1-1.5c0.5,0.3,1,0.6,1.6,0.9c0.5,0.3,1.1,0.4,1.7,0.4c0.3,0,0.6,0,0.8-0.1
				c0.2-0.1,0.4-0.2,0.6-0.3c0.2-0.1,0.3-0.3,0.4-0.4c0.1-0.2,0.1-0.3,0.1-0.5c0-0.2-0.1-0.4-0.2-0.5s-0.3-0.3-0.5-0.4
				c-0.2-0.1-0.4-0.2-0.7-0.2c-0.3-0.1-0.6-0.1-0.9-0.2c-0.2,0-0.4-0.1-0.7-0.1c-0.3-0.1-0.5-0.1-0.8-0.2c-0.3-0.1-0.6-0.2-0.8-0.3
				c-0.3-0.1-0.5-0.3-0.7-0.5s-0.4-0.5-0.5-0.8c-0.1-0.3-0.2-0.6-0.2-1c0-0.6,0.1-1.1,0.4-1.5c0.2-0.4,0.5-0.7,0.9-0.9
				c0.4-0.2,0.8-0.4,1.2-0.5c0.5-0.1,0.9-0.1,1.3-0.1s0.8,0,1.1,0.1s0.6,0.1,0.9,0.2c0.3,0.1,0.6,0.2,0.8,0.4s0.6,0.3,0.9,0.6
				l-1.1,1.5c-0.5-0.3-0.9-0.6-1.4-0.8s-0.9-0.3-1.4-0.3c-0.2,0-0.4,0-0.6,0.1c-0.2,0-0.4,0.1-0.6,0.2c-0.2,0.1-0.3,0.2-0.5,0.3
				c-0.1,0.1-0.2,0.3-0.2,0.5c0,0.2,0.1,0.4,0.2,0.5c0.1,0.1,0.3,0.3,0.6,0.3c0.2,0.1,0.5,0.2,0.8,0.2c0.3,0.1,0.5,0.1,0.8,0.2
				c0.2,0,0.4,0.1,0.7,0.1c0.3,0,0.5,0.1,0.8,0.2c0.3,0.1,0.6,0.2,0.8,0.3c0.3,0.1,0.5,0.3,0.7,0.5c0.2,0.2,0.4,0.5,0.5,0.8
				s0.2,0.7,0.2,1.1c0,0.5-0.1,1-0.3,1.4s-0.4,0.7-0.8,1c-0.3,0.3-0.7,0.4-1.2,0.6s-1,0.2-1.6,0.2c-0.5,0-1,0-1.4-0.1
				c-0.4-0.1-0.8-0.2-1.1-0.3s-0.6-0.3-0.9-0.5C-856.1,159-856.4,158.8-856.7,158.6z"/>
			<path class="st0" d="M-839.9,151.6v2.5h4.9v1.7h-4.9v2.4h5.5v1.7h-7.4v-10.1h7.4v1.7H-839.9z"/>
			<path class="st0" d="M-818.7,159.9l-6.6-6v6h-1.9v-10h0.2l6.6,6.1v-6.1h1.9v10H-818.7z"/>
			<path class="st0" d="M-801.8,157.4c-0.2,0.4-0.5,0.8-0.8,1.1c-0.3,0.3-0.7,0.6-1.1,0.8s-0.8,0.4-1.3,0.5s-0.9,0.2-1.4,0.2
				c-0.7,0-1.4-0.1-2-0.4c-0.6-0.3-1.2-0.6-1.7-1.1c-0.5-0.5-0.8-1-1.1-1.7c-0.3-0.6-0.4-1.3-0.4-2c0-0.7,0.1-1.4,0.4-2
				c0.3-0.6,0.6-1.2,1.1-1.7c0.5-0.5,1-0.8,1.7-1.1c0.6-0.3,1.3-0.4,2-0.4c0.5,0,1,0.1,1.4,0.2c0.5,0.1,0.9,0.3,1.3,0.5
				s0.7,0.5,1.1,0.8c0.3,0.3,0.6,0.7,0.8,1.1l-1.8,0.7c-0.1-0.2-0.3-0.4-0.5-0.6s-0.4-0.4-0.7-0.5c-0.2-0.1-0.5-0.3-0.8-0.3
				c-0.3-0.1-0.5-0.1-0.8-0.1c-0.5,0-0.9,0.1-1.3,0.3s-0.7,0.4-1,0.7c-0.3,0.3-0.5,0.7-0.7,1.1c-0.2,0.4-0.3,0.8-0.3,1.3
				c0,0.5,0.1,0.9,0.3,1.3c0.2,0.4,0.4,0.8,0.7,1.1c0.3,0.3,0.6,0.6,1,0.7s0.8,0.3,1.3,0.3c0.3,0,0.6,0,0.8-0.1
				c0.3-0.1,0.5-0.2,0.8-0.3c0.2-0.1,0.5-0.3,0.7-0.5c0.2-0.2,0.4-0.4,0.5-0.6L-801.8,157.4z"/>
			<path class="st0" d="M-793.2,151.6v2.5h4.9v1.7h-4.9v2.4h5.5v1.7h-7.4v-10.1h7.4v1.7H-793.2z"/>
			<path class="st0" d="M-765.9,160.1c-0.7,0-1.4-0.1-2-0.4c-0.6-0.3-1.2-0.6-1.7-1.1c-0.5-0.5-0.8-1-1.1-1.7
				c-0.3-0.6-0.4-1.3-0.4-2c0-0.7,0.1-1.4,0.4-2c0.3-0.6,0.6-1.2,1.1-1.7c0.5-0.5,1-0.8,1.7-1.1c0.6-0.3,1.3-0.4,2-0.4
				c0.7,0,1.4,0.1,2,0.4s1.2,0.6,1.7,1.1c0.5,0.5,0.8,1,1.1,1.7c0.3,0.6,0.4,1.3,0.4,2c0,0.7-0.1,1.4-0.4,2
				c-0.3,0.6-0.6,1.2-1.1,1.7c-0.5,0.5-1,0.8-1.7,1.1S-765.2,160.1-765.9,160.1z M-765.9,151.5c-0.5,0-0.9,0.1-1.3,0.3
				c-0.4,0.2-0.7,0.4-1,0.7s-0.5,0.7-0.7,1.1c-0.2,0.4-0.3,0.8-0.3,1.3c0,0.5,0.1,0.9,0.3,1.3c0.2,0.4,0.4,0.8,0.7,1.1
				c0.3,0.3,0.6,0.6,1,0.8c0.4,0.2,0.8,0.3,1.3,0.3c0.5,0,0.9-0.1,1.3-0.3c0.4-0.2,0.7-0.4,1-0.8c0.3-0.3,0.5-0.7,0.7-1.1
				c0.2-0.4,0.3-0.8,0.3-1.3c0-0.4-0.1-0.9-0.3-1.3c-0.2-0.4-0.4-0.8-0.7-1.1c-0.3-0.3-0.6-0.6-1-0.7
				C-765,151.6-765.5,151.5-765.9,151.5z"/>
			<path class="st0" d="M-751.9,151.6v2.5h4.8v1.8h-4.8v4.1h-1.9v-10.1h7.4v1.7H-751.9z"/>
			<path class="st0" d="M-720.5,157.4c-0.2,0.4-0.5,0.8-0.8,1.1c-0.3,0.3-0.7,0.6-1.1,0.8s-0.8,0.4-1.3,0.5s-0.9,0.2-1.4,0.2
				c-0.7,0-1.4-0.1-2-0.4c-0.6-0.3-1.2-0.6-1.7-1.1c-0.5-0.5-0.8-1-1.1-1.7c-0.3-0.6-0.4-1.3-0.4-2c0-0.7,0.1-1.4,0.4-2
				c0.3-0.6,0.6-1.2,1.1-1.7c0.5-0.5,1-0.8,1.7-1.1c0.6-0.3,1.3-0.4,2-0.4c0.5,0,1,0.1,1.4,0.2c0.5,0.1,0.9,0.3,1.3,0.5
				s0.7,0.5,1.1,0.8c0.3,0.3,0.6,0.7,0.8,1.1l-1.8,0.7c-0.1-0.2-0.3-0.4-0.5-0.6s-0.4-0.4-0.7-0.5c-0.2-0.1-0.5-0.3-0.8-0.3
				c-0.3-0.1-0.5-0.1-0.8-0.1c-0.5,0-0.9,0.1-1.3,0.3s-0.7,0.4-1,0.7c-0.3,0.3-0.5,0.7-0.7,1.1c-0.2,0.4-0.3,0.8-0.3,1.3
				c0,0.5,0.1,0.9,0.3,1.3c0.2,0.4,0.4,0.8,0.7,1.1c0.3,0.3,0.6,0.6,1,0.7s0.8,0.3,1.3,0.3c0.3,0,0.6,0,0.8-0.1
				c0.3-0.1,0.5-0.2,0.8-0.3c0.2-0.1,0.5-0.3,0.7-0.5c0.2-0.2,0.4-0.4,0.5-0.6L-720.5,157.4z"/>
			<path class="st0" d="M-706.6,158.2v1.7h-7.2v-10.1h1.9v8.3H-706.6z"/>
			<path class="st0" d="M-701.2,159.9l5.1-10h0.2l5.1,10h-2.1l-0.8-1.6h-4.7l-0.8,1.6H-701.2z M-697.4,156.7h2.9l-1.4-3
				L-697.4,156.7z"/>
			<path class="st0" d="M-685.3,158.6l1-1.5c0.5,0.3,1,0.6,1.6,0.9c0.5,0.3,1.1,0.4,1.7,0.4c0.3,0,0.6,0,0.8-0.1
				c0.2-0.1,0.4-0.2,0.6-0.3c0.2-0.1,0.3-0.3,0.4-0.4c0.1-0.2,0.1-0.3,0.1-0.5c0-0.2-0.1-0.4-0.2-0.5s-0.3-0.3-0.5-0.4
				c-0.2-0.1-0.4-0.2-0.7-0.2c-0.3-0.1-0.6-0.1-0.9-0.2c-0.2,0-0.4-0.1-0.7-0.1c-0.3-0.1-0.5-0.1-0.8-0.2c-0.3-0.1-0.6-0.2-0.8-0.3
				c-0.3-0.1-0.5-0.3-0.7-0.5s-0.4-0.5-0.5-0.8c-0.1-0.3-0.2-0.6-0.2-1c0-0.6,0.1-1.1,0.4-1.5c0.2-0.4,0.5-0.7,0.9-0.9
				c0.4-0.2,0.8-0.4,1.2-0.5c0.5-0.1,0.9-0.1,1.3-0.1s0.8,0,1.1,0.1s0.6,0.1,0.9,0.2c0.3,0.1,0.6,0.2,0.8,0.4s0.6,0.3,0.9,0.6
				l-1.1,1.5c-0.5-0.3-0.9-0.6-1.4-0.8s-0.9-0.3-1.4-0.3c-0.2,0-0.4,0-0.6,0.1c-0.2,0-0.4,0.1-0.6,0.2c-0.2,0.1-0.3,0.2-0.5,0.3
				c-0.1,0.1-0.2,0.3-0.2,0.5c0,0.2,0.1,0.4,0.2,0.5c0.1,0.1,0.3,0.3,0.6,0.3c0.2,0.1,0.5,0.2,0.8,0.2c0.3,0.1,0.5,0.1,0.8,0.2
				c0.2,0,0.4,0.1,0.7,0.1c0.3,0,0.5,0.1,0.8,0.2c0.3,0.1,0.6,0.2,0.8,0.3c0.3,0.1,0.5,0.3,0.7,0.5c0.2,0.2,0.4,0.5,0.5,0.8
				s0.2,0.7,0.2,1.1c0,0.5-0.1,1-0.3,1.4s-0.4,0.7-0.8,1c-0.3,0.3-0.7,0.4-1.2,0.6s-1,0.2-1.6,0.2c-0.5,0-1,0-1.4-0.1
				c-0.4-0.1-0.8-0.2-1.1-0.3s-0.6-0.3-0.9-0.5C-684.7,159-685,158.8-685.3,158.6z"/>
			<path class="st0" d="M-670.8,158.6l1-1.5c0.5,0.3,1,0.6,1.6,0.9c0.5,0.3,1.1,0.4,1.7,0.4c0.3,0,0.6,0,0.8-0.1
				c0.2-0.1,0.4-0.2,0.6-0.3c0.2-0.1,0.3-0.3,0.4-0.4c0.1-0.2,0.1-0.3,0.1-0.5c0-0.2-0.1-0.4-0.2-0.5s-0.3-0.3-0.5-0.4
				c-0.2-0.1-0.4-0.2-0.7-0.2c-0.3-0.1-0.6-0.1-0.9-0.2c-0.2,0-0.4-0.1-0.7-0.1c-0.3-0.1-0.5-0.1-0.8-0.2c-0.3-0.1-0.6-0.2-0.8-0.3
				c-0.3-0.1-0.5-0.3-0.7-0.5s-0.4-0.5-0.5-0.8c-0.1-0.3-0.2-0.6-0.2-1c0-0.6,0.1-1.1,0.4-1.5c0.2-0.4,0.5-0.7,0.9-0.9
				c0.4-0.2,0.8-0.4,1.2-0.5c0.5-0.1,0.9-0.1,1.3-0.1s0.8,0,1.1,0.1s0.6,0.1,0.9,0.2c0.3,0.1,0.6,0.2,0.8,0.4s0.6,0.3,0.9,0.6
				l-1.1,1.5c-0.5-0.3-0.9-0.6-1.4-0.8s-0.9-0.3-1.4-0.3c-0.2,0-0.4,0-0.6,0.1c-0.2,0-0.4,0.1-0.6,0.2c-0.2,0.1-0.3,0.2-0.5,0.3
				c-0.1,0.1-0.2,0.3-0.2,0.5c0,0.2,0.1,0.4,0.2,0.5c0.1,0.1,0.3,0.3,0.6,0.3c0.2,0.1,0.5,0.2,0.8,0.2c0.3,0.1,0.5,0.1,0.8,0.2
				c0.2,0,0.4,0.1,0.7,0.1c0.3,0,0.5,0.1,0.8,0.2c0.3,0.1,0.6,0.2,0.8,0.3c0.3,0.1,0.5,0.3,0.7,0.5c0.2,0.2,0.4,0.5,0.5,0.8
				s0.2,0.7,0.2,1.1c0,0.5-0.1,1-0.3,1.4s-0.4,0.7-0.8,1c-0.3,0.3-0.7,0.4-1.2,0.6s-1,0.2-1.6,0.2c-0.5,0-1,0-1.4-0.1
				c-0.4-0.1-0.8-0.2-1.1-0.3s-0.6-0.3-0.9-0.5C-670.2,159-670.5,158.8-670.8,158.6z"/>
		</g>
	</g>
	<g>
		<path class="st1" d="M-883.3,106.7c0,13.1-12.4,17.7-23.3,17.7h-34V124c5.7,0,6.3-3.6,6.3-11V65.8c0-7.3-0.6-11-6.3-11v-0.5h30.1
			c9.7,0,22.3,4.3,22.3,17.4c0,10.7-8.1,15.5-17.1,17C-895,88.9-883.3,93.8-883.3,106.7z M-912.8,54.8c-5.6,0-5.9,3.8-6,11v23
			c2.2,0,4.4,0,5.9,0c7.4,0,8.2-9,8.2-17C-904.7,63.8-907.2,54.8-912.8,54.8z M-899.9,106.7c0-10.4-4.1-17.4-11.3-17.4h-7.6v23.7
			c0.1,7.4,0.6,11,6.3,11c0.5,0,0.9,0,1.3,0C-903.8,124-899.9,117.1-899.9,106.7z"/>
		<path class="st1" d="M-830.1,106.7l-4.2,17.7h-49.5V124c5.7,0,6.3-3.6,6.3-11V65.8c0-7.3-0.6-11-6.3-11v-0.5h28.2v0.5
			c-5.7,0-6.2,3.7-6.3,11v47.1c0.1,7.4,0.6,11,6.3,11h5.6c10.1,0,16.5-10.7,19.4-17.2H-830.1z"/>
		<path class="st1" d="M-830,106.2c-0.1,0-0.2,0-0.3-0.1c-0.1,0.1-0.3,0.2-0.4,0.4c-0.3,0.8-0.6,1.5-0.8,2
			c-3.9,9.9-8.6,14.3-15,15.5v0.5h21.3V124C-831.5,124-832.6,114.3-830,106.2z"/>
		<path class="st1" d="M-774.2,123.9v0.5h-29.7v-0.5c4.9,0,5.6-1.9,2.8-9.2c-1-2.8-3.6-9.6-6.4-17h0c-0.1-0.4-0.2-0.7-0.4-1
			c-4.1-10.7-8.5-22.2-9.2-23.9c-0.1,0.1-0.1,0.2-0.1,0.3c-0.1-0.2-0.1-0.4-0.2-0.6c3.9-10,7.1-18.1,7.1-18.1h2.2
			c0,0,12.4,31.4,18.8,47.5c0,0,0,0,0.1,0.1c0,0.1,0.1,0.2,0.1,0.3c0,0.1,0.1,0.1,0.1,0.3c0.2,0.4,0.3,0.8,0.5,1.2
			c0,0,0,0.1,0.1,0.1c0.3,0.8,0.6,1.5,0.8,2.1c0.5,1.2,1,2.5,1.6,3.9v0c0.1,0.2,0.2,0.4,0.2,0.6c0.1,0.1,0.1,0.3,0.2,0.4
			c0.1,0.3,0.2,0.6,0.3,0.8C-782.9,117.7-780.1,123.9-774.2,123.9z"/>
		<path class="st1" d="M-773,123.9v0.5h-25.3v-0.5c5.8,0,10.8-5.1,12.1-14.1c0.1,0.3,0.3,0.6,0.4,1c0.1,0.3,0.2,0.6,0.3,0.8
			c1.2,2.8,2.4,5.4,3.1,6.2c0,0,0,0,0,0C-780,121.8-776.7,123.9-773,123.9z"/>
		<path class="st1" d="M-736.5,102.9v0.5l-37.7-49.1h-23.4v0.5c4.3,0,8.3,4.6,11.7,9.4v0.4c0.2,0.1,0.4,0.2,0.5,0.4v0
			c0,0,0.1,0.1,0.1,0.1c0.2,0.2,0.3,0.4,0.4,0.6c5,6.7,43.8,56.3,45.9,58.8h2.9v-20.6C-736.2,103.6-736.3,103.3-736.5,102.9z"/>
		<path class="st1" d="M-748.9,54.3v0.5c6.4,0,11.8,6.2,12.4,16.9c0.2-0.1,0.4-0.1,0.6-0.1c0.6-10.6,5.9-16.8,12.3-16.8v-0.5H-748.9
			z"/>
		<path class="st1" d="M-681.3,53.9c0,0.3-0.1,0.5-0.1,0.8c12.3,3.3,18.3,15.9,18.3,21.1h0.5V50.6h-0.5c0,6.8-3.6,6.3-8.2,5.1
			c-2.7-0.7-6.3-1.5-10-1.9C-681.3,53.9-681.3,53.9-681.3,53.9z"/>
		<path class="st1" d="M-686,124.5c-14.1-1.5-21.8-17.7-23-32.7c-1.1-14.1,3-31.8,14.6-36.6c0,0,0,0,0-0.1c-0.1-0.3-0.1-0.6-0.1-0.9
			c-18.6,3.3-33.5,16.4-32,38.4c1.5,23,20.9,33,40.8,32.5C-685.8,125-685.9,124.8-686,124.5z"/>
		<path class="st1" d="M-789.1,102.5c0.2,0.4,0.3,0.8,0.5,1.2C-788.8,103.2-789,102.8-789.1,102.5z"/>
		<path class="st1" d="M-787.7,105.9c-0.3-0.8-0.6-1.5-0.8-2.1C-788.3,104.5-788,105.2-787.7,105.9z"/>
	</g>
</g>
<g>
	<polygon class="st2" points="-49,57.8 -49,68 -149.5,163.8 -249.7,68.5 -249.7,58.3 -149.5,153.5 	"/>
	<polygon class="st2" points="-139,170.1 -141.6,172.5 -146.5,177.5 -148.9,179.9 -151.5,177.5 -159.3,170.1 -167.8,162.1 
		-249.6,85 -249.6,162.1 -249.6,162.2 -191.9,162.2 -228.5,125.6 -233.7,130.8 -209.6,154.8 -242.3,154.8 -242.3,102 -178.2,162.1 
		-169.7,170.1 -161.8,177.5 -148.9,190.3 -142.4,184.1 -135.5,177.5 -127.7,170.1 -119.3,162.1 -56.4,102.1 -56.4,154.8 -89,154.8 
		-65,130.8 -70.2,125.6 -106.7,162.1 -106.8,162.2 -49,162.2 -49,162.1 -49,84.9 -130.5,162.1 	"/>
	<polygon class="st2" points="-49,30.3 -49,40.5 -148.7,135.3 -267,24.7 -62.9,24.7 -69.2,30.8 -69,31 -70.1,32.1 -80.7,42.2 
		-81.9,43.3 -130.6,89.7 -149.2,107.3 -217.6,43.3 -105.7,43.3 -112.9,49.7 -113.9,50.6 -117.1,53.4 -149.5,81.8 -171.1,60.3 
		-165.9,55.1 -149.2,71.7 -125,50.6 -199,50.6 -149.2,97.1 -135.7,84.3 -124.8,74 -105.5,55.6 -100.2,50.6 -92.5,43.3 -92.4,43.3 
		-85.3,36.4 -85.2,36.4 -80.7,32.1 -248.4,32.1 -148.7,125.2 -61.3,42.2 -50.7,32.1 	"/>
</g>
<g>
	<polygon class="st2" points="-397.2,38.2 -397.2,42.4 -438.2,81.4 -479.1,42.6 -479.1,38.4 -438.2,77.3 	"/>
	<polygon class="st2" points="-434,84 -435,85 -437,87 -438,88 -439.1,87 -442.2,84 -445.7,80.8 -479.1,49.3 -479.1,80.8 
		-479.1,80.8 -455.5,80.8 -470.5,65.9 -472.6,68 -462.8,77.8 -476.1,77.8 -476.1,56.2 -450,80.8 -446.5,84 -443.3,87 -438,92.3 
		-435.3,89.7 -432.5,87 -429.4,84 -425.9,80.8 -400.3,56.3 -400.3,77.8 -413.6,77.8 -403.8,68 -405.9,65.9 -420.8,80.8 -420.8,80.8 
		-397.3,80.8 -397.3,80.8 -397.3,49.3 -430.5,80.8 	"/>
	<polygon class="st2" points="-397.2,27 -397.2,31.2 -437.9,69.8 -486.2,24.7 -402.9,24.7 -405.5,27.2 -405.4,27.3 -405.8,27.7 
		-410.2,31.8 -410.6,32.3 -430.5,51.2 -438.1,58.4 -466,32.3 -420.4,32.3 -423.3,34.9 -423.7,35.3 -425,36.4 -438.3,48 -447.1,39.2 
		-444.9,37.1 -438.1,43.9 -428.3,35.3 -458.4,35.3 -438.1,54.3 -432.6,49 -428.2,44.8 -420.3,37.3 -418.2,35.3 -415,32.3 -415,32.3 
		-412.1,29.5 -412,29.5 -410.2,27.7 -478.6,27.7 -437.9,65.7 -402.3,31.8 -398,27.7 	"/>
</g>
<g>
	<path class="st3" d="M-525.4,143.1v-12.7l-4,12.7h-2.9l-3.9-12.6v12.6h-3.8v-24h3.8l5.4,15.9l5.4-15.9h3.8v24H-525.4z"/>
	<path class="st3" d="M-515.6,143.1v-20.3l-2.1-0.1v-3.6h5.9v24H-515.6z"/>
	<path class="st3" d="M-506.5,143.1v-24h3.8v20.5h8.6v3.5H-506.5z"/>
	<path class="st3" d="M-491.1,143.1v-24h3.8v20.5h8.6v3.5H-491.1z"/>
	<path class="st3" d="M-474.9,143.1v-20.3l-2.1-0.1v-3.6h5.9v24H-474.9z"/>
	<path class="st3" d="M-463.2,136.4c0.2,2,1.7,3.4,4,3.4c3.1,0,4.1-1.8,4.1-3c0-6.7-11.5-4.3-11.5-12.1c0-2.9,2.4-5.9,7.7-5.9
		c2.4,0,3.6,0.4,5,1c0,0-0.8,2.3-1.2,3.6c-1.3-0.4-2.3-0.8-3.8-0.8c-2.8,0-3.8,1.1-3.7,2.4c0.4,3.3,11.6,3.2,11.6,11.4
		c0,3.7-2.3,7-8.2,7c-5.3,0-8-3.4-8.1-6.5L-463.2,136.4z"/>
	<path class="st3" d="M-447.4,143.1v-24h11.4v3.8h-7.7v6.1h4.7l-1.1,3.6h-3.6v7.1h7.6v3.4H-447.4z"/>
	<path class="st3" d="M-419.9,142.3c-5.4,2.1-12.4,2-12.4-5.5v-11c0-3.7,1.2-5.1,3-6.2c2.2-1.3,5.9-1.1,8.5,0.3l-1.1,3.4
		c-1.2-0.4-2.3-0.6-3.5-0.6c-1.9,0-3.2,1.2-3.2,2.8v11.2c0,4.3,5.3,2.7,8,2L-419.9,142.3z"/>
	<path class="st3" d="M-402.5,136.8c0,5-3.8,6.7-7.2,6.7c-3.4,0-7.2-1.7-7.2-6.7v-11c0-4.8,2.9-7.2,7.3-7.2c4.6,0,7.1,2.8,7.1,7.2
		V136.8z M-406.3,127c0-2.5-0.4-4.3-3.4-4.3c-3,0-3.4,1.7-3.4,4.3v9.1c0,2.1,1,3.5,3.4,3.5c2.2,0,3.4-1.5,3.4-3.6V127z"/>
	<path class="st3" d="M-384.8,143.1l-9.3-16.2v16.2h-3.8v-24h3.8l9.3,16.1v-16.1h3.8v24H-384.8z"/>
	<path class="st3" d="M-375.8,143.1v-24h6.4c5.3,0,7.9,3.3,7.9,7.8v9.4c0,5.3-3.3,6.8-7.3,6.8H-375.8z M-365.1,126.5
		c0-2.5-1.3-3.6-3.8-3.6h-3v16.7h2.8c1.8,0,4-0.2,4-3V126.5z"/>
	<path class="st3" d="M-354,136.4c0.2,2,1.7,3.4,4,3.4c3.1,0,4.1-1.8,4.1-3c0-6.7-11.5-4.3-11.5-12.1c0-2.9,2.4-5.9,7.7-5.9
		c2.4,0,3.6,0.4,5,1c0,0-0.8,2.3-1.2,3.6c-1.3-0.4-2.3-0.8-3.8-0.8c-2.8,0-3.8,1.1-3.7,2.4c0.4,3.3,11.6,3.2,11.6,11.4
		c0,3.7-2.3,7-8.2,7c-5.3,0-8-3.4-8.1-6.5L-354,136.4z"/>
</g>
<g>
	<path class="st3" d="M-525.4,290.5v-12.7l-4,12.7h-2.9l-3.9-12.6v12.6h-3.8v-24h3.8l5.4,15.9l5.4-15.9h3.8v24H-525.4z"/>
	<path class="st3" d="M-515.6,290.5v-20.3l-2.1-0.1v-3.6h5.9v24H-515.6z"/>
	<path class="st3" d="M-506.5,290.5v-24h3.8V287h8.6v3.5H-506.5z"/>
	<path class="st3" d="M-491.1,290.5v-24h3.8V287h8.6v3.5H-491.1z"/>
	<path class="st3" d="M-474.9,290.5v-20.3l-2.1-0.1v-3.6h5.9v24H-474.9z"/>
	<path class="st3" d="M-463.2,283.8c0.2,2,1.7,3.4,4,3.4c3.1,0,4.1-1.8,4.1-3c0-6.7-11.5-4.3-11.5-12.1c0-2.9,2.4-5.9,7.7-5.9
		c2.4,0,3.6,0.4,5,1c0,0-0.8,2.3-1.2,3.6c-1.3-0.4-2.3-0.8-3.8-0.8c-2.8,0-3.8,1.1-3.7,2.4c0.4,3.3,11.6,3.2,11.6,11.4
		c0,3.7-2.3,7-8.2,7c-5.3,0-8-3.4-8.1-6.5L-463.2,283.8z"/>
	<path class="st3" d="M-447.4,290.5v-24h11.4v3.8h-7.7v6.1h4.7l-1.1,3.6h-3.6v7.1h7.6v3.4H-447.4z"/>
	<path class="st3" d="M-419.9,289.7c-5.4,2.1-12.4,2-12.4-5.5v-11c0-3.7,1.2-5.1,3-6.2c2.2-1.3,5.9-1.1,8.5,0.3l-1.1,3.4
		c-1.2-0.4-2.3-0.6-3.5-0.6c-1.9,0-3.2,1.2-3.2,2.8v11.2c0,4.3,5.3,2.7,8,2L-419.9,289.7z"/>
	<path class="st3" d="M-402.5,284.1c0,5-3.8,6.7-7.2,6.7c-3.4,0-7.2-1.7-7.2-6.7v-11c0-4.8,2.9-7.2,7.3-7.2c4.6,0,7.1,2.8,7.1,7.2
		V284.1z M-406.3,274.4c0-2.5-0.4-4.3-3.4-4.3c-3,0-3.4,1.7-3.4,4.3v9.1c0,2.1,1,3.5,3.4,3.5c2.2,0,3.4-1.5,3.4-3.6V274.4z"/>
	<path class="st3" d="M-384.8,290.5l-9.3-16.2v16.2h-3.8v-24h3.8l9.3,16.1v-16.1h3.8v24H-384.8z"/>
	<path class="st3" d="M-375.8,290.5v-24h6.4c5.3,0,7.9,3.3,7.9,7.8v9.4c0,5.3-3.3,6.8-7.3,6.8H-375.8z M-365.1,273.9
		c0-2.5-1.3-3.6-3.8-3.6h-3V287h2.8c1.8,0,4-0.2,4-3V273.9z"/>
	<path class="st3" d="M-354,283.8c0.2,2,1.7,3.4,4,3.4c3.1,0,4.1-1.8,4.1-3c0-6.7-11.5-4.3-11.5-12.1c0-2.9,2.4-5.9,7.7-5.9
		c2.4,0,3.6,0.4,5,1c0,0-0.8,2.3-1.2,3.6c-1.3-0.4-2.3-0.8-3.8-0.8c-2.8,0-3.8,1.1-3.7,2.4c0.4,3.3,11.6,3.2,11.6,11.4
		c0,3.7-2.3,7-8.2,7c-5.3,0-8-3.4-8.1-6.5L-354,283.8z"/>
</g>
<g>
	<path class="st4" d="M-496.3,158.9h2.9c0.8,0,1.5,0.1,2,0.3c0.6,0.2,1,0.4,1.4,0.8c0.4,0.3,0.7,0.6,0.9,1c0.2,0.4,0.4,0.7,0.5,1.1
		c0.1,0.3,0.2,0.6,0.2,0.9c0,0.3,0,0.5,0,0.6c0,0.1,0,0.3,0,0.6c0,0.3-0.1,0.6-0.2,0.9c-0.1,0.3-0.3,0.7-0.5,1.1
		c-0.2,0.4-0.5,0.7-0.9,1c-0.4,0.3-0.8,0.6-1.4,0.8c-0.6,0.2-1.2,0.3-2,0.3h-2.9V158.9z M-495.5,167.4h1.8c0.6,0,1.2-0.1,1.7-0.2
		c0.5-0.2,1-0.4,1.4-0.7c0.4-0.3,0.7-0.7,0.9-1.2c0.2-0.5,0.3-1.1,0.3-1.7c0-0.7-0.1-1.2-0.3-1.7c-0.2-0.5-0.5-0.9-0.9-1.2
		c-0.4-0.3-0.9-0.5-1.4-0.7c-0.5-0.2-1.1-0.2-1.7-0.2h-1.8V167.4z"/>
	<path class="st4" d="M-481.4,167c-0.3,0.5-0.7,0.8-1.1,1c-0.5,0.2-0.9,0.3-1.5,0.3c-0.5,0-0.9-0.1-1.3-0.2c-0.4-0.2-0.7-0.4-1-0.7
		c-0.3-0.3-0.5-0.6-0.6-1c-0.1-0.4-0.2-0.8-0.2-1.3c0-0.5,0.1-0.9,0.2-1.3c0.2-0.4,0.4-0.7,0.6-1c0.3-0.3,0.6-0.5,1-0.7
		c0.4-0.2,0.8-0.2,1.2-0.2c0.5,0,0.9,0.1,1.2,0.2c0.4,0.2,0.7,0.4,0.9,0.6c0.2,0.3,0.4,0.6,0.5,0.9c0.1,0.3,0.2,0.7,0.2,1v0.5h-5.1
		c0,0.2,0,0.4,0.1,0.6c0.1,0.3,0.2,0.5,0.4,0.8c0.2,0.2,0.4,0.5,0.7,0.6c0.3,0.2,0.7,0.3,1.1,0.3c0.4,0,0.8-0.1,1.2-0.3
		c0.4-0.2,0.7-0.5,0.9-0.8L-481.4,167z M-482,164.6c0-0.3-0.1-0.5-0.2-0.8c-0.1-0.2-0.3-0.4-0.4-0.6c-0.2-0.2-0.4-0.3-0.7-0.4
		c-0.3-0.1-0.5-0.2-0.8-0.2c-0.4,0-0.8,0.1-1.1,0.3c-0.3,0.2-0.5,0.4-0.7,0.6c-0.2,0.2-0.3,0.4-0.4,0.7c-0.1,0.2-0.1,0.4-0.1,0.4
		H-482z"/>
	<path class="st4" d="M-479.4,166.6c0.2,0.3,0.4,0.6,0.7,0.7c0.3,0.2,0.7,0.3,1,0.3c0.2,0,0.3,0,0.5-0.1c0.2-0.1,0.3-0.1,0.4-0.2
		c0.1-0.1,0.2-0.2,0.3-0.3c0.1-0.1,0.1-0.3,0.1-0.5c0-0.3-0.1-0.5-0.3-0.6c-0.2-0.1-0.4-0.2-0.7-0.3c-0.3-0.1-0.6-0.1-0.9-0.2
		c-0.3-0.1-0.6-0.1-0.9-0.3s-0.5-0.3-0.7-0.5c-0.2-0.2-0.3-0.5-0.3-0.9c0-0.3,0.1-0.6,0.2-0.8c0.1-0.2,0.3-0.4,0.5-0.5
		s0.4-0.3,0.7-0.3c0.2-0.1,0.5-0.1,0.7-0.1c0.5,0,0.9,0.1,1.3,0.3c0.4,0.2,0.6,0.5,0.8,0.9l-0.7,0.4c-0.2-0.3-0.3-0.5-0.6-0.6
		c-0.2-0.1-0.5-0.2-0.9-0.2c-0.1,0-0.3,0-0.4,0.1s-0.3,0.1-0.4,0.2c-0.1,0.1-0.2,0.2-0.3,0.3c-0.1,0.1-0.1,0.3-0.1,0.4
		c0,0.3,0.1,0.5,0.3,0.6c0.2,0.1,0.4,0.2,0.7,0.3c0.3,0.1,0.5,0.1,0.9,0.2c0.3,0.1,0.6,0.1,0.9,0.3c0.3,0.1,0.5,0.3,0.7,0.5
		c0.2,0.2,0.3,0.5,0.3,0.9c0,0.3-0.1,0.6-0.2,0.8c-0.1,0.2-0.3,0.4-0.5,0.6c-0.2,0.2-0.4,0.3-0.7,0.4c-0.3,0.1-0.5,0.1-0.8,0.1
		c-0.5,0-1-0.1-1.4-0.3c-0.4-0.2-0.8-0.5-1-0.9L-479.4,166.6z"/>
	<path class="st4" d="M-473.9,159.7c0-0.2,0.1-0.3,0.2-0.4c0.1-0.1,0.3-0.2,0.4-0.2c0.2,0,0.3,0.1,0.4,0.2c0.1,0.1,0.2,0.3,0.2,0.4
		s-0.1,0.3-0.2,0.4c-0.1,0.1-0.3,0.2-0.4,0.2c-0.2,0-0.3-0.1-0.4-0.2C-473.9,160-473.9,159.9-473.9,159.7z M-473.7,162.1h0.8v6h-0.8
		V162.1z"/>
	<path class="st4" d="M-464.7,167.7c0,0.7-0.1,1.4-0.3,1.8c-0.2,0.5-0.5,0.8-0.8,1.1c-0.3,0.3-0.7,0.4-1.1,0.5
		c-0.4,0.1-0.7,0.1-1,0.1c-0.3,0-0.6,0-0.9-0.1c-0.3-0.1-0.6-0.1-0.8-0.2c-0.3-0.1-0.5-0.2-0.7-0.4c-0.2-0.2-0.4-0.3-0.6-0.5
		l0.6-0.6c0.3,0.4,0.6,0.7,1,0.9c0.4,0.2,0.9,0.3,1.3,0.3c0.4,0,0.7-0.1,1-0.2c0.3-0.1,0.5-0.2,0.7-0.4s0.3-0.4,0.4-0.6
		c0.1-0.2,0.2-0.4,0.2-0.6c0-0.2,0.1-0.4,0.1-0.6c0-0.2,0-0.3,0-0.4V167h0c-0.2,0.4-0.5,0.7-0.9,0.9c-0.4,0.2-0.8,0.3-1.4,0.3
		c-0.4,0-0.9-0.1-1.3-0.2c-0.4-0.2-0.7-0.4-1-0.7c-0.3-0.3-0.5-0.6-0.7-1c-0.2-0.4-0.3-0.8-0.3-1.2c0-0.4,0.1-0.8,0.3-1.2
		c0.2-0.4,0.4-0.7,0.7-1c0.3-0.3,0.6-0.5,1-0.7c0.4-0.2,0.8-0.2,1.3-0.2c0.5,0,1,0.1,1.4,0.3c0.4,0.2,0.7,0.5,0.9,0.9h0v-1h0.8
		V167.7z M-465.4,165c0-0.3-0.1-0.6-0.2-0.9c-0.1-0.3-0.3-0.5-0.5-0.8c-0.2-0.2-0.5-0.4-0.8-0.5c-0.3-0.1-0.6-0.2-0.9-0.2
		c-0.3,0-0.6,0.1-0.9,0.2c-0.3,0.1-0.5,0.3-0.8,0.5c-0.2,0.2-0.4,0.5-0.5,0.8c-0.1,0.3-0.2,0.6-0.2,0.9s0.1,0.6,0.2,0.9
		c0.1,0.3,0.3,0.5,0.5,0.8c0.2,0.2,0.5,0.4,0.8,0.5c0.3,0.1,0.6,0.2,0.9,0.2c0.3,0,0.6-0.1,0.9-0.2c0.3-0.1,0.5-0.3,0.8-0.5
		c0.2-0.2,0.4-0.5,0.5-0.8C-465.5,165.7-465.4,165.4-465.4,165z"/>
	<path class="st4" d="M-462.7,163.8c0-0.1,0-0.3,0-0.4c0-0.2,0-0.3,0-0.5c0-0.2,0-0.3,0-0.5c0-0.1,0-0.3,0-0.3h0.8
		c0,0.2,0,0.4,0,0.7c0,0.2,0,0.3,0,0.4h0c0.2-0.3,0.4-0.6,0.8-0.9c0.4-0.2,0.8-0.4,1.3-0.4c0.5,0,0.9,0.1,1.2,0.2
		c0.3,0.2,0.5,0.3,0.7,0.6c0.2,0.2,0.3,0.5,0.4,0.8c0.1,0.3,0.1,0.6,0.1,1v3.6h-0.8v-3.6c0-0.2,0-0.5-0.1-0.7c0-0.2-0.1-0.4-0.2-0.6
		c-0.1-0.2-0.3-0.3-0.5-0.4c-0.2-0.1-0.5-0.2-0.8-0.2c-0.3,0-0.6,0.1-0.8,0.2c-0.3,0.1-0.5,0.3-0.7,0.5c-0.2,0.2-0.3,0.5-0.4,0.8
		c-0.1,0.3-0.2,0.7-0.2,1.1v3h-0.8V163.8z"/>
	<path class="st4" d="M-449.8,159.7h-3.2v-0.8h7.2v0.8h-3.2v8.5h-0.9V159.7z"/>
	<path class="st4" d="M-444.5,158.2h0.8v4.9h0c0.2-0.3,0.4-0.6,0.8-0.9c0.4-0.2,0.8-0.4,1.3-0.4c0.5,0,0.9,0.1,1.2,0.2
		c0.3,0.2,0.5,0.3,0.7,0.6c0.2,0.2,0.3,0.5,0.4,0.8c0.1,0.3,0.1,0.6,0.1,1v3.6h-0.8v-3.6c0-0.2,0-0.5-0.1-0.7c0-0.2-0.1-0.4-0.2-0.6
		c-0.1-0.2-0.3-0.3-0.5-0.4c-0.2-0.1-0.5-0.2-0.8-0.2c-0.3,0-0.6,0.1-0.8,0.2c-0.3,0.1-0.5,0.3-0.7,0.5c-0.2,0.2-0.3,0.5-0.4,0.8
		c-0.1,0.3-0.2,0.7-0.2,1.1v3h-0.8V158.2z"/>
	<path class="st4" d="M-437.3,163.8c0-0.1,0-0.3,0-0.4c0-0.2,0-0.3,0-0.5c0-0.2,0-0.3,0-0.5c0-0.1,0-0.3,0-0.3h0.8
		c0,0.2,0,0.4,0,0.7c0,0.2,0,0.3,0,0.4c0.2-0.4,0.5-0.6,0.8-0.9c0.3-0.2,0.7-0.3,1.2-0.3c0.1,0,0.2,0,0.2,0c0.1,0,0.2,0,0.2,0
		l-0.1,0.8c-0.1,0-0.2-0.1-0.3-0.1c-0.3,0-0.6,0.1-0.9,0.2c-0.3,0.1-0.5,0.3-0.6,0.5c-0.2,0.2-0.3,0.4-0.4,0.7
		c-0.1,0.3-0.1,0.5-0.1,0.8v3.3h-0.8V163.8z"/>
	<path class="st4" d="M-433.5,165.1c0-0.5,0.1-0.9,0.2-1.3c0.2-0.4,0.4-0.7,0.7-1c0.3-0.3,0.6-0.5,1-0.7c0.4-0.2,0.8-0.2,1.3-0.2
		c0.5,0,0.9,0.1,1.3,0.2c0.4,0.2,0.7,0.4,1,0.7c0.3,0.3,0.5,0.6,0.7,1c0.2,0.4,0.2,0.8,0.2,1.3s-0.1,0.9-0.2,1.3s-0.4,0.7-0.7,1
		c-0.3,0.3-0.6,0.5-1,0.7c-0.4,0.2-0.8,0.2-1.3,0.2c-0.5,0-0.9-0.1-1.3-0.2c-0.4-0.2-0.7-0.4-1-0.7s-0.5-0.6-0.7-1
		C-433.4,166-433.5,165.6-433.5,165.1z M-432.7,165.1c0,0.3,0.1,0.7,0.2,1c0.1,0.3,0.3,0.6,0.5,0.8c0.2,0.2,0.5,0.4,0.8,0.5
		c0.3,0.1,0.6,0.2,1,0.2c0.4,0,0.7-0.1,1-0.2c0.3-0.1,0.6-0.3,0.8-0.5c0.2-0.2,0.4-0.5,0.5-0.8c0.1-0.3,0.2-0.6,0.2-1
		c0-0.3-0.1-0.7-0.2-1c-0.1-0.3-0.3-0.6-0.5-0.8c-0.2-0.2-0.5-0.4-0.8-0.5c-0.3-0.1-0.6-0.2-1-0.2c-0.4,0-0.7,0.1-1,0.2
		c-0.3,0.1-0.6,0.3-0.8,0.5c-0.2,0.2-0.4,0.5-0.5,0.8C-432.6,164.5-432.7,164.8-432.7,165.1z"/>
	<path class="st4" d="M-420.3,166.4c0,0.1,0,0.3,0,0.4c0,0.2,0,0.3,0,0.5c0,0.2,0,0.3,0,0.5c0,0.1,0,0.3,0,0.3h-0.8
		c0-0.2,0-0.4,0-0.7c0-0.2,0-0.3,0-0.4h0c-0.2,0.3-0.4,0.6-0.8,0.9c-0.4,0.2-0.8,0.4-1.3,0.4c-0.5,0-0.9-0.1-1.2-0.2
		c-0.3-0.2-0.5-0.3-0.7-0.6c-0.2-0.2-0.3-0.5-0.3-0.8s-0.1-0.6-0.1-1v-3.6h0.8v3.6c0,0.2,0,0.5,0.1,0.7c0,0.2,0.1,0.4,0.2,0.6
		c0.1,0.2,0.3,0.3,0.5,0.4s0.5,0.2,0.8,0.2c0.3,0,0.6-0.1,0.8-0.2c0.3-0.1,0.5-0.3,0.7-0.5c0.2-0.2,0.3-0.5,0.4-0.8
		c0.1-0.3,0.2-0.7,0.2-1.1v-3h0.8V166.4z"/>
	<path class="st4" d="M-412,167.7c0,0.7-0.1,1.4-0.3,1.8c-0.2,0.5-0.5,0.8-0.8,1.1c-0.3,0.3-0.7,0.4-1.1,0.5c-0.4,0.1-0.7,0.1-1,0.1
		c-0.3,0-0.6,0-0.9-0.1c-0.3-0.1-0.6-0.1-0.8-0.2s-0.5-0.2-0.7-0.4c-0.2-0.2-0.4-0.3-0.6-0.5l0.6-0.6c0.3,0.4,0.6,0.7,1,0.9
		c0.4,0.2,0.9,0.3,1.3,0.3c0.4,0,0.7-0.1,1-0.2c0.3-0.1,0.5-0.2,0.7-0.4c0.2-0.2,0.3-0.4,0.4-0.6c0.1-0.2,0.2-0.4,0.2-0.6
		c0.1-0.2,0.1-0.4,0.1-0.6c0-0.2,0-0.3,0-0.4V167h0c-0.2,0.4-0.5,0.7-0.9,0.9c-0.4,0.2-0.8,0.3-1.4,0.3c-0.4,0-0.9-0.1-1.3-0.2
		c-0.4-0.2-0.7-0.4-1-0.7c-0.3-0.3-0.5-0.6-0.7-1c-0.2-0.4-0.3-0.8-0.3-1.2c0-0.4,0.1-0.8,0.3-1.2c0.2-0.4,0.4-0.7,0.7-1
		c0.3-0.3,0.6-0.5,1-0.7c0.4-0.2,0.8-0.2,1.3-0.2c0.5,0,1,0.1,1.4,0.3c0.4,0.2,0.7,0.5,0.9,0.9h0v-1h0.8V167.7z M-412.8,165
		c0-0.3-0.1-0.6-0.2-0.9c-0.1-0.3-0.3-0.5-0.5-0.8c-0.2-0.2-0.5-0.4-0.8-0.5c-0.3-0.1-0.6-0.2-0.9-0.2c-0.3,0-0.6,0.1-0.9,0.2
		c-0.3,0.1-0.5,0.3-0.8,0.5c-0.2,0.2-0.4,0.5-0.5,0.8c-0.1,0.3-0.2,0.6-0.2,0.9s0.1,0.6,0.2,0.9c0.1,0.3,0.3,0.5,0.5,0.8
		c0.2,0.2,0.5,0.4,0.8,0.5c0.3,0.1,0.6,0.2,0.9,0.2c0.3,0,0.6-0.1,0.9-0.2c0.3-0.1,0.5-0.3,0.8-0.5c0.2-0.2,0.4-0.5,0.5-0.8
		C-412.8,165.7-412.8,165.4-412.8,165z"/>
	<path class="st4" d="M-410.1,158.2h0.8v4.9h0c0.2-0.3,0.4-0.6,0.8-0.9c0.4-0.2,0.8-0.4,1.3-0.4c0.5,0,0.9,0.1,1.2,0.2
		c0.3,0.2,0.5,0.3,0.7,0.6c0.2,0.2,0.3,0.5,0.4,0.8c0.1,0.3,0.1,0.6,0.1,1v3.6h-0.8v-3.6c0-0.2,0-0.5-0.1-0.7c0-0.2-0.1-0.4-0.2-0.6
		c-0.1-0.2-0.3-0.3-0.5-0.4c-0.2-0.1-0.5-0.2-0.8-0.2c-0.3,0-0.6,0.1-0.8,0.2c-0.3,0.1-0.5,0.3-0.7,0.5c-0.2,0.2-0.3,0.5-0.4,0.8
		c-0.1,0.3-0.2,0.7-0.2,1.1v3h-0.8V158.2z"/>
	<path class="st4" d="M-392.6,164.6c0,0.5-0.1,1-0.2,1.4c-0.1,0.5-0.3,0.9-0.6,1.2c-0.3,0.3-0.6,0.6-1,0.8c-0.4,0.2-1,0.3-1.6,0.3
		c-0.6,0-1.2-0.1-1.6-0.3c-0.4-0.2-0.8-0.5-1-0.8c-0.3-0.3-0.5-0.8-0.6-1.2c-0.1-0.5-0.2-0.9-0.2-1.4v-5.7h0.9v5.5
		c0,0.3,0,0.7,0.1,1.1c0.1,0.4,0.2,0.7,0.4,1c0.2,0.3,0.4,0.6,0.8,0.8s0.8,0.3,1.3,0.3c0.5,0,1-0.1,1.3-0.3s0.6-0.5,0.8-0.8
		c0.2-0.3,0.3-0.7,0.4-1c0.1-0.4,0.1-0.7,0.1-1.1v-5.5h0.9V164.6z"/>
	<path class="st4" d="M-390.5,166.6c0.2,0.3,0.4,0.6,0.7,0.7s0.7,0.3,1,0.3c0.2,0,0.3,0,0.5-0.1c0.2-0.1,0.3-0.1,0.4-0.2
		c0.1-0.1,0.2-0.2,0.3-0.3c0.1-0.1,0.1-0.3,0.1-0.5c0-0.3-0.1-0.5-0.3-0.6c-0.2-0.1-0.4-0.2-0.7-0.3c-0.3-0.1-0.6-0.1-0.9-0.2
		c-0.3-0.1-0.6-0.1-0.9-0.3c-0.3-0.1-0.5-0.3-0.7-0.5c-0.2-0.2-0.3-0.5-0.3-0.9c0-0.3,0.1-0.6,0.2-0.8c0.1-0.2,0.3-0.4,0.5-0.5
		c0.2-0.1,0.4-0.3,0.7-0.3c0.2-0.1,0.5-0.1,0.7-0.1c0.5,0,0.9,0.1,1.3,0.3c0.4,0.2,0.6,0.5,0.8,0.9l-0.7,0.4
		c-0.1-0.3-0.3-0.5-0.6-0.6c-0.2-0.1-0.5-0.2-0.9-0.2c-0.1,0-0.3,0-0.4,0.1c-0.2,0-0.3,0.1-0.4,0.2c-0.1,0.1-0.2,0.2-0.3,0.3
		c-0.1,0.1-0.1,0.3-0.1,0.4c0,0.3,0.1,0.5,0.3,0.6c0.2,0.1,0.4,0.2,0.7,0.3c0.3,0.1,0.6,0.1,0.9,0.2c0.3,0.1,0.6,0.1,0.9,0.3
		c0.3,0.1,0.5,0.3,0.7,0.5c0.2,0.2,0.3,0.5,0.3,0.9c0,0.3-0.1,0.6-0.2,0.8c-0.1,0.2-0.3,0.4-0.5,0.6c-0.2,0.2-0.4,0.3-0.7,0.4
		c-0.3,0.1-0.5,0.1-0.8,0.1c-0.5,0-1-0.1-1.4-0.3c-0.4-0.2-0.8-0.5-1-0.9L-390.5,166.6z"/>
</g>
<g>
	<g>
		<path class="st4" d="M248,145.6c-0.1-0.2-0.2-0.5-0.3-0.7c-0.2-0.5-0.5-1-0.9-1.4c-0.1-0.2-0.3-0.4-0.4-0.5
			c-0.1-0.1-0.2-0.2-0.3-0.3c-0.2-0.2-0.5-0.5-0.7-0.7c-0.2-0.1-0.4-0.3-0.6-0.4c-0.5-0.3-1-0.6-1.5-0.8c-0.2-0.1-0.5-0.2-0.7-0.2
			c-0.6-0.2-1.3-0.3-2-0.3c-0.1,0-0.2,0-0.4,0c-0.1,0-0.3,0-0.4,0c-0.7,0-1.3,0.1-2,0.3c-0.2,0.1-0.5,0.2-0.7,0.3
			c-0.5,0.2-1,0.5-1.5,0.8c-0.2,0.1-0.4,0.3-0.6,0.4c-0.2,0.2-0.5,0.4-0.7,0.6c-0.1,0.1-0.2,0.2-0.3,0.3c-0.2,0.2-0.3,0.3-0.4,0.5
			c-0.3,0.4-0.6,0.9-0.9,1.4c-0.1,0.2-0.2,0.5-0.3,0.7c-0.2,0.6-0.4,1.2-0.4,1.8c0,0.3-0.1,0.6-0.1,0.9v0.1c0,0.3,0,0.6,0.1,0.9
			c0.1,0.6,0.2,1.3,0.4,1.8c0.1,0.2,0.2,0.5,0.3,0.7c0.2,0.5,0.5,1,0.9,1.4c0.1,0.2,0.3,0.4,0.4,0.5c0.1,0.1,0.2,0.2,0.3,0.4
			c0.2,0.2,0.5,0.5,0.7,0.7c0.2,0.1,0.4,0.3,0.6,0.4c0.5,0.3,1,0.6,1.5,0.8c0.2,0.1,0.5,0.2,0.7,0.3c0.6,0.2,1.3,0.3,2,0.3
			c0.1,0,0.2,0,0.3,0h0.3c0.1,0,0.2,0,0.3,0c0.7,0,1.3-0.1,2-0.3c0.2-0.1,0.5-0.2,0.7-0.3c0.5-0.2,1-0.5,1.5-0.8
			c0.2-0.1,0.4-0.3,0.6-0.4c0.2-0.2,0.5-0.4,0.7-0.7c0.1-0.1,0.2-0.2,0.3-0.4c0.2-0.2,0.3-0.4,0.4-0.5c0.3-0.5,0.6-0.9,0.9-1.4
			c0.1-0.2,0.2-0.5,0.3-0.7c0.2-0.6,0.4-1.2,0.4-1.8c0-0.3,0.1-0.6,0.1-0.9v-0.1c0-0.3,0-0.6-0.1-0.9
			C248.4,146.8,248.2,146.2,248,145.6"/>
		<polygon class="st4" points="81.9,133.7 81.9,101.5 105.9,53.2 102.7,53.2 80.4,97.7 57.8,53.2 53.9,53.2 78.4,101.5 78.4,133.7 
					"/>
		<polygon class="st4" points="132.3,52.9 93,133.7 96.3,133.7 132.8,58.7 169.6,133.7 173.4,133.7 134,52.9 		"/>
		<polygon class="st4" points="205.3,53.2 164.8,53.2 164.8,56.3 183.4,56.3 183.4,133.7 186.9,133.7 186.9,56.3 205.3,56.3 		"/>
		<path class="st4" d="M280.1,98.6C280.1,98.6,280.1,98.6,280.1,98.6c0.4-3,0.4-6.1,0.1-9.1c0-0.1,0-0.2,0-0.3
			c0-0.2-0.1-0.5-0.1-0.7c0-0.1,0-0.2,0-0.2c0-0.1,0-0.2,0-0.3c0-0.2-0.1-0.4-0.1-0.6c0-0.2-0.1-0.4-0.1-0.6c0-0.1,0-0.2-0.1-0.4
			c0-0.1,0-0.1,0-0.2c0-0.2-0.1-0.4-0.1-0.6c0-0.1,0-0.1,0-0.2c0-0.1,0-0.2-0.1-0.3c0,0,0-0.1,0-0.1l0,0c-1.3-5.8-3.8-11.3-7.4-16
			c0,0,0,0,0,0c0,0,0,0,0,0c-1.9-2.4-4-4.6-6.4-6.6c-0.1-0.1-0.1-0.1-0.2-0.2c-0.2-0.2-0.4-0.3-0.6-0.5c0,0,0,0,0,0c0,0,0,0,0,0
			c-0.1-0.1-0.2-0.2-0.3-0.2c-0.2-0.1-0.4-0.3-0.6-0.4c-0.1-0.1-0.3-0.2-0.4-0.3c-0.1-0.1-0.2-0.2-0.4-0.3c-0.1,0-0.1-0.1-0.2-0.1
			c-0.2-0.1-0.3-0.2-0.5-0.3l-0.2-0.2c0,0-0.1,0-0.1-0.1c-0.1,0-0.1-0.1-0.2-0.1l0,0c-5-3.2-10.7-5.3-16.6-6c0,0,0,0,0,0
			c0,0,0,0,0,0c-3-0.4-6.1-0.4-9.1-0.1c-0.1,0-0.2,0-0.3,0c-0.3,0-0.5,0.1-0.8,0.1c0,0,0,0,0,0c0,0,0,0,0,0c-0.2,0-0.3,0-0.5,0.1
			c-0.2,0-0.4,0.1-0.7,0.1c-0.2,0-0.4,0.1-0.5,0.1c-0.1,0-0.3,0-0.4,0.1c-0.1,0-0.1,0-0.2,0c-0.2,0-0.4,0.1-0.6,0.1
			c-0.1,0-0.2,0-0.3,0.1c0,0-0.1,0-0.1,0c-0.1,0-0.1,0-0.2,0l0,0c-5.8,1.3-11.3,3.8-16,7.4c0,0,0,0,0,0c0,0,0,0,0,0
			c-2.4,1.9-4.6,4-6.5,6.4c-0.1,0.1-0.1,0.1-0.2,0.2c-0.2,0.2-0.3,0.4-0.5,0.6c0,0,0,0,0,0c0,0,0,0,0,0c-0.1,0.1-0.2,0.2-0.3,0.4
			c-0.1,0.2-0.3,0.4-0.4,0.5c-0.1,0.1-0.2,0.3-0.3,0.4c-0.1,0.1-0.2,0.2-0.3,0.4c0,0.1-0.1,0.1-0.1,0.2c-0.1,0.2-0.2,0.3-0.3,0.5
			c-0.1,0.1-0.1,0.2-0.2,0.2c0,0-0.1,0.1-0.1,0.1c0,0.1-0.1,0.1-0.1,0.2l0,0c-3.2,5-5.3,10.7-6,16.6c0,0,0,0,0,0c0,0,0,0,0,0
			c-0.4,3-0.4,6.1-0.1,9.1c0,0.1,0,0.2,0,0.3c0,0.3,0.1,0.5,0.1,0.8c0,0,0,0,0,0c0,0,0,0,0,0c0,0.2,0,0.3,0.1,0.5
			c0,0.2,0.1,0.4,0.1,0.7c0,0.2,0.1,0.4,0.1,0.5c0,0.1,0,0.3,0.1,0.4c0,0.1,0,0.1,0,0.2c0,0.2,0.1,0.4,0.1,0.6c0,0.1,0,0.2,0.1,0.3
			c0,0,0,0.1,0,0.1c0,0.1,0,0.1,0,0.2l0,0c1.3,5.8,3.8,11.3,7.4,16c0,0,0,0,0,0c0,0,0,0,0,0c1.9,2.4,4,4.6,6.4,6.5
			c0.1,0.1,0.1,0.1,0.2,0.2c0.2,0.2,0.4,0.3,0.6,0.5c0,0,0,0,0,0c0,0,0,0,0,0c0.1,0.1,0.2,0.2,0.4,0.3c0.2,0.1,0.4,0.3,0.5,0.4
			c0.1,0.1,0.3,0.2,0.4,0.3c0.1,0.1,0.2,0.2,0.4,0.3c0.1,0,0.1,0.1,0.2,0.1c0.2,0.1,0.3,0.2,0.5,0.3c0.1,0.1,0.2,0.1,0.2,0.2
			c0,0,0.1,0.1,0.1,0.1c0.1,0,0.1,0.1,0.2,0.1l0,0c5,3.2,10.7,5.3,16.6,6c0,0,0,0,0,0c0,0,0,0,0,0c2.7,0.3,5.5,0.4,8.2,0.2
			c0,0,0,0,0,0c0.3,0,0.6,0,0.9-0.1c0.1,0,0.2,0,0.3,0c0.2,0,0.5-0.1,0.7-0.1c0.2,0,0.4-0.1,0.6-0.1c0.2,0,0.3,0,0.5-0.1
			c0,0,0.1,0,0.1,0c0.2,0,0.3-0.1,0.5-0.1c0.2,0,0.3-0.1,0.5-0.1c0.1,0,0.1,0,0.2,0c0.2,0,0.4-0.1,0.5-0.1c0.1,0,0.2,0,0.3-0.1
			c0,0,0.1,0,0.1,0c0.1,0,0.1,0,0.2,0l0,0c5.8-1.3,11.3-3.8,16-7.4c0,0,0,0,0,0c0,0,0,0,0,0c2.4-1.9,4.6-4,6.5-6.4
			c0.1-0.1,0.1-0.1,0.2-0.2c0.2-0.2,0.3-0.4,0.5-0.6c0,0,0,0,0,0c0,0,0,0,0,0c0.1-0.1,0.2-0.2,0.3-0.4c0.1-0.2,0.3-0.4,0.4-0.5
			c0.1-0.1,0.2-0.3,0.3-0.4c0.1-0.1,0.2-0.2,0.3-0.4c0-0.1,0.1-0.1,0.1-0.2c0.1-0.2,0.2-0.3,0.3-0.5c0.1-0.1,0.1-0.2,0.2-0.2
			c0,0,0.1-0.1,0.1-0.1c0-0.1,0.1-0.1,0.1-0.2l0,0C277.3,110.1,279.4,104.5,280.1,98.6C280.1,98.6,280.1,98.6,280.1,98.6
			 M259.1,127.6c-0.9,0.5-1.7,0.9-2.6,1.3c-1.5,0.1-3.1,0.1-4.6,0c0.5-0.6,1.1-1.1,1.6-1.7c0,0,0-0.1,0.1-0.1c2,0.3,4,0.4,6,0.3
			c0,0-0.1,0.1-0.1,0.1C259.3,127.5,259.2,127.5,259.1,127.6 M229.4,130.9c-0.9-0.3-1.9-0.6-2.8-0.9c-1.1-1-2.2-2.1-3.2-3.3
			c0.8,0,1.6-0.1,2.3-0.1c0,0,0.1,0,0.1,0c1.2,1.6,2.6,3.1,4.1,4.5l-0.2,0C229.7,131,229.5,131,229.4,130.9 M206,112.3
			c-0.1-0.1-0.2-0.3-0.2-0.4c0,0,0,0,0,0c-0.4-0.7-0.7-1.4-1-2.1c-0.1-1.5-0.1-3.1,0-4.6c0.6,0.5,1.1,1.1,1.7,1.6c0,0,0.1,0,0.1,0.1
			c-0.3,2-0.4,4-0.3,6c0,0,0-0.1-0.1-0.1C206.2,112.6,206.1,112.4,206,112.3 M202.7,82.7c0.3-1,0.6-1.9,0.9-2.8
			c1-1.1,2.1-2.2,3.3-3.2c0,0.8,0.1,1.6,0.1,2.3c0,0,0,0.1,0,0.1c-1.6,1.2-3.1,2.6-4.5,4.1c0-0.1,0-0.1,0-0.2
			C202.6,82.9,202.6,82.8,202.7,82.7 M221.3,59.3c0.9-0.5,1.7-0.9,2.6-1.3c1.5-0.1,3.1-0.1,4.6,0c-0.5,0.6-1.1,1.1-1.6,1.7
			c0,0,0,0.1-0.1,0.1c-2-0.3-4-0.4-6-0.3c0.1,0,0.1-0.1,0.2-0.1C221.1,59.4,221.2,59.4,221.3,59.3 M251,56c0.9,0.3,1.9,0.6,2.8,0.9
			c1.1,1,2.2,2.1,3.2,3.3c-0.8,0-1.6,0.1-2.3,0.1c0,0-0.1,0-0.1,0c-1.2-1.6-2.6-3.1-4.1-4.5c0.1,0,0.1,0,0.2,0
			C250.7,55.9,250.8,55.9,251,56 M274.3,74.6c0.5,0.9,0.9,1.7,1.3,2.6c0.1,1.5,0.1,3.1,0,4.6c-0.6-0.5-1.1-1.1-1.7-1.6
			c0,0-0.1,0-0.1-0.1c0.3-2,0.4-4,0.3-6c0,0,0.1,0.1,0.1,0.1C274.2,74.3,274.3,74.4,274.3,74.6 M277.7,104.2
			c-0.3,0.9-0.6,1.9-0.9,2.8c-1,1.1-2.1,2.2-3.3,3.2c0-0.8-0.1-1.6-0.1-2.3c0,0,0-0.1,0-0.1c1.6-1.2,3.1-2.6,4.5-4.1
			c0,0.1,0,0.1,0,0.2C277.7,104,277.7,104.1,277.7,104.2 M211.1,105.2c0.5,1.2,1,2.3,1.6,3.4c-4.3-2.5-8.2-5.9-11.2-9.9
			c-0.1-1.1-0.2-2.1-0.3-3.2C203.9,99.3,207.3,102.5,211.1,105.2 M201.2,91.7c0-1,0.1-1.9,0.2-2.9c0.3,0.5,0.7,0.9,1.1,1.4
			c-0.4,0.4-0.8,0.8-1.1,1.2C201.3,91.6,201.3,91.7,201.2,91.7 M213.6,67c0.7-0.1,1.3-0.1,2-0.1c-0.1,2.3-0.1,4.6,0.2,6.9
			c0,0-0.1,0.1-0.1,0.1c0,0,0,0,0,0c-0.2,0.3-0.4,0.6-0.7,0.9c0,0,0,0,0,0.1c0,0,0,0,0,0c0,0-0.1,0.1-0.1,0.1
			c-0.6,0.9-1.2,1.8-1.8,2.7C212.7,74.1,212.9,70.5,213.6,67 M269.3,81.7c-0.5-1.2-1-2.3-1.6-3.4c4.3,2.5,8.2,5.9,11.2,9.9
			c0.1,1.1,0.2,2.1,0.3,3.2C276.5,87.6,273.1,84.4,269.3,81.7 M279.1,95.2c0,1-0.1,1.9-0.2,2.9c-0.3-0.5-0.7-0.9-1.1-1.4
			c0.4-0.4,0.8-0.8,1.1-1.2C279,95.3,279.1,95.2,279.1,95.2 M266.8,119.9c-0.7,0.1-1.3,0.1-2,0.1c0.1-2.3,0.1-4.6-0.2-6.9
			c0,0,0.1-0.1,0.1-0.1c0,0,0,0,0,0c0.2-0.3,0.4-0.6,0.7-0.9c0,0,0,0,0-0.1c0,0,0,0,0,0c0,0,0.1-0.1,0.1-0.1
			c0.6-0.9,1.2-1.8,1.8-2.7C267.6,112.8,267.5,116.4,266.8,119.9 M256.3,118.9c-0.1,0.1-0.3,0.2-0.5,0.3c-2.5,1.5-5.1,2.6-7.9,3.4
			c0,0,0,0,0,0c-0.8,0.2-1.6,0.4-2.4,0.5c-0.2,0-0.5,0.1-0.7,0.1c-0.2,0-0.3,0-0.5,0.1c-3.7,0.5-7.6,0.3-11.3-0.6
			c-0.1,0-0.1,0-0.2-0.1c-0.3-0.1-0.6-0.2-0.9-0.2c-0.2,0-0.4-0.1-0.5-0.2c-0.1,0-0.2-0.1-0.3-0.1c-3.3-1.1-6.4-2.7-9.2-4.8
			c-0.1,0-0.1-0.1-0.2-0.1c-0.2-0.1-0.3-0.3-0.5-0.4c-2.5-2-4.7-4.5-6.5-7.2l0-0.1c-0.1-0.2-0.2-0.3-0.3-0.5
			c-1.5-2.5-2.6-5.1-3.4-7.9c0,0,0,0,0,0c-0.2-0.8-0.4-1.6-0.5-2.4c0-0.2-0.1-0.5-0.1-0.7c0-0.2,0-0.3-0.1-0.5
			c-0.5-3.7-0.3-7.6,0.6-11.2c0-0.1,0-0.2,0.1-0.3c0.1-0.3,0.1-0.6,0.2-0.8c1-3.7,2.8-7.1,5.1-10.1c0,0,0,0,0.1-0.1
			c0.2-0.2,0.3-0.4,0.5-0.6c0-0.1,0.1-0.1,0.1-0.2c0.2-0.2,0.3-0.4,0.5-0.6c0.1-0.2,0.3-0.3,0.4-0.5c0,0,0,0,0-0.1
			c1.8-1.9,3.8-3.6,6-5.1L224,68c0.2-0.1,0.3-0.2,0.5-0.3c2.5-1.5,5.1-2.6,7.9-3.4c0,0,0,0,0,0c0.8-0.2,1.6-0.4,2.4-0.5
			c0.2,0,0.5-0.1,0.7-0.1c0.2,0,0.3,0,0.5-0.1c3.7-0.5,7.6-0.3,11.3,0.6c0.1,0,0.1,0,0.2,0.1c0.3,0.1,0.6,0.2,0.9,0.2
			c0.2,0.1,0.4,0.1,0.5,0.2c0.1,0,0.2,0.1,0.3,0.1c3.3,1.1,6.5,2.7,9.2,4.8c0,0,0.1,0.1,0.1,0.1c0.2,0.1,0.3,0.3,0.5,0.4
			c2.5,2,4.7,4.4,6.4,7.1c0,0,0.1,0.1,0.1,0.1c0.1,0.1,0.2,0.3,0.3,0.5c1.5,2.5,2.6,5.1,3.4,7.9l0,0c0.2,0.8,0.4,1.6,0.5,2.4
			c0,0.2,0.1,0.5,0.1,0.7c0,0.2,0,0.3,0.1,0.5c0.5,3.7,0.3,7.6-0.6,11.3c0,0.1,0,0.1-0.1,0.2c-0.1,0.3-0.2,0.6-0.2,0.9
			c0,0.2-0.1,0.4-0.2,0.5c0,0.1-0.1,0.2-0.1,0.3c-1.1,3.3-2.7,6.5-4.8,9.2c0,0-0.1,0.1-0.1,0.1c-0.1,0.2-0.3,0.3-0.4,0.5
			c-2,2.5-4.4,4.7-7.1,6.4C256.4,118.8,256.4,118.8,256.3,118.9 M271.3,90.1c0-0.1,0-0.1,0-0.2c0,0,0,0,0,0c0-0.1,0-0.2,0-0.3
			c0-0.1,0-0.2,0-0.3c0-0.2,0-0.3-0.1-0.5c0,0,0,0,0,0l0-0.1c0-0.1,0-0.1,0-0.2c-0.2-1.1-0.4-2.1-0.7-3.1c2.8,2.3,5.2,4.9,7.2,7.9
			c-0.4,0.5-0.9,1-1.3,1.5C274.9,93.2,273.2,91.6,271.3,90.1 M209,96.8c0,0.1,0,0.1,0,0.2c0,0,0,0,0,0.1c0,0.1,0,0.2,0,0.2
			c0,0.1,0,0.3,0.1,0.4c0,0.1,0,0.3,0.1,0.4l0,0.1c0,0.1,0,0.2,0,0.3c0,0.2,0.1,0.4,0.1,0.6c0,0,0,0,0,0c0.1,0.8,0.3,1.6,0.5,2.5
			c-2.8-2.3-5.2-4.9-7.3-7.9c0.4-0.5,0.9-1,1.3-1.5C205.5,93.7,207.2,95.3,209,96.8 M271.5,93.2c1.2,1,2.3,2.1,3.3,3.3
			c-1,1-2.1,1.9-3.3,2.8c-0.1-0.4-0.3-0.8-0.4-1.1C271.4,96.5,271.5,94.8,271.5,93.2 M276.3,98.2c0.5,0.7,1,1.4,1.5,2.1
			c-1.4,1.8-3,3.4-4.8,4.8c0-0.3-0.1-0.5-0.1-0.7c0,0,0-0.1,0-0.1l0,0c0-0.3-0.1-0.5-0.2-0.8c-0.1-0.3-0.1-0.5-0.2-0.8l-0.1-0.3
			c-0.1-0.2-0.1-0.5-0.2-0.7l0-0.1c0,0,0,0,0-0.1C273.7,100.5,275,99.4,276.3,98.2 M262.2,71.1c1.6-0.1,3.1-0.1,4.7,0
			c0,1.4-0.2,2.8-0.4,4.3c-0.4-0.2-0.8-0.4-1.1-0.5C264.4,73.5,263.3,72.3,262.2,71.1 M259.9,69.1c0,0-0.1-0.1-0.1-0.1c0,0,0,0,0,0
			c-0.3-0.2-0.6-0.4-0.9-0.7c0,0,0,0-0.1,0c0,0,0,0,0,0c0,0-0.1-0.1-0.1-0.1c-0.9-0.6-1.8-1.2-2.7-1.8c3.6-0.4,7.2-0.2,10.7,0.5
			c0.1,0.7,0.1,1.3,0.1,2C264.5,68.7,262.2,68.8,259.9,69.1 M239.9,62.1c1-1.2,2.1-2.3,3.3-3.3c1,1,1.9,2.1,2.8,3.3
			c-0.4,0.1-0.8,0.3-1.1,0.4C243.2,62.2,241.6,62.1,239.9,62.1 M245,57.4c0.7-0.5,1.4-1,2.1-1.5c1.8,1.4,3.4,3,4.8,4.8
			c-0.3,0-0.5,0.1-0.7,0.1c0,0-0.1,0-0.1,0l0,0c-0.3,0-0.5,0.1-0.8,0.2c-0.3,0.1-0.5,0.1-0.8,0.2l-0.3,0.1c-0.2,0.1-0.5,0.1-0.7,0.2
			l-0.1,0c0,0,0,0-0.1,0C247.3,60,246.2,58.6,245,57.4 M243.4,55.8c-0.4-0.4-0.8-0.8-1.3-1.1c-0.1-0.1-0.1-0.1-0.2-0.2
			c1,0,1.9,0.1,2.9,0.2C244.3,55.1,243.8,55.4,243.4,55.8 M241.6,57.2c-1.7,1.5-3.3,3.2-4.7,5.1c0,0,0,0,0,0c0,0-0.1,0-0.1,0
			c0,0,0,0,0,0c-0.1,0-0.2,0-0.3,0c-0.1,0-0.3,0-0.4,0.1c-0.1,0-0.3,0-0.4,0.1c0,0,0,0,0,0c0,0,0,0,0,0c-0.1,0-0.2,0-0.3,0
			c-0.2,0-0.4,0.1-0.6,0.1c0,0,0,0,0,0c-0.8,0.1-1.6,0.3-2.5,0.5c2.3-2.8,4.9-5.2,7.9-7.3C240.6,56.3,241.1,56.8,241.6,57.2
			 M221.6,68.2c-1.3,1-2.6,2.1-3.7,3.2c-0.1-1.6-0.1-3.1,0-4.7c1.4,0,2.8,0.2,4.3,0.4C221.9,67.6,221.7,67.9,221.6,68.2 M218.1,64.6
			c0.1-0.9,0.2-1.7,0.4-2.6c2.3-0.2,4.5-0.2,6.8,0c-0.2,0.2-0.3,0.4-0.4,0.6c0,0,0,0-0.1,0.1l0,0c-0.1,0.2-0.3,0.4-0.4,0.7
			c-0.1,0.2-0.3,0.5-0.4,0.7l-0.2,0.3c-0.1,0.2-0.2,0.4-0.4,0.6l0,0.1c0,0,0,0,0,0.1C221.5,64.8,219.8,64.6,218.1,64.6 M213.9,64.7
			c0.7-0.6,1.4-1.3,2.2-1.9c-0.1,0.6-0.2,1.2-0.2,1.7c-0.6,0-1.1,0-1.7,0.1C214,64.7,214,64.7,213.9,64.7 M208.9,93.7
			c-1.2-1-2.3-2.1-3.3-3.3c1-1,2.1-1.9,3.3-2.8c0.1,0.4,0.3,0.8,0.4,1.1C209,90.4,208.9,92,208.9,93.7 M204.1,88.7
			c-0.5-0.7-1-1.4-1.5-2.1c1.4-1.8,3-3.4,4.8-4.8c0,0.3,0.1,0.5,0.1,0.7c0,0,0,0.1,0,0.1l0,0c0,0.3,0.1,0.5,0.2,0.8
			c0.1,0.3,0.1,0.5,0.2,0.8l0.1,0.3c0.1,0.2,0.1,0.5,0.2,0.7l0,0.1c0,0,0,0,0,0.1C206.7,86.4,205.4,87.5,204.1,88.7 M218.2,115.8
			c-1.6,0.1-3.1,0.1-4.7,0c0-1.4,0.2-2.8,0.4-4.3c0.4,0.2,0.8,0.4,1.1,0.5C216,113.4,217,114.6,218.2,115.8 M220.5,117.8
			c0,0,0.1,0.1,0.1,0.1c0,0,0,0,0,0c0.3,0.2,0.6,0.4,0.9,0.7c0,0,0,0,0.1,0c0,0,0,0,0,0c0,0,0.1,0.1,0.1,0.1
			c0.9,0.6,1.8,1.2,2.7,1.8c-3.6,0.4-7.2,0.2-10.7-0.5c-0.1-0.7-0.1-1.3-0.1-2C215.9,118.2,218.2,118.1,220.5,117.8 M240.4,124.8
			c-1,1.2-2.1,2.3-3.3,3.3c-1-1-1.9-2.1-2.8-3.3c0.4-0.1,0.8-0.3,1.1-0.4C237.1,124.7,238.8,124.8,240.4,124.8 M235.4,129.5
			c-0.7,0.5-1.4,1-2.1,1.5c-1.8-1.4-3.4-3-4.8-4.8c0.3,0,0.5-0.1,0.7-0.1c0,0,0.1,0,0.1,0l0,0c0.3,0,0.5-0.1,0.8-0.2
			c0.3-0.1,0.5-0.1,0.8-0.2l0.3-0.1c0.2-0.1,0.5-0.1,0.7-0.2l0.1,0c0,0,0,0,0.1,0C233.1,126.9,234.2,128.3,235.4,129.5 M237,131.1
			c0.4,0.4,0.8,0.8,1.2,1.1c0.1,0.1,0.1,0.1,0.2,0.2c-1,0-1.9-0.1-2.9-0.2C236.1,131.8,236.6,131.5,237,131.1 M238.7,129.7
			c1.7-1.5,3.3-3.2,4.7-5.1c0,0,0,0,0,0c0,0,0.1,0,0.1,0c0,0,0,0,0.1,0c0.1,0,0.1,0,0.2,0c0.2,0,0.3,0,0.5-0.1c0.1,0,0.2,0,0.4-0.1
			c0,0,0,0,0.1,0c0.1,0,0.2,0,0.3,0c0.2,0,0.4-0.1,0.5-0.1l0.1,0c0.8-0.1,1.6-0.3,2.4-0.5c-2.3,2.8-4.9,5.2-7.9,7.3
			C239.7,130.6,239.2,130.1,238.7,129.7 M258.8,118.7c1.3-1,2.6-2.1,3.7-3.2c0.1,1.6,0.1,3.1,0,4.7c-1.4,0-2.8-0.2-4.3-0.4
			C258.5,119.3,258.6,119,258.8,118.7 M262.3,122.3c-0.1,0.9-0.2,1.7-0.4,2.6c-2.3,0.2-4.5,0.2-6.8,0c0.2-0.2,0.3-0.4,0.4-0.6
			c0,0,0,0,0.1-0.1l0,0c0.1-0.2,0.3-0.4,0.4-0.7c0.1-0.2,0.3-0.5,0.4-0.7l0.2-0.3c0.1-0.2,0.2-0.4,0.4-0.6l0-0.1c0,0,0,0,0-0.1
			C258.9,122.1,260.6,122.3,262.3,122.3 M264.6,122.3c0.6,0,1.1,0,1.7-0.1c0.1,0,0.2,0,0.2,0c-0.7,0.6-1.4,1.3-2.2,1.9
			C264.4,123.5,264.5,122.9,264.6,122.3 M269,105.7c0.5-1.2,0.9-2.3,1.3-3.5c1.3,4.8,1.6,9.9,0.9,14.9c-0.7,0.9-1.3,1.7-2.1,2.5
			C269.9,115,269.9,110.3,269,105.7 M270.4,101.6c0.2-0.9,0.5-1.9,0.6-2.8c0.1,0.2,0.1,0.4,0.2,0.6c0.2,0.8,0.5,1.5,0.7,2.3l0,0.1
			c0.1,0.2,0.1,0.5,0.2,0.7l0.1,0.3c0.1,0.3,0.1,0.5,0.2,0.8c0.1,0.3,0.1,0.5,0.2,0.8l0,0c0,0,0,0,0,0.1c0.1,0.3,0.1,0.6,0.1,0.9
			c0.1,0.8,0.2,1.7,0.3,2.6c0.1,0.8,0.1,1.7,0.1,2.5c0,1,0,2-0.1,2.9c0,0.4-0.1,0.8-0.1,1.2c-0.5,0.7-0.9,1.4-1.4,2.1
			C272.2,111.6,271.8,106.4,270.4,101.6 M267.3,77.8c-0.5-0.8-1-1.6-1.6-2.4c0.2,0.1,0.4,0.2,0.6,0.3c0.7,0.4,1.4,0.7,2.1,1.1l0.1,0
			c0.2,0.1,0.4,0.2,0.6,0.4l0.3,0.2c0.2,0.1,0.5,0.3,0.7,0.4c0.2,0.1,0.4,0.3,0.7,0.4l0,0c0,0,0,0,0.1,0c0.2,0.2,0.5,0.3,0.7,0.5
			c0.7,0.5,1.4,1,2.1,1.6c0.6,0.5,1.3,1.1,1.8,1.6c0.7,0.7,1.4,1.4,2,2.1c0.3,0.3,0.5,0.6,0.8,0.9c0.2,0.8,0.3,1.6,0.5,2.5
			C275.7,83.6,271.7,80.2,267.3,77.8 M271.7,78.5c-0.2-0.2-0.4-0.3-0.6-0.4c0,0,0,0-0.1-0.1l0,0c-0.2-0.1-0.4-0.3-0.7-0.4
			c-0.2-0.1-0.5-0.3-0.7-0.4l-0.3-0.2c-0.2-0.1-0.4-0.2-0.6-0.4l-0.1,0c0,0,0,0-0.1,0c0.3-1.7,0.5-3.4,0.5-5.2
			c0.9,0.1,1.7,0.2,2.6,0.4C271.9,74,271.9,76.3,271.7,78.5 M269.1,69.1c0-0.6,0-1.1-0.1-1.7c0-0.1,0-0.2,0-0.2
			c0.6,0.7,1.3,1.4,1.9,2.2C270.2,69.2,269.7,69.1,269.1,69.1 M252.5,64.6c-1.2-0.5-2.3-0.9-3.5-1.3c4.8-1.3,9.9-1.6,14.9-0.9
			c0.9,0.7,1.7,1.3,2.5,2.1C261.7,63.7,257,63.7,252.5,64.6 M248.3,63.2c-0.9-0.2-1.9-0.5-2.8-0.6c0.2-0.1,0.4-0.1,0.6-0.2
			c0.8-0.2,1.5-0.5,2.3-0.7l0.1,0c0.2-0.1,0.5-0.1,0.7-0.2l0.3-0.1c0.3-0.1,0.5-0.1,0.8-0.2c0.3-0.1,0.5-0.1,0.8-0.2l0,0
			c0,0,0,0,0.1,0c0.3-0.1,0.6-0.1,0.9-0.1c0.8-0.1,1.7-0.2,2.6-0.3c0.8-0.1,1.7-0.1,2.5-0.1c1,0,2,0,2.9,0.1c0.4,0,0.8,0.1,1.2,0.1
			c0.7,0.5,1.4,0.9,2.1,1.4C258.3,61.4,253.2,61.8,248.3,63.2 M228.5,64.4c-1.2,0.5-2.3,1-3.4,1.6c2.5-4.3,5.9-8.2,9.9-11.2
			c1.1-0.1,2.1-0.2,3.2-0.3C234.4,57.2,231.1,60.5,228.5,64.4 M224.5,66.3c-0.8,0.5-1.6,1-2.4,1.6c0.1-0.2,0.2-0.4,0.3-0.6
			c0.4-0.7,0.7-1.4,1.1-2.1l0-0.1c0.1-0.2,0.2-0.4,0.4-0.6l0.2-0.3c0.1-0.2,0.3-0.5,0.4-0.7c0.1-0.2,0.3-0.4,0.4-0.7l0,0
			c0,0,0,0,0-0.1c0.2-0.2,0.3-0.5,0.5-0.7c0.5-0.7,1-1.4,1.6-2.1c0.5-0.6,1.1-1.3,1.6-1.8c0.7-0.7,1.4-1.4,2.1-2
			c0.3-0.3,0.6-0.5,0.9-0.8c0.8-0.2,1.6-0.3,2.5-0.5C230.3,58,227,61.9,224.5,66.3 M211.4,81.2c-0.5,1.2-0.9,2.3-1.3,3.5
			c-1.3-4.8-1.6-9.9-0.9-14.9c0.7-0.9,1.3-1.7,2.1-2.5C210.4,71.9,210.5,76.6,211.4,81.2 M209.9,85.3c-0.2,0.9-0.5,1.9-0.6,2.8
			c-0.1-0.2-0.1-0.4-0.2-0.6c-0.3-0.8-0.5-1.5-0.7-2.3l0-0.1c-0.1-0.2-0.1-0.5-0.2-0.7l-0.1-0.3c-0.1-0.3-0.1-0.5-0.2-0.8
			c-0.1-0.3-0.1-0.5-0.2-0.8l0,0c0,0,0,0,0-0.1c-0.1-0.3-0.1-0.6-0.1-0.9c-0.1-0.8-0.2-1.7-0.3-2.6c-0.1-0.8-0.1-1.7-0.1-2.5
			c0-1,0-2,0.1-2.9c0-0.4,0.1-0.8,0.1-1.2c0.5-0.7,0.9-1.4,1.4-2.1C208.2,75.3,208.5,80.5,209.9,85.3 M213,109.1
			c0.5,0.8,1,1.6,1.6,2.4c-0.2-0.1-0.4-0.2-0.6-0.3c-0.7-0.4-1.4-0.7-2.1-1.1l-0.1,0c-0.2-0.1-0.4-0.2-0.6-0.4l-0.3-0.2
			c-0.2-0.1-0.5-0.3-0.7-0.4c-0.2-0.1-0.4-0.3-0.7-0.4l0,0c0,0,0,0-0.1,0c-0.2-0.2-0.5-0.3-0.7-0.5c-0.7-0.5-1.4-1-2.1-1.6
			c-0.6-0.5-1.3-1.1-1.8-1.6c-0.7-0.7-1.4-1.4-2-2.1c-0.3-0.3-0.5-0.6-0.8-0.9c-0.2-0.8-0.3-1.6-0.5-2.5
			C204.7,103.3,208.6,106.7,213,109.1 M208.7,108.4c0.2,0.2,0.4,0.3,0.6,0.4c0,0,0,0,0.1,0.1l0,0c0.2,0.1,0.4,0.3,0.7,0.4
			c0.2,0.1,0.5,0.3,0.7,0.4l0.3,0.2c0.2,0.1,0.4,0.2,0.6,0.4l0.1,0c0,0,0,0,0.1,0c-0.3,1.7-0.5,3.4-0.5,5.2
			c-0.9-0.1-1.7-0.2-2.6-0.4C208.5,112.9,208.5,110.6,208.7,108.4 M211.3,117.8c0,0.6,0,1.1,0.1,1.7c0,0.1,0,0.2,0,0.2
			c-0.6-0.7-1.3-1.4-1.9-2.2C210.1,117.7,210.7,117.8,211.3,117.8 M227.9,122.3c1.1,0.5,2.3,0.9,3.5,1.3c-4.8,1.3-9.9,1.6-14.9,0.9
			c-0.9-0.7-1.7-1.3-2.5-2.1C218.6,123.2,223.3,123.2,227.9,122.3 M232,123.7c0.9,0.2,1.9,0.5,2.8,0.6c-0.2,0.1-0.4,0.1-0.6,0.2
			c-0.8,0.2-1.5,0.5-2.3,0.7l-0.1,0c-0.2,0.1-0.5,0.1-0.7,0.2l-0.3,0.1c-0.3,0.1-0.5,0.1-0.8,0.2c-0.3,0.1-0.5,0.1-0.8,0.2l0,0
			c0,0,0,0-0.1,0c-0.3,0.1-0.6,0.1-0.9,0.1c-0.8,0.1-1.7,0.2-2.6,0.3c-0.8,0.1-1.7,0.1-2.5,0.1c-1,0-2,0-2.9-0.1
			c-0.4,0-0.8-0.1-1.2-0.1c-0.7-0.5-1.4-0.9-2.1-1.4C222.1,125.5,227.2,125.1,232,123.7 M251.9,122.5c1.2-0.5,2.3-1,3.4-1.6
			c-2.5,4.3-5.9,8.2-9.9,11.2c-1.1,0.1-2.1,0.2-3.2,0.3C246,129.7,249.3,126.4,251.9,122.5 M255.8,120.6c0.8-0.5,1.6-1,2.4-1.6
			c-0.1,0.2-0.2,0.4-0.3,0.6c-0.4,0.7-0.7,1.4-1.1,2.1l0,0.1c-0.1,0.2-0.2,0.4-0.4,0.6l-0.2,0.3c-0.1,0.2-0.3,0.5-0.4,0.7
			c-0.1,0.2-0.3,0.4-0.4,0.7l0,0c0,0,0,0,0,0.1c-0.2,0.2-0.3,0.5-0.5,0.7c-0.5,0.7-1,1.4-1.6,2.1c-0.5,0.6-1.1,1.3-1.6,1.8
			c-0.7,0.7-1.4,1.4-2.1,2c-0.3,0.3-0.6,0.5-0.9,0.8c-0.8,0.2-1.6,0.3-2.5,0.5C250,128.9,253.4,125,255.8,120.6"/>
	</g>
	<g>
		<path class="st4" d="M78.4,150.3c0-3.6,2.9-6.5,6.5-6.5c2.3,0,4.4,1.2,5.6,3.2l-0.5,0.3c-1-1.8-2.9-3-5.1-3c-3.3,0-5.9,2.7-5.9,6
			c0,3.3,2.7,6,5.9,6c2.1,0,3.9-1.1,5-2.8l0.5,0.3c-1.2,1.9-3.2,3-5.5,3C81.3,156.8,78.4,153.9,78.4,150.3z"/>
		<path class="st4" d="M93.6,147.3h0.5v1.9c0.6-1.2,1.8-2,3.2-2c0.2,0,0.4,0,0.5,0v0.6c-0.2,0-0.4-0.1-0.6-0.1
			c-1.8,0-3.2,1.4-3.2,3.2v5.7h-0.5V147.3z"/>
		<path class="st4" d="M98.7,151.9c0-2.7,2.1-4.8,4.8-4.8c2.7,0,4.9,2.2,4.9,4.8c0,0.1,0,0.2,0,0.2h-9.1c0.1,2.3,2.1,4.1,4.5,4.1
			c1.5,0,2.8-0.7,3.7-1.7l0.5,0.3c-0.9,1.2-2.4,2-4.1,2C101,156.8,98.7,154.6,98.7,151.9z M107.8,151.6c-0.1-2.3-1.9-4.1-4.3-4.1
			c-2.3,0-4.1,1.8-4.2,4.1H107.8z"/>
		<path class="st4" d="M110.7,151.9c0-2.7,2.1-4.8,4.8-4.8c1.9,0,3.6,1.2,4.3,2.8v-2.7h0.5v9.3h-0.5v-2.7c-0.7,1.7-2.4,2.9-4.3,2.9
			C112.9,156.8,110.7,154.6,110.7,151.9z M119.8,151.9c0-2.3-1.9-4.3-4.3-4.3c-2.3,0-4.3,1.9-4.3,4.3c0,2.4,1.9,4.3,4.3,4.3
			C117.9,156.2,119.8,154.3,119.8,151.9z"/>
		<path class="st4" d="M125.2,153.9v-6.1h-1.3v-0.5h1.3V145h0.5v2.3h2.8v0.5h-2.8v6.1c0,1.3,1,2.3,2.3,2.3c0.4,0,0.7-0.1,1.1-0.2
			l0.2,0.5c-0.4,0.2-0.8,0.3-1.3,0.3C126.6,156.8,125.2,155.5,125.2,153.9z"/>
		<path class="st4" d="M131.5,144.8c0-0.3,0.3-0.5,0.5-0.5c0.3,0,0.5,0.2,0.5,0.5c0,0.3-0.2,0.6-0.5,0.6
			C131.8,145.4,131.5,145.1,131.5,144.8z M131.8,147.3h0.5v9.3h-0.5V147.3z"/>
		<path class="st4" d="M135.3,147.3h0.6l3.5,8.4l3.5-8.4h0.6l-4,9.6h-0.1L135.3,147.3z"/>
		<path class="st4" d="M145.4,151.9c0-2.7,2.1-4.8,4.8-4.8c2.7,0,4.9,2.2,4.9,4.8c0,0.1,0,0.2,0,0.2H146c0.1,2.3,2.1,4.1,4.5,4.1
			c1.5,0,2.8-0.7,3.7-1.7l0.5,0.3c-0.9,1.2-2.4,2-4.1,2C147.7,156.8,145.4,154.6,145.4,151.9z M154.5,151.6
			c-0.1-2.3-1.9-4.1-4.3-4.1c-2.3,0-4.1,1.8-4.2,4.1H154.5z"/>
		<path class="st4" d="M158.3,142.9h0.6v13.7h-0.6V142.9z"/>
		<path class="st4" d="M166.1,156.6l-4.3-9.3h0.6l4,8.6l4-8.6h0.6l-6.3,13.6h-0.6L166.1,156.6z"/>
		<path class="st4" d="M182.1,151l-4.4-7.1h0.7l4.1,6.4l4.1-6.4h0.7l-4.4,7.1v5.6h-0.6V151z"/>
		<path class="st4" d="M187.5,151.9c0-2.7,2.2-4.8,4.8-4.8c2.7,0,4.8,2.1,4.8,4.8c0,2.7-2.2,4.8-4.8,4.8
			C189.6,156.8,187.5,154.6,187.5,151.9z M196.5,151.9c0-2.3-1.9-4.3-4.3-4.3c-2.3,0-4.3,1.9-4.3,4.3c0,2.4,1.9,4.3,4.3,4.3
			C194.6,156.2,196.5,154.3,196.5,151.9z"/>
		<path class="st4" d="M200.1,153.5v-6.2h0.5v6c0,1.6,1.3,2.9,2.8,2.9c1.9,0,3.4-1.4,3.4-3.2v-5.7h0.5v9.3h-0.5v-1.9
			c-0.6,1.2-2,2-3.5,2C201.6,156.7,200.1,155.3,200.1,153.5z"/>
		<path class="st4" d="M211.5,147.3h0.5v1.9c0.6-1.2,1.8-2,3.2-2c0.2,0,0.4,0,0.5,0v0.6c-0.2,0-0.4-0.1-0.6-0.1
			c-1.8,0-3.2,1.4-3.2,3.2v5.7h-0.5V147.3z"/>
		<path class="st4" d="M217.5,155.3l0.4-0.3c0.7,0.9,2.1,1.3,3.1,1.3c1.7,0,2.9-1,2.9-2c0-0.6-0.5-1.3-1.6-1.6l-2.9-0.9
			c-1.2-0.4-1.8-1.2-1.8-2c0-1.3,1.3-2.6,3.4-2.6c1.1,0,2.1,0.3,3,1l-0.3,0.4c-0.7-0.6-1.6-0.9-2.6-0.9c-1.8,0-2.9,1.1-2.9,2.1
			c0,0.6,0.4,1.2,1.3,1.5l2.9,0.9c1.4,0.4,2,1.2,2,2c0,1.3-1.4,2.6-3.3,2.6C219.9,156.8,218.4,156.4,217.5,155.3z"/>
	</g>
</g>
</svg>
