<svg width="207" height="266" viewBox="0 0 207 266" fill="none" xmlns="http://www.w3.org/2000/svg">
<g clip-path="url(#clip0_3006_19546)">
<path d="M103.39 223.91C103.7 223.91 104.01 223.91 104.31 223.93C105.95 224 107.57 224.25 109.11 224.68C109.74 224.86 110.33 225.06 110.87 225.28C112.15 225.8 113.37 226.44 114.49 227.2C114.97 227.52 115.42 227.86 115.85 228.22C116.43 228.68 117.03 229.22 117.62 229.8C117.88 230.07 118.14 230.34 118.4 230.63C118.79 231.05 119.15 231.48 119.49 231.92C120.32 232.99 121.04 234.14 121.63 235.33C121.88 235.85 122.12 236.41 122.34 236.97C122.87 238.44 123.22 239.91 123.4 241.46C123.49 242.2 123.53 242.94 123.54 243.7V244.02C123.54 244.76 123.49 245.52 123.41 246.27C123.23 247.84 122.89 249.31 122.36 250.77C122.16 251.31 121.93 251.87 121.66 252.43C121.11 253.59 120.4 254.75 119.55 255.87C119.23 256.29 118.87 256.74 118.48 257.19C118.23 257.48 117.96 257.76 117.69 258.05C117.16 258.6 116.6 259.12 115.97 259.65C115.55 260.01 115.1 260.36 114.63 260.68C113.47 261.49 112.28 262.15 111.08 262.65C110.55 262.88 109.98 263.08 109.34 263.27C107.84 263.72 106.24 263.99 104.59 264.05C104.31 264.06 104.02 264.07 103.74 264.07H102.91C102.64 264.07 102.38 264.07 102.11 264.05C100.47 263.99 98.88 263.73 97.37 263.26C96.82 263.1 96.25 262.9 95.65 262.65C94.43 262.13 93.24 261.46 92.12 260.67C91.63 260.31 91.17 259.95 90.77 259.63C90.21 259.15 89.63 258.61 89.06 258.03C88.76 257.73 88.5 257.44 88.26 257.16C87.91 256.77 87.57 256.35 87.19 255.85C86.35 254.73 85.64 253.57 85.07 252.39C84.83 251.91 84.6 251.38 84.37 250.75C83.84 249.34 83.49 247.83 83.32 246.27C83.23 245.55 83.19 244.79 83.18 244.04V243.72C83.18 242.94 83.24 242.19 83.33 241.47C83.51 239.93 83.87 238.43 84.4 237.02C84.62 236.44 84.86 235.88 85.12 235.37C85.68 234.22 86.41 233.08 87.26 231.98C87.62 231.52 87.98 231.1 88.36 230.69C88.61 230.42 88.87 230.14 89.15 229.86C89.78 229.23 90.35 228.71 90.9 228.28C91.27 227.99 91.76 227.6 92.28 227.25C93.39 226.49 94.6 225.85 95.88 225.33C96.42 225.11 97.01 224.91 97.65 224.73C99.14 224.29 100.75 224.02 102.43 223.95C102.76 223.93 103.09 223.92 103.42 223.92M103.42 222.92C103.07 222.92 102.71 222.92 102.37 222.95C100.62 223.03 98.95 223.3 97.36 223.77C96.73 223.95 96.1 224.16 95.5 224.4C94.18 224.93 92.91 225.61 91.71 226.43C91.22 226.76 90.75 227.12 90.27 227.5C89.64 228 89.03 228.56 88.43 229.16C88.15 229.44 87.88 229.73 87.61 230.01C87.2 230.45 86.82 230.9 86.46 231.36C85.57 232.5 84.82 233.69 84.21 234.93C83.93 235.5 83.68 236.08 83.45 236.67C82.89 238.16 82.51 239.72 82.33 241.36C82.23 242.12 82.18 242.91 82.18 243.71V244.04C82.18 244.84 82.24 245.63 82.33 246.39C82.51 248.03 82.88 249.6 83.44 251.11C83.66 251.69 83.9 252.28 84.18 252.85C84.78 254.11 85.53 255.31 86.4 256.46C86.75 256.92 87.12 257.38 87.52 257.83C87.78 258.14 88.06 258.43 88.35 258.73C88.93 259.32 89.52 259.88 90.13 260.39C90.59 260.76 91.07 261.13 91.54 261.48C92.73 262.33 93.98 263.03 95.27 263.57C95.87 263.82 96.48 264.04 97.11 264.22C98.7 264.71 100.36 264.99 102.1 265.05C102.38 265.06 102.65 265.07 102.94 265.07H103.77C104.07 265.07 104.37 265.07 104.66 265.05C106.41 264.98 108.07 264.7 109.65 264.22C110.27 264.03 110.89 263.82 111.49 263.56C112.79 263.03 114.04 262.33 115.23 261.49C115.7 261.16 116.18 260.79 116.64 260.4C117.25 259.89 117.85 259.34 118.43 258.74C118.71 258.44 119 258.14 119.26 257.84C119.66 257.39 120.03 256.93 120.38 256.47C121.25 255.31 122 254.11 122.59 252.86C122.86 252.29 123.11 251.7 123.33 251.11C123.88 249.6 124.25 248.04 124.43 246.39C124.51 245.63 124.56 244.84 124.57 244.04V243.71C124.57 242.9 124.51 242.12 124.42 241.35C124.23 239.7 123.86 238.14 123.31 236.63C123.09 236.05 122.84 235.46 122.56 234.9C121.95 233.65 121.2 232.45 120.31 231.31C119.96 230.85 119.57 230.4 119.17 229.96C118.92 229.68 118.65 229.39 118.37 229.11C117.77 228.51 117.14 227.95 116.5 227.45C116.04 227.06 115.56 226.71 115.07 226.38C113.86 225.56 112.59 224.9 111.27 224.36C110.67 224.12 110.04 223.91 109.4 223.73C107.8 223.28 106.12 223.01 104.37 222.94C104.06 222.93 103.74 222.92 103.41 222.92H103.42Z" fill="black"/>
<path d="M103.52 1.5C107.8 1.5 112.11 1.77 116.31 2.31L116.79 2.37C131.65 4.33 145.59 9.44 158.21 17.56L158.27 17.6L158.3 17.62L158.33 17.64C158.48 17.72 158.61 17.82 158.75 17.91L158.81 17.95C158.89 18 158.96 18.05 159.02 18.09L159.62 18.49L160.08 18.8C160.33 18.96 160.57 19.13 160.82 19.3C160.9 19.35 160.97 19.4 161.05 19.46C161.14 19.52 161.23 19.59 161.31 19.64C161.46 19.74 161.61 19.85 161.76 19.96C161.92 20.07 162.07 20.18 162.22 20.28L162.6 20.55C162.84 20.72 163.08 20.89 163.32 21.07C163.73 21.36 164.12 21.67 164.52 21.97L164.79 22.18C165.06 22.38 165.33 22.57 165.59 22.78L165.69 22.88L165.76 22.91L166.23 23.28C166.59 23.56 166.95 23.84 167.3 24.13L167.54 24.33L167.77 24.52C173.69 29.35 179.07 34.85 183.75 40.86V40.93L183.99 41.18L184.11 41.33C193.3 53.29 199.59 66.83 202.79 81.55L202.82 81.77V81.82L202.84 81.85L203 82.6L203.05 82.85L203.09 83.06L203.19 83.56C203.26 83.92 203.33 84.28 203.4 84.61C203.43 84.8 203.46 84.97 203.49 85.14L203.65 86.02V86.06C203.7 86.34 203.75 86.61 203.79 86.89C203.83 87.15 203.88 87.41 203.92 87.68C204 88.21 204.08 88.74 204.15 89.29V89.38C204.2 89.61 204.23 89.83 204.26 90.04C204.28 90.25 204.31 90.46 204.34 90.65C204.42 91.28 204.49 91.9 204.55 92.57C204.58 92.78 204.6 93 204.62 93.23C205.39 100.92 205.3 108.66 204.35 116.23L204.33 116.4C202.43 131.22 197.16 145.69 189.08 158.27L189.06 158.3L189.04 158.33V158.36L188.94 158.48C188.87 158.58 188.8 158.68 188.77 158.74L188.69 158.86C188.64 158.93 188.59 159 188.54 159.08C188.42 159.28 188.29 159.47 188.15 159.68C187.89 160.08 187.63 160.47 187.36 160.86L187.04 161.32C186.9 161.51 186.77 161.7 186.64 161.89L186.35 162.3C186.1 162.66 185.84 163.02 185.58 163.38C185.25 163.83 184.91 164.28 184.56 164.73L184.21 165.2L183.89 165.63C183.89 165.63 183.84 165.7 183.81 165.73L183.75 165.8V165.82C183.34 166.32 182.95 166.82 182.55 167.32C182.4 167.51 182.25 167.69 182.12 167.86C177.21 173.87 171.64 179.3 165.58 183.99L165.4 184.13C153.6 193.22 139.68 199.69 125.15 202.85H125.08L125.05 202.87H125.02C124.93 202.9 124.85 202.92 124.76 202.93L124.58 202.97L124.48 202.99C124.42 203 124.36 203.01 124.32 203.02C124.03 203.08 123.74 203.14 123.42 203.2C122.98 203.3 122.54 203.38 122.09 203.47L121.84 203.52L121.58 203.57L120.28 203.79L120.11 203.82C119.77 203.88 119.44 203.93 119.08 203.98C119.02 203.98 118.97 204 118.92 204.01C118.89 204.01 118.86 204.02 118.81 204.03C118.54 204.07 118.27 204.11 118 204.14L117.62 204.19C117.09 204.27 116.55 204.34 116.01 204.41C115.62 204.46 115.23 204.51 114.84 204.55L114.23 204.62C114.08 204.64 113.92 204.65 113.77 204.67L113.38 204.71C112.65 204.78 111.92 204.84 111.17 204.91H111.12C108.45 205.12 105.75 205.22 103.1 205.22C98.82 205.22 94.52 204.95 90.32 204.41L90.02 204.37H90.01C75.3 202.45 60.91 197.19 48.38 189.14L48.35 189.12L47.93 188.84L47.89 188.81L47.85 188.79C47.78 188.75 47.72 188.71 47.62 188.64L47.5 188.56C47.34 188.46 47.18 188.35 47 188.23C46.73 188.05 46.47 187.87 46.2 187.7L45.78 187.42C45.64 187.33 45.5 187.23 45.37 187.13L45.34 187.11L45.31 187.09C45 186.88 44.69 186.66 44.38 186.44L44.29 186.38C43.96 186.15 43.63 185.91 43.28 185.65C42.82 185.32 42.38 184.99 41.93 184.65L41.65 184.44C41.43 184.28 41.21 184.11 40.99 183.94L40.91 183.88H40.89C40.89 183.88 40.86 183.84 40.84 183.83C40.33 183.43 39.83 183.04 39.31 182.61C39.13 182.47 38.96 182.33 38.79 182.19C32.78 177.27 27.35 171.7 22.65 165.63L22.56 165.52C13.45 153.71 6.97 139.77 3.8 125.2V125.16L3.78 125.12V125.09L3.75 124.97C3.73 124.86 3.71 124.75 3.68 124.64C3.66 124.52 3.64 124.42 3.61 124.3C3.58 124.14 3.55 123.97 3.51 123.81L3.46 123.55C3.36 123.08 3.27 122.61 3.19 122.14L3.15 121.95L3.08 121.59L2.99 121.08C2.95 120.87 2.92 120.66 2.88 120.44C2.8 120 2.73 119.56 2.66 119.11C2.57 118.56 2.5 118.01 2.42 117.44L2.25 116.27V116.23C2.25 116.23 2.24 116.15 2.23 116.09C2.16 115.46 2.08 114.83 2.01 114.18V114.1C1.98 113.9 1.95 113.71 1.94 113.5C1.17 105.79 1.27 98.02 2.24 90.38V90.26C4.17 75.45 9.44 60.99 17.51 48.45L17.55 48.39L17.57 48.34C17.64 48.23 17.72 48.12 17.8 48.01L17.82 47.98L17.84 47.95C17.89 47.86 17.95 47.76 18.01 47.67L18.42 47.05L18.54 46.87C18.77 46.53 18.99 46.19 19.22 45.85L19.56 45.37C19.77 45.06 19.98 44.76 20.2 44.45L20.5 44.03C20.67 43.8 20.83 43.57 21.01 43.33C21.34 42.87 21.67 42.43 22.01 41.98C22.24 41.67 22.48 41.37 22.73 41.05L22.79 40.97L22.97 40.73C23.12 40.54 23.26 40.36 23.41 40.17C23.62 39.91 23.82 39.65 24 39.42L24.23 39.14L24.46 38.86C29.36 32.85 34.93 27.42 41.01 22.73L41.05 22.7C53.02 13.43 66.61 7.1 81.42 3.87L81.49 3.85L81.96 3.75C82.1 3.73 82.25 3.69 82.34 3.67L82.61 3.62L83.08 3.53C83.54 3.44 84 3.34 84.47 3.26L85.04 3.16C85.23 3.13 85.41 3.1 85.59 3.07C85.78 3.04 85.98 3.01 86.16 2.97L86.44 2.92C86.78 2.86 87.13 2.8 87.5 2.75C88.05 2.66 88.6 2.58 89.14 2.51C89.34 2.48 89.54 2.46 89.74 2.43C89.93 2.4 90.12 2.38 90.31 2.35H90.37L90.38 2.34H90.39H90.47C91.11 2.25 91.75 2.18 92.42 2.11L92.75 2.07C92.87 2.06 92.99 2.04 93.09 2.03C96.53 1.69 100 1.51 103.42 1.51M91.78 3.43L91.87 3.36L88.07 3.93C85.91 4.25 83.76 4.65 81.67 5.11L81.43 5.16L81.24 5.32C80.27 6.13 79.54 6.76 78.88 7.36C77.21 8.82 75.57 10.38 74 12L73.42 11.96C71.22 11.8 68.96 11.71 66.71 11.71C65 11.71 63.26 11.76 61.54 11.85H61.35L61.18 11.94C58.89 12.99 56.64 14.13 54.5 15.31C54.25 15.45 54 15.59 53.77 15.72C53.69 15.76 53.61 15.81 53.54 15.85C53.46 15.9 53.38 15.94 53.3 15.98L49.43 18L53.79 17.87C54.77 17.84 55.76 17.83 56.74 17.83C60.58 17.83 64.44 18.06 68.21 18.5C67.29 19.63 66.39 20.79 65.54 21.95L65.16 21.92C62.35 21.67 59.52 21.55 56.74 21.55C53.71 21.55 50.67 21.7 47.69 21.99L46.95 22.06L46.81 22.79C46.36 25.03 46 27.28 45.72 29.46L45.58 30.56L46.68 30.59C50.87 30.7 55.08 31.1 59.18 31.76C58.55 32.87 57.93 34.04 57.31 35.24L57.17 35.22C53.46 34.68 49.76 34.38 46.19 34.31L45.23 34.29L45.17 35.24C44.92 39.16 44.93 43.23 45.2 47.33L45.35 49.56L46.91 47.97C49.84 44.99 52.99 42.24 56.29 39.8L56.5 39.64L56.52 39.59L57.64 38.8C59.58 37.43 61.59 36.14 63.78 34.87L64.02 34.73L65.17 34.09C67.85 32.61 70.73 31.24 73.71 30.04L73.99 29.93L74.16 29.68C80.77 19.91 89.01 11.52 98.65 4.74L101.5 2.74L98.02 2.92C95.94 3.03 93.84 3.21 91.76 3.44M111.25 8.48L111.93 7.94C113.07 7.04 114.24 6.17 115.5 5.27L117.62 3.76L115.03 3.46C112.56 3.18 110.09 2.98 107.67 2.88L104.82 2.76L106.97 4.64L107.22 4.86L107.46 5.06C108.64 6.07 109.67 6.99 110.61 7.89L111.24 8.49M138.43 18.61C136.89 18.77 135.45 18.95 134.1 19.16L133.85 18.87C130.05 14.34 125.88 10.2 121.44 6.56L120.86 6.09L120.24 6.51C118.31 7.81 116.47 9.14 114.77 10.45L113.9 11.13L114.66 11.93C117.54 14.96 120.23 18.21 122.67 21.6C121.39 21.96 120.12 22.34 118.89 22.74L118.8 22.62C116.5 19.56 114.18 16.81 111.68 14.21L111.02 13.52L110.3 14.15C107.3 16.79 104.43 19.67 101.77 22.73L100.31 24.41L102.54 24.39C102.8 24.39 103.06 24.39 103.32 24.39C107.21 24.39 111.12 24.68 114.94 25.25L115.2 25.29H115.22L116.59 25.51C118.91 25.9 121.3 26.42 123.7 27.07L123.97 27.14H124L125.25 27.49C128.27 28.36 131.26 29.43 134.14 30.67L134.42 30.79L134.72 30.73C140.76 29.57 146.93 28.97 153.08 28.97C158.64 28.97 164.22 29.45 169.68 30.41L173.1 31.01L170.52 28.68C168.99 27.3 167.39 25.95 165.73 24.63H165.84L164.05 23.32L163.89 23.19L162.76 22.35C161.09 21.12 159.29 19.87 157.41 18.66L157.2 18.52L156.95 18.5H156.77C155.79 18.41 154.83 18.33 153.85 18.27C152.02 18.16 150.12 18.1 148.2 18.1C147.84 18.1 147.48 18.1 147.12 18.1L146.73 17.65C144.19 14.71 141.4 11.86 138.42 9.18L138.28 9.05L138.1 8.98C135.84 8.14 133.44 7.35 130.96 6.63L130.51 6.51C130.35 6.47 130.19 6.42 130.07 6.39C129.94 6.35 129.79 6.31 129.65 6.28H129.6L125.86 5.33L128.67 7.96C132.18 11.25 135.46 14.82 138.42 18.59M80.04 27.72L82.99 26.95C84.97 26.43 87.03 25.98 89.11 25.6C89.15 25.6 89.21 25.59 89.27 25.58C89.76 25.49 90.26 25.41 90.75 25.33C90.97 25.3 91.19 25.26 91.42 25.23H91.47H91.51H91.59C91.86 25.18 92.13 25.14 92.39 25.1L92.59 25.07C92.97 25.03 93.35 24.98 93.7 24.93C93.82 24.92 93.94 24.9 94.06 24.89C94.16 24.88 94.25 24.86 94.35 24.86H94.41H94.46L94.55 24.84C94.55 24.84 94.65 24.83 94.7 24.82H94.77H95.26L95.56 24.44C99.2 19.77 103.24 15.46 107.56 11.62L108.39 10.89L107.58 10.14C106.29 8.95 104.97 7.8 103.65 6.72L103.08 6.25L102.46 6.66C94.76 11.81 87.87 18.11 81.98 25.38L80.06 27.75M33.12 31.2L36.11 30.9C36.31 30.88 36.5 30.86 36.72 30.85C38.12 30.74 39.54 30.66 40.96 30.62L41.82 30.59L41.92 29.73C42.1 28.18 42.31 26.74 42.55 25.33L42.99 22.76L40.94 24.37C39.09 25.83 37.2 27.44 35.33 29.16L33.12 31.19M83.18 28.09C83.18 28.09 83.13 28.1 83.12 28.11H83.09L83.06 28.12C75.84 30.05 68.96 32.99 62.6 36.87L62.36 37.02C62.05 37.21 61.74 37.4 61.43 37.6L61.08 37.82C55.38 41.49 50.17 45.91 45.56 50.97C45.54 50.99 45.52 51.01 45.47 51.07C45.18 51.39 44.88 51.72 44.6 52.05L44.32 52.37L43.91 52.86C43.63 53.19 43.36 53.51 43.08 53.85L42.74 54.27C42.31 54.79 41.9 55.31 41.49 55.85C41.43 55.92 41.38 55.99 41.34 56.06C35.38 63.88 30.98 72.64 28.27 82.13C28.08 82.84 27.88 83.56 27.69 84.27L27.58 84.7L27.5 85.03C25.21 94.59 24.72 104.36 26.07 114.09L26.14 114.59C26.18 114.83 26.21 115.06 26.25 115.29C26.34 115.89 26.45 116.49 26.55 117.09C26.96 119.36 27.42 121.42 27.94 123.4C27.94 123.43 27.95 123.46 27.96 123.46V123.49L27.97 123.52C29.91 130.71 32.84 137.58 36.7 143.93C36.97 144.37 37.24 144.8 37.51 145.21L37.64 145.43C42.18 152.49 47.8 158.74 54.33 164.01L54.54 164.18C54.89 164.46 55.23 164.73 55.58 165C55.71 165.11 55.86 165.22 55.99 165.32C63.17 170.79 71.19 174.95 79.82 177.68L79.93 177.72C80.12 177.78 80.33 177.85 80.49 177.9C80.81 178 81.12 178.09 81.44 178.18L81.86 178.3L82.1 178.37C82.81 178.57 83.53 178.77 84.23 178.94L84.3 178.96C84.48 179.01 84.66 179.06 84.85 179.09C90.84 180.54 97.02 181.27 103.2 181.27C106.78 181.27 110.39 181.02 113.92 180.53C114.32 180.48 114.74 180.42 115.14 180.35C115.74 180.25 116.33 180.15 116.93 180.05C119.1 179.66 121.22 179.19 123.24 178.65C123.3 178.64 123.35 178.62 123.41 178.6C130.6 176.67 137.47 173.73 143.81 169.87C144.25 169.61 144.64 169.36 144.98 169.13C145.11 169.06 145.24 168.98 145.36 168.89C152.36 164.38 158.58 158.8 163.83 152.3C164.19 151.86 164.54 151.42 164.89 150.96C164.97 150.86 165.06 150.74 165.16 150.62C170.64 143.41 174.8 135.38 177.53 126.75C177.56 126.64 177.6 126.54 177.63 126.44C177.67 126.33 177.71 126.21 177.75 126.08C177.88 125.63 178.02 125.17 178.14 124.72C178.32 124.07 178.56 123.21 178.78 122.34L178.84 122.11C178.87 122 178.9 121.88 178.93 121.76C181.23 112.23 181.71 102.44 180.37 92.66C180.31 92.25 180.25 91.84 180.19 91.45C180.1 90.85 179.99 90.26 179.89 89.66C179.5 87.48 179.03 85.35 178.49 83.33L178.46 83.23C176.54 76.03 173.59 69.15 169.71 62.79C169.47 62.38 169.22 61.99 168.99 61.64C168.91 61.5 168.82 61.37 168.75 61.27C164.23 54.26 158.64 48.04 152.14 42.78C151.71 42.43 151.27 42.08 150.82 41.73C150.69 41.63 150.56 41.53 150.47 41.47C143.29 35.99 135.26 31.83 126.6 29.09C126.51 29.06 126.43 29.03 126.34 29C126.2 28.95 126.06 28.91 125.93 28.87C125.47 28.74 125.02 28.6 124.57 28.48C123.79 28.26 122.99 28.03 122.19 27.84L122.12 27.82C121.94 27.77 121.77 27.73 121.6 27.7C115.6 26.25 109.43 25.52 103.24 25.52C99.66 25.52 96.05 25.77 92.51 26.26C92.09 26.32 91.68 26.37 91.29 26.44C90.69 26.53 90.09 26.63 89.5 26.74C87.35 27.12 85.22 27.59 83.19 28.13M150.03 39.75C150.09 39.8 150.13 39.83 150.15 39.84C150.21 39.89 150.27 39.93 150.33 39.97C151.04 40.5 151.76 41.07 152.46 41.62L152.54 41.68H152.56L152.57 41.7C152.67 41.78 152.77 41.86 152.86 41.94L153.2 42.23L153.64 42.18C157.62 41.69 161.65 41.44 165.61 41.44C167.47 41.44 169.35 41.49 171.19 41.6L172.29 41.66L172.25 40.56C172.18 38.8 172.06 37.06 171.89 35.37L171.82 34.63L171.09 34.49C165.22 33.32 159.19 32.73 153.15 32.73C149.91 32.73 146.62 32.9 143.37 33.24L140.35 33.56L142.97 35.1C145.39 36.52 147.68 38.03 149.82 39.6L149.95 39.7L150.03 39.76M183.85 43.17L182.23 41.13C180.7 39.2 179.08 37.31 177.43 35.52L175.42 33.34L175.7 36.3V36.37C175.72 36.55 175.74 36.72 175.75 36.91C175.85 38.25 175.93 39.68 175.98 41.15L176.01 42.01L176.86 42.11C178.28 42.27 179.76 42.49 181.27 42.74L183.84 43.17M24.47 40.86L24.49 40.74L22.21 43.83C20.91 45.59 19.67 47.39 18.52 49.19L18.39 49.4L18.37 49.65C18.29 50.68 18.2 51.72 18.14 52.75C18 54.93 17.95 57.2 17.97 59.49L17.53 59.87C14.56 62.42 11.71 65.22 9.06 68.2L8.94 68.34L8.87 68.51C7.97 70.91 7.16 73.37 6.47 75.8C6.4 76.01 6.34 76.22 6.28 76.43L6.23 76.59L6.18 76.79L6.12 77.02L5.19 80.75L7.82 77.95C11.1 74.45 14.68 71.17 18.46 68.19C18.61 69.66 18.79 71.11 19.01 72.53L18.72 72.78C14.16 76.6 10.02 80.78 6.42 85.19L5.95 85.76L6.36 86.38C7.58 88.21 8.91 90.05 10.31 91.85L10.99 92.72L11.79 91.96C14.79 89.11 18.03 86.42 21.45 83.94C21.8 85.21 22.18 86.47 22.59 87.73L22.48 87.81C19.47 90.06 16.64 92.45 14.06 94.93L13.37 95.59L14 96.31C16.6 99.28 19.49 102.15 22.58 104.84L24.26 106.31L24.24 104.08C24.2 99.92 24.49 95.74 25.1 91.66L25.14 91.4V91.37L25.36 90.01C25.77 87.63 26.29 85.23 26.92 82.89L26.99 82.62V82.6L27.34 81.36C28.22 78.33 29.29 75.34 30.52 72.47L30.64 72.19L30.58 71.89C28.34 60.29 28.23 48.53 30.26 36.94L30.86 33.51L28.53 36.1C27.13 37.66 25.77 39.27 24.48 40.89M33.4 66.34L34.93 63.7C36.24 61.44 37.74 59.16 39.38 56.9C39.43 56.83 39.48 56.77 39.53 56.7L39.59 56.62L39.65 56.54V56.51L39.77 56.36C40.38 55.54 40.93 54.83 41.43 54.21L41.47 54.16L41.5 54.12C41.5 54.12 41.53 54.08 41.54 54.06L41.64 53.94L41.78 53.77L42.05 53.44L42 53.02C41.27 47.17 41.08 41.27 41.42 35.48L41.49 34.38L40.39 34.42C38.67 34.49 36.92 34.61 35.19 34.78L34.45 34.85L34.31 35.58C32.5 44.71 32.09 54.04 33.08 63.3L33.4 66.34ZM166.98 56.72L167.78 57.85C169.17 59.81 170.49 61.87 171.71 63.99L171.85 64.23H171.87L172.49 65.38C173.98 68.1 175.34 70.97 176.53 73.92L176.64 74.2L176.89 74.37C186.69 81 195.08 89.24 201.83 98.87L203.83 101.72L203.65 98.24C203.54 96.14 203.36 94.04 203.12 91.97L203.2 92.07L202.63 88.28C202.32 86.21 201.93 84.11 201.45 81.88L201.4 81.64L201.24 81.45C200.61 80.7 199.92 79.89 199.21 79.08C197.81 77.49 196.25 75.85 194.57 74.21L194.61 73.62C194.89 69.72 194.93 65.73 194.71 61.74V61.55L194.62 61.38C193.65 59.25 192.52 57 191.25 54.67L191.08 54.36C190.98 54.18 190.88 54.01 190.78 53.83C190.72 53.71 190.66 53.61 190.59 53.49L190.56 53.44L188.58 50.01L188.7 53.97C188.84 58.84 188.63 63.69 188.08 68.4C186.96 67.49 185.8 66.59 184.63 65.72L184.66 65.34C185.18 59.42 185.16 53.55 184.59 47.87L184.52 47.13L183.79 46.99C181.62 46.56 179.38 46.19 177.13 45.91L176.03 45.77L176 46.87C175.89 51.07 175.49 55.27 174.83 59.37C173.69 58.73 172.53 58.1 171.35 57.5L171.37 57.36C171.9 53.71 172.21 50.01 172.29 46.37L172.31 45.41L171.35 45.35C169.44 45.23 167.5 45.17 165.58 45.17C163.48 45.17 161.35 45.24 159.25 45.39L157.02 45.54L158.61 47.1C161.55 49.98 164.3 53.14 166.78 56.48L166.93 56.69H166.96M181.34 91.69V91.78C181.41 92.16 181.47 92.55 181.52 92.94L181.56 93.25C181.58 93.43 181.61 93.6 181.63 93.82L181.72 94.48V94.56C181.72 94.56 181.74 94.66 181.75 94.72L181.79 95.08L181.83 95.5L182.17 95.76C186.81 99.38 191.12 103.41 194.98 107.76L195.71 108.58L196.46 107.78C197.64 106.51 198.79 105.19 199.88 103.85L200.34 103.28L199.93 102.67C194.8 94.98 188.51 88.09 181.22 82.19L178.84 80.27L179.62 83.22C180.28 85.71 180.83 88.37 181.27 91.12L181.33 91.58L181.35 91.69M2.72 101.63L4.58 99.59C4.68 99.48 4.78 99.36 4.88 99.25L5.02 99.08C5.95 97.99 6.91 96.93 7.85 95.93L8.44 95.3L7.9 94.62C7.02 93.51 6.15 92.34 5.22 91.05L3.71 88.94L3.41 91.52C3.14 93.88 2.94 96.35 2.83 98.87L2.7 101.63M27.68 126.49L26.91 123.54C26.38 121.51 25.92 119.44 25.56 117.4C25.56 117.35 25.54 117.29 25.53 117.24C25.44 116.76 25.37 116.27 25.29 115.78C25.27 115.66 25.25 115.54 25.23 115.42C25.21 115.31 25.19 115.21 25.18 115.1L25.15 114.93C25.1 114.6 25.05 114.27 25.01 113.94L24.87 112.84C24.85 112.63 24.82 112.43 24.79 112.23C24.79 112.17 24.78 112.12 24.77 112.08C24.76 111.97 24.75 111.86 24.75 111.73L24.73 111.27L24.37 110.99C19.7 107.35 15.39 103.31 11.55 98.99L10.82 98.16L10.07 98.97C8.88 100.26 7.73 101.58 6.65 102.9L6.18 103.47L6.59 104.09C11.73 111.78 18.03 118.67 25.31 124.57L27.68 126.49ZM181.42 115.37L181.19 116.75C180.8 119.07 180.28 121.46 179.63 123.87L179.56 124.14V124.17L179.21 125.42C178.35 128.39 177.28 131.38 176.03 134.32L175.91 134.6L175.97 134.9C178.21 146.49 178.31 158.25 176.28 169.85L175.68 173.27L178.01 170.69C179.38 169.17 180.75 167.56 182.07 165.89L182.05 166.03L184.33 162.92C185.62 161.16 186.87 159.36 188.02 157.56L188.16 157.32L188.18 157.07C188.26 156.05 188.35 155.03 188.41 154C188.55 151.84 188.61 149.57 188.58 147.26L189.02 146.88C191.96 144.35 194.82 141.54 197.49 138.55L197.62 138.41L197.69 138.23C198.56 135.9 199.35 133.51 200.05 131.1L200.16 130.72C200.21 130.54 200.26 130.35 200.3 130.19C200.33 130.1 200.35 130.01 200.37 129.92L200.42 129.75L201.55 125.78L198.73 128.79C195.44 132.3 191.86 135.58 188.09 138.55C187.94 137.14 187.76 135.69 187.54 134.21L187.83 133.97C192.39 130.15 196.53 125.98 200.13 121.56L200.6 120.99L200.19 120.37C198.86 118.39 197.57 116.6 196.24 114.9L195.56 114.03L194.76 114.79C191.74 117.65 188.49 120.35 185.1 122.81C184.76 121.58 184.38 120.31 183.96 119.03L184.07 118.95C187.03 116.73 189.86 114.34 192.48 111.83L193.17 111.17L192.54 110.45C189.93 107.48 187.04 104.61 183.96 101.92L182.28 100.45L182.31 102.69C182.36 106.84 182.07 111.01 181.46 115.1L181.42 115.35V115.37ZM202.91 117.73L203.21 115.16C203.49 112.79 203.68 110.32 203.79 107.81L203.92 104.88L202.03 107.12L201.62 107.6C200.76 108.61 199.81 109.67 198.79 110.75L198.2 111.38L198.73 112.06C199.62 113.19 200.52 114.39 201.4 115.62L202.9 117.73M3.42 114.8L3.33 114.68L3.92 118.5C4.27 120.77 4.66 122.86 5.1 124.9L5.15 125.14L5.31 125.33L5.75 125.84C6.27 126.46 6.8 127.08 7.34 127.68C8.76 129.29 10.32 130.93 11.98 132.56L11.94 133.15C11.65 137.08 11.62 141.07 11.83 145.02V145.21L11.92 145.38C12.79 147.25 13.63 148.96 14.49 150.6L14.61 150.82C14.79 151.16 14.97 151.49 15.16 151.81L15.24 151.95C15.43 152.3 15.62 152.64 15.82 152.98C15.86 153.06 15.91 153.15 15.96 153.24L16 153.3L17.99 156.79L17.87 152.78C17.72 147.95 17.93 143.1 18.5 138.36C19.63 139.28 20.79 140.17 21.96 141.04L21.93 141.41C21.4 147.28 21.42 153.16 21.99 158.88L22.06 159.62L22.79 159.76C24.96 160.19 27.2 160.56 29.46 160.84L30.56 160.98L30.59 159.88C30.69 155.75 31.09 151.55 31.75 147.39C32.9 148.04 34.06 148.66 35.23 149.26L35.21 149.39C34.67 153.09 34.36 156.79 34.29 160.38L34.27 161.34L35.23 161.4C37.13 161.52 39.07 161.58 40.99 161.58C43.09 161.58 45.22 161.51 47.32 161.36L49.54 161.21L47.95 159.65C44.97 156.72 42.22 153.57 39.78 150.27L39.62 150.06L39.58 150.04L38.78 148.91C37.39 146.94 36.07 144.88 34.86 142.77L34.72 142.53L34.69 142.51L34.07 141.38C32.59 138.68 31.23 135.81 30.03 132.84L29.92 132.56L29.67 132.39C19.89 125.77 11.5 117.53 4.73 107.88L2.73 105.03L2.91 108.51C3.02 110.56 3.2 112.66 3.44 114.78M167.19 149.86C167.11 149.95 167.03 150.06 166.94 150.19L166.89 150.25C166.89 150.25 166.82 150.34 166.79 150.39C166.2 151.17 165.67 151.87 165.16 152.51C165.11 152.57 165.06 152.63 165.03 152.67C164.95 152.77 164.87 152.87 164.79 152.97L164.53 153.3L164.58 153.72C165.31 159.62 165.5 165.53 165.15 171.27L165.08 172.38L166.19 172.33C167.96 172.25 169.7 172.13 171.38 171.97L172.12 171.9L172.26 171.17C174.07 162.06 174.49 152.74 173.51 143.45L173.19 140.41L171.65 143.05C170.32 145.33 168.82 147.62 167.18 149.86M150.06 167.05L148.91 167.87C146.96 169.26 144.95 170.54 142.77 171.8L142.53 171.94L141.39 172.58C138.71 174.06 135.83 175.43 132.85 176.63L132.57 176.74L132.4 176.99C125.8 186.76 117.56 195.15 107.91 201.93L105.05 203.94L108.54 203.75C110.64 203.63 112.74 203.46 114.8 203.22L114.68 203.31L118.5 202.72C120.82 202.36 122.91 201.98 124.9 201.54L125.14 201.49L125.33 201.33C126.09 200.69 126.9 200 127.69 199.3C129.31 197.87 130.96 196.31 132.58 194.66L133.16 194.7C135.36 194.86 137.62 194.95 139.87 194.95C141.58 194.95 143.31 194.9 145.03 194.81H145.22L145.39 194.72C147.67 193.67 149.93 192.54 152.09 191.34L152.53 191.1L152.97 190.85C153.08 190.78 153.2 190.72 153.31 190.66L156.91 188.66L152.79 188.79C151.79 188.82 150.77 188.84 149.77 188.84C145.96 188.84 142.13 188.61 138.37 188.16C139.3 187.01 140.2 185.86 141.05 184.71L141.43 184.74C144.26 184.99 147.1 185.12 149.88 185.12C152.91 185.12 155.95 184.97 158.9 184.67L159.64 184.6L159.78 183.87C160.23 181.6 160.59 179.36 160.86 177.21L160.99 176.12L159.89 176.09C155.68 175.97 151.48 175.58 147.39 174.92C148.01 173.82 148.64 172.65 149.26 171.44L149.4 171.46C153.07 171.99 156.76 172.3 160.39 172.37L161.35 172.39L161.41 171.43C161.66 167.44 161.65 163.37 161.37 159.34L161.22 157.12L159.66 158.71C156.77 161.66 153.61 164.41 150.28 166.88L150.07 167.03V167.05M30.95 173.18L30.86 170.48C30.86 170.26 30.83 170.04 30.81 169.8C30.69 168.41 30.62 166.98 30.58 165.57L30.56 164.7L29.7 164.6C28.32 164.44 26.87 164.23 25.29 163.98L22.74 163.56L24.35 165.59C25.87 167.51 27.48 169.39 29.13 171.19L30.96 173.18M41.01 165.28C39.14 165.28 37.25 165.22 35.39 165.12L34.29 165.06L34.33 166.16C34.39 167.89 34.51 169.64 34.69 171.36L34.76 172.1L35.49 172.24C41.36 173.41 47.39 174 53.42 174C56.67 174 59.96 173.83 63.2 173.49L66.22 173.17L63.6 171.63C61.24 170.24 58.94 168.73 56.75 167.13C56.67 167.08 56.59 167.02 56.5 166.95L56.42 166.89C56.36 166.85 56.3 166.8 56.24 166.76C55.54 166.24 54.82 165.68 54.1 165.11C54.07 165.08 54.03 165.05 53.98 165.02C53.87 164.93 53.76 164.83 53.64 164.74L53.32 164.5L52.92 164.55C48.98 165.04 44.97 165.29 41 165.29M163.57 183.91L165.61 182.31C167.45 180.87 169.34 179.26 171.23 177.52L173.44 175.5L170.46 175.79H170.39C170.21 175.81 170.03 175.83 169.84 175.84C168.43 175.95 167.01 176.03 165.6 176.07L164.74 176.1L164.64 176.96C164.49 178.3 164.28 179.74 164 181.36L163.57 183.91ZM40.79 182.07L40.64 182.05L43.75 184.33C45.48 185.6 47.28 186.84 49.11 188.02L49.32 188.16L49.57 188.18L50.59 188.26C51.28 188.31 51.97 188.37 52.66 188.41C54.54 188.52 56.41 188.58 58.24 188.58C58.62 188.58 59 188.58 59.39 188.58L59.78 189.03C62.34 192 65.14 194.85 68.11 197.5L68.25 197.63L68.43 197.7C70.76 198.57 73.16 199.36 75.56 200.05C75.86 200.13 76.16 200.22 76.5 200.32L76.93 200.43L80.71 201.41L77.86 198.74C74.33 195.42 71.05 191.85 68.1 188.1C69.58 187.94 71.04 187.76 72.44 187.55L72.69 187.85C76.47 192.36 80.64 196.5 85.08 200.16L85.65 200.63L86.27 200.22C88.12 198.98 89.96 197.65 91.74 196.27L92.61 195.59L91.85 194.79C88.97 191.75 86.28 188.5 83.84 185.12C85.07 184.78 86.34 184.4 87.61 183.98L87.69 184.09C89.89 187.04 92.29 189.87 94.81 192.51L95.47 193.2L96.19 192.57C99.19 189.93 102.06 187.04 104.72 183.99L106.19 182.31L103.96 182.34C103.67 182.34 103.37 182.34 103.08 182.34C99.27 182.34 95.39 182.05 91.54 181.49L91.29 181.45H91.26L89.9 181.23C87.58 180.83 85.18 180.31 82.78 179.67L82.51 179.6H82.48L81.24 179.25C78.23 178.37 75.23 177.3 72.34 176.07L72.06 175.95L71.76 176.01C65.72 177.17 59.55 177.77 53.41 177.77C47.85 177.77 42.27 177.29 36.8 176.33L33.38 175.73L35.96 178.06C37.47 179.42 39.08 180.78 40.76 182.12M114.98 181.5H114.89C114.58 181.56 114.27 181.61 113.99 181.65C113.79 181.67 113.58 181.7 113.38 181.72C113.16 181.75 112.94 181.77 112.72 181.8C112.63 181.81 112.54 181.82 112.45 181.84C112.36 181.85 112.28 181.86 112.15 181.88L112.04 181.9H111.9C111.85 181.92 111.79 181.92 111.74 181.93C111.67 181.93 111.56 181.95 111.44 181.99L111.15 182.08L110.96 182.32C107.34 186.97 103.3 191.28 98.96 195.13L98.13 195.86L98.94 196.61C100.32 197.88 101.61 199 102.88 200.03L103.45 200.49L104.06 200.08C111.76 194.93 118.65 188.63 124.53 181.36L126.44 178.99L123.5 179.76C121.45 180.3 119.41 180.75 117.48 181.09L117.18 181.14C116.72 181.23 116.28 181.3 115.84 181.37L115.03 181.49H114.97M101.79 203.97L99.52 202.08L99.45 202.02C99.31 201.91 99.18 201.8 99.03 201.67C97.97 200.77 96.91 199.81 95.88 198.85L95.25 198.26L94.57 198.79C93.38 199.73 92.18 200.62 91.01 201.46L88.89 202.96L91.47 203.26C93.83 203.54 96.31 203.73 98.83 203.84L101.78 203.97M103.52 0.500001C100.06 0.500001 96.58 0.670001 93.09 1.02C92.86 1.05 92.63 1.07 92.4 1.1C91.75 1.17 91.1 1.24 90.44 1.32C90.41 1.32 90.38 1.32 90.36 1.32C90.33 1.32 90.3 1.32 90.27 1.33C89.88 1.38 89.49 1.44 89.1 1.49C88.54 1.57 87.98 1.65 87.42 1.74C86.96 1.8 86.51 1.89 86.07 1.96C85.69 2.03 85.31 2.08 84.93 2.15L84.36 2.25C83.88 2.33 83.41 2.43 82.94 2.53C82.7 2.58 82.45 2.63 82.21 2.68C82.1 2.71 81.97 2.74 81.86 2.76C81.69 2.79 81.53 2.83 81.36 2.86H81.29C66.39 6.12 52.48 12.62 40.5 21.88C40.49 21.88 40.47 21.88 40.46 21.88V21.91C34.34 26.64 28.73 32.1 23.75 38.2C23.6 38.38 23.45 38.56 23.3 38.74C22.9 39.25 22.48 39.77 22.08 40.28C22.07 40.3 22.05 40.32 22.05 40.34L21.99 40.42C21.75 40.73 21.51 41.04 21.28 41.35C20.93 41.81 20.59 42.26 20.26 42.72C19.99 43.09 19.73 43.46 19.46 43.84C19.24 44.15 19.02 44.46 18.8 44.78L18.47 45.24C18.19 45.64 17.93 46.04 17.66 46.45L17.25 47.06C17.18 47.16 17.11 47.27 17.05 47.38C16.95 47.52 16.86 47.66 16.77 47.79L16.74 47.85C8.49 60.68 3.26 75.12 1.33 90.13C1.33 90.14 1.31 90.14 1.3 90.16C1.3 90.16 1.31 90.18 1.32 90.19C0.350002 97.87 0.240002 105.69 1.02 113.53C1.04 113.76 1.07 113.99 1.1 114.22C1.17 114.87 1.25 115.52 1.32 116.17C1.32 116.2 1.32 116.22 1.32 116.25C1.32 116.28 1.32 116.31 1.33 116.34C1.39 116.73 1.44 117.12 1.5 117.51C1.58 118.07 1.65 118.63 1.74 119.2C1.81 119.65 1.89 120.1 1.96 120.55C2.02 120.93 2.09 121.32 2.15 121.69C2.18 121.88 2.22 122.06 2.25 122.25C2.34 122.73 2.43 123.2 2.53 123.68C2.58 123.92 2.63 124.17 2.68 124.4C2.71 124.52 2.74 124.64 2.76 124.77C2.8 124.92 2.83 125.1 2.86 125.26L2.88 125.33C6.12 140.23 12.62 154.14 21.88 166.12C21.88 166.13 21.88 166.15 21.88 166.15H21.91C26.65 172.27 32.1 177.88 38.21 182.87C38.38 183.02 38.56 183.16 38.75 183.31C39.26 183.73 39.77 184.13 40.28 184.53C40.31 184.55 40.33 184.57 40.36 184.59C40.38 184.6 40.39 184.62 40.42 184.63C40.73 184.87 41.05 185.11 41.36 185.34C41.81 185.69 42.26 186.03 42.73 186.36C43.1 186.64 43.47 186.89 43.84 187.16C44.15 187.38 44.46 187.6 44.78 187.82C44.93 187.94 45.09 188.05 45.25 188.15C45.65 188.42 46.05 188.69 46.46 188.96C46.66 189.1 46.88 189.24 47.08 189.37C47.18 189.44 47.28 189.51 47.39 189.56L47.81 189.84L47.87 189.87C60.71 198.12 75.14 203.36 90.16 205.28C90.16 205.28 90.18 205.29 90.19 205.3C90.2 205.3 90.2 205.29 90.22 205.28C94.48 205.83 98.79 206.1 103.13 206.1C105.82 206.1 108.52 206 111.22 205.79H111.23C111.99 205.73 112.74 205.67 113.5 205.59C113.78 205.56 114.06 205.53 114.35 205.5C114.95 205.43 115.56 205.38 116.17 205.29C116.71 205.22 117.25 205.14 117.79 205.07C118.19 205.01 118.59 204.97 118.98 204.9C119.08 204.89 119.16 204.87 119.25 204.85C119.65 204.79 120.05 204.73 120.46 204.66L121.76 204.44C121.94 204.41 122.11 204.38 122.29 204.34C122.74 204.26 123.19 204.17 123.64 204.07C123.94 204.01 124.24 203.95 124.53 203.89C124.62 203.87 124.7 203.86 124.8 203.83C124.96 203.8 125.13 203.77 125.29 203.73H125.36C140.26 200.48 154.17 193.97 166.15 184.71C166.16 184.71 166.18 184.71 166.19 184.71C166.19 184.7 166.19 184.69 166.19 184.68C172.3 179.96 177.91 174.5 182.9 168.4C183.05 168.21 183.19 168.03 183.34 167.85C183.76 167.34 184.16 166.83 184.57 166.31C184.58 166.29 184.6 166.27 184.63 166.24C184.64 166.22 184.66 166.2 184.68 166.18C184.92 165.87 185.14 165.56 185.38 165.24C185.73 164.78 186.08 164.33 186.41 163.87C186.67 163.51 186.94 163.13 187.2 162.76C187.42 162.45 187.64 162.13 187.87 161.81L188.2 161.35C188.48 160.95 188.74 160.55 189 160.14C189.14 159.94 189.28 159.73 189.41 159.52C189.47 159.42 189.55 159.32 189.62 159.21C189.7 159.07 189.81 158.93 189.9 158.79L189.93 158.73C198.18 145.9 203.41 131.46 205.33 116.45C205.33 116.44 205.34 116.44 205.35 116.42C205.35 116.42 205.35 116.41 205.34 116.4C206.32 108.72 206.42 100.9 205.63 93.05C205.61 92.82 205.58 92.59 205.55 92.37C205.49 91.73 205.42 91.09 205.34 90.46C205.31 90.27 205.28 90.07 205.26 89.87C205.23 89.6 205.18 89.34 205.14 89.07C205.07 88.54 204.99 88 204.91 87.46C204.83 86.92 204.73 86.39 204.65 85.84C204.59 85.53 204.54 85.22 204.48 84.9C204.45 84.73 204.42 84.56 204.39 84.39C204.29 83.86 204.18 83.33 204.08 82.8C204.05 82.63 204.02 82.48 203.98 82.32C203.92 82.06 203.87 81.81 203.81 81.55L203.78 81.33V81.3C200.53 66.38 194.02 52.46 184.75 40.46C184.75 40.46 184.75 40.44 184.75 40.43H184.73C179.99 34.31 174.52 28.68 168.4 23.69C168.25 23.57 168.08 23.43 167.93 23.31C167.4 22.88 166.86 22.46 166.33 22.04C166.31 22.03 166.3 22.01 166.28 22.01C166.26 21.99 166.24 21.97 166.22 21.95C165.94 21.73 165.66 21.53 165.37 21.32C164.88 20.95 164.39 20.57 163.89 20.21C163.53 19.94 163.15 19.68 162.79 19.42C162.48 19.21 162.18 18.98 161.87 18.77C161.7 18.66 161.54 18.53 161.37 18.42C160.97 18.15 160.57 17.89 160.17 17.62L159.56 17.22C159.47 17.16 159.38 17.1 159.3 17.05C159.15 16.95 158.99 16.84 158.83 16.74L158.77 16.7C145.94 8.45 131.51 3.22 116.5 1.3C116.49 1.3 116.47 1.29 116.47 1.27C116.47 1.27 116.45 1.28 116.44 1.29C112.17 0.740001 107.86 0.470001 103.52 0.470001V0.500001ZM111.43 7.13C110.4 6.15 109.33 5.2 108.24 4.27C108.08 4.13 107.91 3.99 107.75 3.85C110.18 3.95 112.61 4.15 115.04 4.43C113.81 5.3 112.61 6.2 111.43 7.13ZM64.79 33.19C71.11 22.13 79.78 12.3 89.97 4.67C92.7 4.3 95.45 4.05 98.2 3.9C88.52 10.7 80.12 19.24 73.45 29.1C70.48 30.29 67.59 31.65 64.79 33.2V33.19ZM57.16 37.96C57.39 37.48 57.63 36.98 57.91 36.42C58.83 34.6 59.79 32.81 60.79 31.1L60.91 30.89C61.21 30.38 61.52 29.87 61.83 29.36L62.29 28.62C62.66 28.04 63.03 27.46 63.39 26.89C63.76 26.32 64.13 25.77 64.51 25.22L64.57 25.13C64.57 25.13 64.63 25.05 64.68 24.98C65.1 24.37 65.52 23.76 65.96 23.17C67.24 21.41 68.62 19.64 70.07 17.92C71.44 16.3 72.85 14.72 74.27 13.25C76 11.44 77.81 9.71 79.64 8.1C80.41 7.41 81.19 6.74 81.98 6.08C84.08 5.62 86.19 5.23 88.31 4.91C78.18 12.75 69.58 22.77 63.37 33.98C61.24 35.21 59.17 36.53 57.15 37.96H57.16ZM139.87 18.63C136.72 14.55 133.25 10.73 129.49 7.21C129.63 7.24 129.77 7.28 129.91 7.32C130.22 7.4 130.53 7.49 130.85 7.58C133.23 8.27 135.58 9.04 137.9 9.9C140.82 12.52 143.57 15.32 146.13 18.28C144.18 18.33 142.17 18.44 140.16 18.61C140.07 18.61 139.98 18.63 139.89 18.64L139.87 18.63ZM123.95 21.43C121.38 17.83 118.56 14.4 115.52 11.19C117.27 9.84 119.08 8.53 120.94 7.29C125.41 10.96 129.51 15.05 133.22 19.47C132.57 19.57 131.91 19.68 131.3 19.8C131.23 19.8 131.16 19.83 131.08 19.84L130.98 19.86C130.31 19.98 129.64 20.11 128.98 20.26C128.31 20.39 127.63 20.54 126.96 20.7L126.1 20.89C125.52 21.03 124.93 21.18 124.35 21.33L124.11 21.4C124.11 21.4 124.02 21.42 123.96 21.43H123.95ZM82.87 25.97C88.66 18.81 95.48 12.56 103.13 7.45C104.46 8.54 105.76 9.67 107.01 10.83C102.59 14.76 98.54 19.1 94.89 23.78H94.83C94.71 23.79 94.59 23.8 94.48 23.82C94.44 23.82 94.4 23.82 94.36 23.83C94.15 23.85 93.93 23.89 93.72 23.91C93.35 23.96 92.97 24.01 92.6 24.05C92.26 24.1 91.91 24.15 91.55 24.2C91.52 24.2 91.49 24.2 91.46 24.21H91.43C91.19 24.25 90.97 24.29 90.73 24.32C90.22 24.4 89.7 24.49 89.19 24.58C89.17 24.58 89.15 24.58 89.13 24.58C87.02 24.96 84.93 25.42 82.87 25.96V25.97ZM53.85 16.86C54.01 16.78 54.17 16.68 54.34 16.59C54.58 16.45 54.83 16.31 55.07 16.18C57.25 14.98 59.45 13.87 61.69 12.84C63.4 12.75 65.1 12.7 66.81 12.7C69.03 12.7 71.24 12.78 73.45 12.95C72.09 14.36 70.75 15.86 69.45 17.4C69.39 17.48 69.34 17.55 69.28 17.61C65.15 17.08 61 16.82 56.83 16.82C55.84 16.82 54.85 16.83 53.85 16.86ZM102.67 23.34C105.29 20.33 108.11 17.49 111.1 14.86C113.62 17.49 115.95 20.26 118.14 23.18C117.04 23.55 116.11 23.88 115.23 24.21C111.36 23.63 107.43 23.34 103.46 23.34C103.2 23.34 102.93 23.34 102.67 23.34ZM124.11 26.05C121.74 25.41 119.34 24.88 116.9 24.47C117.41 24.29 117.94 24.1 118.53 23.9C120.45 23.26 122.39 22.69 124.32 22.17L124.55 22.11C125.13 21.96 125.7 21.83 126.28 21.69L127.13 21.49C127.8 21.34 128.47 21.19 129.13 21.05C129.8 20.9 130.45 20.78 131.1 20.65L131.22 20.63C131.28 20.63 131.32 20.61 131.4 20.6C132.14 20.46 132.86 20.34 133.58 20.23C135.73 19.88 137.96 19.62 140.2 19.41C142.31 19.24 144.42 19.12 146.47 19.08C147.09 19.07 147.71 19.06 148.33 19.06C150.21 19.06 152.09 19.12 153.92 19.23C154.95 19.29 155.97 19.38 157.01 19.46C158.81 20.63 160.58 21.84 162.31 23.11C158.37 22.61 154.38 22.36 150.38 22.36C141.51 22.36 132.61 23.6 124.11 26.04V26.05ZM60 30.84C55.63 30.1 51.22 29.68 46.8 29.56C47.08 27.36 47.44 25.16 47.87 22.96C50.85 22.67 53.83 22.52 56.82 22.52C59.6 22.52 62.38 22.64 65.15 22.89C64.77 23.42 64.38 23.96 64.03 24.49C63.98 24.55 63.94 24.6 63.9 24.68L63.84 24.76C63.47 25.31 63.08 25.88 62.71 26.45C62.33 27.03 61.95 27.61 61.6 28.19L61.12 28.93C60.81 29.45 60.5 29.96 60.19 30.48L60.08 30.69C60.08 30.69 60.02 30.79 60 30.83V30.84ZM134.68 29.7C131.75 28.44 128.74 27.37 125.67 26.48C133.71 24.29 142.1 23.18 150.47 23.18C154.89 23.18 159.29 23.49 163.65 24.11C165.84 25.78 167.96 27.54 170.01 29.38C164.47 28.41 158.85 27.93 153.23 27.93C147.03 27.93 140.82 28.52 134.68 29.7ZM36.12 29.86C37.91 28.22 39.76 26.63 41.68 25.12C41.42 26.6 41.22 28.08 41.04 29.57C39.6 29.61 38.18 29.69 36.75 29.8C36.53 29.81 36.33 29.83 36.12 29.86ZM103.31 180.23C97.22 180.23 91.12 179.51 85.17 178.07C84.98 178.04 84.78 177.98 84.6 177.93C83.81 177.74 83.02 177.51 82.24 177.3C81.79 177.17 81.34 177.04 80.89 176.9C80.67 176.84 80.44 176.76 80.22 176.69C71.73 174 63.76 169.87 56.69 164.48C56.56 164.38 56.42 164.28 56.29 164.17C55.87 163.86 55.46 163.53 55.05 163.19C48.63 158.01 43.05 151.81 38.57 144.85L38.45 144.66C38.17 144.23 37.91 143.81 37.64 143.37C33.82 137.08 30.93 130.29 29.03 123.23C29.03 123.2 29.01 123.16 29 123.13C28.45 121.07 28 118.98 27.62 116.88C27.52 116.29 27.41 115.7 27.32 115.1C27.26 114.7 27.2 114.31 27.14 113.9C25.82 104.36 26.3 94.61 28.55 85.22C28.61 84.97 28.67 84.72 28.74 84.47C28.93 83.76 29.12 83.05 29.32 82.33C31.98 73.01 36.37 64.27 42.23 56.59C42.27 56.53 42.31 56.47 42.36 56.41C42.77 55.88 43.17 55.37 43.59 54.86L43.94 54.43C44.34 53.94 44.76 53.46 45.17 52.97C45.54 52.55 45.92 52.12 46.3 51.7C46.34 51.66 46.38 51.61 46.42 51.57C50.93 46.62 56.07 42.26 61.71 38.62L62.06 38.4C62.45 38.15 62.83 37.91 63.22 37.67C69.52 33.83 76.33 30.93 83.41 29.04C83.44 29.04 83.48 29.02 83.51 29.01C85.57 28.46 87.66 28 89.76 27.63C90.35 27.52 90.94 27.42 91.53 27.33C91.93 27.26 92.33 27.21 92.74 27.15C96.25 26.67 99.8 26.42 103.34 26.42C109.43 26.42 115.52 27.14 121.47 28.58C121.67 28.62 121.85 28.67 122.04 28.72C122.83 28.91 123.61 29.14 124.4 29.36C124.85 29.48 125.3 29.62 125.75 29.75C125.97 29.81 126.18 29.9 126.4 29.96C134.91 32.65 142.89 36.78 149.96 42.18C150.08 42.26 150.2 42.35 150.31 42.44C150.75 42.78 151.18 43.13 151.61 43.47C158 48.64 163.55 54.8 168.01 61.72C168.09 61.83 168.16 61.94 168.23 62.06C168.47 62.43 168.72 62.82 168.95 63.22C172.79 69.52 175.7 76.33 177.59 83.41L177.62 83.51C178.17 85.56 178.63 87.66 179 89.76C179.1 90.35 179.21 90.94 179.3 91.53C179.36 91.93 179.42 92.33 179.48 92.73C180.79 102.29 180.33 112.05 178.06 121.46C178.01 121.65 177.96 121.84 177.91 122.03C177.72 122.82 177.5 123.6 177.28 124.39C177.16 124.83 177.02 125.29 176.89 125.74C176.82 125.96 176.74 126.18 176.68 126.4C173.99 134.91 169.85 142.88 164.47 149.96C164.38 150.07 164.28 150.2 164.2 150.31C163.86 150.75 163.51 151.18 163.16 151.62C158 158.01 151.83 163.56 144.91 168.02C144.81 168.1 144.69 168.17 144.58 168.23C144.21 168.49 143.82 168.73 143.42 168.97C137.12 172.81 130.31 175.71 123.23 177.6C123.2 177.61 123.17 177.62 123.13 177.63C121.06 178.18 118.98 178.64 116.87 179.02C116.28 179.12 115.69 179.22 115.09 179.32C114.7 179.38 114.29 179.44 113.9 179.49C110.38 179.98 106.84 180.22 103.3 180.22L103.31 180.23ZM153.61 41.11C153.51 41.03 153.4 40.94 153.3 40.85C153.26 40.82 153.23 40.79 153.19 40.77C152.46 40.19 151.73 39.62 150.99 39.07C150.93 39.04 150.88 38.99 150.82 38.95C150.8 38.94 150.78 38.92 150.76 38.9C150.66 38.83 150.57 38.76 150.48 38.7C148.25 37.06 145.94 35.55 143.57 34.16C146.79 33.82 150.02 33.65 153.24 33.65C159.19 33.65 165.13 34.23 170.98 35.39C171.15 37.1 171.27 38.81 171.34 40.52C169.46 40.41 167.58 40.35 165.7 40.35C161.67 40.35 157.63 40.6 153.61 41.1V41.11ZM46.29 47.24C46.03 43.25 46.01 39.25 46.26 35.28C49.89 35.35 53.52 35.66 57.12 36.18C56.59 37.22 56.17 38.11 55.79 38.97C52.43 41.45 49.26 44.22 46.29 47.24ZM34.16 63.09C33.18 53.94 33.59 44.7 35.38 35.67C37.09 35.5 38.81 35.39 40.52 35.32C40.17 41.22 40.37 47.15 41.1 53.05C41.01 53.16 40.93 53.26 40.84 53.37C40.82 53.4 40.78 53.45 40.76 53.49C40.18 54.2 39.62 54.94 39.07 55.67C39.02 55.73 38.98 55.79 38.94 55.84C38.93 55.86 38.91 55.87 38.9 55.9C38.83 55.99 38.77 56.09 38.69 56.18C37.06 58.41 35.54 60.72 34.16 63.09ZM181.54 41.67C180.06 41.42 178.57 41.21 177.08 41.03C177.03 39.6 176.96 38.17 176.84 36.74C176.83 36.53 176.81 36.32 176.78 36.11C178.43 37.9 180.02 39.76 181.53 41.67H181.54ZM26.48 80.99C23.13 68.71 22.32 55.61 24.12 43.03C25.79 40.83 27.55 38.72 29.38 36.67C27.34 48.32 27.45 60.3 29.71 71.98C28.45 74.91 27.37 77.92 26.49 80.99H26.48ZM24.47 89.76C24.29 89.25 24.1 88.73 23.91 88.14C23.27 86.21 22.69 84.27 22.18 82.35L22.11 82.11C21.96 81.53 21.82 80.96 21.69 80.38L21.49 79.53C21.34 78.86 21.19 78.19 21.05 77.53C20.91 76.88 20.78 76.22 20.65 75.56V75.46C20.62 75.4 20.61 75.36 20.61 75.27C20.46 74.54 20.34 73.81 20.23 73.09C19.88 70.94 19.61 68.71 19.43 66.47C19.24 64.35 19.13 62.24 19.09 60.19C19.04 57.69 19.09 55.19 19.24 52.75C19.3 51.72 19.39 50.7 19.47 49.67C20.63 47.86 21.85 46.09 23.12 44.36C21.5 57.07 22.5 70.24 26.05 82.55C25.41 84.93 24.88 87.33 24.47 89.76ZM170.49 57.14C169.44 56.62 168.56 56.2 167.7 55.81C165.22 52.46 162.46 49.28 159.43 46.31C161.52 46.17 163.61 46.1 165.69 46.1C167.59 46.1 169.49 46.16 171.4 46.28C171.32 49.93 171.01 53.54 170.49 57.15V57.14ZM183.76 65.17C183.23 64.78 182.69 64.4 182.17 64.05C182.12 64 182.05 63.96 181.98 63.91L181.9 63.86C181.35 63.47 180.78 63.09 180.21 62.72C179.63 62.34 179.06 61.96 178.47 61.6L177.73 61.14C177.22 60.83 176.7 60.53 176.18 60.21L175.97 60.09C175.97 60.09 175.87 60.04 175.83 60.01C176.57 55.65 176.99 51.23 177.11 46.81C179.31 47.09 181.51 47.44 183.7 47.88C184.28 53.63 184.28 59.42 183.77 65.16L183.76 65.17ZM193.73 73.46C192.31 72.11 190.82 70.77 189.28 69.46C189.21 69.4 189.13 69.36 189.07 69.29C189.72 64.19 189.96 59.02 189.81 53.87C189.89 54 189.96 54.12 190.02 54.25C190.19 54.53 190.34 54.81 190.5 55.09C191.69 57.26 192.81 59.47 193.83 61.71C194.04 65.63 194.02 69.55 193.73 73.46ZM201.77 88.34C193.92 78.2 183.9 69.61 172.68 63.39C171.45 61.27 170.13 59.19 168.7 57.18C169.19 57.41 169.69 57.65 170.25 57.93C172.06 58.85 173.84 59.81 175.56 60.8L175.77 60.92C176.28 61.22 176.79 61.53 177.29 61.84L178.04 62.3C178.62 62.67 179.2 63.03 179.77 63.4C180.33 63.77 180.89 64.14 181.44 64.52L181.54 64.59C181.54 64.59 181.62 64.65 181.69 64.69C182.3 65.11 182.9 65.54 183.5 65.97C185.26 67.25 187.03 68.63 188.75 70.08C190.37 71.44 191.95 72.85 193.42 74.28C195.22 76.01 196.96 77.81 198.58 79.65C199.27 80.43 199.93 81.21 200.6 82C201.06 84.1 201.45 86.2 201.77 88.33V88.34ZM7.2 77.17C7.23 77.03 7.28 76.89 7.31 76.75C7.38 76.51 7.45 76.26 7.52 76.01C8.21 73.56 9.01 71.14 9.9 68.78C12.51 65.85 15.31 63.09 18.27 60.55C18.31 62.5 18.42 64.5 18.59 66.52C18.59 66.61 18.61 66.7 18.62 66.78C14.54 69.94 10.73 73.41 7.2 77.17ZM202.77 98.19C195.97 88.5 187.43 80.11 177.57 73.44C176.38 70.48 175.02 67.59 173.48 64.79C184.54 71.11 194.37 79.78 202 89.97C202.37 92.7 202.63 95.44 202.78 98.2L202.77 98.19ZM11.2 91.14C9.84 89.39 8.54 87.58 7.3 85.72C10.96 81.24 15.05 77.15 19.47 73.44C19.57 74.09 19.69 74.75 19.8 75.36C19.81 75.44 19.83 75.5 19.84 75.58L19.86 75.68C19.98 76.34 20.11 77.01 20.25 77.68C20.39 78.35 20.54 79.03 20.69 79.7L20.89 80.56C21.03 81.14 21.18 81.72 21.33 82.31L21.4 82.55C21.41 82.61 21.43 82.65 21.44 82.7C17.84 85.27 14.41 88.1 11.2 91.14ZM195.83 107.02C191.91 102.61 187.58 98.55 182.89 94.9L182.85 94.5C182.85 94.5 182.85 94.44 182.85 94.41C182.82 94.15 182.78 93.88 182.75 93.61C182.72 93.32 182.68 93.03 182.65 92.74C182.59 92.34 182.54 91.94 182.48 91.54L182.45 91.35C182.43 91.2 182.41 91.06 182.39 90.91C181.96 88.2 181.41 85.52 180.72 82.89C187.88 88.68 194.13 95.49 199.23 103.15C198.15 104.48 197.02 105.78 195.85 107.03L195.83 107.02ZM23.33 104C20.32 101.37 17.48 98.56 14.85 95.56C17.47 93.04 20.26 90.7 23.17 88.52C23.53 89.62 23.86 90.55 24.2 91.43C23.58 95.56 23.29 99.76 23.33 104ZM3.84 98.91C3.95 96.48 4.14 94.05 4.42 91.63C5.29 92.85 6.19 94.05 7.12 95.24C6.14 96.27 5.19 97.34 4.26 98.43C4.13 98.58 3.99 98.76 3.84 98.92V98.91ZM25.96 123.79C18.81 118 12.55 111.18 7.44 103.53C8.53 102.2 9.66 100.9 10.82 99.65C14.75 104.07 19.09 108.12 23.78 111.77C23.78 111.9 23.79 112.04 23.81 112.17C23.81 112.22 23.83 112.27 23.83 112.32C23.86 112.52 23.89 112.72 23.91 112.93C23.96 113.3 24.01 113.68 24.06 114.06C24.1 114.39 24.15 114.73 24.2 115.07L24.23 115.25C24.26 115.48 24.31 115.7 24.34 115.93C24.42 116.44 24.5 116.96 24.59 117.46C24.59 117.48 24.6 117.51 24.6 117.53C24.97 119.65 25.43 121.73 25.97 123.79H25.96ZM183.48 118.15C183.12 117.05 182.78 116.12 182.45 115.24C183.07 111.11 183.36 106.91 183.31 102.67C186.33 105.31 189.16 108.11 191.8 111.11C189.17 113.63 186.4 115.97 183.48 118.16V118.15ZM202.23 115.04C201.36 113.83 200.46 112.62 199.53 111.44C200.51 110.4 201.47 109.33 202.39 108.25L202.8 107.76C202.7 110.19 202.51 112.61 202.22 115.04H202.23ZM33.18 141.88C22.13 135.55 12.29 126.88 4.66 116.7C4.29 113.97 4.03 111.23 3.88 108.47C10.68 118.16 19.22 126.56 29.08 133.23C30.27 136.18 31.63 139.08 33.17 141.88H33.18ZM187.19 133.22C187.09 132.57 186.98 131.92 186.86 131.31C186.85 131.23 186.83 131.16 186.82 131.08L186.8 130.98C186.68 130.32 186.55 129.65 186.41 128.98C186.26 128.3 186.13 127.63 185.97 126.95L185.78 126.09C185.63 125.51 185.48 124.93 185.34 124.34L185.28 124.1C185.28 124.1 185.25 124 185.24 123.95C188.84 121.38 192.27 118.55 195.47 115.52C196.84 117.27 198.13 119.08 199.37 120.93C195.71 125.41 191.62 129.5 187.2 133.21L187.19 133.22ZM183.54 162.33C185.16 149.62 184.16 136.45 180.61 124.13C181.25 121.76 181.78 119.36 182.19 116.92C182.38 117.43 182.56 117.95 182.75 118.54C183.39 120.48 183.97 122.42 184.48 124.34L184.55 124.57C184.7 125.15 184.83 125.73 184.97 126.3L185.16 127.15C185.32 127.82 185.47 128.49 185.6 129.15C185.74 129.81 185.87 130.46 185.99 131.12L186.01 131.23C186.01 131.23 186.04 131.33 186.04 131.42C186.18 132.14 186.3 132.88 186.42 133.6C186.75 135.76 187.03 137.98 187.22 140.22C187.4 142.34 187.52 144.45 187.56 146.5C187.61 149 187.56 151.5 187.4 153.94C187.34 154.97 187.25 156 187.17 157.03C186 158.84 184.78 160.61 183.52 162.34L183.54 162.33ZM37.95 149.5C37.47 149.28 36.97 149.03 36.41 148.75C34.59 147.84 32.81 146.88 31.09 145.88L30.88 145.76C30.37 145.45 29.86 145.14 29.36 144.84L28.62 144.38C28.04 144.01 27.46 143.64 26.89 143.27C26.32 142.9 25.77 142.53 25.22 142.16L25.12 142.08C25.12 142.08 25.03 142.03 24.97 141.98C24.36 141.56 23.76 141.13 23.16 140.7C21.4 139.42 19.63 138.04 17.91 136.59C16.29 135.22 14.71 133.81 13.24 132.39C11.43 130.65 9.7 128.85 8.08 127.02C7.39 126.25 6.73 125.46 6.07 124.68C5.61 122.57 5.22 120.47 4.9 118.35C12.75 128.48 22.76 137.08 33.98 143.29C35.21 145.42 36.53 147.49 37.95 149.5ZM177.27 170.01C179.31 158.36 179.21 146.38 176.96 134.7C178.21 131.77 179.29 128.76 180.18 125.69C183.54 137.97 184.35 151.06 182.54 163.66C180.87 165.84 179.11 167.97 177.27 170.01ZM188.37 146.12C188.33 144.16 188.22 142.16 188.05 140.15C188.05 140.05 188.03 139.96 188.02 139.88C192.1 136.72 195.92 133.25 199.45 129.49C199.41 129.64 199.37 129.77 199.33 129.91C199.25 130.22 199.16 130.53 199.07 130.84C198.38 133.23 197.6 135.57 196.74 137.88C194.13 140.81 191.33 143.57 188.36 146.12H188.37ZM16.85 152.81C16.79 152.71 16.73 152.61 16.68 152.51C16.49 152.17 16.29 151.82 16.1 151.48C15.89 151.11 15.68 150.74 15.48 150.36C15.48 150.36 15.48 150.34 15.47 150.33C14.53 148.57 13.66 146.79 12.82 144.97C12.61 141.05 12.64 137.13 12.92 133.23C14.33 134.58 15.83 135.92 17.37 137.22C17.44 137.28 17.51 137.33 17.58 137.39C16.92 142.5 16.68 147.66 16.84 152.81H16.85ZM29.56 159.86C27.35 159.58 25.16 159.23 22.96 158.79C22.38 153.04 22.38 147.26 22.9 141.51C23.43 141.9 23.97 142.28 24.48 142.63C24.54 142.68 24.6 142.71 24.66 142.76L24.75 142.82C25.3 143.2 25.87 143.59 26.44 143.95C27.02 144.34 27.6 144.71 28.18 145.07L28.94 145.53C29.45 145.84 29.97 146.15 30.48 146.46L30.7 146.58C30.7 146.58 30.79 146.64 30.83 146.66C30.1 151.03 29.67 155.45 29.56 159.86ZM166.13 171.36C166.49 165.46 166.28 159.52 165.55 153.63C165.63 153.53 165.72 153.42 165.81 153.32C165.84 153.28 165.87 153.24 165.9 153.2C166.48 152.48 167.04 151.74 167.59 151.01C167.63 150.95 167.68 150.89 167.71 150.84L167.75 150.78C167.82 150.68 167.89 150.59 167.96 150.5C169.6 148.26 171.12 145.96 172.5 143.58C173.46 152.73 173.05 161.98 171.27 171C169.56 171.17 167.84 171.28 166.13 171.36ZM40.97 160.59C39.07 160.59 37.17 160.53 35.27 160.41C35.34 156.76 35.65 153.15 36.18 149.54C37.21 150.06 38.11 150.49 38.96 150.87C41.44 154.23 44.21 157.4 47.23 160.37C45.14 160.51 43.05 160.58 40.96 160.58L40.97 160.59ZM160.4 171.4C156.76 171.32 153.14 171.02 149.53 170.5C150.06 169.46 150.48 168.57 150.87 167.71C154.22 165.22 157.4 162.46 160.36 159.44C160.63 163.43 160.64 167.42 160.39 171.4H160.4ZM29.86 170.55C28.22 168.76 26.64 166.91 25.12 165C26.6 165.24 28.09 165.46 29.58 165.63C29.61 167.06 29.69 168.49 29.81 169.92C29.83 170.13 29.85 170.34 29.86 170.55ZM41 166.31C45.02 166.31 49.04 166.06 53.04 165.56C53.15 165.64 53.25 165.73 53.36 165.82C53.39 165.85 53.44 165.88 53.48 165.9C54.2 166.48 54.94 167.04 55.67 167.59C55.73 167.62 55.79 167.67 55.84 167.71L55.9 167.75C55.99 167.82 56.09 167.89 56.18 167.95C58.42 169.59 60.73 171.11 63.09 172.49C59.87 172.83 56.64 173 53.41 173C47.46 173 41.52 172.42 35.67 171.26C35.5 169.55 35.38 167.83 35.32 166.12C37.21 166.23 39.1 166.29 41 166.29V166.31ZM118.34 201.77C128.47 193.93 137.07 183.9 143.28 172.69C145.42 171.46 147.48 170.14 149.49 168.71C149.27 169.2 149.02 169.7 148.75 170.25C147.83 172.07 146.88 173.86 145.87 175.58L145.75 175.78C145.44 176.3 145.14 176.81 144.83 177.31L144.37 178.05C144 178.63 143.63 179.21 143.26 179.78C142.89 180.36 142.53 180.91 142.15 181.46L142.08 181.54C142.08 181.54 142.02 181.63 141.98 181.7C141.56 182.31 141.13 182.91 140.7 183.51C139.42 185.26 138.03 187.03 136.59 188.76C135.22 190.38 133.82 191.95 132.39 193.43C130.65 195.23 128.85 196.97 127.01 198.58C126.24 199.27 125.46 199.93 124.67 200.6C122.58 201.06 120.46 201.45 118.34 201.77ZM108.48 202.78C118.17 195.97 126.56 187.44 133.23 177.58C136.2 176.39 139.09 175.03 141.89 173.48C135.57 184.54 126.9 194.37 116.71 202C113.98 202.37 111.23 202.62 108.48 202.78ZM149.87 184.14C147.08 184.14 144.29 184.01 141.51 183.77C141.9 183.24 142.28 182.7 142.63 182.18C142.68 182.12 142.72 182.06 142.77 181.99L142.83 181.91C143.2 181.36 143.59 180.79 143.97 180.22C144.34 179.64 144.71 179.05 145.08 178.47L145.55 177.73C145.86 177.22 146.16 176.7 146.47 176.18L146.59 175.96C146.59 175.96 146.64 175.87 146.67 175.83C151.03 176.56 155.45 176.98 159.87 177.11C159.6 179.3 159.24 181.5 158.8 183.7C155.83 184 152.85 184.14 149.88 184.14H149.87ZM164.99 181.54C165.24 180.06 165.46 178.59 165.64 177.09C167.07 177.05 168.5 176.97 169.93 176.86C170.14 176.85 170.35 176.83 170.56 176.8C168.76 178.44 166.91 180.03 165 181.54H164.99ZM53.44 178.74C59.64 178.74 65.85 178.15 71.98 176.97C74.92 178.23 77.92 179.3 81 180.19C72.95 182.38 64.57 183.48 56.2 183.48C51.78 183.48 47.37 183.17 43.02 182.55C40.84 180.88 38.71 179.12 36.66 177.28C42.2 178.25 47.82 178.73 53.44 178.73V178.74ZM56.26 184.3C65.14 184.3 74.05 183.06 82.55 180.62C84.92 181.25 87.33 181.79 89.76 182.2C89.26 182.37 88.73 182.57 88.14 182.76C86.21 183.4 84.27 183.98 82.35 184.49L82.12 184.56C81.54 184.7 80.97 184.84 80.39 184.98L79.54 185.18C78.86 185.33 78.19 185.49 77.54 185.62C76.87 185.77 76.22 185.89 75.56 186.02H75.46C75.4 186.04 75.36 186.05 75.27 186.07C74.55 186.2 73.81 186.33 73.09 186.44C70.93 186.79 68.71 187.06 66.47 187.26C64.35 187.44 62.25 187.55 60.19 187.59C59.55 187.6 58.91 187.61 58.27 187.61C56.41 187.61 54.56 187.55 52.74 187.44C51.71 187.38 50.69 187.29 49.66 187.21C47.85 186.04 46.07 184.82 44.35 183.56C48.29 184.06 52.28 184.31 56.26 184.31V184.3ZM103.55 199.22C102.21 198.14 100.92 197.01 99.66 195.84C104.08 191.91 108.14 187.58 111.78 182.9C111.8 182.9 111.82 182.9 111.84 182.9C111.95 182.89 112.07 182.88 112.19 182.87L112.33 182.85C112.52 182.83 112.69 182.8 112.87 182.78C113.3 182.73 113.72 182.68 114.14 182.63C114.45 182.59 114.77 182.54 115.08 182.49C115.12 182.49 115.17 182.48 115.22 182.47L116.03 182.35C116.49 182.27 116.95 182.2 117.42 182.11L117.68 182.07C119.73 181.7 121.78 181.24 123.8 180.72C118.01 187.88 111.19 194.13 103.55 199.24V199.22ZM95.57 191.82C93.05 189.19 90.71 186.42 88.53 183.5C89.64 183.13 90.56 182.8 91.44 182.47C95.29 183.04 99.19 183.34 103.12 183.34C103.42 183.34 103.71 183.34 104.01 183.34C101.38 186.36 98.57 189.19 95.57 191.83V191.82ZM85.74 199.39C81.27 195.71 77.17 191.63 73.48 187.21C74.12 187.11 74.77 187 75.39 186.88C75.47 186.88 75.54 186.86 75.61 186.85L75.71 186.83C76.38 186.71 77.04 186.57 77.71 186.43C78.39 186.3 79.06 186.15 79.73 185.99L80.59 185.8C81.17 185.65 81.75 185.5 82.34 185.36L82.57 185.29C82.63 185.28 82.67 185.26 82.73 185.25C85.3 188.85 88.12 192.28 91.16 195.49C89.41 196.85 87.6 198.15 85.74 199.4V199.39ZM77.2 199.47L76.77 199.36C76.46 199.27 76.15 199.18 75.85 199.1C73.47 198.41 71.12 197.64 68.81 196.78C65.88 194.17 63.12 191.36 60.57 188.4C62.53 188.36 64.54 188.25 66.55 188.08C66.63 188.08 66.72 188.06 66.82 188.05C69.96 192.12 73.44 195.94 77.2 199.47ZM139.88 193.98C137.66 193.98 135.45 193.9 133.25 193.74C134.6 192.33 135.94 190.83 137.24 189.29C137.3 189.22 137.36 189.14 137.41 189.08C141.51 189.61 145.64 189.87 149.77 189.87C150.79 189.87 151.81 189.85 152.82 189.82C152.7 189.89 152.57 189.96 152.45 190.03C152.17 190.18 151.89 190.34 151.61 190.49C149.44 191.69 147.22 192.81 144.98 193.83C143.28 193.92 141.58 193.97 139.87 193.97L139.88 193.98ZM98.94 202.82C96.51 202.72 94.07 202.53 91.66 202.24C92.88 201.37 94.08 200.47 95.26 199.54C96.3 200.52 97.37 201.47 98.45 202.4C98.62 202.55 98.78 202.68 98.94 202.82Z" fill="black"/>
</g>
<defs>
<clipPath id="clip0_3006_19546">
<rect width="206.66" height="265.08" fill="white"/>
</clipPath>
</defs>
</svg>
