<svg width="10" height="19" viewBox="0 0 10 19" fill="none" xmlns="http://www.w3.org/2000/svg">
<path d="M7.01001 0.910034C7.48001 0.910034 7.95004 0.940033 8.42004 0.960033C8.72004 0.970033 9.02995 1.02003 9.31995 1.05003L9.30005 3.87003H9.07996C8.76996 3.87003 8.46002 3.87003 8.15002 3.87003C7.92002 3.87003 7.68995 3.87004 7.44995 3.88004C6.69995 3.90004 6.14999 4.19003 6.10999 5.12003C6.08999 5.79003 6.06995 7.28003 6.06995 7.35003C6.10995 7.35003 6.84997 7.35003 7.58997 7.35003C7.95997 7.35003 8.31996 7.35003 8.57996 7.35003H9.18005C9.03005 8.43003 8.88999 9.47003 8.73999 10.52H6.06995L6.01001 18.43H2.72998L2.79004 10.51H0.109985L0.130005 7.36003H2.82996V7.12003C2.82996 6.49003 2.82998 5.85004 2.84998 5.22004C2.84998 4.82004 2.87995 4.41003 2.94995 4.01003C3.12995 3.05003 3.58001 2.24003 4.39001 1.66003C5.10001 1.16003 5.9 0.940035 6.75 0.930035C6.84 0.930035 6.92001 0.930035 7.01001 0.930035V0.910034Z" fill="white"/>
</svg>
