<svg width="1391" height="23" viewBox="0 0 1391 23" fill="none" xmlns="http://www.w3.org/2000/svg">
<mask id="mask0_3011_19701" style="mask-type:luminance" maskUnits="userSpaceOnUse" x="0" y="0" width="469" height="23">
<path d="M468.93 0H0V23H468.93V0Z" fill="white"/>
</mask>
<g mask="url(#mask0_3011_19701)">
<path d="M258.84 1.86997V-0.160034H256.19H249.52H235.35H234.4H234.15H228.69H227.74H227.47H218.96H217.36H212.28H210.69H201.75H200.58H195.06H193.91H184.84H183.89H183.15H178.18H177.23H176.47H167.98H162.63H161.29H155.94H153.12H146.43H143.1H136.41H132.37H129.72H125.36H123.05H118.67H108.88H107.93H107.68H105.9H102.21H101.26H100.99H92.48H90.88H85.8H84.21H75.27H74.1H68.58H67.43H58.36H57.41H56.67H51.7H50.75H49.99H41.5H36.15H34.81H29.46H26.64H19.95H16.62H9.92999H-1.13H-7.82001H-20.59V1.86997H-5.79999L6.04999 13.72L-1.10001 20.87H-20.59V22.9H-3.12H3.57001H11.74H15.24H18.42H21.92H27.67H28.62H32.97H34.33H35.28H39.65H44.35H51.02H52.49H59.18H61.13H67.8H73.02H78.19H79.14H79.7H84.85H85.8H91.61H98.3H99.97H105.88H106.64H108.83H115.52H123.35H124.03H130.04H130.72H132.35H138.21H141.71H144.89H148.39H154.14H155.09H159.44H160.8H161.75H166.12H170.82H177.49H178.96H185.65H187.6H194.27H199.49H204.66H205.61H206.17H211.32H212.27H218.08H224.77H226.44H233.11H235.3H241.99H250.5H257.19H258.82V20.87H255.16L245.15 10.86L254.14 1.86997H258.82H258.84ZM208.65 1.86997L206.21 4.30997L203.77 1.86997H208.66H208.65ZM191.88 1.86997L188.52 5.22997L185.16 1.86997H191.88ZM132.36 1.86997H138.43H144.39L141.41 4.84997L135.88 10.38L127.52 2.01997L127.67 1.86997H132.35H132.36ZM132.54 13.72L127.04 19.22L118.68 10.86L124.18 5.35997L132.54 13.72ZM120.69 1.86997L120.85 2.02997L115.35 7.52997L109.69 1.86997H120.68H120.69ZM82.17 1.86997L79.73 4.30997L77.29 1.86997H82.18H82.17ZM65.4 1.86997L62.04 5.22997L58.68 1.86997H65.4ZM0.890015 1.86997H11.95H17.91L14.93 4.84997L9.39999 10.38L0.890015 1.86997ZM5.59 20.88L9.39999 17.07L13.21 20.88H5.59ZM16.83 17.81L12.74 13.72L18.27 8.18997L21.61 4.84997L24.59 1.86997H31.47H32.77L32.12 2.51997L25.7 8.93997L22.36 12.28L16.83 17.81ZM29.7 20.88H20.45L25.7 15.63L29.04 12.29L35.46 5.86997L38.8 2.52997L39.45 1.87997H48.7L43.42 7.15997L40.08 10.5L33.66 16.92L30.32 20.26L29.69 20.89L29.7 20.88ZM36.37 20.88H30.96H30.66L30.81 20.73L34.15 17.39L40.57 10.97L43.91 7.62997L49.66 1.87997H51.99H55.37L53.68 3.56997L46.76 10.49L43.42 13.83L37 20.25L36.36 20.89L36.37 20.88ZM46.39 20.88H37.64L37.48 20.72L43.9 14.3L48.44 18.84L46.4 20.88H46.39ZM51.78 15.49L47.24 10.96L54.16 4.03997L58.7 8.56997L51.78 15.49ZM63.17 20.88H57.17L55.12 18.83L62.04 11.91L67.09 16.96L63.17 20.88ZM65.38 8.56997L71.34 2.60997L76.39 7.65997L70.43 13.62L65.38 8.56997ZM77.69 20.88H71H69.83L70.42 20.29L73.76 16.95L79.72 10.99L83.06 7.64997L88.32 2.38997L88.83 1.87997H94.49H99.22L96.85 4.24997L93.51 7.58997L88.25 12.85L84.91 16.19L80.22 20.88H77.69ZM87.84 20.88L88.72 20L89.6 20.88H87.84ZM91.59 16.18L88.25 19.52L86.89 20.88H81.18L85.39 16.67L88.73 13.33L93.99 8.06997L97.33 4.72997L100.17 1.88997H103H105.88L104.44 3.32997L100.18 7.58997L96.84 10.93L91.58 16.19L91.59 16.18ZM102.01 20.88H96.29L92.07 16.66L97.33 11.4L104.41 18.48L102.01 20.88ZM100.67 8.04997L104.93 3.78997L112.01 10.87L107.75 15.13L100.67 8.04997ZM113.5 20.88L111.09 18.47L115.35 14.21L122.02 20.88H113.51H113.5ZM132.36 20.88H132.07L135.88 17.07L139.69 20.88H132.36ZM143.31 17.81L139.22 13.72L144.75 8.18997L148.09 4.84997L151.07 1.86997H157.95H159.25L158.6 2.51997L152.18 8.93997L148.84 12.28L143.31 17.81ZM156.18 20.88H146.93L152.18 15.63L155.52 12.29L161.94 5.86997L165.28 2.52997L165.93 1.87997H175.18L169.9 7.15997L166.56 10.5L160.14 16.92L156.8 20.26L156.17 20.89L156.18 20.88ZM162.85 20.88H157.44H157.14L157.29 20.73L160.63 17.39L167.05 10.97L170.39 7.62997L176.14 1.87997H178.47H181.85L180.16 3.56997L173.24 10.49L169.9 13.83L163.48 20.25L162.84 20.89L162.85 20.88ZM172.87 20.88H164.12L163.96 20.72L170.38 14.3L174.91 18.84L172.87 20.88ZM178.26 15.49L173.72 10.96L180.64 4.03997L185.18 8.56997L178.26 15.49ZM189.65 20.88H183.65L181.6 18.83L188.52 11.91L193.57 16.96L189.65 20.88ZM191.86 8.56997L197.82 2.60997L202.87 7.65997L196.91 13.62L191.86 8.56997ZM204.17 20.88H197.48H196.31L196.9 20.29L200.24 16.95L206.2 10.99L209.54 7.64997L214.8 2.38997L215.31 1.87997H220.97H225.7L223.33 4.24997L219.99 7.58997L214.73 12.85L211.39 16.19L206.7 20.88H204.17ZM214.32 20.88L215.2 20L216.08 20.88H214.32ZM218.07 16.18L214.73 19.52L213.37 20.88H207.66L211.87 16.67L215.21 13.33L220.47 8.06997L223.81 4.72997L226.65 1.88997H229.48H232.36L230.92 3.32997L226.66 7.58997L223.32 10.93L218.06 16.19L218.07 16.18ZM228.49 20.88H222.77L218.55 16.66L223.81 11.4L230.89 18.48L228.49 20.88ZM234.24 15.13L227.16 8.04997L231.42 3.78997L238.5 10.87L234.24 15.13ZM248.5 20.88H239.99L237.58 18.47L241.84 14.21L248.51 20.88H248.5ZM241.84 7.52997L236.18 1.86997H247.5L241.84 7.52997Z" fill="#FFFEFD"/>
<path d="M511.84 1.86997V-0.160034H509.19H502.52H488.35H487.4H487.15H481.69H480.74H480.47H471.96H470.36H465.28H463.69H454.75H453.58H448.06H446.91H437.84H436.89H436.15H431.18H430.23H429.47H420.98H415.63H414.29H408.94H406.12H399.43H396.1H389.41H385.37H382.72H378.36H376.05H371.67H361.88H360.93H360.68H358.9H355.21H354.26H353.99H345.48H343.88H338.8H337.21H328.27H327.1H321.58H320.43H311.36H310.41H309.67H304.7H303.75H302.99H294.5H289.15H287.81H282.46H279.64H272.95H269.62H262.93H251.87H245.18H232.41V1.86997H247.2L259.05 13.72L251.9 20.87H232.41V22.9H249.88H256.57H264.74H268.24H271.42H274.92H280.67H281.62H285.97H287.33H288.28H292.65H297.35H304.02H305.49H312.18H314.13H320.8H326.02H331.19H332.14H332.7H337.85H338.8H344.61H351.3H352.97H358.88H359.64H361.83H368.52H376.35H377.03H383.04H383.72H385.35H391.21H394.71H397.89H401.39H407.14H408.09H412.44H413.8H414.75H419.12H423.82H430.49H431.96H438.65H440.6H447.27H452.49H457.66H458.61H459.17H464.32H465.27H471.08H477.77H479.44H486.11H488.3H494.99H503.5H510.19H511.82V20.87H508.16L498.15 10.86L507.14 1.86997H511.82H511.84ZM461.65 1.86997L459.21 4.30997L456.77 1.86997H461.66H461.65ZM444.88 1.86997L441.52 5.22997L438.16 1.86997H444.88ZM385.36 1.86997H391.43H397.39L394.41 4.84997L388.88 10.38L380.52 2.01997L380.67 1.86997H385.35H385.36ZM385.54 13.72L380.04 19.22L371.68 10.86L377.18 5.35997L385.54 13.72ZM373.69 1.86997L373.85 2.02997L368.35 7.52997L362.69 1.86997H373.68H373.69ZM335.17 1.86997L332.73 4.30997L330.29 1.86997H335.18H335.17ZM318.4 1.86997L315.04 5.22997L311.68 1.86997H318.4ZM253.89 1.86997H264.95H270.91L267.93 4.84997L262.4 10.38L253.89 1.86997ZM258.59 20.88L262.4 17.07L266.21 20.88H258.59ZM269.83 17.81L265.74 13.72L271.27 8.18997L274.61 4.84997L277.59 1.86997H284.47H285.77L285.12 2.51997L278.7 8.93997L275.36 12.28L269.83 17.81ZM282.7 20.88H273.45L278.7 15.63L282.04 12.29L288.46 5.86997L291.8 2.52997L292.45 1.87997H301.7L296.42 7.15997L293.08 10.5L286.66 16.92L283.32 20.26L282.69 20.89L282.7 20.88ZM289.37 20.88H283.96H283.66L283.81 20.73L287.15 17.39L293.57 10.97L296.91 7.62997L302.66 1.87997H304.99H308.37L306.68 3.56997L299.76 10.49L296.42 13.83L290 20.25L289.36 20.89L289.37 20.88ZM299.39 20.88H290.64L290.48 20.72L296.9 14.3L301.44 18.84L299.4 20.88H299.39ZM304.78 15.49L300.24 10.96L307.16 4.03997L311.7 8.56997L304.78 15.49ZM316.17 20.88H310.17L308.12 18.83L315.04 11.91L320.09 16.96L316.17 20.88ZM318.38 8.56997L324.34 2.60997L329.39 7.65997L323.43 13.62L318.38 8.56997ZM330.69 20.88H324H322.83L323.42 20.29L326.76 16.95L332.72 10.99L336.06 7.64997L341.32 2.38997L341.83 1.87997H347.49H352.22L349.85 4.24997L346.51 7.58997L341.25 12.85L337.91 16.19L333.22 20.88H330.69ZM340.84 20.88L341.72 20L342.6 20.88H340.84ZM344.59 16.18L341.25 19.52L339.89 20.88H334.18L338.39 16.67L341.73 13.33L346.99 8.06997L350.33 4.72997L353.17 1.88997H356H358.88L357.44 3.32997L353.18 7.58997L349.84 10.93L344.58 16.19L344.59 16.18ZM355.01 20.88H349.29L345.07 16.66L350.33 11.4L357.41 18.48L355.01 20.88ZM353.67 8.04997L357.93 3.78997L365.01 10.87L360.75 15.13L353.67 8.04997ZM366.5 20.88L364.09 18.47L368.35 14.21L375.02 20.88H366.51H366.5ZM385.36 20.88H385.07L388.88 17.07L392.69 20.88H385.36ZM396.31 17.81L392.22 13.72L397.75 8.18997L401.09 4.84997L404.07 1.86997H410.95H412.25L411.6 2.51997L405.18 8.93997L401.84 12.28L396.31 17.81ZM409.18 20.88H399.93L405.18 15.63L408.52 12.29L414.94 5.86997L418.28 2.52997L418.93 1.87997H428.18L422.9 7.15997L419.56 10.5L413.14 16.92L409.8 20.26L409.17 20.89L409.18 20.88ZM415.85 20.88H410.44H410.14L410.29 20.73L413.63 17.39L420.05 10.97L423.39 7.62997L429.14 1.87997H431.47H434.85L433.16 3.56997L426.24 10.49L422.9 13.83L416.48 20.25L415.84 20.89L415.85 20.88ZM425.87 20.88H417.12L416.96 20.72L423.38 14.3L427.91 18.84L425.87 20.88ZM431.26 15.49L426.72 10.96L433.64 4.03997L438.18 8.56997L431.26 15.49ZM442.65 20.88H436.65L434.6 18.83L441.52 11.91L446.57 16.96L442.65 20.88ZM444.86 8.56997L450.82 2.60997L455.87 7.65997L449.91 13.62L444.86 8.56997ZM457.17 20.88H450.48H449.31L449.9 20.29L453.24 16.95L459.2 10.99L462.54 7.64997L467.8 2.38997L468.31 1.87997H473.97H478.7L476.33 4.24997L472.99 7.58997L467.73 12.85L464.39 16.19L459.7 20.88H457.17ZM467.32 20.88L468.2 20L469.08 20.88H467.32ZM471.07 16.18L467.73 19.52L466.37 20.88H460.66L464.87 16.67L468.21 13.33L473.47 8.06997L476.81 4.72997L479.65 1.88997H482.48H485.36L483.92 3.32997L479.66 7.58997L476.32 10.93L471.06 16.19L471.07 16.18ZM481.49 20.88H475.77L471.55 16.66L476.81 11.4L483.89 18.48L481.49 20.88ZM487.24 15.13L480.16 8.04997L484.42 3.78997L491.5 10.87L487.24 15.13ZM501.5 20.88H492.99L490.58 18.47L494.84 14.21L501.51 20.88H501.5ZM494.84 7.52997L489.18 1.86997H500.5L494.84 7.52997Z" fill="#FFFEFD"/>
</g>
<mask id="mask1_3011_19701" style="mask-type:luminance" maskUnits="userSpaceOnUse" x="460" y="0" width="470" height="23">
<path d="M929.86 0H460.93V23H929.86V0Z" fill="white"/>
</mask>
<g mask="url(#mask1_3011_19701)">
<path d="M719.77 1.86997V-0.160034H717.12H710.45H696.28H695.33H695.08H689.62H688.67H688.4H679.89H678.29H673.21H671.62H662.68H661.51H655.99H654.84H645.77H644.82H644.08H639.11H638.16H637.4H628.91H623.56H622.22H616.87H614.05H607.36H604.03H597.34H593.3H590.65H586.29H583.98H579.6H569.81H568.86H568.61H566.83H563.14H562.19H561.92H553.41H551.81H546.73H545.14H536.2H535.03H529.51H528.36H519.29H518.34H517.6H512.63H511.68H510.92H502.43H497.08H495.74H490.39H487.57H480.88H477.55H470.86H459.79H453.1H440.33V1.86997H455.13L466.98 13.72L459.83 20.87H440.34V22.9H457.8H464.49H472.66H476.16H479.34H482.84H488.59H489.54H493.89H495.25H496.2H500.57H505.27H511.94H513.41H520.1H522.05H528.72H533.94H539.11H540.06H540.62H545.77H546.72H552.53H559.22H560.89H566.8H567.56H569.75H576.44H584.27H584.95H590.96H591.64H593.27H599.13H602.63H605.81H609.31H615.06H616.01H620.36H621.72H622.67H627.04H631.74H638.41H639.88H646.57H648.52H655.19H660.41H665.58H666.53H667.09H672.24H673.19H679H685.69H687.36H694.03H696.22H702.91H711.42H718.11H719.74V20.87H716.08L706.07 10.86L715.06 1.86997H719.74H719.77ZM669.58 1.86997L667.14 4.30997L664.7 1.86997H669.59H669.58ZM652.81 1.86997L649.45 5.22997L646.09 1.86997H652.81ZM593.29 1.86997H599.36H605.32L602.34 4.84997L596.81 10.38L588.45 2.01997L588.6 1.86997H593.28H593.29ZM593.47 13.72L587.97 19.22L579.61 10.86L585.11 5.35997L593.47 13.72ZM581.62 1.86997L581.78 2.02997L576.28 7.52997L570.62 1.86997H581.61H581.62ZM543.1 1.86997L540.66 4.30997L538.22 1.86997H543.11H543.1ZM526.33 1.86997L522.97 5.22997L519.61 1.86997H526.33ZM461.82 1.86997H472.88H478.84L475.86 4.84997L470.33 10.38L461.81 1.86997H461.82ZM466.52 20.88L470.33 17.07L474.14 20.88H466.52ZM477.76 17.81L473.67 13.72L479.2 8.18997L482.54 4.84997L485.52 1.86997H492.4H493.7L493.05 2.51997L486.63 8.93997L483.29 12.28L477.76 17.81ZM490.63 20.88H481.38L486.63 15.63L489.97 12.29L496.39 5.86997L499.73 2.52997L500.38 1.87997H509.63L504.35 7.15997L501.01 10.5L494.59 16.92L491.25 20.26L490.62 20.89L490.63 20.88ZM497.3 20.88H491.89H491.59L491.74 20.73L495.08 17.39L501.5 10.97L504.84 7.62997L510.59 1.87997H512.92H516.3L514.61 3.56997L507.69 10.49L504.35 13.83L497.93 20.25L497.29 20.89L497.3 20.88ZM507.32 20.88H498.57L498.41 20.72L504.83 14.3L509.37 18.84L507.33 20.88H507.32ZM512.71 15.49L508.17 10.96L515.09 4.03997L519.63 8.56997L512.71 15.49ZM524.1 20.88H518.1L516.05 18.83L522.97 11.91L528.02 16.96L524.1 20.88ZM526.31 8.56997L532.27 2.60997L537.32 7.65997L531.36 13.62L526.31 8.56997ZM538.62 20.88H531.93H530.76L531.35 20.29L534.69 16.95L540.65 10.99L543.99 7.64997L549.25 2.38997L549.76 1.87997H555.42H560.15L557.78 4.24997L554.44 7.58997L549.18 12.85L545.84 16.19L541.15 20.88H538.62ZM548.77 20.88L549.65 20L550.53 20.88H548.77ZM552.52 16.18L549.18 19.52L547.82 20.88H542.11L546.32 16.67L549.66 13.33L554.92 8.06997L558.26 4.72997L561.1 1.88997H563.93H566.81L565.37 3.32997L561.11 7.58997L557.77 10.93L552.51 16.19L552.52 16.18ZM562.94 20.88H557.22L553 16.66L558.26 11.4L565.34 18.48L562.94 20.88ZM561.6 8.04997L565.86 3.78997L572.94 10.87L568.68 15.13L561.6 8.04997ZM574.43 20.88L572.02 18.47L576.28 14.21L582.95 20.88H574.44H574.43ZM593.29 20.88H593L596.81 17.07L600.62 20.88H593.29ZM604.24 17.81L600.15 13.72L605.68 8.18997L609.02 4.84997L612 1.86997H618.88H620.18L619.53 2.51997L613.11 8.93997L609.77 12.28L604.24 17.81ZM617.11 20.88H607.86L613.11 15.63L616.45 12.29L622.87 5.86997L626.21 2.52997L626.86 1.87997H636.11L630.83 7.15997L627.49 10.5L621.07 16.92L617.73 20.26L617.1 20.89L617.11 20.88ZM623.78 20.88H618.37H618.07L618.22 20.73L621.56 17.39L627.98 10.97L631.32 7.62997L637.07 1.87997H639.4H642.78L641.09 3.56997L634.17 10.49L630.83 13.83L624.41 20.25L623.77 20.89L623.78 20.88ZM633.8 20.88H625.05L624.89 20.72L631.31 14.3L635.84 18.84L633.8 20.88ZM639.19 15.49L634.65 10.96L641.57 4.03997L646.11 8.56997L639.19 15.49ZM650.58 20.88H644.58L642.53 18.83L649.45 11.91L654.5 16.96L650.58 20.88ZM652.79 8.56997L658.75 2.60997L663.8 7.65997L657.84 13.62L652.79 8.56997ZM665.1 20.88H658.41H657.24L657.83 20.29L661.17 16.95L667.13 10.99L670.47 7.64997L675.73 2.38997L676.24 1.87997H681.9H686.63L684.26 4.24997L680.92 7.58997L675.66 12.85L672.32 16.19L667.63 20.88H665.1ZM675.25 20.88L676.13 20L677.01 20.88H675.25ZM679 16.18L675.66 19.52L674.3 20.88H668.59L672.8 16.67L676.14 13.33L681.4 8.06997L684.74 4.72997L687.58 1.88997H690.41H693.29L691.85 3.32997L687.59 7.58997L684.25 10.93L678.99 16.19L679 16.18ZM689.42 20.88H683.7L679.48 16.66L684.74 11.4L691.82 18.48L689.42 20.88ZM695.17 15.13L688.09 8.04997L692.35 3.78997L699.43 10.87L695.17 15.13ZM709.43 20.88H700.92L698.51 18.47L702.77 14.21L709.44 20.88H709.43ZM702.77 7.52997L697.11 1.86997H708.43L702.77 7.52997Z" fill="#FFFEFD"/>
<path d="M972.77 1.86997V-0.160034H970.12H963.45H949.28H948.33H948.08H942.62H941.67H941.4H932.89H931.29H926.21H924.62H915.68H914.51H908.99H907.84H898.77H897.82H897.08H892.11H891.16H890.4H881.91H876.56H875.22H869.87H867.05H860.36H857.03H850.34H846.3H843.65H839.29H836.98H832.6H822.81H821.86H821.61H819.83H816.14H815.19H814.92H806.41H804.81H799.73H798.14H789.2H788.03H782.51H781.36H772.29H771.34H770.6H765.63H764.68H763.92H755.43H750.08H748.74H743.39H740.57H733.88H730.55H723.86H712.8H706.11H693.34V1.86997H708.13L719.98 13.72L712.83 20.87H693.34V22.9H710.81H717.5H725.67H729.17H732.35H735.85H741.6H742.55H746.9H748.26H749.21H753.58H758.28H764.95H766.42H773.11H775.06H781.73H786.95H792.12H793.07H793.63H798.78H799.73H805.54H812.23H813.9H819.81H820.57H822.76H829.45H837.28H837.96H843.97H844.65H846.28H852.14H855.64H858.82H862.32H868.07H869.02H873.37H874.73H875.68H880.05H884.75H891.42H892.89H899.58H901.53H908.2H913.42H918.59H919.54H920.1H925.25H926.2H932.01H938.7H940.37H947.04H949.23H955.92H964.43H971.12H972.75V20.87H969.09L959.08 10.86L968.07 1.86997H972.75H972.77ZM922.58 1.86997L920.14 4.30997L917.7 1.86997H922.59H922.58ZM905.81 1.86997L902.45 5.22997L899.09 1.86997H905.81ZM846.29 1.86997H852.36H858.32L855.34 4.84997L849.81 10.38L841.45 2.01997L841.6 1.86997H846.28H846.29ZM846.47 13.72L840.97 19.22L832.61 10.86L838.11 5.35997L846.47 13.72ZM834.62 1.86997L834.78 2.02997L829.28 7.52997L823.62 1.86997H834.61H834.62ZM796.1 1.86997L793.66 4.30997L791.22 1.86997H796.11H796.1ZM779.33 1.86997L775.97 5.22997L772.61 1.86997H779.33ZM714.82 1.86997H725.88H731.84L728.86 4.84997L723.33 10.38L714.82 1.86997ZM719.52 20.88L723.33 17.07L727.14 20.88H719.52ZM730.76 17.81L726.67 13.72L732.2 8.18997L735.54 4.84997L738.52 1.86997H745.4H746.7L746.05 2.51997L739.63 8.93997L736.29 12.28L730.76 17.81ZM743.63 20.88H734.38L739.63 15.63L742.97 12.29L749.39 5.86997L752.73 2.52997L753.38 1.87997H762.63L757.35 7.15997L754.01 10.5L747.59 16.92L744.25 20.26L743.62 20.89L743.63 20.88ZM750.3 20.88H744.89H744.59L744.74 20.73L748.08 17.39L754.5 10.97L757.84 7.62997L763.59 1.87997H765.92H769.3L767.61 3.56997L760.69 10.49L757.35 13.83L750.93 20.25L750.29 20.89L750.3 20.88ZM760.32 20.88H751.57L751.41 20.72L757.83 14.3L762.37 18.84L760.33 20.88H760.32ZM765.71 15.49L761.17 10.96L768.09 4.03997L772.63 8.56997L765.71 15.49ZM777.1 20.88H771.1L769.05 18.83L775.97 11.91L781.02 16.96L777.1 20.88ZM779.31 8.56997L785.27 2.60997L790.32 7.65997L784.36 13.62L779.31 8.56997ZM791.62 20.88H784.93H783.76L784.35 20.29L787.69 16.95L793.65 10.99L796.99 7.64997L802.25 2.38997L802.76 1.87997H808.42H813.15L810.78 4.24997L807.44 7.58997L802.18 12.85L798.84 16.19L794.15 20.88H791.62ZM801.77 20.88L802.65 20L803.53 20.88H801.77ZM805.52 16.18L802.18 19.52L800.82 20.88H795.11L799.32 16.67L802.66 13.33L807.92 8.06997L811.26 4.72997L814.1 1.88997H816.93H819.81L818.37 3.32997L814.11 7.58997L810.77 10.93L805.51 16.19L805.52 16.18ZM815.94 20.88H810.22L806 16.66L811.26 11.4L818.34 18.48L815.94 20.88ZM814.6 8.04997L818.86 3.78997L825.94 10.87L821.68 15.13L814.6 8.04997ZM827.43 20.88L825.02 18.47L829.28 14.21L835.95 20.88H827.44H827.43ZM846.29 20.88H846L849.81 17.07L853.62 20.88H846.29ZM857.24 17.81L853.15 13.72L858.68 8.18997L862.02 4.84997L865 1.86997H871.88H873.18L872.53 2.51997L866.11 8.93997L862.77 12.28L857.24 17.81ZM870.11 20.88H860.86L866.11 15.63L869.45 12.29L875.87 5.86997L879.21 2.52997L879.86 1.87997H889.11L883.83 7.15997L880.49 10.5L874.07 16.92L870.73 20.26L870.1 20.89L870.11 20.88ZM876.78 20.88H871.37H871.07L871.22 20.73L874.56 17.39L880.98 10.97L884.32 7.62997L890.07 1.87997H892.4H895.78L894.09 3.56997L887.17 10.49L883.83 13.83L877.41 20.25L876.77 20.89L876.78 20.88ZM886.8 20.88H878.05L877.89 20.72L884.31 14.3L888.84 18.84L886.8 20.88ZM892.19 15.49L887.65 10.96L894.57 4.03997L899.11 8.56997L892.19 15.49ZM903.58 20.88H897.58L895.53 18.83L902.45 11.91L907.5 16.96L903.58 20.88ZM905.79 8.56997L911.75 2.60997L916.8 7.65997L910.84 13.62L905.79 8.56997ZM918.1 20.88H911.41H910.24L910.83 20.29L914.17 16.95L920.13 10.99L923.47 7.64997L928.73 2.38997L929.24 1.87997H934.9H939.63L937.26 4.24997L933.92 7.58997L928.66 12.85L925.32 16.19L920.63 20.88H918.1ZM928.25 20.88L929.13 20L930.01 20.88H928.25ZM932 16.18L928.66 19.52L927.3 20.88H921.59L925.8 16.67L929.14 13.33L934.4 8.06997L937.74 4.72997L940.58 1.88997H943.41H946.29L944.85 3.32997L940.59 7.58997L937.25 10.93L931.99 16.19L932 16.18ZM942.42 20.88H936.7L932.48 16.66L937.74 11.4L944.82 18.48L942.42 20.88ZM948.17 15.13L941.09 8.04997L945.35 3.78997L952.43 10.87L948.17 15.13ZM962.43 20.88H953.92L951.51 18.47L955.77 14.21L962.44 20.88H962.43ZM955.77 7.52997L950.11 1.86997H961.43L955.77 7.52997Z" fill="#FFFEFD"/>
</g>
<mask id="mask2_3011_19701" style="mask-type:luminance" maskUnits="userSpaceOnUse" x="921" y="0" width="470" height="23">
<path d="M1390.79 0H921.86V23H1390.79V0Z" fill="white"/>
</mask>
<g mask="url(#mask2_3011_19701)">
<path d="M1180.7 1.86997V-0.160034H1178.05H1171.38H1157.21H1156.26H1156.01H1150.55H1149.6H1149.33H1140.82H1139.22H1134.14H1132.55H1123.61H1122.44H1116.92H1115.77H1106.7H1105.75H1105.01H1100.04H1099.09H1098.33H1089.84H1084.49H1083.15H1077.8H1074.98H1068.29H1064.96H1058.27H1054.23H1051.58H1047.22H1044.91H1040.53H1030.74H1029.79H1029.54H1027.76H1024.07H1023.12H1022.85H1014.34H1012.74H1007.66H1006.07H997.13H995.96H990.44H989.29H980.22H979.27H978.53H973.56H972.61H971.85H963.36H958.01H956.67H951.32H948.5H941.81H938.48H931.79H920.73H914.04H901.27V1.86997H916.06L927.91 13.72L920.76 20.87H901.27V22.9H918.74H925.43H933.6H937.1H940.28H943.78H949.53H950.48H954.83H956.19H957.14H961.51H966.21H972.88H974.35H981.04H982.99H989.66H994.88H1000.05H1001H1001.56H1006.71H1007.66H1013.47H1020.16H1021.83H1027.74H1028.5H1030.69H1037.38H1045.21H1045.89H1051.9H1052.58H1054.21H1060.07H1063.57H1066.75H1070.25H1076H1076.95H1081.3H1082.66H1083.61H1087.98H1092.68H1099.35H1100.82H1107.51H1109.46H1116.13H1121.35H1126.52H1127.47H1128.03H1133.18H1134.13H1139.94H1146.63H1148.3H1154.97H1157.16H1163.85H1172.36H1179.05H1180.68V20.87H1177.02L1167.01 10.86L1176 1.86997H1180.68H1180.7ZM1130.51 1.86997L1128.07 4.30997L1125.63 1.86997H1130.52H1130.51ZM1113.74 1.86997L1110.38 5.22997L1107.02 1.86997H1113.74ZM1054.22 1.86997H1060.29H1066.25L1063.27 4.84997L1057.74 10.38L1049.38 2.01997L1049.53 1.86997H1054.21H1054.22ZM1054.4 13.72L1048.9 19.22L1040.54 10.86L1046.04 5.35997L1054.4 13.72ZM1042.55 1.86997L1042.71 2.02997L1037.21 7.52997L1031.55 1.86997H1042.54H1042.55ZM1004.03 1.86997L1001.59 4.30997L999.15 1.86997H1004.04H1004.03ZM987.26 1.86997L983.9 5.22997L980.54 1.86997H987.26ZM922.75 1.86997H933.81H939.77L936.79 4.84997L931.26 10.38L922.75 1.86997ZM927.45 20.88L931.26 17.07L935.07 20.88H927.45ZM938.69 17.81L934.6 13.72L940.13 8.18997L943.47 4.84997L946.45 1.86997H953.33H954.63L953.98 2.51997L947.56 8.93997L944.22 12.28L938.69 17.81ZM951.56 20.88H942.31L947.56 15.63L950.9 12.29L957.32 5.86997L960.66 2.52997L961.31 1.87997H970.56L965.28 7.15997L961.94 10.5L955.52 16.92L952.18 20.26L951.55 20.89L951.56 20.88ZM958.23 20.88H952.82H952.52L952.67 20.73L956.01 17.39L962.43 10.97L965.77 7.62997L971.52 1.87997H973.85H977.23L975.54 3.56997L968.62 10.49L965.28 13.83L958.86 20.25L958.22 20.89L958.23 20.88ZM968.25 20.88H959.5L959.34 20.72L965.76 14.3L970.3 18.84L968.26 20.88H968.25ZM973.64 15.49L969.1 10.96L976.02 4.03997L980.56 8.56997L973.64 15.49ZM985.03 20.88H979.03L976.98 18.83L983.9 11.91L988.95 16.96L985.03 20.88ZM987.24 8.56997L993.2 2.60997L998.25 7.65997L992.29 13.62L987.24 8.56997ZM999.55 20.88H992.86H991.69L992.28 20.29L995.62 16.95L1001.58 10.99L1004.92 7.64997L1010.18 2.38997L1010.69 1.87997H1016.35H1021.08L1018.71 4.24997L1015.37 7.58997L1010.11 12.85L1006.77 16.19L1002.08 20.88H999.55ZM1009.7 20.88L1010.58 20L1011.46 20.88H1009.7ZM1013.45 16.18L1010.11 19.52L1008.75 20.88H1003.04L1007.25 16.67L1010.59 13.33L1015.85 8.06997L1019.19 4.72997L1022.03 1.88997H1024.86H1027.74L1026.3 3.32997L1022.04 7.58997L1018.7 10.93L1013.44 16.19L1013.45 16.18ZM1023.87 20.88H1018.15L1013.93 16.66L1019.19 11.4L1026.27 18.48L1023.87 20.88ZM1022.53 8.04997L1026.79 3.78997L1033.87 10.87L1029.61 15.13L1022.53 8.04997ZM1035.36 20.88L1032.95 18.47L1037.21 14.21L1043.88 20.88H1035.37H1035.36ZM1054.22 20.88H1053.93L1057.74 17.07L1061.55 20.88H1054.22ZM1065.17 17.81L1061.08 13.72L1066.61 8.18997L1069.95 4.84997L1072.93 1.86997H1079.81H1081.11L1080.46 2.51997L1074.04 8.93997L1070.7 12.28L1065.17 17.81ZM1078.04 20.88H1068.79L1074.04 15.63L1077.38 12.29L1083.8 5.86997L1087.14 2.52997L1087.79 1.87997H1097.04L1091.76 7.15997L1088.42 10.5L1082 16.92L1078.66 20.26L1078.03 20.89L1078.04 20.88ZM1084.71 20.88H1079.3H1079L1079.15 20.73L1082.49 17.39L1088.91 10.97L1092.25 7.62997L1098 1.87997H1100.33H1103.71L1102.02 3.56997L1095.1 10.49L1091.76 13.83L1085.34 20.25L1084.7 20.89L1084.71 20.88ZM1094.73 20.88H1085.98L1085.82 20.72L1092.24 14.3L1096.77 18.84L1094.73 20.88ZM1100.12 15.49L1095.58 10.96L1102.5 4.03997L1107.04 8.56997L1100.12 15.49ZM1111.51 20.88H1105.51L1103.46 18.83L1110.38 11.91L1115.43 16.96L1111.51 20.88ZM1113.72 8.56997L1119.68 2.60997L1124.73 7.65997L1118.77 13.62L1113.72 8.56997ZM1126.03 20.88H1119.34H1118.17L1118.76 20.29L1122.1 16.95L1128.06 10.99L1131.4 7.64997L1136.66 2.38997L1137.17 1.87997H1142.83H1147.56L1145.19 4.24997L1141.85 7.58997L1136.59 12.85L1133.25 16.19L1128.56 20.88H1126.03ZM1136.18 20.88L1137.06 20L1137.94 20.88H1136.18ZM1139.93 16.18L1136.59 19.52L1135.23 20.88H1129.52L1133.73 16.67L1137.07 13.33L1142.33 8.06997L1145.67 4.72997L1148.51 1.88997H1151.34H1154.22L1152.78 3.32997L1148.52 7.58997L1145.18 10.93L1139.92 16.19L1139.93 16.18ZM1150.35 20.88H1144.63L1140.41 16.66L1145.67 11.4L1152.75 18.48L1150.35 20.88ZM1156.1 15.13L1149.02 8.04997L1153.28 3.78997L1160.36 10.87L1156.1 15.13ZM1170.36 20.88H1161.85L1159.44 18.47L1163.7 14.21L1170.37 20.88H1170.36ZM1163.7 7.52997L1158.04 1.86997H1169.36L1163.7 7.52997Z" fill="#FFFEFD"/>
<path d="M1433.7 1.86997V-0.160034H1431.05H1424.38H1410.21H1409.26H1409.01H1403.55H1402.6H1402.33H1393.82H1392.22H1387.14H1385.55H1376.61H1375.44H1369.92H1368.77H1359.7H1358.75H1358.01H1353.04H1352.09H1351.33H1342.84H1337.49H1336.15H1330.8H1327.98H1321.29H1317.96H1311.27H1307.23H1304.58H1300.22H1297.91H1293.53H1283.74H1282.79H1282.54H1280.76H1277.07H1276.12H1275.85H1267.34H1265.74H1260.66H1259.07H1250.13H1248.96H1243.44H1242.29H1233.22H1232.27H1231.53H1226.56H1225.61H1224.85H1216.36H1211.01H1209.67H1204.32H1201.5H1194.81H1191.48H1184.79H1173.73H1167.04H1154.27V1.86997H1169.06L1180.91 13.72L1173.76 20.87H1154.27V22.9H1171.74H1178.43H1186.6H1190.1H1193.28H1196.78H1202.53H1203.48H1207.83H1209.19H1210.14H1214.51H1219.21H1225.88H1227.35H1234.04H1235.99H1242.66H1247.88H1253.05H1254H1254.56H1259.71H1260.66H1266.47H1273.16H1274.83H1280.74H1281.5H1283.69H1290.38H1298.21H1298.89H1304.9H1305.58H1307.21H1313.07H1316.57H1319.75H1323.25H1329H1329.95H1334.3H1335.66H1336.61H1340.98H1345.68H1352.35H1353.82H1360.51H1362.46H1369.13H1374.35H1379.52H1380.47H1381.03H1386.18H1387.13H1392.94H1399.63H1401.3H1407.97H1410.16H1416.85H1425.36H1432.05H1433.68V20.87H1430.02L1420.01 10.86L1429 1.86997H1433.68H1433.7ZM1383.51 1.86997L1381.07 4.30997L1378.63 1.86997H1383.52H1383.51ZM1366.74 1.86997L1363.38 5.22997L1360.02 1.86997H1366.74ZM1307.22 1.86997H1313.29H1319.25L1316.27 4.84997L1310.74 10.38L1302.38 2.01997L1302.53 1.86997H1307.21H1307.22ZM1307.4 13.72L1301.9 19.22L1293.54 10.86L1299.04 5.35997L1307.4 13.72ZM1295.55 1.86997L1295.71 2.02997L1290.21 7.52997L1284.55 1.86997H1295.54H1295.55ZM1257.03 1.86997L1254.59 4.30997L1252.15 1.86997H1257.04H1257.03ZM1240.26 1.86997L1236.9 5.22997L1233.54 1.86997H1240.26ZM1175.75 1.86997H1186.81H1192.77L1189.79 4.84997L1184.26 10.38L1175.75 1.86997ZM1180.45 20.88L1184.26 17.07L1188.07 20.88H1180.45ZM1191.69 17.81L1187.6 13.72L1193.13 8.18997L1196.47 4.84997L1199.45 1.86997H1206.33H1207.63L1206.98 2.51997L1200.56 8.93997L1197.22 12.28L1191.69 17.81ZM1204.56 20.88H1195.31L1200.56 15.63L1203.9 12.29L1210.32 5.86997L1213.66 2.52997L1214.31 1.87997H1223.56L1218.28 7.15997L1214.94 10.5L1208.52 16.92L1205.18 20.26L1204.55 20.89L1204.56 20.88ZM1211.23 20.88H1205.82H1205.52L1205.67 20.73L1209.01 17.39L1215.43 10.97L1218.77 7.62997L1224.52 1.87997H1226.85H1230.23L1228.54 3.56997L1221.62 10.49L1218.28 13.83L1211.86 20.25L1211.22 20.89L1211.23 20.88ZM1221.25 20.88H1212.5L1212.34 20.72L1218.76 14.3L1223.3 18.84L1221.26 20.88H1221.25ZM1226.64 15.49L1222.1 10.96L1229.02 4.03997L1233.56 8.56997L1226.64 15.49ZM1238.03 20.88H1232.03L1229.98 18.83L1236.9 11.91L1241.95 16.96L1238.03 20.88ZM1240.24 8.56997L1246.2 2.60997L1251.25 7.65997L1245.29 13.62L1240.24 8.56997ZM1252.55 20.88H1245.86H1244.69L1245.28 20.29L1248.62 16.95L1254.58 10.99L1257.92 7.64997L1263.18 2.38997L1263.69 1.87997H1269.35H1274.08L1271.71 4.24997L1268.37 7.58997L1263.11 12.85L1259.77 16.19L1255.08 20.88H1252.55ZM1262.7 20.88L1263.58 20L1264.46 20.88H1262.7ZM1266.45 16.18L1263.11 19.52L1261.75 20.88H1256.04L1260.25 16.67L1263.59 13.33L1268.85 8.06997L1272.19 4.72997L1275.03 1.88997H1277.86H1280.74L1279.3 3.32997L1275.04 7.58997L1271.7 10.93L1266.44 16.19L1266.45 16.18ZM1276.87 20.88H1271.15L1266.93 16.66L1272.19 11.4L1279.27 18.48L1276.87 20.88ZM1275.53 8.04997L1279.79 3.78997L1286.87 10.87L1282.61 15.13L1275.53 8.04997ZM1288.36 20.88L1285.95 18.47L1290.21 14.21L1296.88 20.88H1288.37H1288.36ZM1307.22 20.88H1306.93L1310.74 17.07L1314.55 20.88H1307.22ZM1318.17 17.81L1314.08 13.72L1319.61 8.18997L1322.95 4.84997L1325.93 1.86997H1332.81H1334.11L1333.46 2.51997L1327.04 8.93997L1323.7 12.28L1318.17 17.81ZM1331.04 20.88H1321.79L1327.04 15.63L1330.38 12.29L1336.8 5.86997L1340.14 2.52997L1340.79 1.87997H1350.04L1344.76 7.15997L1341.42 10.5L1335 16.92L1331.66 20.26L1331.03 20.89L1331.04 20.88ZM1337.71 20.88H1332.3H1332L1332.15 20.73L1335.49 17.39L1341.91 10.97L1345.25 7.62997L1351 1.87997H1353.33H1356.71L1355.02 3.56997L1348.1 10.49L1344.76 13.83L1338.34 20.25L1337.7 20.89L1337.71 20.88ZM1347.73 20.88H1338.98L1338.82 20.72L1345.24 14.3L1349.77 18.84L1347.73 20.88ZM1353.12 15.49L1348.58 10.96L1355.5 4.03997L1360.04 8.56997L1353.12 15.49ZM1364.51 20.88H1358.51L1356.46 18.83L1363.38 11.91L1368.43 16.96L1364.51 20.88ZM1366.72 8.56997L1372.68 2.60997L1377.73 7.65997L1371.77 13.62L1366.72 8.56997ZM1379.03 20.88H1372.34H1371.17L1371.76 20.29L1375.1 16.95L1381.06 10.99L1384.4 7.64997L1389.66 2.38997L1390.17 1.87997H1395.83H1400.56L1398.19 4.24997L1394.85 7.58997L1389.59 12.85L1386.25 16.19L1381.56 20.88H1379.03ZM1389.18 20.88L1390.06 20L1390.94 20.88H1389.18ZM1392.93 16.18L1389.59 19.52L1388.23 20.88H1382.52L1386.73 16.67L1390.07 13.33L1395.33 8.06997L1398.67 4.72997L1401.51 1.88997H1404.34H1407.22L1405.78 3.32997L1401.52 7.58997L1398.18 10.93L1392.92 16.19L1392.93 16.18ZM1403.35 20.88H1397.63L1393.41 16.66L1398.67 11.4L1405.75 18.48L1403.35 20.88ZM1409.1 15.13L1402.02 8.04997L1406.28 3.78997L1413.36 10.87L1409.1 15.13ZM1423.36 20.88H1414.85L1412.44 18.47L1416.7 14.21L1423.37 20.88H1423.36ZM1416.7 7.52997L1411.04 1.86997H1422.36L1416.7 7.52997Z" fill="#FFFEFD"/>
</g>
<mask id="mask3_3011_19701" style="mask-type:luminance" maskUnits="userSpaceOnUse" x="1382" y="0" width="470" height="23">
<path d="M1851.72 0H1382.79V23H1851.72V0Z" fill="white"/>
</mask>
<g mask="url(#mask3_3011_19701)">
<path d="M1641.63 1.86997V-0.160034H1638.98H1632.31H1618.14H1617.19H1616.94H1611.48H1610.53H1610.26H1601.75H1600.15H1595.07H1593.48H1584.54H1583.37H1577.85H1576.7H1567.63H1566.68H1565.94H1560.97H1560.02H1559.26H1550.77H1545.42H1544.08H1538.73H1535.91H1529.22H1525.89H1519.2H1515.16H1512.51H1508.15H1505.84H1501.46H1491.67H1490.72H1490.47H1488.69H1485H1484.05H1483.78H1475.27H1473.67H1468.59H1467H1458.06H1456.89H1451.37H1450.22H1441.15H1440.2H1439.46H1434.49H1433.54H1432.78H1424.29H1418.94H1417.6H1412.25H1409.43H1402.74H1399.41H1392.72H1381.66H1374.97H1362.2V1.86997H1376.99L1388.84 13.72L1381.69 20.87H1362.2V22.9H1379.67H1386.36H1394.53H1398.03H1401.21H1404.71H1410.46H1411.41H1415.76H1417.12H1418.07H1422.44H1427.14H1433.81H1435.28H1441.97H1443.92H1450.59H1455.81H1460.98H1461.93H1462.49H1467.64H1468.59H1474.4H1481.09H1482.76H1488.67H1489.43H1491.62H1498.31H1506.14H1506.82H1512.83H1513.51H1515.14H1521H1524.5H1527.68H1531.18H1536.93H1537.88H1542.23H1543.59H1544.54H1548.91H1553.61H1560.28H1561.75H1568.44H1570.39H1577.06H1582.28H1587.45H1588.4H1588.96H1594.11H1595.06H1600.87H1607.56H1609.23H1615.9H1618.09H1624.78H1633.29H1639.98H1641.61V20.87H1637.95L1627.94 10.86L1636.93 1.86997H1641.61H1641.63ZM1591.44 1.86997L1589 4.30997L1586.56 1.86997H1591.45H1591.44ZM1574.67 1.86997L1571.31 5.22997L1567.95 1.86997H1574.67ZM1515.15 1.86997H1521.22H1527.18L1524.2 4.84997L1518.67 10.38L1510.31 2.01997L1510.46 1.86997H1515.14H1515.15ZM1515.33 13.72L1509.83 19.22L1501.47 10.86L1506.97 5.35997L1515.33 13.72ZM1503.48 1.86997L1503.64 2.02997L1498.14 7.52997L1492.48 1.86997H1503.47H1503.48ZM1464.96 1.86997L1462.52 4.30997L1460.08 1.86997H1464.97H1464.96ZM1448.19 1.86997L1444.83 5.22997L1441.47 1.86997H1448.19ZM1383.68 1.86997H1394.74H1400.7L1397.72 4.84997L1392.19 10.38L1383.68 1.86997ZM1388.38 20.88L1392.19 17.07L1396 20.88H1388.38ZM1399.62 17.81L1395.53 13.72L1401.06 8.18997L1404.4 4.84997L1407.38 1.86997H1414.26H1415.56L1414.91 2.51997L1408.49 8.93997L1405.15 12.28L1399.62 17.81ZM1412.49 20.88H1403.24L1408.49 15.63L1411.83 12.29L1418.25 5.86997L1421.59 2.52997L1422.24 1.87997H1431.49L1426.21 7.15997L1422.87 10.5L1416.45 16.92L1413.11 20.26L1412.48 20.89L1412.49 20.88ZM1419.16 20.88H1413.75H1413.45L1413.6 20.73L1416.94 17.39L1423.36 10.97L1426.7 7.62997L1432.45 1.87997H1434.78H1438.16L1436.47 3.56997L1429.55 10.49L1426.21 13.83L1419.79 20.25L1419.15 20.89L1419.16 20.88ZM1429.18 20.88H1420.43L1420.27 20.72L1426.69 14.3L1431.23 18.84L1429.19 20.88H1429.18ZM1434.57 15.49L1430.03 10.96L1436.95 4.03997L1441.49 8.56997L1434.57 15.49ZM1445.96 20.88H1439.96L1437.91 18.83L1444.83 11.91L1449.88 16.96L1445.96 20.88ZM1448.17 8.56997L1454.13 2.60997L1459.18 7.65997L1453.22 13.62L1448.17 8.56997ZM1460.48 20.88H1453.79H1452.62L1453.21 20.29L1456.55 16.95L1462.51 10.99L1465.85 7.64997L1471.11 2.38997L1471.62 1.87997H1477.28H1482.01L1479.64 4.24997L1476.3 7.58997L1471.04 12.85L1467.7 16.19L1463.01 20.88H1460.48ZM1470.63 20.88L1471.51 20L1472.39 20.88H1470.63ZM1474.38 16.18L1471.04 19.52L1469.68 20.88H1463.97L1468.18 16.67L1471.52 13.33L1476.78 8.06997L1480.12 4.72997L1482.96 1.88997H1485.79H1488.67L1487.23 3.32997L1482.97 7.58997L1479.63 10.93L1474.37 16.19L1474.38 16.18ZM1484.8 20.88H1479.08L1474.86 16.66L1480.12 11.4L1487.2 18.48L1484.8 20.88ZM1483.46 8.04997L1487.72 3.78997L1494.8 10.87L1490.54 15.13L1483.46 8.04997ZM1496.29 20.88L1493.88 18.47L1498.14 14.21L1504.81 20.88H1496.3H1496.29ZM1515.15 20.88H1514.86L1518.67 17.07L1522.48 20.88H1515.15ZM1526.1 17.81L1522.01 13.72L1527.54 8.18997L1530.88 4.84997L1533.86 1.86997H1540.74H1542.04L1541.39 2.51997L1534.97 8.93997L1531.63 12.28L1526.1 17.81ZM1538.97 20.88H1529.72L1534.97 15.63L1538.31 12.29L1544.73 5.86997L1548.07 2.52997L1548.72 1.87997H1557.97L1552.69 7.15997L1549.35 10.5L1542.93 16.92L1539.59 20.26L1538.96 20.89L1538.97 20.88ZM1545.64 20.88H1540.23H1539.93L1540.08 20.73L1543.42 17.39L1549.84 10.97L1553.18 7.62997L1558.93 1.87997H1561.26H1564.64L1562.95 3.56997L1556.03 10.49L1552.69 13.83L1546.27 20.25L1545.63 20.89L1545.64 20.88ZM1555.66 20.88H1546.91L1546.75 20.72L1553.17 14.3L1557.7 18.84L1555.66 20.88ZM1561.05 15.49L1556.51 10.96L1563.43 4.03997L1567.97 8.56997L1561.05 15.49ZM1572.44 20.88H1566.44L1564.39 18.83L1571.31 11.91L1576.36 16.96L1572.44 20.88ZM1574.65 8.56997L1580.61 2.60997L1585.66 7.65997L1579.7 13.62L1574.65 8.56997ZM1586.96 20.88H1580.27H1579.1L1579.69 20.29L1583.03 16.95L1588.99 10.99L1592.33 7.64997L1597.59 2.38997L1598.1 1.87997H1603.76H1608.49L1606.12 4.24997L1602.78 7.58997L1597.52 12.85L1594.18 16.19L1589.49 20.88H1586.96ZM1597.11 20.88L1597.99 20L1598.87 20.88H1597.11ZM1600.86 16.18L1597.52 19.52L1596.16 20.88H1590.45L1594.66 16.67L1598 13.33L1603.26 8.06997L1606.6 4.72997L1609.44 1.88997H1612.27H1615.15L1613.71 3.32997L1609.45 7.58997L1606.11 10.93L1600.85 16.19L1600.86 16.18ZM1611.28 20.88H1605.56L1601.34 16.66L1606.6 11.4L1613.68 18.48L1611.28 20.88ZM1617.03 15.13L1609.95 8.04997L1614.21 3.78997L1621.29 10.87L1617.03 15.13ZM1631.29 20.88H1622.78L1620.37 18.47L1624.63 14.21L1631.3 20.88H1631.29ZM1624.63 7.52997L1618.97 1.86997H1630.29L1624.63 7.52997Z" fill="#FFFEFD"/>
</g>
</svg>
