<svg width="245" height="89" viewBox="0 0 245 89" fill="none" xmlns="http://www.w3.org/2000/svg">
<path d="M30.6526 88.1664V53.3981L56.5669 1.24567H53.1116L29.033 49.295L4.63038 1.24567H0.419312L26.8734 53.3981V88.1664H30.6526Z" fill="white"/>
<path d="M85.0726 0.921631L42.638 88.1663H46.2012L85.6125 7.18424L125.348 88.1663H129.451L86.9082 0.921631H85.0726Z" fill="white"/>
<path d="M163.895 1.24567H120.165V4.59292H140.248V88.1664H144.027V4.59292H163.895V1.24567Z" fill="white"/>
<path d="M244.661 50.2665C245.093 47.0273 245.093 43.68 244.769 40.4407C244.769 40.3327 244.769 40.2248 244.769 40.1168C244.769 39.9008 244.661 39.5769 244.661 39.361C244.661 39.253 244.661 39.145 244.661 39.145C244.661 39.037 244.661 38.9291 244.661 38.8211C244.661 38.6051 244.553 38.3892 244.553 38.1732C244.553 37.9573 244.445 37.7413 244.445 37.5254C244.445 37.4174 244.445 37.3094 244.337 37.0935C244.337 36.9855 244.337 36.9855 244.337 36.8775C244.337 36.6616 244.229 36.4456 244.229 36.2297C244.229 36.1217 244.229 36.1217 244.229 36.0137C244.229 35.9057 244.229 35.7977 244.121 35.6898V35.5818C242.718 29.3192 240.018 23.3805 236.131 18.3056C234.079 15.7142 231.812 13.3387 229.221 11.1792C229.113 11.0712 229.113 11.0712 229.005 10.9633C228.789 10.7473 228.573 10.6393 228.357 10.4234C228.249 10.3154 228.141 10.2074 228.033 10.2074C227.817 10.0994 227.601 9.88349 227.385 9.77552C227.277 9.66754 227.061 9.55956 226.953 9.45159C226.845 9.34361 226.737 9.23564 226.521 9.12766C226.413 9.12766 226.413 9.01969 226.305 9.01969C226.089 8.91171 225.981 8.80373 225.765 8.69575L225.549 8.47981C225.549 8.47981 225.441 8.4798 225.441 8.37183C225.333 8.37183 225.333 8.26385 225.225 8.26385C219.827 4.80862 213.672 2.54112 207.301 1.78529C204.062 1.35338 200.715 1.35338 197.476 1.67731C197.368 1.67731 197.26 1.67731 197.152 1.67731C196.828 1.67731 196.612 1.78529 196.288 1.78529C196.072 1.78529 195.964 1.78529 195.748 1.89326C195.532 1.89326 195.316 2.00124 194.992 2.00124C194.776 2.00124 194.56 2.10922 194.452 2.10922C194.344 2.10922 194.128 2.10921 194.02 2.21719C193.912 2.21719 193.912 2.21719 193.804 2.21719C193.588 2.21719 193.372 2.32517 193.157 2.32517C193.049 2.32517 192.941 2.32517 192.833 2.43314H192.725C192.617 2.43314 192.617 2.43314 192.509 2.43314C186.246 3.83683 180.307 6.53624 175.233 10.4234C172.641 12.4749 170.266 14.7424 168.214 17.3338C168.106 17.4418 168.106 17.4418 167.998 17.5498C167.782 17.7657 167.674 17.9817 167.458 18.1977C167.35 18.3056 167.242 18.4136 167.134 18.6296C167.026 18.8455 166.81 19.0615 166.702 19.1694C166.594 19.2774 166.486 19.4934 166.378 19.6013C166.271 19.7093 166.163 19.8173 166.055 20.0332C166.055 20.1412 165.947 20.1412 165.947 20.2492C165.839 20.4652 165.731 20.5731 165.623 20.7891C165.515 20.8971 165.515 21.005 165.407 21.005L165.299 21.113C165.299 21.221 165.191 21.221 165.191 21.329C161.736 26.7278 159.468 32.8824 158.712 39.253C158.28 42.4923 158.28 45.8395 158.604 49.0788C158.604 49.1868 158.604 49.2948 158.604 49.4027C158.604 49.7267 158.712 49.9426 158.712 50.2665C158.712 50.4825 158.712 50.5905 158.82 50.8064C158.82 51.0224 158.928 51.2383 158.928 51.5623C158.928 51.7782 159.036 51.9942 159.036 52.1021C159.036 52.2101 159.036 52.4261 159.144 52.534C159.144 52.642 159.144 52.642 159.144 52.75C159.144 52.9659 159.252 53.1819 159.252 53.3979C159.252 53.5058 159.252 53.6138 159.36 53.7218V53.8298C159.36 53.9377 159.36 53.9377 159.36 54.0457C160.764 60.3083 163.463 66.247 167.35 71.3219C169.402 73.9133 171.669 76.2888 174.261 78.3403C174.369 78.4483 174.369 78.4483 174.477 78.5563C174.693 78.7722 174.909 78.8802 175.125 79.0962C175.233 79.2041 175.34 79.3121 175.556 79.4201C175.772 79.5281 175.988 79.744 176.096 79.852C176.204 79.96 176.42 80.0679 176.528 80.1759C176.636 80.2839 176.744 80.3919 176.96 80.4998C177.068 80.4998 177.068 80.6078 177.176 80.6078C177.392 80.7158 177.5 80.8238 177.716 80.9317C177.824 81.0397 177.932 81.0397 177.932 81.1477L178.04 81.2557C178.148 81.2557 178.148 81.3637 178.256 81.3637C183.655 84.8189 189.809 87.0864 196.18 87.8422C199.095 88.1661 202.119 88.2741 205.034 88.0582C205.358 88.0582 205.682 88.0582 206.006 87.9502C206.114 87.9502 206.222 87.9502 206.33 87.9502C206.546 87.9502 206.869 87.8422 207.085 87.8422C207.301 87.8422 207.517 87.7342 207.733 87.7342C207.949 87.7342 208.057 87.7342 208.273 87.6263H208.381C208.597 87.6263 208.705 87.5183 208.921 87.5183C209.137 87.5183 209.245 87.4103 209.461 87.4103C209.569 87.4103 209.569 87.4103 209.677 87.4103C209.893 87.4103 210.109 87.3023 210.217 87.3023C210.325 87.3023 210.433 87.3023 210.541 87.1944H210.649C210.757 87.1944 210.757 87.1944 210.865 87.1944C217.127 85.7907 223.066 83.0913 228.141 79.2041C230.732 77.1526 233.108 74.8851 235.159 72.2937C235.267 72.1857 235.267 72.1857 235.375 72.0777C235.591 71.8618 235.699 71.6458 235.915 71.4298C236.023 71.3219 236.131 71.2139 236.239 70.998C236.347 70.782 236.563 70.566 236.671 70.4581C236.779 70.3501 236.887 70.1341 236.995 70.0262C237.103 69.9182 237.211 69.8102 237.319 69.5943C237.319 69.4863 237.427 69.4863 237.427 69.3783C237.535 69.1624 237.643 69.0544 237.751 68.8384C237.859 68.7305 237.859 68.6225 237.967 68.6225L238.075 68.5145C238.075 68.4065 238.183 68.4065 238.183 68.2986C241.638 62.6838 243.905 56.6371 244.661 50.2665ZM221.986 81.5796C221.014 82.1195 220.151 82.5514 219.179 82.9833C217.559 83.0913 215.831 83.0913 214.212 82.9833C214.752 82.3354 215.4 81.7956 215.939 81.1477C215.939 81.1477 215.939 81.0397 216.047 81.0397C218.207 81.3636 220.367 81.4716 222.526 81.3637L222.418 81.4716C222.202 81.4716 222.094 81.4716 221.986 81.5796ZM189.917 85.1428C188.945 84.8189 187.866 84.495 186.894 84.171C185.706 83.0913 184.518 81.9035 183.439 80.6078C184.302 80.6078 185.166 80.4998 185.922 80.4998H186.03C187.326 82.2275 188.837 83.8471 190.457 85.3588H190.241C190.241 85.2508 190.025 85.2508 189.917 85.1428ZM164.651 65.0593C164.543 64.9513 164.435 64.7353 164.435 64.6274C164.003 63.8715 163.679 63.1157 163.355 62.3599C163.247 60.7402 163.247 59.0126 163.355 57.393C164.003 57.9328 164.543 58.5807 165.191 59.1206C165.191 59.1206 165.299 59.1206 165.299 59.2286C164.975 61.3881 164.867 63.5476 164.975 65.7071C164.975 65.7071 164.975 65.5992 164.867 65.5992C164.867 65.3832 164.759 65.1672 164.651 65.0593ZM161.088 33.0983C161.412 32.0186 161.736 31.0468 162.059 30.075C163.139 28.8873 164.327 27.6995 165.623 26.6198C165.623 27.4836 165.731 28.3474 165.731 29.1032V29.2112C164.003 30.5069 162.383 32.0186 160.872 33.6382C160.872 33.5302 160.872 33.5303 160.872 33.4223C160.98 33.3143 160.98 33.2063 161.088 33.0983ZM181.171 7.83195C182.143 7.29207 183.007 6.86016 183.979 6.42826C185.598 6.32028 187.326 6.32028 188.945 6.42826C188.406 7.07612 187.758 7.616 187.218 8.26385C187.218 8.26385 187.218 8.37183 187.11 8.37183C184.95 8.0479 182.791 7.93992 180.631 8.0479C180.739 8.0479 180.739 7.93993 180.847 7.93993C180.955 7.93993 181.063 7.93992 181.171 7.83195ZM213.24 4.26874C214.212 4.59267 215.292 4.9166 216.263 5.24052C217.451 6.32028 218.639 7.50802 219.719 8.80373C218.855 8.80373 217.991 8.91171 217.235 8.91171H217.127C215.832 7.18409 214.32 5.56445 212.7 4.05278C212.808 4.05278 212.808 4.05278 212.916 4.05278C212.916 4.16076 213.024 4.16076 213.24 4.26874ZM238.398 24.3523C238.938 25.3241 239.37 26.1879 239.802 27.1597C239.91 28.7793 239.91 30.5069 239.802 32.1266C239.154 31.5867 238.614 30.9388 237.967 30.3989C237.967 30.3989 237.859 30.3989 237.859 30.291C238.183 28.1314 238.291 25.9719 238.183 23.8124L238.291 23.9204C238.291 24.0284 238.398 24.1363 238.398 24.3523ZM242.07 56.3132C241.746 57.285 241.422 58.3647 241.098 59.3365C240.018 60.5243 238.83 61.712 237.535 62.7918C237.535 61.928 237.427 61.0642 237.427 60.3083V60.2003C239.154 58.9046 240.774 57.393 242.286 55.7733C242.286 55.8813 242.286 55.8813 242.286 55.9893C242.07 56.0973 242.07 56.2052 242.07 56.3132ZM170.158 57.393C170.698 58.6887 171.237 59.8764 171.885 61.0641C167.242 58.3647 163.031 54.6936 159.792 50.3745C159.684 49.1868 159.576 48.107 159.468 46.9193C162.383 51.0224 166.055 54.4776 170.158 57.393ZM159.468 42.8162C159.468 41.7364 159.576 40.7647 159.684 39.6849C160.008 40.2248 160.44 40.6567 160.872 41.1966C160.44 41.6285 160.008 42.0604 159.684 42.4923C159.576 42.7082 159.576 42.8162 159.468 42.8162ZM172.857 16.1461C173.613 16.0381 174.261 16.0381 175.017 16.0381C174.909 18.5216 174.909 21.005 175.233 23.4885L175.125 23.5965C174.909 23.9204 174.693 24.2443 174.369 24.5682C174.369 24.5682 174.369 24.5682 174.369 24.6762L174.261 24.7842C173.613 25.756 172.965 26.7278 172.317 27.6995C171.885 23.8124 172.101 19.9253 172.857 16.1461ZM233 32.0186C232.46 30.7229 231.92 29.5351 231.272 28.3474C235.915 31.0468 240.126 34.718 243.365 39.037C243.473 40.2248 243.581 41.3045 243.689 42.4923C240.774 38.3892 237.103 34.9339 233 32.0186ZM243.581 46.5954C243.581 47.6751 243.473 48.6469 243.365 49.7267C243.041 49.1868 242.61 48.7549 242.178 48.215C242.61 47.7831 243.041 47.3512 243.365 46.9193C243.473 46.7033 243.581 46.5954 243.581 46.5954ZM230.3 73.2654C229.544 73.3734 228.897 73.3734 228.141 73.3734C228.249 70.89 228.249 68.4065 227.925 65.9231L228.033 65.8151C228.249 65.4912 228.465 65.1672 228.789 64.8433C228.789 64.8433 228.789 64.8433 228.789 64.7353L228.897 64.6274C229.544 63.6556 230.192 62.6838 230.84 61.712C231.164 65.5991 231.056 69.4863 230.3 73.2654ZM218.963 72.1857C218.855 72.2937 218.639 72.4016 218.423 72.5096C215.724 74.1292 212.916 75.317 209.893 76.1808C209.029 76.3968 208.165 76.6127 207.301 76.7207C207.085 76.7207 206.762 76.8287 206.546 76.8287C206.33 76.8287 206.222 76.8287 206.006 76.9366C202.011 77.4765 197.8 77.2606 193.804 76.2888C193.696 76.2888 193.696 76.2888 193.588 76.1808C193.265 76.0728 192.941 75.9649 192.617 75.9649C192.401 75.9649 192.185 75.8569 192.077 75.7489C191.969 75.7489 191.861 75.6409 191.753 75.6409C188.19 74.4532 184.842 72.7256 181.819 70.4581C181.711 70.4581 181.711 70.3501 181.603 70.3501C181.387 70.2421 181.279 70.0262 181.063 69.9182C178.364 67.7587 175.988 65.0593 174.045 62.1439V62.0359C173.937 61.82 173.829 61.712 173.721 61.4961C172.101 58.7967 170.913 55.9893 170.05 52.9659C169.834 52.1021 169.618 51.2383 169.51 50.3745C169.51 50.1586 169.402 49.8346 169.402 49.6187C169.402 49.4027 169.402 49.2948 169.294 49.0788C168.754 45.0837 168.97 40.8726 169.942 36.9855C169.942 36.8775 169.942 36.7695 170.05 36.6616C170.158 36.3376 170.158 36.0137 170.266 35.7977C171.345 31.8026 173.289 28.1314 175.772 24.8922C175.772 24.8922 175.772 24.8922 175.88 24.7842C176.096 24.5682 176.204 24.3523 176.42 24.1363C176.42 24.0284 176.528 24.0284 176.528 23.9204C176.744 23.7044 176.852 23.4885 177.068 23.2725C177.176 23.0566 177.392 22.9486 177.5 22.7326C177.5 22.7326 177.5 22.7326 177.5 22.6247C179.444 20.5731 181.603 18.7375 183.979 17.1179L184.087 17.2259C184.302 17.1179 184.41 17.0099 184.626 16.9019C187.326 15.2823 190.133 14.0946 193.157 13.2308C194.02 13.0148 194.884 12.7988 195.748 12.6909C195.964 12.6909 196.288 12.5829 196.504 12.5829C196.72 12.5829 196.828 12.5829 197.044 12.4749C201.039 11.935 205.25 12.151 209.245 13.1228C209.353 13.1228 209.353 13.1228 209.461 13.2308C209.785 13.3387 210.109 13.4467 210.433 13.4467C210.649 13.5547 210.865 13.5547 210.973 13.6627C211.081 13.6627 211.189 13.7706 211.297 13.7706C214.86 14.9584 218.315 16.686 221.23 18.9535L221.338 19.0615C221.554 19.1694 221.662 19.3854 221.878 19.4934C224.578 21.6529 226.953 24.2443 228.789 27.1597L228.897 27.2676C229.005 27.3756 229.113 27.5916 229.221 27.8075C230.84 30.5069 232.028 33.3143 232.892 36.3376C233.108 37.2014 233.324 38.0652 233.432 38.9291C233.432 39.145 233.54 39.4689 233.54 39.6849C233.54 39.9008 233.54 40.0088 233.648 40.2248C234.187 44.2199 233.971 48.431 233 52.4261C233 52.534 233 52.534 232.892 52.642C232.784 52.966 232.676 53.2899 232.676 53.6138C232.676 53.8298 232.568 54.0457 232.46 54.1537C232.46 54.2617 232.352 54.3696 232.352 54.4776C231.164 58.0408 229.436 61.4961 227.169 64.4114L227.061 64.5194C226.953 64.7353 226.737 64.8433 226.629 65.0593C224.47 67.7587 221.878 70.1341 218.963 71.9697C219.071 72.0777 219.071 72.0777 218.963 72.1857ZM235.159 41.0886C235.159 40.9806 235.159 40.9806 235.159 40.8726C235.159 40.7647 235.159 40.6567 235.159 40.5487C235.159 40.4407 235.159 40.3327 235.159 40.2248C235.159 40.0088 235.159 39.9008 235.051 39.6849V39.5769C235.051 39.4689 235.051 39.4689 235.051 39.361C234.835 38.1732 234.619 37.0935 234.295 36.0137C237.319 38.4972 239.91 41.3045 242.07 44.5438C241.638 45.0837 241.098 45.6236 240.666 46.1635C239.046 44.4358 237.211 42.7082 235.159 41.0886ZM167.89 48.323C167.89 48.431 167.89 48.431 167.89 48.5389C167.89 48.5389 167.89 48.5389 167.89 48.6469C167.89 48.7549 167.89 48.8629 167.89 48.8629C167.89 48.9708 167.89 49.1868 167.998 49.2948C167.998 49.4027 167.998 49.6187 168.106 49.7267V49.8346C168.106 49.9426 168.106 50.0506 168.106 50.1586C168.106 50.3745 168.214 50.5905 168.214 50.8064C168.322 51.6702 168.538 52.534 168.754 53.5058C165.731 51.0224 163.139 48.215 160.872 44.9757C161.304 44.4358 161.843 43.896 162.275 43.3561C164.111 44.9757 165.947 46.7033 167.89 48.323ZM235.375 44.4358C236.671 45.5156 237.859 46.7033 238.938 47.999C237.859 49.0788 236.671 50.0506 235.375 51.0224C235.267 50.5905 235.051 50.1586 234.943 49.8346C235.267 47.999 235.375 46.1634 235.375 44.4358ZM240.558 49.8346C241.098 50.5905 241.638 51.3463 242.178 52.1021C240.666 54.0457 238.938 55.7733 236.995 57.285C236.995 56.9611 236.887 56.7451 236.887 56.5292V56.4212C236.887 56.0973 236.779 55.8813 236.671 55.5574C236.563 55.2334 236.563 55.0175 236.455 54.6936L236.347 54.3696C236.239 54.1537 236.239 53.8298 236.131 53.6138V53.5058C236.131 53.5058 236.131 53.5058 236.131 53.3979C237.751 52.3181 239.154 51.1303 240.558 49.8346ZM225.333 20.5731C227.061 20.4651 228.681 20.4651 230.408 20.5731C230.408 22.0848 230.192 23.5965 229.976 25.2161C229.544 25.0001 229.113 24.7842 228.789 24.6762C227.709 23.1646 226.521 21.8688 225.333 20.5731ZM222.85 18.4136L222.742 18.3056C222.418 18.0897 222.094 17.8737 221.77 17.5498C221.77 17.5498 221.77 17.5498 221.662 17.5498L221.554 17.4418C220.582 16.794 219.611 16.1461 218.639 15.4983C222.526 15.0663 226.413 15.2823 230.192 16.0381C230.3 16.794 230.3 17.4418 230.3 18.1977C227.817 17.9817 225.333 18.0897 222.85 18.4136ZM201.255 10.8553C202.334 9.55956 203.522 8.37183 204.818 7.29207C205.898 8.37183 206.869 9.55956 207.841 10.8553C207.409 10.9633 206.977 11.1792 206.654 11.2872C204.818 10.9633 203.09 10.8553 201.255 10.8553ZM206.762 5.7804C207.517 5.24052 208.273 4.70064 209.029 4.16076C210.973 5.67243 212.7 7.40004 214.212 9.34361C213.888 9.34361 213.672 9.45159 213.456 9.45159H213.348C213.024 9.45159 212.808 9.55956 212.484 9.66754C212.16 9.77552 211.944 9.77552 211.62 9.88349L211.297 9.99147C211.081 10.0994 210.757 10.0994 210.541 10.2074H210.433C210.433 10.2074 210.433 10.2074 210.325 10.2074C209.245 8.58778 208.057 7.07612 206.762 5.7804ZM205.034 4.05278C204.602 3.62088 204.17 3.18898 203.63 2.86505C203.522 2.75707 203.522 2.75707 203.414 2.6491C204.494 2.6491 205.466 2.75707 206.546 2.86505C206.006 3.29695 205.466 3.62088 205.034 4.05278ZM203.09 5.56445C201.255 7.18409 199.527 9.01968 198.015 11.0712H197.907C197.8 11.0712 197.692 11.0712 197.584 11.0712C197.476 11.0712 197.26 11.0712 197.152 11.1792C197.044 11.1792 196.828 11.1792 196.72 11.2872C196.612 11.2872 196.504 11.2872 196.396 11.2872C196.18 11.2872 195.964 11.3952 195.748 11.3952C194.884 11.5031 194.02 11.7191 193.049 11.935C195.532 8.91171 198.339 6.32028 201.579 4.05278C202.011 4.59266 202.55 5.13255 203.09 5.56445ZM181.495 17.4418C180.091 18.5216 178.688 19.7093 177.5 20.8971C177.392 19.1694 177.392 17.5498 177.5 15.8222C179.012 15.8222 180.523 16.0381 182.143 16.2541C181.819 16.794 181.603 17.1179 181.495 17.4418ZM177.716 13.5547C177.824 12.5829 177.932 11.7191 178.148 10.7473C180.631 10.5313 183.007 10.5313 185.49 10.7473C185.274 10.9633 185.166 11.1792 185.058 11.3952C185.058 11.3952 185.058 11.3952 184.95 11.5031C184.842 11.7191 184.626 11.935 184.518 12.259C184.41 12.4749 184.195 12.7988 184.087 13.0148L183.871 13.3387C183.763 13.5547 183.655 13.7706 183.439 13.9866V14.0946C183.439 14.0946 183.439 14.0946 183.439 14.2025C181.387 13.7706 179.552 13.5547 177.716 13.5547ZM173.181 13.6627C173.937 13.0148 174.693 12.259 175.556 11.6111C175.448 12.259 175.34 12.9068 175.34 13.4467C174.693 13.4467 174.153 13.4467 173.505 13.5547C173.289 13.6627 173.289 13.6627 173.181 13.6627ZM167.782 44.9757C166.486 43.896 165.299 42.7082 164.219 41.4125C165.299 40.3327 166.486 39.361 167.782 38.3892C167.89 38.8211 168.106 39.253 168.214 39.5769C167.89 41.4125 167.782 43.1401 167.782 44.9757ZM162.599 39.5769C162.059 38.8211 161.52 38.0652 160.98 37.3094C162.491 35.3658 164.219 33.6382 166.163 32.1266C166.163 32.4505 166.27 32.6664 166.27 32.8824V32.9904C166.27 33.3143 166.378 33.5303 166.486 33.8542C166.594 34.1781 166.594 34.3941 166.702 34.718L166.81 35.0419C166.918 35.2579 166.918 35.5818 167.026 35.7977V35.9057C167.026 35.9057 167.026 35.9057 167.026 36.0137C165.407 37.0935 164.003 38.2812 162.599 39.5769ZM177.824 68.8384C176.096 68.9464 174.477 68.9464 172.749 68.8384C172.749 67.3268 172.965 65.8151 173.181 64.1955C173.613 64.4114 174.045 64.6274 174.369 64.7353C175.448 66.247 176.528 67.5427 177.824 68.8384ZM180.307 70.998L180.415 71.1059C180.739 71.3219 181.063 71.5378 181.387 71.8618C181.387 71.8618 181.387 71.8618 181.495 71.8618L181.603 71.9697C182.575 72.6176 183.547 73.2654 184.518 73.9133C180.631 74.3452 176.744 74.1293 172.965 73.3734C172.857 72.6176 172.857 71.9697 172.857 71.2139C175.34 71.4299 177.824 71.3219 180.307 70.998ZM201.795 78.5563C200.715 79.852 199.527 81.0397 198.231 82.1195C197.152 81.0397 196.18 79.852 195.208 78.5563C195.64 78.4483 196.072 78.2323 196.396 78.1244C198.231 78.4483 200.067 78.5563 201.795 78.5563ZM196.396 83.6311C195.64 84.171 194.884 84.7109 194.128 85.2508C192.185 83.7391 190.457 82.0115 188.945 80.0679C189.269 80.0679 189.485 79.96 189.701 79.96H189.809C190.133 79.96 190.349 79.852 190.673 79.744C190.997 79.636 191.213 79.636 191.537 79.5281L191.861 79.4201C192.077 79.3121 192.401 79.3121 192.617 79.2041H192.725C192.725 79.2041 192.725 79.2041 192.833 79.2041C193.912 80.8238 195.1 82.3354 196.396 83.6311ZM198.123 85.3588C198.555 85.7907 198.987 86.2226 199.419 86.5465C199.527 86.6545 199.527 86.6545 199.635 86.7625C198.555 86.7625 197.584 86.6545 196.504 86.5465C197.152 86.1146 197.692 85.7907 198.123 85.3588ZM199.959 83.8471C201.795 82.2275 203.522 80.3919 205.034 78.3403H205.142C205.142 78.3403 205.142 78.3403 205.25 78.3403C205.358 78.3403 205.358 78.3403 205.466 78.3403C205.682 78.3403 205.79 78.3403 206.006 78.2323C206.114 78.2323 206.222 78.2323 206.438 78.1244C206.438 78.1244 206.438 78.1244 206.546 78.1244C206.654 78.1244 206.762 78.1244 206.869 78.1244C207.085 78.1244 207.301 78.0164 207.409 78.0164H207.517C208.381 77.9084 209.245 77.6925 210.109 77.4765C207.625 80.4998 204.818 83.0913 201.579 85.3588C201.039 84.8189 200.499 84.279 199.959 83.8471ZM221.662 71.9697C223.066 70.89 224.47 69.7022 225.657 68.5145C225.765 70.2421 225.765 71.8618 225.657 73.5894C224.146 73.5894 222.634 73.3734 221.014 73.1575C221.338 72.6176 221.446 72.2937 221.662 71.9697ZM225.441 75.8569C225.333 76.8287 225.225 77.6925 225.009 78.6643C222.526 78.8802 220.151 78.8802 217.667 78.6643C217.883 78.4483 217.991 78.2323 218.099 78.0164C218.099 78.0164 218.099 78.0164 218.207 77.9084C218.315 77.6925 218.531 77.4765 218.639 77.1526C218.747 76.9366 218.963 76.6127 219.071 76.3968L219.287 76.0728C219.395 75.8569 219.503 75.6409 219.719 75.425V75.317C219.719 75.317 219.719 75.317 219.719 75.209C221.77 75.6409 223.606 75.8569 225.441 75.8569ZM227.925 75.8569C228.573 75.8569 229.113 75.8569 229.76 75.7489C229.868 75.7489 229.976 75.7489 229.976 75.7489C229.221 76.3968 228.465 77.1526 227.601 77.8004C227.709 77.1526 227.817 76.5047 227.925 75.8569ZM232.676 57.9328C233.216 56.6371 233.648 55.4494 234.079 54.1537C235.483 59.3365 235.807 64.8433 235.051 70.2421C234.295 71.2139 233.648 72.0777 232.784 72.9415C233.648 67.9746 233.648 62.8997 232.676 57.9328ZM234.187 53.5058C234.403 52.534 234.727 51.4543 234.835 50.4825C234.943 50.6985 234.943 50.9144 235.051 51.1304C235.267 51.9942 235.591 52.75 235.807 53.6138V53.7218C235.915 53.9377 235.915 54.2617 236.023 54.4776L236.131 54.8015C236.239 55.1255 236.239 55.3414 236.347 55.6653C236.455 55.9893 236.455 56.2052 236.563 56.5292C236.563 56.5292 236.563 56.5292 236.563 56.6371C236.671 56.9611 236.671 57.285 236.671 57.6089C236.779 58.4727 236.887 59.4445 236.995 60.4163C237.103 61.2801 237.103 62.2519 237.103 63.1157C237.103 64.1955 237.103 65.2752 236.995 66.247C236.995 66.6789 236.887 67.1108 236.887 67.5427C236.347 68.2985 235.915 69.0544 235.375 69.8102C236.131 64.3034 235.699 58.6887 234.187 53.5058ZM230.84 27.8075C230.3 26.9437 229.76 26.0799 229.113 25.2161C229.329 25.3241 229.544 25.432 229.76 25.54C230.516 25.9719 231.272 26.2959 232.028 26.7278H232.136C232.352 26.8357 232.568 26.9437 232.784 27.1597L233.108 27.3756C233.324 27.4836 233.648 27.6995 233.864 27.8075C234.079 27.9155 234.295 28.1314 234.619 28.2394C234.619 28.2394 234.619 28.2394 234.727 28.2394C234.943 28.4554 235.267 28.5633 235.483 28.7793C236.239 29.3192 236.995 29.8591 237.751 30.5069C238.399 31.0468 239.154 31.6947 239.694 32.2345C240.45 32.9904 241.206 33.7462 241.854 34.502C242.178 34.826 242.394 35.1499 242.718 35.4738C242.933 36.3376 243.041 37.2014 243.257 38.1732C239.91 34.0701 235.591 30.3989 230.84 27.8075ZM235.591 28.5634C235.375 28.3474 235.159 28.2394 234.943 28.1314C234.943 28.1314 234.943 28.1314 234.835 28.0235C234.619 27.9155 234.403 27.6995 234.079 27.5916C233.863 27.4836 233.54 27.2676 233.324 27.1597L233 26.9437C232.784 26.8357 232.568 26.7278 232.352 26.5118H232.244C232.244 26.5118 232.244 26.5118 232.136 26.5118C232.46 24.6762 232.676 22.8406 232.676 20.8971C233.648 21.005 234.511 21.113 235.483 21.329C235.807 23.7044 235.807 26.1879 235.591 28.5634ZM232.784 18.4136C232.784 17.7657 232.784 17.2259 232.676 16.578C232.676 16.47 232.676 16.3621 232.676 16.3621C233.324 17.1179 234.079 17.8737 234.727 18.7375C233.971 18.5216 233.432 18.4136 232.784 18.4136ZM214.86 13.5547C213.564 13.0148 212.376 12.5829 211.081 12.151C216.263 10.7473 221.77 10.4234 227.169 11.1792C228.141 11.935 229.005 12.5829 229.868 13.4467C224.794 12.5829 219.719 12.5829 214.86 13.5547ZM210.325 12.043C209.353 11.8271 208.273 11.5031 207.301 11.3952C207.517 11.2872 207.733 11.2872 207.949 11.1792C208.813 10.9633 209.569 10.6393 210.433 10.4234H210.541C210.757 10.3154 211.081 10.3154 211.297 10.2074L211.62 10.0994C211.944 9.99147 212.16 9.99147 212.484 9.88349C212.808 9.77552 213.024 9.77552 213.348 9.66754C213.348 9.66754 213.348 9.66754 213.456 9.66754C213.78 9.55956 214.104 9.55957 214.428 9.55957C215.292 9.45159 216.263 9.34361 217.235 9.23563C218.099 9.12766 219.071 9.12766 219.935 9.12766C221.014 9.12766 222.094 9.12766 223.066 9.23563C223.498 9.23563 223.93 9.34361 224.362 9.34361C225.117 9.88349 225.873 10.3154 226.629 10.8553C221.122 10.0994 215.616 10.5314 210.325 12.043ZM188.945 13.3387C187.65 13.8786 186.462 14.4185 185.274 15.0663C187.974 10.4234 191.645 6.21231 195.964 2.97302C197.152 2.86505 198.231 2.75707 199.419 2.6491C195.316 5.56445 191.753 9.12766 188.945 13.3387ZM184.626 15.3903C183.763 15.9302 182.899 16.47 182.035 17.1179C182.143 16.9019 182.251 16.686 182.359 16.47C182.791 15.7142 183.115 14.9584 183.547 14.2025V14.0946C183.655 13.8786 183.763 13.6627 183.979 13.4467L184.195 13.1228C184.303 12.9068 184.518 12.5829 184.626 12.3669C184.734 12.151 184.95 11.935 185.058 11.6111C185.058 11.6111 185.058 11.6111 185.058 11.5031C185.274 11.2872 185.382 10.9633 185.598 10.7473C186.138 9.99147 186.678 9.23564 187.326 8.47981C187.866 7.83195 188.514 7.07611 189.053 6.53623C189.809 5.7804 190.565 5.02457 191.321 4.37671C191.645 4.05278 191.969 3.83683 192.293 3.5129C193.157 3.29695 194.02 3.18898 194.992 2.97302C190.889 6.42826 187.326 10.6393 184.626 15.3903ZM170.482 31.4787C169.942 32.7744 169.51 33.9622 169.078 35.2579C167.674 30.075 167.35 24.5682 168.106 19.1694C168.862 18.1977 169.51 17.3338 170.374 16.47C169.402 21.4369 169.51 26.5118 170.482 31.4787ZM168.862 35.9057C168.646 36.8775 168.322 37.9573 168.214 38.9291C168.106 38.7131 168.106 38.4972 167.998 38.2812C167.674 37.4174 167.458 36.6616 167.242 35.7977V35.6898C167.134 35.4738 167.134 35.1499 167.026 34.9339L166.918 34.61C166.81 34.2861 166.81 34.0701 166.702 33.7462C166.594 33.4223 166.594 33.2063 166.486 32.8824C166.486 32.8824 166.486 32.8824 166.486 32.7744C166.378 32.4505 166.378 32.1266 166.378 31.8026C166.271 30.9388 166.163 29.967 166.055 28.9953C165.947 28.1314 165.947 27.1597 165.947 26.2959C165.947 25.2161 165.947 24.1363 166.055 23.1645C166.055 22.7326 166.163 22.3007 166.163 21.8688C166.702 21.113 167.134 20.3572 167.674 19.6013C167.026 25.1081 167.35 30.7229 168.862 35.9057ZM172.209 61.604C172.749 62.4678 173.289 63.3316 173.937 64.1955C173.721 64.0875 173.505 63.9795 173.289 63.8715C172.533 63.4396 171.777 63.1157 171.021 62.6838H170.913C170.698 62.5758 170.482 62.4678 170.266 62.2519L169.942 62.0359C169.726 61.928 169.402 61.712 169.186 61.604C168.97 61.4961 168.754 61.2801 168.43 61.1721C168.43 61.1721 168.43 61.1721 168.322 61.1721C168.106 60.9562 167.782 60.8482 167.566 60.6322C166.81 60.0924 166.055 59.5525 165.299 58.9046C164.651 58.3647 163.895 57.7169 163.355 57.177C162.599 56.4212 161.843 55.6653 161.196 54.9095C160.872 54.5856 160.656 54.2617 160.332 53.9377C160.116 53.0739 160.008 52.2101 159.792 51.2383C163.247 55.3414 167.458 59.0126 172.209 61.604ZM167.566 60.8482C167.782 61.0642 167.998 61.1721 168.214 61.2801C168.214 61.2801 168.214 61.2801 168.322 61.3881C168.538 61.4961 168.754 61.712 169.078 61.82C169.294 61.928 169.618 62.1439 169.834 62.2519L170.158 62.4678C170.374 62.5758 170.59 62.6838 170.805 62.8997H170.913C170.913 62.8997 170.913 62.8997 171.021 62.8997C170.698 64.7353 170.482 66.5709 170.482 68.5145C169.51 68.4065 168.646 68.2985 167.674 68.0826C167.35 65.7071 167.35 63.2237 167.566 60.8482ZM170.374 70.998C170.374 71.6458 170.374 72.1857 170.482 72.8335C170.482 72.9415 170.482 73.0495 170.482 73.0495C169.834 72.2937 169.078 71.5378 168.43 70.674C169.078 70.89 169.726 70.998 170.374 70.998ZM188.298 75.8569C189.485 76.3968 190.781 76.8287 192.077 77.2606C186.894 78.6642 181.387 78.9882 175.988 78.2323C175.017 77.4765 174.153 76.8287 173.289 75.9649C178.256 76.8287 183.331 76.8287 188.298 75.8569ZM192.725 77.3685C193.696 77.5845 194.776 77.9084 195.748 78.0164C195.532 78.1244 195.316 78.1244 195.1 78.2323C194.236 78.4483 193.48 78.7722 192.617 78.9882H192.509C192.293 79.0962 191.969 79.0962 191.753 79.2041L191.429 79.3121C191.105 79.4201 190.889 79.4201 190.565 79.5281C190.241 79.636 190.025 79.636 189.701 79.744C189.701 79.744 189.701 79.744 189.593 79.744C189.269 79.852 188.945 79.852 188.622 79.852C187.758 79.96 186.786 80.0679 185.814 80.1759C184.95 80.2839 183.979 80.2839 183.115 80.2839C182.035 80.2839 180.955 80.2839 179.983 80.1759C179.552 80.1759 179.12 80.0679 178.688 80.0679C177.932 79.5281 177.176 79.0962 176.42 78.5563C182.035 79.3121 187.542 78.8802 192.725 77.3685ZM214.212 76.0728C215.508 75.5329 216.695 74.9931 217.883 74.3452C215.184 78.9882 211.512 83.1992 207.193 86.4385C206.006 86.5465 204.926 86.6545 203.738 86.7625C207.841 83.8471 211.404 80.2839 214.212 76.0728ZM218.423 74.0213C219.287 73.4814 220.151 72.9415 221.014 72.2937C220.906 72.5096 220.798 72.7256 220.69 72.9415C220.259 73.6973 219.935 74.4532 219.503 75.209V75.317C219.395 75.5329 219.287 75.7489 219.071 75.9649L218.855 76.2888C218.747 76.5047 218.531 76.8287 218.423 77.0446C218.315 77.2606 218.099 77.4765 217.991 77.8004C217.991 77.8004 217.991 77.8004 217.991 77.9084C217.775 78.1244 217.667 78.4483 217.451 78.6643C216.911 79.4201 216.371 80.1759 215.724 80.9317C215.184 81.5796 214.536 82.3354 213.996 82.8753C213.24 83.6311 212.484 84.387 211.728 85.0348C211.404 85.3588 211.081 85.5747 210.757 85.8987C209.893 86.1146 209.029 86.2226 208.057 86.4385C212.16 82.9833 215.832 78.7722 218.423 74.0213Z" fill="white"/>
</svg>
