<svg width="19" height="19" viewBox="0 0 19 19" fill="none" xmlns="http://www.w3.org/2000/svg">
<path d="M14.46 3.96008C14.46 3.96008 14.46 3.96008 14.47 3.96008C15.05 3.96008 15.52 4.43008 15.52 5.02008C15.52 5.60008 15.04 6.07008 14.45 6.07008C13.86 6.07008 13.4 5.59008 13.4 5.02008C13.4 4.44008 13.88 3.97009 14.46 3.97009V3.96008Z" fill="white"/>
<path d="M18.44 5.31005C18.57 6.69005 18.66 13.2 18.25 14.73C17.7 16.73 16.39 17.91 14.35 18.23C13.59 18.35 11.53 18.43 9.47001 18.43C7.41001 18.43 5.2601 18.35 4.5601 18.17C2.5501 17.66 1.36008 16.36 1.04008 14.35C0.800078 12.87 0.78 6.01005 1.21 4.52005C1.77 2.58005 3.0801 1.44004 5.0601 1.12004C5.9601 0.970045 7.72003 0.920044 9.49003 0.920044C11.14 0.920044 12.8101 0.960046 13.8101 1.02005C15.0201 1.08005 16.1401 1.47005 17.0401 2.33005C17.9001 3.15005 18.34 4.17005 18.45 5.32005L18.44 5.31005ZM16.74 14.06C16.99 12.52 16.99 6.90004 16.85 5.46004C16.69 3.92004 15.74 2.91004 14.2 2.67004C13.44 2.56004 11.6001 2.50005 9.78007 2.50005C7.96007 2.50005 6.27004 2.55005 5.50004 2.63005C3.96004 2.81005 2.92009 3.75005 2.68009 5.27005C2.43009 6.88005 2.43003 12.9 2.62003 14.11C2.82003 15.37 3.53009 16.23 4.80009 16.59C5.49009 16.78 7.5401 16.85 9.5601 16.85C11.4101 16.85 13.2401 16.79 13.9201 16.72C15.4801 16.55 16.51 15.6 16.75 14.07" fill="white"/>
<path d="M9.75004 5.18005C12.25 5.18005 14.26 7.19005 14.25 9.67005C14.23 12.1501 12.1801 14.1601 9.68009 14.1601C7.18009 14.1601 5.17009 12.1501 5.18009 9.67005C5.20009 7.19005 7.25004 5.18005 9.75004 5.18005ZM9.68009 12.5701C11.2901 12.5701 12.6101 11.2901 12.6401 9.69005C12.6701 8.08005 11.38 6.77005 9.76005 6.76005C9.76005 6.76005 9.74002 6.76005 9.73002 6.76005C8.12002 6.76005 6.80006 8.04005 6.77006 9.64005C6.74006 11.2401 8.03006 12.5601 9.65006 12.5701C9.65006 12.5701 9.67009 12.5701 9.68009 12.5701Z" fill="white"/>
</svg>
