<svg width="151" height="71" viewBox="0 0 151 71" fill="none" xmlns="http://www.w3.org/2000/svg">
<g clip-path="url(#clip0_3006_19532)">
<path d="M129.11 61.66C129.05 61.51 128.99 61.36 128.91 61.21C128.75 60.88 128.56 60.57 128.33 60.28C128.24 60.16 128.14 60.04 128.03 59.93C127.96 59.86 127.89 59.78 127.82 59.71C127.66 59.55 127.5 59.41 127.34 59.28C127.22 59.18 127.09 59.09 126.97 59C126.66 58.79 126.33 58.61 125.98 58.47C125.82 58.41 125.66 58.35 125.49 58.31C125.07 58.19 124.64 58.12 124.18 58.1C124.1 58.1 124.02 58.1 123.93 58.1C123.84 58.1 123.75 58.1 123.65 58.1C123.2 58.12 122.76 58.19 122.35 58.31C122.19 58.36 122.02 58.41 121.87 58.47C121.53 58.61 121.19 58.78 120.88 59C120.75 59.09 120.63 59.18 120.51 59.28C120.35 59.41 120.19 59.56 120.03 59.71C119.95 59.78 119.88 59.86 119.82 59.93C119.72 60.05 119.62 60.16 119.52 60.28C119.29 60.58 119.09 60.89 118.93 61.21C118.85 61.36 118.79 61.51 118.73 61.66C118.58 62.05 118.48 62.45 118.44 62.88C118.41 63.08 118.4 63.28 118.4 63.49V63.58C118.4 63.79 118.41 63.99 118.44 64.19C118.49 64.62 118.58 65.03 118.73 65.42C118.79 65.57 118.85 65.73 118.93 65.87C119.09 66.2 119.28 66.51 119.51 66.81C119.6 66.93 119.7 67.05 119.8 67.17C119.87 67.25 119.94 67.33 120.01 67.4C120.16 67.55 120.32 67.7 120.47 67.83C120.59 67.93 120.71 68.02 120.84 68.11C121.15 68.33 121.48 68.51 121.81 68.66C121.97 68.73 122.13 68.78 122.29 68.83C122.7 68.96 123.14 69.03 123.59 69.05C123.66 69.05 123.73 69.05 123.81 69.05H124.02C124.1 69.05 124.18 69.05 124.25 69.05C124.71 69.03 125.14 68.96 125.55 68.84C125.71 68.79 125.87 68.74 126.03 68.67C126.37 68.53 126.69 68.35 127.01 68.13C127.13 68.04 127.26 67.95 127.37 67.85C127.53 67.72 127.68 67.57 127.84 67.42C127.91 67.34 127.99 67.26 128.06 67.19C128.16 67.07 128.26 66.95 128.35 66.83C128.58 66.53 128.77 66.22 128.93 65.89C129 65.74 129.06 65.59 129.12 65.43C129.26 65.04 129.36 64.63 129.41 64.2C129.43 64 129.45 63.8 129.45 63.59V63.51C129.45 63.3 129.44 63.1 129.41 62.9C129.36 62.47 129.26 62.06 129.12 61.67" fill="white"/>
<path d="M18.64 53.73V32.3L34.57 0.170013H32.42L17.64 29.81L2.57 0.170013H0L16.28 32.3V53.73H18.64Z" fill="white"/>
<path d="M52.16 0L25.99 53.73H28.21L52.49 3.81L76.99 53.73H79.49L53.26 0H52.16Z" fill="white"/>
<path d="M100.7 0.170013H73.78V2.24001H86.13V53.73H88.49V2.24001H100.7V0.170013Z" fill="white"/>
<path d="M150.49 30.37C150.75 28.37 150.77 26.33 150.57 24.28C150.57 24.22 150.56 24.16 150.55 24.1C150.54 23.93 150.52 23.77 150.49 23.6C150.49 23.55 150.48 23.5 150.47 23.45C150.47 23.38 150.45 23.31 150.44 23.24C150.42 23.1 150.4 22.96 150.38 22.82C150.36 22.68 150.33 22.54 150.31 22.4C150.3 22.32 150.28 22.24 150.26 22.16C150.26 22.11 150.25 22.07 150.24 22.03C150.21 21.89 150.19 21.75 150.16 21.62C150.16 21.58 150.14 21.54 150.13 21.5C150.12 21.43 150.1 21.37 150.09 21.3C150.09 21.28 150.09 21.26 150.09 21.24C149.24 17.35 147.55 13.72 145.14 10.6C143.9 9.00999 142.48 7.53999 140.89 6.23999C140.85 6.20999 140.81 6.16999 140.77 6.13999C140.63 6.02999 140.49 5.91999 140.35 5.80999C140.35 5.80999 140.35 5.80999 140.34 5.80999C140.34 5.80999 140.33 5.79999 140.32 5.79999C140.25 5.73999 140.17 5.68999 140.1 5.63999C139.97 5.53999 139.85 5.43999 139.72 5.34999C139.62 5.27999 139.53 5.20999 139.43 5.13999C139.35 5.07999 139.27 5.02999 139.19 4.96999C139.14 4.93999 139.1 4.90999 139.06 4.87999C138.96 4.80999 138.85 4.73999 138.75 4.66999L138.59 4.56999C138.59 4.56999 138.54 4.53999 138.52 4.51999C138.48 4.48999 138.44 4.46999 138.4 4.43999H138.38C135.04 2.27999 131.28 0.919986 127.37 0.419986C125.37 0.159986 123.33 0.139986 121.29 0.339986C121.23 0.339986 121.17 0.349986 121.11 0.359986C120.94 0.379986 120.77 0.399986 120.6 0.419986C120.6 0.419986 120.59 0.419986 120.58 0.419986H120.56C120.46 0.429986 120.36 0.449986 120.25 0.459986C120.11 0.479986 119.96 0.499986 119.81 0.529986C119.69 0.549986 119.58 0.569986 119.46 0.589986C119.36 0.609986 119.26 0.619986 119.16 0.639986L119.01 0.669986C118.89 0.689986 118.76 0.719986 118.64 0.739986C118.58 0.749986 118.51 0.769986 118.45 0.779986C118.42 0.779986 118.39 0.789986 118.36 0.799986C118.31 0.799986 118.27 0.819986 118.23 0.829986H118.21C114.33 1.67999 110.71 3.36999 107.59 5.77999C106 7.00999 104.53 8.42999 103.24 10.02C103.2 10.07 103.16 10.11 103.12 10.16C103.02 10.29 102.91 10.43 102.8 10.56C102.8 10.56 102.8 10.57 102.79 10.57L102.77 10.59C102.71 10.67 102.65 10.75 102.59 10.83C102.5 10.95 102.41 11.07 102.32 11.19L102.11 11.48C102.05 11.56 101.99 11.64 101.94 11.73C101.91 11.77 101.88 11.81 101.86 11.85C101.79 11.95 101.72 12.06 101.65 12.17C101.61 12.22 101.58 12.27 101.54 12.33C101.52 12.36 101.5 12.39 101.49 12.41C101.47 12.45 101.44 12.48 101.42 12.52V12.54C99.26 15.88 97.9 19.64 97.4 23.55C97.15 25.55 97.12 27.59 97.32 29.63C97.32 29.69 97.33 29.75 97.34 29.81C97.36 29.98 97.38 30.15 97.4 30.32C97.4 30.32 97.4 30.33 97.4 30.34V30.36C97.41 30.46 97.43 30.56 97.45 30.67C97.47 30.82 97.49 30.96 97.51 31.11C97.53 31.23 97.55 31.34 97.57 31.46C97.59 31.56 97.6 31.66 97.62 31.76C97.62 31.81 97.64 31.86 97.65 31.91C97.67 32.03 97.7 32.16 97.72 32.28C97.73 32.34 97.75 32.41 97.76 32.47C97.76 32.5 97.77 32.53 97.78 32.57C97.78 32.61 97.8 32.65 97.81 32.7V32.72C98.66 36.6 100.35 40.22 102.76 43.34C103.99 44.93 105.41 46.39 107 47.69C107.05 47.73 107.09 47.77 107.14 47.8C107.27 47.91 107.4 48.01 107.54 48.12C107.54 48.12 107.55 48.13 107.56 48.14C107.56 48.14 107.57 48.14 107.58 48.15C107.66 48.21 107.74 48.27 107.83 48.34C107.95 48.43 108.06 48.52 108.18 48.61C108.28 48.68 108.37 48.75 108.47 48.82C108.55 48.88 108.63 48.94 108.72 48.99C108.76 49.02 108.8 49.05 108.84 49.08C108.94 49.15 109.05 49.22 109.15 49.29C109.2 49.33 109.26 49.36 109.31 49.4C109.34 49.42 109.36 49.44 109.39 49.45C109.43 49.48 109.46 49.5 109.5 49.52H109.52C112.86 51.68 116.62 53.04 120.53 53.54C122.33 53.77 124.16 53.81 126 53.67C126.2 53.65 126.39 53.64 126.59 53.62C126.66 53.62 126.74 53.6 126.81 53.6C126.97 53.58 127.13 53.57 127.28 53.55C127.42 53.53 127.56 53.51 127.7 53.49C127.81 53.48 127.91 53.46 128.01 53.45C128.04 53.45 128.06 53.45 128.08 53.44C128.18 53.43 128.29 53.41 128.39 53.39C128.5 53.37 128.62 53.35 128.73 53.33C128.78 53.33 128.82 53.31 128.87 53.3C128.99 53.28 129.1 53.25 129.22 53.23C129.3 53.22 129.38 53.2 129.45 53.18C129.47 53.18 129.5 53.18 129.52 53.17C129.56 53.17 129.61 53.15 129.65 53.14H129.67C133.55 52.29 137.17 50.6 140.29 48.19C141.88 46.96 143.34 45.54 144.64 43.95C144.68 43.9 144.72 43.85 144.76 43.81C144.87 43.68 144.97 43.54 145.08 43.41C145.08 43.41 145.08 43.4 145.09 43.39C145.09 43.39 145.09 43.38 145.1 43.37C145.16 43.29 145.22 43.21 145.28 43.13C145.37 43.01 145.46 42.89 145.55 42.77C145.62 42.68 145.69 42.58 145.76 42.48C145.82 42.4 145.88 42.32 145.93 42.23C145.96 42.19 145.99 42.15 146.02 42.11C146.09 42.01 146.16 41.9 146.23 41.8C146.27 41.75 146.3 41.69 146.34 41.64C146.36 41.61 146.38 41.59 146.39 41.56C146.41 41.52 146.44 41.49 146.46 41.45V41.43C148.62 38.09 149.98 34.33 150.48 30.42M136.47 49.7C135.9 50.01 135.33 50.3 134.75 50.57C133.73 50.63 132.71 50.62 131.69 50.54C132.04 50.17 132.39 49.78 132.73 49.38C132.75 49.36 132.76 49.34 132.77 49.32C134.1 49.49 135.45 49.55 136.79 49.51C136.76 49.53 136.72 49.55 136.69 49.57C136.62 49.61 136.55 49.65 136.47 49.69M116.74 51.93C116.12 51.75 115.51 51.55 114.91 51.32C114.15 50.64 113.43 49.91 112.76 49.14C113.27 49.13 113.79 49.1 114.32 49.06C114.34 49.06 114.37 49.06 114.39 49.06C115.21 50.12 116.11 51.12 117.09 52.03L116.98 52C116.9 51.98 116.82 51.95 116.74 51.93ZM101.19 39.53C101.14 39.43 101.08 39.34 101.03 39.24C100.79 38.78 100.56 38.32 100.34 37.84C100.28 36.82 100.29 35.8 100.37 34.78C100.74 35.13 101.13 35.48 101.53 35.82C101.55 35.83 101.57 35.85 101.59 35.86C101.42 37.19 101.36 38.54 101.4 39.88C101.39 39.85 101.37 39.83 101.35 39.8C101.3 39.71 101.25 39.62 101.2 39.53M98.96 19.88C99.14 19.24 99.35 18.61 99.58 18C100.26 17.24 100.99 16.52 101.76 15.86C101.77 16.37 101.8 16.89 101.84 17.42C101.84 17.44 101.84 17.47 101.84 17.49C100.78 18.31 99.78 19.22 98.87 20.2C98.87 20.16 98.89 20.13 98.9 20.09C98.92 20.03 98.94 19.96 98.95 19.9M111.33 4.31999C111.9 4.00999 112.47 3.71999 113.05 3.44999C114.07 3.38999 115.09 3.39999 116.11 3.47999C115.76 3.84999 115.41 4.23999 115.07 4.63999C115.06 4.65999 115.04 4.67999 115.03 4.69999C113.7 4.52999 112.36 4.46999 111.01 4.50999C111.05 4.48999 111.09 4.45999 111.14 4.43999C111.2 4.39999 111.27 4.36999 111.33 4.32999M131.07 2.08999C131.69 2.26999 132.3 2.46999 132.9 2.69999C133.66 3.37999 134.38 4.10999 135.04 4.87999C134.53 4.88999 134.01 4.91999 133.48 4.95999C133.46 4.95999 133.43 4.95999 133.41 4.95999C132.59 3.89999 131.69 2.89999 130.71 1.98999C130.74 1.98999 130.78 2.00999 130.82 2.01999C130.9 2.03999 130.98 2.06999 131.06 2.08999M146.6 14.46C146.91 15.03 147.2 15.6 147.47 16.18C147.53 17.2 147.52 18.22 147.44 19.24C147.07 18.89 146.68 18.54 146.28 18.2C146.26 18.19 146.24 18.17 146.23 18.16C146.4 16.83 146.46 15.48 146.42 14.14C146.44 14.17 146.46 14.21 146.48 14.24C146.52 14.31 146.56 14.39 146.6 14.46ZM148.84 34.19C148.66 34.81 148.46 35.42 148.23 36.02C147.55 36.78 146.82 37.5 146.05 38.17C146.04 37.66 146.01 37.14 145.97 36.61C145.97 36.58 145.97 36.56 145.97 36.54C147.03 35.72 148.03 34.81 148.95 33.83C148.94 33.87 148.93 33.9 148.92 33.94C148.9 34.02 148.87 34.1 148.85 34.18M104.58 34.8C104.89 35.57 105.25 36.32 105.65 37.05C102.77 35.4 100.21 33.14 98.22 30.49C98.12 29.78 98.06 29.06 98.02 28.35C99.79 30.87 102.02 33.06 104.58 34.8ZM98.01 25.86C98.04 25.23 98.09 24.59 98.16 23.96C98.39 24.28 98.62 24.59 98.86 24.9C98.61 25.17 98.36 25.45 98.11 25.73C98.07 25.77 98.04 25.81 98 25.86M106.21 9.38999C106.65 9.34999 107.1 9.31999 107.55 9.29999C107.46 10.84 107.51 12.38 107.7 13.92C107.68 13.95 107.65 13.97 107.63 14C107.63 14 107.62 14.02 107.61 14.03C107.46 14.22 107.31 14.41 107.17 14.6C107.16 14.62 107.15 14.63 107.14 14.65C107.14 14.65 107.14 14.65 107.13 14.67C107.11 14.69 107.1 14.72 107.08 14.74C106.65 15.32 106.26 15.92 105.9 16.54C105.65 14.16 105.75 11.75 106.22 9.39999M143.25 19.24C142.94 18.47 142.59 17.72 142.18 16.99C145.06 18.64 147.62 20.9 149.61 23.55C149.71 24.26 149.77 24.98 149.81 25.69C148.04 23.17 145.81 20.98 143.25 19.24ZM149.82 28.18C149.79 28.81 149.74 29.44 149.67 30.07C149.44 29.75 149.21 29.44 148.97 29.13C149.23 28.86 149.48 28.58 149.72 28.3C149.76 28.26 149.79 28.22 149.83 28.17M141.62 44.64C141.17 44.68 140.73 44.71 140.28 44.73C140.37 43.19 140.32 41.65 140.13 40.11C140.15 40.08 140.18 40.06 140.2 40.03C140.2 40.02 140.22 40.01 140.23 40C140.38 39.81 140.53 39.62 140.67 39.43C140.68 39.41 140.69 39.4 140.7 39.39C140.7 39.39 140.7 39.38 140.71 39.37C140.73 39.34 140.75 39.32 140.76 39.3C141.19 38.72 141.58 38.12 141.94 37.5C142.19 39.88 142.09 42.29 141.62 44.64ZM134.67 43.92C134.57 43.99 134.47 44.05 134.37 44.11C132.73 45.11 130.95 45.87 129.11 46.36H129.09C128.55 46.5 128.01 46.62 127.46 46.72C127.31 46.75 127.15 46.77 127 46.8C126.9 46.82 126.79 46.83 126.69 46.85C124.2 47.19 121.66 47.07 119.2 46.48C119.15 46.48 119.1 46.46 119.05 46.44C118.84 46.39 118.64 46.33 118.44 46.28C118.32 46.25 118.21 46.21 118.09 46.18C118.03 46.16 117.97 46.14 117.92 46.13C115.71 45.43 113.63 44.35 111.79 42.95C111.76 42.92 111.72 42.9 111.69 42.87C111.58 42.79 111.48 42.7 111.37 42.62C109.7 41.27 108.25 39.66 107.08 37.84L107.05 37.79C106.98 37.68 106.91 37.57 106.84 37.45C105.84 35.81 105.09 34.04 104.6 32.2C104.6 32.2 104.6 32.18 104.6 32.17C104.46 31.63 104.34 31.09 104.24 30.54C104.21 30.39 104.19 30.23 104.16 30.08C104.14 29.98 104.13 29.87 104.11 29.77C103.77 27.29 103.89 24.75 104.48 22.3C104.5 22.23 104.51 22.17 104.53 22.1C104.58 21.92 104.63 21.73 104.68 21.54C105.37 19.11 106.52 16.84 108.04 14.84C108.05 14.82 108.06 14.81 108.07 14.79C108.18 14.65 108.28 14.52 108.39 14.39C108.42 14.35 108.45 14.32 108.48 14.28C108.58 14.15 108.69 14.03 108.8 13.9C108.9 13.79 109 13.68 109.09 13.57C109.1 13.56 109.11 13.55 109.12 13.54C110.29 12.25 111.63 11.11 113.1 10.17L113.19 10.11C113.29 10.04 113.39 9.97999 113.49 9.91999C115.13 8.91999 116.91 8.15999 118.75 7.66999C118.75 7.66999 118.77 7.66999 118.78 7.66999C119.32 7.52999 119.86 7.40999 120.41 7.30999C120.56 7.27999 120.72 7.25999 120.87 7.22999C120.97 7.20999 121.08 7.19999 121.18 7.17999C123.67 6.83999 126.21 6.95999 128.66 7.54999L128.81 7.58999C129.02 7.63999 129.22 7.69999 129.42 7.75999C129.54 7.78999 129.65 7.82999 129.77 7.85999C129.83 7.87999 129.88 7.89999 129.94 7.91999C132.16 8.61999 134.23 9.69999 136.08 11.1C136.11 11.12 136.14 11.15 136.17 11.17C136.28 11.26 136.4 11.35 136.51 11.44C138.17 12.79 139.62 14.39 140.78 16.19C140.8 16.22 140.82 16.25 140.84 16.28C140.9 16.38 140.96 16.48 141.03 16.58C142.03 18.22 142.79 19.99 143.28 21.84V21.87C143.43 22.4 143.55 22.95 143.65 23.5C143.68 23.65 143.71 23.81 143.73 23.96C143.75 24.06 143.76 24.17 143.78 24.27C144.12 26.76 144 29.3 143.41 31.75C143.4 31.8 143.38 31.85 143.37 31.9C143.32 32.11 143.26 32.31 143.2 32.51C143.17 32.63 143.13 32.74 143.1 32.86C143.08 32.92 143.06 32.97 143.04 33.03C142.34 35.25 141.26 37.32 139.86 39.17C139.83 39.2 139.81 39.23 139.79 39.26C139.7 39.38 139.61 39.49 139.52 39.6C138.18 41.26 136.57 42.71 134.77 43.87C134.74 43.89 134.71 43.91 134.68 43.92M144.66 24.82C144.66 24.82 144.66 24.75 144.65 24.72V24.7C144.65 24.63 144.63 24.56 144.62 24.49C144.62 24.41 144.6 24.34 144.59 24.26C144.58 24.16 144.56 24.05 144.54 23.95V23.9C144.54 23.86 144.53 23.82 144.52 23.78C144.41 23.07 144.26 22.38 144.08 21.69C145.94 23.2 147.57 24.97 148.9 26.97C148.62 27.32 148.32 27.65 148.02 27.98C147 26.83 145.87 25.77 144.65 24.82M103.21 29.22V29.32L103.22 29.36C103.22 29.41 103.23 29.46 103.24 29.52C103.25 29.62 103.27 29.72 103.28 29.81C103.29 29.9 103.3 29.99 103.32 30.07V30.12C103.34 30.18 103.35 30.24 103.35 30.3C103.37 30.43 103.39 30.57 103.42 30.7C103.42 30.7 103.42 30.71 103.42 30.72C103.52 31.27 103.64 31.81 103.78 32.35C101.92 30.84 100.29 29.07 98.96 27.07C99.24 26.72 99.54 26.39 99.84 26.06C100.86 27.21 101.99 28.27 103.21 29.22ZM144.76 26.85C145.55 27.54 146.28 28.27 146.97 29.05C146.29 29.71 145.56 30.32 144.8 30.89C144.7 30.6 144.62 30.36 144.53 30.13C144.69 29.05 144.77 27.96 144.75 26.86M147.91 30.21C148.26 30.67 148.6 31.14 148.93 31.62C147.98 32.79 146.91 33.85 145.76 34.82C145.73 34.65 145.7 34.48 145.67 34.32C145.67 34.3 145.67 34.28 145.66 34.26V34.23C145.63 34.06 145.59 33.88 145.56 33.71C145.52 33.53 145.49 33.36 145.44 33.18L145.39 32.96C145.35 32.81 145.31 32.66 145.28 32.5L145.26 32.44C145.26 32.44 145.26 32.41 145.25 32.4C146.19 31.73 147.08 30.99 147.92 30.2M138.53 12.17C139.57 12.1 140.61 12.1 141.65 12.17C141.63 13.12 141.55 14.06 141.41 15C141.14 14.86 140.91 14.75 140.69 14.65C140.04 13.78 139.32 12.95 138.54 12.18M137.03 10.83C137.03 10.83 136.98 10.78 136.95 10.76C136.94 10.76 136.93 10.74 136.92 10.74C136.73 10.59 136.54 10.44 136.35 10.3C136.33 10.3 136.32 10.28 136.3 10.27C136.3 10.27 136.29 10.27 136.29 10.26C136.26 10.24 136.24 10.22 136.22 10.21C135.64 9.77999 135.04 9.38999 134.42 9.02999C136.8 8.77999 139.21 8.87999 141.56 9.34999C141.61 9.79999 141.64 10.24 141.65 10.69C140.11 10.6 138.57 10.65 137.03 10.84M123.76 6.20999C124.44 5.42999 125.18 4.68999 125.96 3.99999C126.62 4.67999 127.23 5.40999 127.8 6.16999C127.51 6.26999 127.27 6.34999 127.04 6.43999C125.96 6.27999 124.87 6.19999 123.77 6.20999M127.12 3.04999C127.58 2.69999 128.05 2.35999 128.53 2.02999C129.7 2.98999 130.76 4.04999 131.73 5.19999C131.56 5.22999 131.39 5.24999 131.23 5.27999C131.21 5.27999 131.19 5.27999 131.17 5.28999H131.14C130.97 5.32999 130.79 5.35999 130.62 5.39999C130.44 5.42999 130.27 5.46999 130.09 5.50999L129.87 5.55999C129.72 5.59999 129.57 5.63999 129.41 5.67999L129.35 5.69999C129.35 5.69999 129.32 5.69999 129.31 5.69999C128.64 4.75999 127.9 3.86999 127.11 3.02999M126.04 1.96999C125.77 1.70999 125.49 1.46999 125.21 1.21999C125.17 1.17999 125.13 1.14999 125.08 1.10999C125.71 1.13999 126.35 1.18999 126.98 1.25999C126.66 1.48999 126.35 1.71999 126.04 1.95999M124.89 2.91999C123.74 3.93999 122.68 5.06999 121.73 6.28999H121.72C121.72 6.28999 121.66 6.28999 121.63 6.29999C121.63 6.29999 121.61 6.29999 121.6 6.29999C121.54 6.29999 121.49 6.30999 121.43 6.31999L121.14 6.35999C121.05 6.36999 120.96 6.38999 120.87 6.39999C120.87 6.39999 120.85 6.39999 120.84 6.39999C120.78 6.40999 120.72 6.41999 120.66 6.42999C120.53 6.44999 120.39 6.46999 120.26 6.49999C120.26 6.49999 120.25 6.49999 120.24 6.49999C119.69 6.59999 119.15 6.71999 118.61 6.85999C120.12 4.99999 121.89 3.36999 123.89 2.03999C124.24 2.31999 124.57 2.61999 124.9 2.91999M111.56 10.25C110.68 10.9 109.86 11.62 109.09 12.4C109.02 11.36 109.02 10.32 109.09 9.27999C110.04 9.29999 110.98 9.37999 111.92 9.50999C111.78 9.77999 111.67 10.01 111.58 10.24M109.24 7.78999C109.31 7.21999 109.41 6.63999 109.52 6.06999C111.02 5.91999 112.53 5.91999 114.02 6.04999C113.92 6.18999 113.82 6.32999 113.73 6.46999C113.72 6.47999 113.71 6.49999 113.7 6.51999L113.68 6.53999C113.58 6.67999 113.48 6.82999 113.39 6.97999C113.29 7.12999 113.19 7.27999 113.1 7.42999L112.98 7.61999C112.9 7.75999 112.82 7.88999 112.74 8.01999L112.71 8.07999C112.71 8.07999 112.7 8.10999 112.69 8.11999C111.55 7.92999 110.41 7.81999 109.25 7.78999M106.47 7.86999C106.94 7.43999 107.42 7.02999 107.92 6.63999C107.85 7.02999 107.8 7.40999 107.75 7.79999C107.38 7.80999 107.01 7.82999 106.64 7.85999C106.58 7.85999 106.53 7.85999 106.47 7.86999ZM103.14 27.18C102.35 26.5 101.62 25.76 100.93 24.98C101.61 24.32 102.34 23.71 103.1 23.15C103.19 23.44 103.28 23.68 103.37 23.91C103.21 24.99 103.13 26.08 103.15 27.18M99.99 23.83C99.64 23.37 99.3 22.9 98.97 22.42C99.92 21.25 100.99 20.19 102.14 19.22C102.17 19.39 102.2 19.56 102.23 19.72C102.23 19.74 102.23 19.76 102.24 19.78V19.81C102.28 19.98 102.31 20.16 102.35 20.33C102.39 20.51 102.43 20.68 102.47 20.86L102.52 21.08C102.55 21.23 102.6 21.38 102.63 21.54L102.65 21.6C102.65 21.6 102.65 21.63 102.66 21.64C101.72 22.31 100.83 23.05 99.99 23.84M109.38 41.87C108.34 41.94 107.3 41.94 106.26 41.87C106.28 40.92 106.36 39.98 106.5 39.04C106.77 39.18 107 39.29 107.22 39.39C107.87 40.26 108.59 41.09 109.37 41.86M110.88 43.21C110.88 43.21 110.94 43.26 110.96 43.28C110.97 43.28 110.98 43.29 110.99 43.3C111.18 43.45 111.37 43.6 111.56 43.74C111.57 43.74 111.59 43.76 111.61 43.77C111.61 43.77 111.61 43.77 111.62 43.78L111.69 43.83C112.27 44.26 112.87 44.65 113.49 45.01C111.11 45.26 108.7 45.16 106.35 44.69C106.31 44.24 106.28 43.8 106.26 43.35C107.8 43.44 109.34 43.39 110.88 43.2M124.15 47.83C123.47 48.62 122.73 49.35 121.95 50.04C121.29 49.36 120.68 48.63 120.12 47.87C120.41 47.77 120.65 47.69 120.88 47.6C121.96 47.76 123.05 47.84 124.16 47.82M120.81 50.98C120.35 51.33 119.89 51.67 119.4 52C118.23 51.04 117.17 49.98 116.2 48.83C116.37 48.8 116.54 48.77 116.7 48.74C116.72 48.74 116.74 48.74 116.76 48.74H116.79C116.96 48.7 117.14 48.67 117.31 48.63C117.49 48.6 117.66 48.56 117.84 48.51L118.06 48.46C118.21 48.42 118.36 48.38 118.52 48.34L118.58 48.32C118.58 48.32 118.61 48.32 118.62 48.31C119.29 49.25 120.02 50.14 120.81 50.98ZM121.88 52.04C122.15 52.29 122.43 52.54 122.71 52.78C122.75 52.82 122.79 52.85 122.84 52.89C122.21 52.86 121.57 52.81 120.94 52.74C121.26 52.51 121.57 52.28 121.88 52.04ZM123.03 51.08C124.18 50.06 125.24 48.93 126.19 47.71H126.2C126.23 47.71 126.26 47.71 126.29 47.71H126.33C126.33 47.71 126.42 47.69 126.47 47.69C126.58 47.68 126.69 47.66 126.8 47.65C126.88 47.64 126.96 47.63 127.04 47.61C127.05 47.61 127.07 47.61 127.08 47.61C127.15 47.6 127.22 47.59 127.29 47.58C127.41 47.56 127.53 47.54 127.65 47.52H127.72C128.25 47.41 128.79 47.29 129.31 47.16C127.8 49.02 126.03 50.65 124.03 51.98C123.68 51.7 123.35 51.4 123.02 51.1M136.36 43.77C137.23 43.12 138.06 42.4 138.83 41.62C138.9 42.66 138.9 43.7 138.83 44.74C137.88 44.72 136.94 44.64 136 44.51C136.14 44.24 136.25 44.01 136.35 43.78M138.69 46.23C138.62 46.8 138.52 47.37 138.41 47.95C136.91 48.1 135.41 48.1 133.91 47.97C134.01 47.83 134.11 47.69 134.2 47.56C134.21 47.54 134.22 47.53 134.23 47.51L134.25 47.49C134.35 47.35 134.45 47.2 134.54 47.05C134.64 46.9 134.74 46.75 134.83 46.59L134.95 46.4C135.03 46.27 135.11 46.13 135.19 46L135.22 45.94C135.22 45.94 135.23 45.92 135.24 45.91C136.38 46.1 137.53 46.21 138.68 46.24M140.18 46.24C140.55 46.23 140.92 46.21 141.29 46.18C141.34 46.18 141.4 46.18 141.46 46.17C140.99 46.6 140.51 47.01 140.01 47.4C140.08 47.02 140.13 46.63 140.18 46.24ZM143.13 35.2C143.46 34.44 143.74 33.65 143.97 32.85C144.84 36.05 145.05 39.46 144.59 42.74C144.15 43.31 143.7 43.86 143.22 44.39C143.75 41.36 143.73 38.24 143.14 35.19M144.09 32.44C144.26 31.82 144.4 31.2 144.5 30.56C144.55 30.69 144.59 30.83 144.65 30.98C144.82 31.48 144.97 31.99 145.1 32.49L145.12 32.55C145.16 32.7 145.2 32.85 145.23 33L145.28 33.22C145.32 33.39 145.36 33.57 145.4 33.74C145.44 33.91 145.47 34.08 145.5 34.25V34.28C145.5 34.28 145.51 34.31 145.51 34.33C145.54 34.52 145.58 34.71 145.61 34.9C145.7 35.46 145.77 36.04 145.82 36.62C145.87 37.17 145.9 37.72 145.91 38.26C145.92 38.91 145.91 39.56 145.87 40.2C145.85 40.47 145.83 40.74 145.81 41C145.51 41.47 145.19 41.93 144.86 42.38C145.28 39.07 145.02 35.64 144.1 32.43M142.03 16.61C141.71 16.06 141.37 15.52 140.99 14.99C141.11 15.05 141.25 15.11 141.39 15.19C141.86 15.43 142.33 15.68 142.77 15.94L142.83 15.97C142.96 16.05 143.09 16.13 143.23 16.21L143.42 16.33C143.57 16.43 143.72 16.52 143.87 16.62C144.02 16.72 144.16 16.81 144.3 16.91L144.33 16.93C144.33 16.93 144.35 16.94 144.37 16.96C144.53 17.07 144.69 17.18 144.84 17.29C145.3 17.62 145.76 17.98 146.21 18.36C146.63 18.71 147.04 19.08 147.43 19.45C147.9 19.9 148.35 20.37 148.77 20.85C148.95 21.05 149.12 21.26 149.29 21.46C149.41 22.01 149.51 22.55 149.6 23.11C147.55 20.47 144.95 18.23 142.02 16.61M144.91 17.07C144.77 16.97 144.63 16.87 144.5 16.78C144.49 16.77 144.47 16.76 144.45 16.74H144.43C144.29 16.63 144.14 16.53 143.99 16.43C143.84 16.33 143.69 16.23 143.54 16.14L143.35 16.02C143.22 15.94 143.08 15.86 142.95 15.78L142.9 15.75C142.9 15.75 142.87 15.74 142.86 15.73C143.05 14.59 143.16 13.44 143.19 12.29C143.76 12.36 144.34 12.45 144.91 12.57C145.06 14.07 145.06 15.58 144.93 17.07M143.19 10.79C143.18 10.42 143.16 10.04 143.13 9.66999C143.13 9.61999 143.13 9.55999 143.12 9.50999C143.55 9.97999 143.96 10.46 144.36 10.96C143.98 10.89 143.59 10.84 143.2 10.79M132.16 7.83999C131.39 7.50999 130.61 7.22999 129.81 6.99999C133.01 6.12999 136.42 5.90999 139.7 6.37999C140.27 6.81999 140.82 7.26999 141.35 7.74999C138.32 7.21999 135.2 7.24999 132.15 7.82999M129.4 6.87999C128.78 6.70999 128.16 6.56999 127.52 6.46999C127.65 6.41999 127.79 6.36999 127.94 6.31999C128.44 6.14999 128.95 5.99999 129.45 5.86999L129.51 5.84999C129.66 5.80999 129.81 5.77999 129.96 5.73999L130.18 5.68999C130.36 5.64999 130.53 5.60999 130.7 5.57999C130.87 5.53999 131.04 5.50999 131.21 5.47999H131.24C131.24 5.47999 131.27 5.46999 131.29 5.46999C131.48 5.42999 131.67 5.39999 131.86 5.36999C132.42 5.27999 133 5.20999 133.58 5.15999C134.13 5.10999 134.68 5.07999 135.21 5.07999C135.86 5.06999 136.51 5.07999 137.15 5.11999C137.42 5.13999 137.68 5.15999 137.95 5.17999C138.42 5.47999 138.88 5.79999 139.33 6.12999C136.02 5.70999 132.59 5.96999 129.38 6.88999M116.18 7.67999C115.41 7.98999 114.66 8.33999 113.93 8.74999C115.58 5.86999 117.84 3.30999 120.48 1.31999C121.19 1.21999 121.91 1.15999 122.62 1.11999C120.1 2.88999 117.91 5.11999 116.17 7.67999M113.55 8.94999C113 9.26999 112.45 9.60999 111.93 9.98999C111.99 9.86999 112.05 9.72999 112.13 9.58999C112.37 9.11999 112.62 8.64999 112.88 8.19999L112.91 8.14999C112.99 8.01999 113.07 7.87999 113.15 7.74999L113.27 7.55999C113.36 7.40999 113.46 7.25999 113.56 7.10999C113.66 6.95999 113.75 6.81999 113.85 6.66999L113.87 6.64999C113.87 6.64999 113.88 6.62999 113.9 6.60999C114.01 6.44999 114.12 6.28999 114.23 6.13999C114.56 5.67999 114.92 5.21999 115.3 4.76999C115.66 4.34999 116.02 3.93999 116.39 3.54999C116.84 3.07999 117.31 2.62999 117.79 2.20999C117.99 2.02999 118.2 1.85999 118.4 1.67999C118.95 1.55999 119.5 1.45999 120.05 1.36999C117.41 3.40999 115.17 6.01999 113.55 8.93999M104.78 18.84C104.45 19.6 104.17 20.39 103.94 21.19C103.07 17.99 102.86 14.58 103.32 11.3C103.76 10.73 104.21 10.18 104.69 9.63999C104.16 12.67 104.19 15.79 104.77 18.84M103.82 21.59C103.65 22.21 103.52 22.83 103.41 23.47C103.36 23.34 103.32 23.2 103.27 23.05C103.1 22.55 102.95 22.04 102.82 21.54L102.8 21.48C102.76 21.33 102.72 21.18 102.69 21.03L102.64 20.81C102.6 20.64 102.56 20.46 102.53 20.29C102.49 20.12 102.46 19.95 102.43 19.78V19.75C102.43 19.75 102.42 19.72 102.42 19.7C102.38 19.51 102.35 19.32 102.32 19.13C102.23 18.57 102.16 17.99 102.11 17.41C102.06 16.86 102.03 16.31 102.02 15.77C102.01 15.12 102.02 14.47 102.06 13.83C102.08 13.56 102.1 13.3 102.12 13.03C102.42 12.56 102.74 12.1 103.07 11.65C102.65 14.96 102.91 18.39 103.83 21.6M105.9 37.42C106.22 37.97 106.56 38.51 106.93 39.04C106.81 38.98 106.67 38.92 106.53 38.84C106.06 38.6 105.59 38.35 105.14 38.09L105.09 38.06C104.96 37.98 104.82 37.9 104.69 37.82L104.5 37.7C104.35 37.6 104.2 37.51 104.05 37.41C103.9 37.31 103.76 37.22 103.62 37.12L103.59 37.1C103.59 37.1 103.57 37.09 103.55 37.07C103.39 36.96 103.24 36.85 103.08 36.74C102.62 36.41 102.16 36.05 101.71 35.67C101.29 35.31 100.88 34.95 100.49 34.58C100.02 34.13 99.57 33.66 99.15 33.18C98.97 32.98 98.8 32.77 98.63 32.57C98.51 32.02 98.41 31.47 98.32 30.92C100.36 33.56 102.97 35.8 105.89 37.42M103.01 36.96C103.15 37.06 103.29 37.16 103.42 37.25C103.43 37.26 103.45 37.27 103.47 37.28H103.49C103.63 37.39 103.78 37.49 103.93 37.59C104.08 37.69 104.23 37.79 104.38 37.88L104.58 38C104.71 38.08 104.85 38.16 104.98 38.24L105.04 38.27C105.04 38.27 105.06 38.28 105.07 38.29C104.88 39.43 104.77 40.58 104.74 41.73C104.17 41.66 103.59 41.57 103.02 41.45C102.87 39.95 102.87 38.45 103 36.95M104.74 43.23C104.75 43.6 104.77 43.98 104.8 44.35C104.8 44.41 104.8 44.46 104.81 44.51C104.38 44.04 103.97 43.56 103.58 43.06C103.96 43.12 104.35 43.18 104.74 43.22M115.78 46.17C116.54 46.5 117.33 46.78 118.13 47.01C114.93 47.88 111.52 48.09 108.24 47.63C107.67 47.19 107.12 46.74 106.58 46.26C109.62 46.79 112.73 46.76 115.78 46.18M118.53 47.13C119.15 47.29 119.78 47.43 120.41 47.54C120.28 47.59 120.14 47.64 119.99 47.69C119.49 47.86 118.98 48.01 118.48 48.14L118.42 48.16C118.27 48.2 118.12 48.23 117.97 48.27L117.75 48.32C117.57 48.36 117.4 48.4 117.23 48.43C117.06 48.47 116.89 48.5 116.72 48.53H116.69C116.69 48.53 116.66 48.53 116.64 48.54C116.45 48.57 116.26 48.61 116.07 48.64C115.51 48.73 114.93 48.8 114.35 48.85C113.8 48.9 113.25 48.93 112.72 48.93C112.07 48.94 111.42 48.93 110.78 48.89C110.51 48.87 110.25 48.85 109.98 48.83C109.51 48.53 109.05 48.21 108.6 47.88C111.91 48.3 115.34 48.04 118.55 47.12M131.75 46.33C132.52 46.02 133.28 45.67 134 45.26C132.35 48.14 130.09 50.7 127.44 52.69C126.73 52.79 126.01 52.85 125.3 52.89C127.82 51.12 130.01 48.89 131.75 46.33ZM134.37 45.06C134.92 44.74 135.46 44.4 135.99 44.02C135.93 44.15 135.87 44.28 135.79 44.42C135.55 44.9 135.3 45.36 135.04 45.81L135.01 45.86C134.93 46 134.85 46.13 134.77 46.26L134.65 46.45C134.55 46.6 134.46 46.75 134.36 46.9C134.26 47.05 134.17 47.19 134.07 47.34L134.05 47.36C134.05 47.36 134.04 47.38 134.02 47.4C133.91 47.56 133.8 47.72 133.69 47.87C133.36 48.33 133 48.79 132.62 49.24C132.27 49.66 131.9 50.07 131.53 50.46C131.08 50.93 130.61 51.38 130.13 51.8C129.93 51.98 129.73 52.15 129.52 52.33C128.97 52.45 128.43 52.55 127.87 52.64C130.51 50.6 132.75 47.99 134.37 45.07" fill="white"/>
<path d="M19.806 67.596C17.442 67.596 15.522 65.676 15.522 63.312C15.522 60.948 17.442 59.028 19.806 59.028C20.682 59.028 21.51 59.292 22.182 59.748L22.374 59.88V60.468H21.738V60.228C21.186 59.88 20.514 59.664 19.806 59.664C17.79 59.664 16.158 61.296 16.158 63.312C16.158 65.328 17.79 66.948 19.806 66.948C20.598 66.948 21.306 66.72 21.906 66.288L22.278 66.816C21.27 67.536 20.262 67.596 19.806 67.596ZM23.6412 62.448H23.3292V61.812H24.2892V63.204H24.3012C24.7692 62.256 25.5852 61.596 26.5092 61.596H26.6412V62.556H26.0052V62.328C25.2612 62.64 24.2892 63.672 24.2892 65.124V67.38H23.6412V62.448ZM29.6927 64.164C30.4247 64.164 31.2767 63.432 31.7927 62.976C31.3607 62.52 30.7487 62.232 30.0767 62.232C28.9367 62.232 27.9647 63.072 27.7607 64.164H29.6927ZM27.7247 64.812C27.8327 66.012 28.8527 66.948 30.0767 66.948C30.7607 66.948 31.3607 66.66 31.7927 66.204L32.2727 66.636C31.7207 67.224 30.9407 67.596 30.0767 67.596C28.4207 67.596 27.0767 66.252 27.0767 64.596C27.0767 62.94 28.4207 61.596 30.0767 61.596C31.0727 61.596 31.9487 62.088 32.5007 62.832L32.6807 63.072L32.4407 63.264C31.9247 63.696 30.8447 64.812 29.6927 64.812H27.7247ZM38.9586 67.38H37.9986V66.66C37.4826 67.212 36.6906 67.596 35.8506 67.596C34.5066 67.596 33.4986 66.852 33.4986 65.712C33.4986 64.788 34.3146 63.948 35.8506 63.948H37.9986V63.528C37.9986 62.472 37.0986 62.232 36.3306 62.232C35.7426 62.232 35.2626 62.376 34.9986 62.484V62.772H34.3506V62.076L34.5186 61.992C34.9986 61.74 35.6946 61.596 36.3306 61.596C37.3626 61.596 38.6346 62.004 38.6346 63.528V66.732H38.9586V67.38ZM35.8506 64.596C34.6026 64.596 34.1346 65.208 34.1346 65.712C34.1346 66.456 34.8426 66.948 35.8506 66.948C36.6186 66.948 37.6506 66.624 37.9986 66V64.596H35.8506ZM40.3388 60.528H40.9868V61.812H43.3388V62.448H40.9868V65.772C40.9868 66.42 41.5148 66.948 42.1628 66.948C42.5588 66.948 42.9068 66.744 43.1228 66.444V66.204H43.7708V66.636L43.7228 66.72C43.3988 67.248 42.8228 67.596 42.1628 67.596C41.1548 67.596 40.3388 66.78 40.3388 65.772V62.448H39.4868V61.812H40.3388V60.528ZM45.3757 59.556C45.6397 59.556 45.8557 59.772 45.8557 60.036C45.8557 60.3 45.6397 60.528 45.3757 60.528C45.1117 60.528 44.8837 60.3 44.8837 60.036C44.8837 59.772 45.1117 59.556 45.3757 59.556ZM45.0397 62.448H44.7277V61.812H45.6877V67.38H45.0397V62.448ZM49.6151 67.584L47.0591 62.448H46.7591V61.812H47.4671L49.7591 66.42L52.1711 61.632L52.7471 61.908L49.8911 67.584H49.6151ZM55.8021 64.164C56.5341 64.164 57.3861 63.432 57.9021 62.976C57.4701 62.52 56.8581 62.232 56.1861 62.232C55.0461 62.232 54.0741 63.072 53.8701 64.164H55.8021ZM53.8341 64.812C53.9421 66.012 54.9621 66.948 56.1861 66.948C56.8701 66.948 57.4701 66.66 57.9021 66.204L58.3821 66.636C57.8301 67.224 57.0501 67.596 56.1861 67.596C54.5301 67.596 53.1861 66.252 53.1861 64.596C53.1861 62.94 54.5301 61.596 56.1861 61.596C57.1821 61.596 58.0581 62.088 58.6101 62.832L58.7901 63.072L58.5501 63.264C58.0341 63.696 56.9541 64.812 55.8021 64.812H53.8341ZM60.6759 59.232V67.38H60.0279V59.88H59.7159V59.232H60.6759ZM67.7474 61.812V62.076L64.5074 68.796C64.1114 69.624 63.6074 69.948 63.0794 69.948C62.5274 69.948 62.0714 69.576 61.8194 69.228L61.7474 69.132V68.724H62.3834V68.916C62.5394 69.12 62.8154 69.312 63.0794 69.312C63.4274 69.312 63.7034 68.988 63.9314 68.52L64.4114 67.524H64.3874L62.1194 62.448H61.8554V61.812H62.5394L64.7594 66.804L67.0994 61.932V61.812H67.7474ZM78.8903 59.484L75.9863 64.284V67.38H75.3503V64.284L72.6863 59.88H72.4583V59.232H73.0463L75.6623 63.564H75.6863L78.2423 59.304V59.232H78.8903V59.484ZM79.3103 64.596C79.3103 65.892 80.3783 66.948 81.6743 66.948C82.9703 66.948 84.0263 65.892 84.0263 64.596C84.0263 63.3 82.9703 62.232 81.6743 62.232C80.3783 62.232 79.3103 63.3 79.3103 64.596ZM81.6743 61.596C83.3303 61.596 84.6743 62.94 84.6743 64.596C84.6743 66.252 83.3303 67.596 81.6743 67.596C80.0183 67.596 78.6743 66.252 78.6743 64.596C78.6743 62.94 80.0183 61.596 81.6743 61.596ZM85.6378 61.812H86.5978V65.664C86.5978 66.528 87.1858 66.948 88.0978 66.948C89.3458 66.948 90.4498 65.88 90.4498 64.38V61.812H91.0978V66.732H91.4218V67.38H90.4498V66.096H90.4378C89.9458 66.996 89.0938 67.596 88.0978 67.596C86.8258 67.596 85.9498 66.876 85.9498 65.664V62.448H85.6378V61.812ZM92.8053 62.448H92.4933V61.812H93.4533V63.204H93.4653C93.9333 62.256 94.7493 61.596 95.6733 61.596H95.8053V62.556H95.1693V62.328C94.4253 62.64 93.4533 63.672 93.4533 65.124V67.38H92.8053V62.448ZM98.5927 64.068C99.6487 64.464 100.957 64.848 100.957 66.096C100.957 66.924 99.8887 67.596 98.5927 67.596C97.2247 67.596 96.5647 67.02 96.3007 66.684L96.2407 66.6V66.144H96.8767V66.36C97.1167 66.612 97.6327 66.948 98.5927 66.948C99.5407 66.948 100.309 66.564 100.309 66.096C100.309 65.364 99.4807 65.088 98.5927 64.764C97.6447 64.416 96.6607 64.032 96.6607 62.988V62.976C96.6607 62.22 97.5247 61.596 98.5927 61.596C99.2407 61.596 99.9127 61.776 100.429 62.268L100.525 62.352V62.832H99.8767V62.64C99.5047 62.34 99.0367 62.232 98.5927 62.232C97.8847 62.232 97.3087 62.568 97.3087 62.976V62.988C97.3087 63.54 97.8967 63.816 98.5927 64.068Z" fill="white"/>
</g>
<defs>
<clipPath id="clip0_3006_19532">
<rect width="150.69" height="71" fill="white"/>
</clipPath>
</defs>
</svg>
