<svg width="19" height="19" viewBox="0 0 19 19" fill="none" xmlns="http://www.w3.org/2000/svg">
<path d="M3.08992 0.910034C4.25992 0.910034 5.19001 1.86003 5.18001 3.02003C5.18001 4.18003 4.23002 5.13004 3.06002 5.13004C1.89002 5.13004 0.959929 4.18003 0.969929 3.02003C0.969929 1.86003 1.92992 0.910034 3.08992 0.910034Z" fill="white"/>
<path d="M4.87 6.72009L4.78003 18.4201H1.14001L1.22998 6.72009H4.87Z" fill="white"/>
<path d="M14.13 6.44006C17.82 6.44006 18.47 8.86006 18.45 12.0101L18.4 18.4301H14.77L14.8101 12.7401C14.8201 11.3801 14.8099 9.63007 12.9399 9.63007C11.0699 9.63007 10.75 11.1101 10.74 12.6401L10.7 18.4301H7.06006L7.15002 6.73006H10.64V8.33007H10.6801C11.1701 7.41007 12.36 6.44006 14.13 6.44006Z" fill="white"/>
</svg>
