<svg width="104" height="37" viewBox="0 0 104 37" fill="none" xmlns="http://www.w3.org/2000/svg">
<path d="M12.8212 36.9983V22.2539L23.8107 0.137451H22.3454L12.1343 20.5139L1.7858 0.137451H0L11.2185 22.2539V36.9983H12.8212Z" fill="white"/>
<path d="M35.8992 0L17.9038 36.9982H19.4149L36.1282 2.65581L52.9788 36.9982H54.7188L36.6776 0H35.8992Z" fill="white"/>
<path d="M69.3259 0.137451H50.781V1.55694H59.2979V36.9983H60.9006V1.55694H69.3259V0.137451Z" fill="white"/>
<path d="M103.577 20.926C103.76 19.5523 103.76 18.1328 103.622 16.7591C103.622 16.7133 103.622 16.6675 103.622 16.6218C103.622 16.5302 103.577 16.3928 103.577 16.3012C103.577 16.2554 103.577 16.2096 103.577 16.2096C103.577 16.1639 103.577 16.1181 103.577 16.0723C103.577 15.9807 103.531 15.8891 103.531 15.7975C103.531 15.706 103.485 15.6144 103.485 15.5228C103.485 15.477 103.485 15.4312 103.439 15.3396C103.439 15.2939 103.439 15.2938 103.439 15.2481C103.439 15.1565 103.393 15.0649 103.393 14.9733C103.393 14.9275 103.393 14.9275 103.393 14.8817C103.393 14.836 103.393 14.7902 103.348 14.7444V14.6986C102.752 12.0428 101.608 9.52433 99.9592 7.37221C99.0891 6.27325 98.1276 5.26588 97.0286 4.35008C96.9828 4.30429 96.9828 4.30429 96.937 4.2585C96.8454 4.16692 96.7539 4.12113 96.6623 4.02955C96.6165 3.98376 96.5707 3.93797 96.5249 3.93797C96.4333 3.89218 96.3418 3.8006 96.2502 3.75481C96.2044 3.70902 96.1128 3.66323 96.067 3.61744C96.0212 3.57165 95.9754 3.52586 95.8838 3.48007C95.8381 3.48007 95.8381 3.43428 95.7923 3.43428C95.7007 3.38849 95.6549 3.3427 95.5633 3.29691L95.4717 3.20534C95.4717 3.20534 95.4259 3.20533 95.4259 3.15954C95.3802 3.15954 95.3802 3.11376 95.3344 3.11376C93.0449 1.64848 90.4349 0.686894 87.7333 0.366365C86.3596 0.183206 84.9401 0.183205 83.5664 0.320575C83.5206 0.320575 83.4748 0.320575 83.429 0.320575C83.2917 0.320575 83.2001 0.366365 83.0627 0.366365C82.9711 0.366365 82.9253 0.366365 82.8338 0.412155C82.7422 0.412155 82.6506 0.457945 82.5132 0.457945C82.4216 0.457945 82.3301 0.503735 82.2843 0.503735C82.2385 0.503735 82.1469 0.503734 82.1011 0.549524C82.0553 0.549524 82.0553 0.549524 82.0095 0.549524C81.918 0.549524 81.8264 0.595315 81.7348 0.595315C81.689 0.595315 81.6432 0.595314 81.5974 0.641104H81.5516C81.5058 0.641104 81.5058 0.641104 81.4601 0.641104C78.8042 1.23637 76.2858 2.38112 74.1337 4.02955C73.0347 4.89956 72.0274 5.86114 71.1573 6.9601C71.1116 7.00589 71.1116 7.00589 71.0658 7.05168C70.9742 7.14326 70.9284 7.23484 70.8368 7.32642C70.791 7.37221 70.7452 7.418 70.6994 7.50958C70.6537 7.60116 70.5621 7.69274 70.5163 7.73853C70.4705 7.78432 70.4247 7.8759 70.3789 7.92169C70.3331 7.96748 70.2873 8.01327 70.2416 8.10485C70.2416 8.15064 70.1958 8.15064 70.1958 8.19643C70.15 8.28801 70.1042 8.3338 70.0584 8.42538C70.0126 8.47117 70.0126 8.51696 69.9668 8.51696L69.921 8.56274C69.921 8.60853 69.8752 8.60854 69.8752 8.65433C68.41 10.9438 67.4484 13.5538 67.1278 16.2554C66.9447 17.6291 66.9447 19.0486 67.082 20.4223C67.082 20.4681 67.082 20.5139 67.082 20.5597C67.082 20.6971 67.1278 20.7886 67.1278 20.926C67.1278 21.0176 67.1278 21.0634 67.1736 21.1549C67.1736 21.2465 67.2194 21.3381 67.2194 21.4755C67.2194 21.5671 67.2652 21.6586 67.2652 21.7044C67.2652 21.7502 67.2652 21.8418 67.311 21.8876C67.311 21.9334 67.311 21.9334 67.311 21.9792C67.311 22.0707 67.3568 22.1623 67.3568 22.2539C67.3568 22.2997 67.3568 22.3455 67.4026 22.3913V22.4371C67.4026 22.4829 67.4026 22.4829 67.4026 22.5286C67.9979 25.1845 69.1426 27.7029 70.791 29.855C71.661 30.954 72.6226 31.9613 73.7216 32.8314C73.7674 32.8771 73.7674 32.8771 73.8132 32.9229C73.9047 33.0145 73.9963 33.0603 74.0879 33.1519C74.1337 33.1977 74.1795 33.2435 74.2711 33.2893C74.3626 33.335 74.4542 33.4266 74.5 33.4724C74.5458 33.5182 74.6374 33.564 74.6832 33.6098C74.729 33.6556 74.7747 33.7014 74.8663 33.7472C74.9121 33.7472 74.9121 33.7929 74.9579 33.7929C75.0495 33.8387 75.0953 33.8845 75.1869 33.9303C75.2326 33.9761 75.2784 33.9761 75.2784 34.0219L75.3242 34.0677C75.37 34.0677 75.37 34.1135 75.4158 34.1135C77.7053 35.5787 80.3153 36.5403 83.0169 36.8609C84.2532 36.9982 85.5353 37.044 86.7717 36.9524C86.909 36.9524 87.0464 36.9524 87.1838 36.9067C87.2296 36.9067 87.2754 36.9067 87.3212 36.9067C87.4127 36.9067 87.5501 36.8609 87.6417 36.8609C87.7333 36.8609 87.8248 36.8151 87.9164 36.8151C88.008 36.8151 88.0538 36.8151 88.1454 36.7693H88.1912C88.2827 36.7693 88.3285 36.7235 88.4201 36.7235C88.5117 36.7235 88.5575 36.6777 88.6491 36.6777C88.6949 36.6777 88.6948 36.6777 88.7406 36.6777C88.8322 36.6777 88.9238 36.6319 88.9696 36.6319C89.0154 36.6319 89.0612 36.6319 89.107 36.5861H89.1528C89.1985 36.5861 89.1985 36.5861 89.2443 36.5861C91.9001 35.9909 94.4186 34.8461 96.5707 33.1977C97.6697 32.3277 98.677 31.3661 99.547 30.2671C99.5928 30.2213 99.5928 30.2213 99.6386 30.1755C99.7302 30.084 99.776 29.9924 99.8676 29.9008C99.9134 29.855 99.9591 29.8092 100.005 29.7176C100.051 29.6261 100.142 29.5345 100.188 29.4887C100.234 29.4429 100.28 29.3513 100.325 29.3055C100.371 29.2598 100.417 29.214 100.463 29.1224C100.463 29.0766 100.509 29.0766 100.509 29.0308C100.554 28.9392 100.6 28.8934 100.646 28.8019C100.692 28.7561 100.692 28.7103 100.738 28.7103L100.783 28.6645C100.783 28.6187 100.829 28.6187 100.829 28.5729C102.294 26.1918 103.256 23.6276 103.577 20.926ZM93.9607 34.2051C93.5486 34.434 93.1823 34.6172 92.7701 34.8003C92.0833 34.8461 91.3507 34.8461 90.6638 34.8003C90.8928 34.5256 91.1675 34.2966 91.3965 34.0219C91.3965 34.0219 91.3965 33.9761 91.4422 33.9761C92.358 34.1135 93.2738 34.1593 94.1896 34.1135L94.1438 34.1593C94.0523 34.1593 94.0065 34.1593 93.9607 34.2051ZM80.3611 35.7161C79.949 35.5787 79.4911 35.4414 79.079 35.304C78.5753 34.8461 78.0716 34.3424 77.6137 33.7929C77.98 33.7929 78.3463 33.7472 78.6669 33.7472H78.7127C79.2621 34.4798 79.9032 35.1666 80.59 35.8077H80.4985C80.4985 35.7619 80.4069 35.7619 80.3611 35.7161ZM69.6463 27.1992C69.6005 27.1534 69.5547 27.0618 69.5547 27.016C69.3715 26.6955 69.2342 26.375 69.0968 26.0545C69.051 25.3676 69.051 24.635 69.0968 23.9481C69.3715 24.1771 69.6005 24.4518 69.8752 24.6808C69.8752 24.6808 69.921 24.6808 69.921 24.7266C69.7837 25.6424 69.7379 26.5581 69.7837 27.4739C69.7837 27.4739 69.7836 27.4282 69.7379 27.4282C69.7379 27.3366 69.6921 27.245 69.6463 27.1992ZM68.1352 13.6454C68.2726 13.1875 68.41 12.7754 68.5473 12.3633C69.0052 11.8596 69.5089 11.3559 70.0584 10.898C70.0584 11.2643 70.1042 11.6307 70.1042 11.9512V11.997C69.3715 12.5465 68.6847 13.1875 68.0436 13.8744C68.0436 13.8286 68.0436 13.8286 68.0436 13.7828C68.0894 13.737 68.0894 13.6912 68.1352 13.6454ZM76.6521 2.9306C77.0642 2.70165 77.4305 2.51849 77.8427 2.33533C78.5295 2.28954 79.2621 2.28954 79.949 2.33533C79.72 2.61007 79.4453 2.83902 79.2164 3.11376C79.2164 3.11376 79.2164 3.15954 79.1706 3.15954C78.2548 3.02218 77.339 2.97639 76.4232 3.02218C76.469 3.02218 76.469 2.97639 76.5148 2.97639C76.5605 2.97639 76.6063 2.97639 76.6521 2.9306ZM90.2517 1.41953C90.6638 1.5569 91.1217 1.69427 91.5338 1.83164C92.0375 2.28954 92.5412 2.79323 92.9991 3.3427C92.6328 3.3427 92.2665 3.38849 91.9459 3.38849H91.9001C91.3507 2.65586 90.7096 1.96901 90.0228 1.32795C90.0685 1.32795 90.0685 1.32795 90.1143 1.32795C90.1143 1.37374 90.1601 1.37374 90.2517 1.41953ZM100.921 9.93644C101.15 10.3485 101.333 10.7149 101.516 11.127C101.562 11.8138 101.562 12.5465 101.516 13.2333C101.241 13.0044 101.012 12.7296 100.738 12.5007C100.738 12.5007 100.692 12.5007 100.692 12.4549C100.829 11.5391 100.875 10.6233 100.829 9.70749L100.875 9.75328C100.875 9.79907 100.921 9.84486 100.921 9.93644ZM102.478 23.4902C102.34 23.9023 102.203 24.3602 102.065 24.7723C101.608 25.276 101.104 25.7797 100.554 26.2376C100.554 25.8713 100.509 25.505 100.509 25.1845V25.1387C101.241 24.5892 101.928 23.9481 102.569 23.2613C102.569 23.3071 102.569 23.3071 102.569 23.3529C102.478 23.3987 102.478 23.4444 102.478 23.4902ZM71.9816 23.9481C72.2105 24.4976 72.4395 25.0013 72.7142 25.505C70.7452 24.3602 68.9594 22.8034 67.5857 20.9718C67.5399 20.4681 67.4942 20.0102 67.4484 19.5065C68.6847 21.2465 70.2416 22.7118 71.9816 23.9481ZM67.4484 17.7665C67.4484 17.3086 67.4942 16.8965 67.5399 16.4386C67.6773 16.6675 67.8605 16.8507 68.0436 17.0797C67.8605 17.2628 67.6773 17.446 67.5399 17.6291C67.4942 17.7207 67.4942 17.7665 67.4484 17.7665ZM73.1263 6.45641C73.4468 6.41062 73.7216 6.41062 74.0421 6.41062C73.9963 7.46379 73.9963 8.51696 74.1337 9.57012L74.0879 9.61591C73.9963 9.75328 73.9047 9.89065 73.7674 10.028C73.7674 10.028 73.7674 10.028 73.7674 10.0738L73.7216 10.1196C73.4468 10.5317 73.1721 10.9438 72.8974 11.3559C72.7142 9.70749 72.8058 8.05906 73.1263 6.45641ZM98.6312 13.1875C98.4023 12.638 98.1734 12.1344 97.8986 11.6307C99.8676 12.7754 101.653 14.3323 103.027 16.1639C103.073 16.6675 103.119 17.1254 103.164 17.6291C101.928 15.8891 100.371 14.4238 98.6312 13.1875ZM103.119 19.3691C103.119 19.827 103.073 20.2392 103.027 20.6971C102.89 20.4681 102.707 20.2849 102.523 20.056C102.707 19.8728 102.89 19.6897 103.027 19.5065C103.073 19.4149 103.119 19.3691 103.119 19.3691ZM97.4865 30.6792C97.166 30.725 96.8912 30.725 96.5707 30.725C96.6165 29.6719 96.6165 28.6187 96.4791 27.5655L96.5249 27.5197C96.6165 27.3824 96.7081 27.245 96.8454 27.1076C96.8454 27.1076 96.8454 27.1076 96.8454 27.0618L96.8912 27.016C97.166 26.6039 97.4407 26.1918 97.7154 25.7797C97.8528 27.4282 97.807 29.0766 97.4865 30.6792ZM92.6786 30.2213C92.6328 30.2671 92.5412 30.3129 92.4496 30.3587C91.3049 31.0456 90.1143 31.5492 88.8322 31.9156C88.4659 32.0071 88.0996 32.0987 87.7333 32.1445C87.6417 32.1445 87.5043 32.1903 87.4127 32.1903C87.3212 32.1903 87.2754 32.1903 87.1838 32.2361C85.4896 32.465 83.7038 32.3735 82.0095 31.9613C81.9637 31.9613 81.9637 31.9613 81.918 31.9156C81.7806 31.8698 81.6432 31.824 81.5058 31.824C81.4143 31.824 81.3227 31.7782 81.2769 31.7324C81.2311 31.7324 81.1853 31.6866 81.1395 31.6866C79.6285 31.1829 78.209 30.4503 76.9269 29.4887C76.8811 29.4887 76.8811 29.4429 76.8353 29.4429C76.7437 29.3971 76.6979 29.3055 76.6063 29.2598C75.4616 28.344 74.4542 27.1992 73.63 25.9629V25.9171C73.5842 25.8255 73.5384 25.7797 73.4926 25.6881C72.8058 24.5434 72.3021 23.3529 71.9358 22.0707C71.8442 21.7044 71.7526 21.3381 71.7068 20.9718C71.7068 20.8802 71.661 20.7428 71.661 20.6513C71.661 20.5597 71.661 20.5139 71.6152 20.4223C71.3863 18.7281 71.4779 16.9423 71.89 15.2939C71.89 15.2481 71.89 15.2023 71.9358 15.1565C71.9816 15.0191 71.9816 14.8817 72.0274 14.7902C72.4852 13.0959 73.3095 11.5391 74.3626 10.1654C74.3626 10.1654 74.3626 10.1654 74.4084 10.1196C74.5 10.028 74.5458 9.93644 74.6374 9.84486C74.6374 9.79907 74.6832 9.79907 74.6832 9.75328C74.7747 9.6617 74.8205 9.57012 74.9121 9.47854C74.9579 9.38696 75.0495 9.34117 75.0953 9.24959C75.0953 9.24959 75.0953 9.24959 75.0953 9.2038C75.9195 8.3338 76.8353 7.55537 77.8427 6.86852L77.8885 6.91431C77.98 6.86852 78.0258 6.82273 78.1174 6.77694C79.2621 6.09009 80.4527 5.58641 81.7348 5.22009C82.1011 5.12851 82.4674 5.03693 82.8338 4.99114C82.9253 4.99114 83.0627 4.94535 83.1543 4.94535C83.2459 4.94535 83.2917 4.94535 83.3832 4.89956C85.0775 4.67061 86.8633 4.76219 88.5575 5.1743C88.6033 5.1743 88.6033 5.1743 88.6491 5.22009C88.7864 5.26588 88.9238 5.31167 89.0612 5.31167C89.1527 5.35746 89.2443 5.35746 89.2901 5.40324C89.3359 5.40324 89.3817 5.44904 89.4275 5.44904C90.9386 5.95273 92.4038 6.68536 93.6401 7.64695L93.6859 7.69274C93.7775 7.73853 93.8233 7.83011 93.9149 7.8759C95.0596 8.79169 96.067 9.89065 96.8454 11.127L96.8912 11.1728C96.937 11.2186 96.9828 11.3101 97.0286 11.4017C97.7154 12.5465 98.2191 13.737 98.5855 15.0191C98.677 15.3854 98.7686 15.7517 98.8144 16.1181C98.8144 16.2096 98.8602 16.347 98.8602 16.4386C98.8602 16.5302 98.8602 16.576 98.906 16.6675C99.1349 18.3618 99.0433 20.1476 98.6312 21.8418C98.6312 21.8876 98.6313 21.8876 98.5855 21.9334C98.5397 22.0707 98.4939 22.2081 98.4939 22.3455C98.4939 22.4371 98.4481 22.5286 98.4023 22.5744C98.4023 22.6202 98.3565 22.666 98.3565 22.7118C97.8528 24.2229 97.1202 25.6881 96.1586 26.9245L96.1128 26.9703C96.067 27.0618 95.9754 27.1076 95.9296 27.1992C95.0138 28.344 93.9149 29.3513 92.6786 30.1298C92.7243 30.1755 92.7243 30.1755 92.6786 30.2213ZM99.547 17.0339C99.547 16.9881 99.547 16.9881 99.547 16.9423C99.547 16.8965 99.547 16.8507 99.547 16.8049C99.547 16.7591 99.547 16.7133 99.547 16.6675C99.547 16.576 99.547 16.5302 99.5013 16.4386V16.3928C99.5013 16.347 99.5013 16.347 99.5013 16.3012C99.4097 15.7975 99.3181 15.3396 99.1807 14.8817C100.463 15.9349 101.562 17.1254 102.478 18.4991C102.294 18.7281 102.065 18.957 101.882 19.186C101.195 18.4534 100.417 17.7207 99.547 17.0339ZM71.02 20.1018C71.02 20.1476 71.02 20.1476 71.02 20.1934C71.02 20.1934 71.02 20.1934 71.02 20.2392C71.02 20.2849 71.02 20.3307 71.02 20.3307C71.02 20.3765 71.02 20.4681 71.0658 20.5139C71.0658 20.5597 71.0658 20.6513 71.1116 20.6971V20.7428C71.1116 20.7886 71.1116 20.8344 71.1116 20.8802C71.1116 20.9718 71.1573 21.0634 71.1573 21.1549C71.2031 21.5213 71.2947 21.8876 71.3863 22.2997C70.1042 21.2465 69.0052 20.056 68.0436 18.6823C68.2268 18.4533 68.4557 18.2244 68.6389 17.9954C69.4173 18.6823 70.1958 19.4149 71.02 20.1018ZM99.6386 18.4533C100.188 18.9112 100.692 19.4149 101.15 19.9644C100.692 20.4223 100.188 20.8344 99.6386 21.2465C99.5928 21.0634 99.5013 20.8802 99.4555 20.7428C99.5928 19.9644 99.6386 19.186 99.6386 18.4533ZM101.837 20.7428C102.065 21.0634 102.294 21.3839 102.523 21.7044C101.882 22.5286 101.15 23.2613 100.325 23.9023C100.325 23.765 100.28 23.6734 100.28 23.5818V23.536C100.28 23.3987 100.234 23.3071 100.188 23.1697C100.142 23.0323 100.142 22.9408 100.097 22.8034L100.051 22.666C100.005 22.5744 100.005 22.4371 99.9592 22.3455V22.2997C99.9592 22.2997 99.9592 22.2997 99.9592 22.2539C100.646 21.796 101.241 21.2923 101.837 20.7428ZM95.3802 8.33379C96.1128 8.288 96.7996 8.288 97.5323 8.33379C97.5323 8.97485 97.4407 9.61591 97.3491 10.3028C97.166 10.2112 96.9828 10.1196 96.8454 10.0738C96.3875 9.43275 95.8839 8.88327 95.3802 8.33379ZM94.327 7.418L94.2812 7.37221C94.1438 7.28063 94.0065 7.18905 93.8691 7.05168C93.8691 7.05168 93.8691 7.05168 93.8233 7.05168L93.7775 7.00589C93.3654 6.73115 92.9533 6.45641 92.5412 6.18167C94.1896 5.99851 95.8381 6.09009 97.4407 6.41062C97.4865 6.73115 97.4865 7.00589 97.4865 7.32642C96.4333 7.23484 95.3802 7.28063 94.327 7.418ZM85.169 4.21271C85.6269 3.66323 86.1306 3.15954 86.6801 2.70165C87.138 3.15954 87.5501 3.66323 87.9622 4.21271C87.7791 4.2585 87.5959 4.35008 87.4585 4.39587C86.6801 4.2585 85.9475 4.21271 85.169 4.21271ZM87.5043 2.06059C87.8248 1.83164 88.1454 1.60269 88.4659 1.37374C89.2901 2.0148 90.0228 2.74744 90.6638 3.57165C90.5264 3.57165 90.4349 3.61744 90.3433 3.61744H90.2975C90.1601 3.61744 90.0685 3.66323 89.9312 3.70902C89.7938 3.75481 89.7022 3.75481 89.5649 3.8006L89.4275 3.84639C89.3359 3.89218 89.1985 3.89218 89.107 3.93797H89.0612C89.0612 3.93797 89.0612 3.93797 89.0154 3.93797C88.5575 3.25112 88.0538 2.61007 87.5043 2.06059ZM86.7717 1.32795C86.5885 1.14479 86.4054 0.961633 86.1764 0.824264C86.1306 0.778474 86.1306 0.778474 86.0848 0.732684C86.5427 0.732684 86.9548 0.778474 87.4127 0.824264C87.1838 1.00742 86.9548 1.14479 86.7717 1.32795ZM85.9475 1.96901C85.169 2.65586 84.4364 3.43428 83.7953 4.30429H83.7495C83.7038 4.30429 83.658 4.30429 83.6122 4.30429C83.5664 4.30429 83.4748 4.30429 83.429 4.35008C83.3832 4.35008 83.2916 4.35008 83.2459 4.39587C83.2001 4.39587 83.1543 4.39587 83.1085 4.39587C83.0169 4.39587 82.9253 4.44166 82.8338 4.44166C82.4674 4.48745 82.1011 4.57903 81.689 4.67061C82.7422 3.38849 83.9327 2.28954 85.3064 1.32795C85.4896 1.5569 85.7185 1.78585 85.9475 1.96901ZM76.7895 7.00589C76.1942 7.46379 75.599 7.96748 75.0953 8.47117C75.0495 7.73853 75.0495 7.05168 75.0953 6.31904C75.7363 6.31904 76.3774 6.41062 77.0642 6.5022C76.9269 6.73115 76.8353 6.86852 76.7895 7.00589ZM75.1869 5.35746C75.2326 4.94535 75.2784 4.57903 75.37 4.16692C76.4232 4.07534 77.4306 4.07534 78.4837 4.16692C78.3921 4.2585 78.3463 4.35008 78.3006 4.44166C78.3006 4.44166 78.3006 4.44166 78.2548 4.48745C78.209 4.57903 78.1174 4.67061 78.0716 4.80798C78.0258 4.89956 77.9342 5.03693 77.8885 5.12851L77.7969 5.26588C77.7511 5.35746 77.7053 5.44904 77.6137 5.54062V5.5864C77.6137 5.5864 77.6137 5.5864 77.6137 5.63219C76.7437 5.44903 75.9653 5.35746 75.1869 5.35746ZM73.2637 5.40324C73.5842 5.12851 73.9047 4.80798 74.2711 4.53324C74.2253 4.80798 74.1795 5.08272 74.1795 5.31167C73.9047 5.31167 73.6758 5.31167 73.401 5.35746C73.3095 5.40325 73.3095 5.40324 73.2637 5.40324ZM70.9742 18.6823C70.4247 18.2244 69.921 17.7207 69.4631 17.1712C69.921 16.7133 70.4247 16.3012 70.9742 15.8891C71.02 16.0723 71.1116 16.2554 71.1573 16.3928C71.02 17.1712 70.9742 17.9039 70.9742 18.6823ZM68.7763 16.3928C68.5473 16.0723 68.3184 15.7517 68.0894 15.4312C68.7305 14.607 69.4631 13.8744 70.2873 13.2333C70.2873 13.3707 70.3331 13.4623 70.3331 13.5538V13.5996C70.3331 13.737 70.3789 13.8286 70.4247 13.9659C70.4705 14.1033 70.4705 14.1949 70.5163 14.3323L70.5621 14.4696C70.6079 14.5612 70.6079 14.6986 70.6537 14.7902V14.836C70.6537 14.836 70.6537 14.836 70.6537 14.8817C69.9668 15.3396 69.3715 15.8433 68.7763 16.3928ZM75.2326 28.8019C74.5 28.8476 73.8132 28.8476 73.0805 28.8019C73.0805 28.1608 73.1721 27.5197 73.2637 26.8329C73.4468 26.9245 73.63 27.016 73.7674 27.0618C74.2253 27.7029 74.6832 28.2524 75.2326 28.8019ZM76.2858 29.7176L76.3316 29.7634C76.469 29.855 76.6063 29.9466 76.7437 30.084C76.7437 30.084 76.7437 30.084 76.7895 30.084L76.8353 30.1298C77.2474 30.4045 77.6595 30.6792 78.0716 30.954C76.4232 31.1371 74.7747 31.0456 73.1721 30.725C73.1263 30.4045 73.1263 30.1298 73.1263 29.8092C74.1795 29.9008 75.2326 29.855 76.2858 29.7176ZM85.398 32.9229C84.9401 33.4724 84.4364 33.9761 83.8869 34.434C83.429 33.9761 83.0169 33.4724 82.6048 32.9229C82.788 32.8771 82.9711 32.7856 83.1085 32.7398C83.8869 32.8771 84.6653 32.9229 85.398 32.9229ZM83.1085 35.0751C82.788 35.304 82.4674 35.533 82.1469 35.7619C81.3227 35.1208 80.5901 34.3882 79.949 33.564C80.0864 33.564 80.1779 33.5182 80.2695 33.5182H80.3153C80.4527 33.5182 80.5443 33.4724 80.6816 33.4266C80.819 33.3808 80.9106 33.3808 81.0479 33.335L81.1853 33.2893C81.2769 33.2435 81.4143 33.2435 81.5058 33.1977H81.5516C81.5516 33.1977 81.5516 33.1977 81.5974 33.1977C82.0553 33.8845 82.559 34.5256 83.1085 35.0751ZM83.8411 35.8077C84.0243 35.9909 84.2074 36.174 84.3906 36.3114C84.4364 36.3572 84.4364 36.3572 84.4822 36.403C84.0243 36.403 83.6122 36.3572 83.1543 36.3114C83.429 36.1282 83.658 35.9909 83.8411 35.8077ZM84.6196 35.1666C85.398 34.4798 86.1306 33.7014 86.7717 32.8314H86.8175C86.8175 32.8314 86.8175 32.8314 86.8633 32.8314C86.909 32.8314 86.909 32.8314 86.9548 32.8314C87.0464 32.8314 87.0922 32.8314 87.1838 32.7856C87.2296 32.7856 87.2754 32.7856 87.3669 32.7398C87.3669 32.7398 87.3669 32.7398 87.4127 32.7398C87.4585 32.7398 87.5043 32.7398 87.5501 32.7398C87.6417 32.7398 87.7333 32.694 87.7791 32.694H87.8248C88.1912 32.6482 88.5575 32.5566 88.9238 32.465C87.8706 33.7472 86.6801 34.8461 85.3064 35.8077C85.0775 35.5788 84.8485 35.3498 84.6196 35.1666ZM93.8233 30.1298C94.4186 29.6719 95.0138 29.1682 95.5175 28.6645C95.5633 29.3971 95.5633 30.084 95.5175 30.8166C94.8765 30.8166 94.2354 30.725 93.5486 30.6334C93.6859 30.4045 93.7317 30.2671 93.8233 30.1298ZM95.4259 31.7782C95.3802 32.1903 95.3344 32.5566 95.2428 32.9687C94.1896 33.0603 93.1823 33.0603 92.1291 32.9687C92.2207 32.8771 92.2665 32.7856 92.3122 32.694C92.3122 32.694 92.3123 32.694 92.358 32.6482C92.4038 32.5566 92.4954 32.465 92.5412 32.3277C92.587 32.2361 92.6786 32.0987 92.7244 32.0071L92.8159 31.8698C92.8617 31.7782 92.9075 31.6866 92.9991 31.595V31.5492C92.9991 31.5492 92.9991 31.5492 92.9991 31.5035C93.8691 31.6866 94.6475 31.7782 95.4259 31.7782ZM96.4791 31.7782C96.7539 31.7782 96.9828 31.7782 97.2575 31.7324C97.3033 31.7324 97.3491 31.7324 97.3491 31.7324C97.0286 32.0071 96.7081 32.3277 96.3417 32.6024C96.3875 32.3277 96.4333 32.0529 96.4791 31.7782ZM98.4939 24.1771C98.7228 23.6276 98.906 23.1239 99.0891 22.5744C99.6844 24.7723 99.8218 27.1076 99.5013 29.3971C99.1807 29.8092 98.906 30.1755 98.5397 30.5419C98.906 28.4355 98.906 26.2834 98.4939 24.1771ZM99.1349 22.2997C99.2265 21.8876 99.3639 21.4297 99.4097 21.0176C99.4555 21.1092 99.4555 21.2007 99.5013 21.2923C99.5928 21.6586 99.7302 21.9792 99.8218 22.3455V22.3913C99.8676 22.4829 99.8676 22.6202 99.9134 22.7118L99.9592 22.8492C100.005 22.9865 100.005 23.0781 100.051 23.2155C100.097 23.3529 100.097 23.4444 100.142 23.5818C100.142 23.5818 100.142 23.5818 100.142 23.6276C100.188 23.765 100.188 23.9023 100.188 24.0397C100.234 24.406 100.28 24.8181 100.325 25.2302C100.371 25.5966 100.371 26.0087 100.371 26.375C100.371 26.8329 100.371 27.2908 100.325 27.7029C100.325 27.8861 100.28 28.0692 100.28 28.2524C100.051 28.5729 99.8676 28.8934 99.6386 29.214C99.9591 26.8787 99.776 24.4976 99.1349 22.2997ZM97.7154 11.4017C97.4865 11.0354 97.2576 10.6691 96.9828 10.3028C97.0744 10.3485 97.166 10.3943 97.2575 10.4401C97.5781 10.6233 97.8986 10.7607 98.2191 10.9438H98.2649C98.3565 10.9896 98.4481 11.0354 98.5397 11.127L98.677 11.2186C98.7686 11.2643 98.906 11.3559 98.9976 11.4017C99.0891 11.4475 99.1807 11.5391 99.3181 11.5849C99.3181 11.5849 99.3181 11.5849 99.3639 11.5849C99.4555 11.6765 99.5928 11.7222 99.6844 11.8138C100.005 12.0428 100.325 12.2717 100.646 12.5465C100.921 12.7754 101.241 13.0501 101.47 13.2791C101.791 13.5996 102.111 13.9202 102.386 14.2407C102.523 14.3781 102.615 14.5154 102.752 14.6528C102.844 15.0191 102.89 15.3854 102.981 15.7975C101.562 14.0575 99.7302 12.5007 97.7154 11.4017ZM99.7302 11.7222C99.6386 11.6307 99.547 11.5849 99.4555 11.5391C99.4555 11.5391 99.4555 11.5391 99.4097 11.4933C99.3181 11.4475 99.2265 11.3559 99.0891 11.3101C98.9976 11.2643 98.8602 11.1728 98.7686 11.127L98.6312 11.0354C98.5397 10.9896 98.4481 10.9438 98.3565 10.8522H98.3107C98.3107 10.8522 98.3107 10.8522 98.2649 10.8522C98.4023 10.0738 98.4939 9.29538 98.4939 8.47117C98.906 8.51696 99.2723 8.56275 99.6844 8.65433C99.8218 9.6617 99.8218 10.7149 99.7302 11.7222ZM98.5397 7.418C98.5397 7.14326 98.5397 6.91431 98.4939 6.63957C98.4939 6.59378 98.4939 6.54799 98.4939 6.54799C98.7686 6.86852 99.0891 7.18905 99.3639 7.55537C99.0434 7.46379 98.8144 7.418 98.5397 7.418ZM90.9386 5.35746C90.3891 5.12851 89.8854 4.94535 89.3359 4.76219C91.5338 4.16692 93.8691 4.02955 96.1586 4.35008C96.5707 4.67061 96.937 4.94535 97.3033 5.31167C95.1512 4.94535 92.9991 4.94535 90.9386 5.35746ZM89.0154 4.7164C88.6033 4.62482 88.1454 4.48745 87.7333 4.44166C87.8248 4.39587 87.9164 4.39587 88.008 4.35008C88.3743 4.2585 88.6948 4.12113 89.0612 4.02955H89.107C89.1985 3.98376 89.3359 3.98376 89.4275 3.93797L89.5649 3.89218C89.7022 3.84639 89.7938 3.84639 89.9312 3.8006C90.0685 3.75481 90.1601 3.75481 90.2975 3.70902C90.2975 3.70902 90.2975 3.70902 90.3433 3.70902C90.4807 3.66323 90.618 3.66323 90.7554 3.66323C91.1217 3.61744 91.5338 3.57165 91.9459 3.52586C92.3122 3.48007 92.7244 3.48007 93.0907 3.48007C93.5486 3.48007 94.0065 3.48007 94.4186 3.52586C94.6017 3.52586 94.7849 3.57165 94.9681 3.57165C95.2886 3.8006 95.6091 3.98376 95.9296 4.21271C93.5944 3.89218 91.2591 4.07534 89.0154 4.7164ZM79.949 5.26588C79.3995 5.49483 78.8958 5.72378 78.3921 5.99851C79.5369 4.02955 81.0937 2.24375 82.9253 0.870053C83.429 0.824263 83.8869 0.778474 84.3906 0.732684C82.6506 1.96901 81.1395 3.48007 79.949 5.26588ZM78.1174 6.13589C77.7511 6.36483 77.3848 6.59378 77.0184 6.86852C77.0642 6.77694 77.11 6.68536 77.1558 6.59378C77.339 6.27325 77.4763 5.95272 77.6595 5.63219V5.5864C77.7053 5.49483 77.7511 5.40325 77.8427 5.31167L77.9342 5.1743C77.98 5.08272 78.0716 4.94535 78.1174 4.85377C78.1632 4.76219 78.2548 4.67061 78.3006 4.53324C78.3006 4.53324 78.3006 4.53324 78.3006 4.48745C78.3921 4.39587 78.4379 4.2585 78.5295 4.16692C78.7585 3.84639 78.9874 3.52586 79.2621 3.20534C79.4911 2.9306 79.7658 2.61007 79.9948 2.38112C80.3153 2.06059 80.6358 1.74006 80.9564 1.46532C81.0937 1.32795 81.2311 1.23637 81.3685 1.099C81.7348 1.00742 82.1011 0.961633 82.5132 0.870053C80.7732 2.33533 79.2621 4.12113 78.1174 6.13589ZM72.1189 12.9586C71.89 13.508 71.7068 14.0117 71.5237 14.5612C70.9284 12.3633 70.791 10.028 71.1116 7.73853C71.4321 7.32642 71.7068 6.9601 72.0731 6.59378C71.661 8.70012 71.7068 10.8522 72.1189 12.9586ZM71.4321 14.836C71.3405 15.2481 71.2031 15.706 71.1573 16.1181C71.1116 16.0265 71.1116 15.9349 71.0658 15.8433C70.9284 15.477 70.8368 15.1565 70.7452 14.7902V14.7444C70.6994 14.6528 70.6994 14.5154 70.6537 14.4238L70.6079 14.2865C70.5621 14.1491 70.5621 14.0575 70.5163 13.9202C70.4705 13.7828 70.4705 13.6912 70.4247 13.5538C70.4247 13.5538 70.4247 13.5538 70.4247 13.508C70.3789 13.3707 70.3789 13.2333 70.3789 13.0959C70.3331 12.7296 70.2873 12.3175 70.2416 11.9054C70.1958 11.5391 70.1958 11.127 70.1958 10.7607C70.1958 10.3028 70.1958 9.84486 70.2416 9.43275C70.2416 9.24959 70.2873 9.06643 70.2873 8.88328C70.5163 8.56275 70.6994 8.24221 70.9284 7.92169C70.6537 10.257 70.791 12.638 71.4321 14.836ZM72.8516 25.7339C73.0805 26.1003 73.3095 26.4666 73.5842 26.8329C73.4926 26.7871 73.401 26.7413 73.3095 26.6955C72.9889 26.5124 72.6684 26.375 72.3479 26.1918H72.3021C72.2105 26.146 72.1189 26.1003 72.0274 26.0087L71.89 25.9171C71.7984 25.8713 71.661 25.7797 71.5695 25.7339C71.4779 25.6881 71.3863 25.5966 71.2489 25.5508C71.2489 25.5508 71.2489 25.5508 71.2031 25.5508C71.1116 25.4592 70.9742 25.4134 70.8826 25.3218C70.5621 25.0929 70.2416 24.8639 69.921 24.5892C69.6463 24.3602 69.3258 24.0855 69.0968 23.8566C68.7763 23.536 68.4557 23.2155 68.181 22.895C68.0436 22.7576 67.9521 22.6202 67.8147 22.4829C67.7231 22.1165 67.6773 21.7502 67.5857 21.3381C69.051 23.0781 70.8368 24.635 72.8516 25.7339ZM70.8826 25.4134C70.9742 25.505 71.0658 25.5508 71.1573 25.5966C71.1573 25.5966 71.1573 25.5966 71.2031 25.6424C71.2947 25.6881 71.3863 25.7797 71.5237 25.8255C71.6152 25.8713 71.7526 25.9629 71.8442 26.0087L71.9816 26.1003C72.0731 26.146 72.1647 26.1918 72.2563 26.2834H72.3021C72.3021 26.2834 72.3021 26.2834 72.3479 26.2834C72.2105 27.0618 72.1189 27.8403 72.1189 28.6645C71.7068 28.6187 71.3405 28.5729 70.9284 28.4813C70.791 27.4739 70.791 26.4208 70.8826 25.4134ZM72.0731 29.7176C72.0731 29.9924 72.0731 30.2213 72.1189 30.4961C72.1189 30.5419 72.1189 30.5877 72.1189 30.5877C71.8442 30.2671 71.5237 29.9466 71.2489 29.5803C71.5237 29.6719 71.7984 29.7176 72.0731 29.7176ZM79.6743 31.7782C80.1779 32.0071 80.7274 32.1903 81.2769 32.3735C79.079 32.9687 76.7437 33.1061 74.4542 32.7856C74.0421 32.465 73.6758 32.1903 73.3095 31.824C75.4158 32.1903 77.5679 32.1903 79.6743 31.7782ZM81.5516 32.4192C81.9637 32.5108 82.4216 32.6482 82.8338 32.694C82.7422 32.7398 82.6506 32.7398 82.559 32.7856C82.1927 32.8771 81.8722 33.0145 81.5058 33.1061H81.4601C81.3685 33.1519 81.2311 33.1519 81.1395 33.1977L81.0022 33.2435C80.8648 33.2893 80.7732 33.2893 80.6358 33.335C80.4985 33.3808 80.4069 33.3808 80.2695 33.4266C80.2695 33.4266 80.2695 33.4266 80.2237 33.4266C80.0864 33.4724 79.949 33.4724 79.8116 33.4724C79.4453 33.5182 79.0332 33.564 78.6211 33.6098C78.2548 33.6556 77.8427 33.6556 77.4763 33.6556C77.0184 33.6556 76.5605 33.6556 76.1484 33.6098C75.9653 33.6098 75.7821 33.564 75.599 33.564C75.2784 33.335 74.9579 33.1519 74.6374 32.9229C77.0184 33.2435 79.3537 33.0603 81.5516 32.4192ZM90.6638 31.8698C91.2133 31.6408 91.717 31.4119 92.2207 31.1371C91.0759 33.1061 89.5191 34.8919 87.6875 36.2656C87.1838 36.3114 86.7259 36.3572 86.2222 36.403C87.9622 35.1666 89.4733 33.6556 90.6638 31.8698ZM92.4496 30.9998C92.8159 30.7708 93.1823 30.5419 93.5486 30.2671C93.5028 30.3587 93.457 30.4503 93.4112 30.5419C93.228 30.8624 93.0907 31.1829 92.9075 31.5035V31.5492C92.8617 31.6408 92.8159 31.7324 92.7244 31.824L92.6328 31.9613C92.587 32.0529 92.4954 32.1903 92.4496 32.2819C92.4038 32.3735 92.3122 32.465 92.2665 32.6024C92.2665 32.6024 92.2665 32.6024 92.2665 32.6482C92.1749 32.7398 92.1291 32.8771 92.0375 32.9687C91.8086 33.2893 91.5796 33.6098 91.3049 33.9303C91.0759 34.2051 90.8012 34.5256 90.5722 34.7545C90.2517 35.0751 89.9312 35.3956 89.6106 35.6703C89.4733 35.8077 89.3359 35.8993 89.1985 36.0366C88.8322 36.1282 88.4659 36.174 88.0538 36.2656C89.7938 34.8003 91.3507 33.0145 92.4496 30.9998Z" fill="white"/>
</svg>
