<svg width="18" height="15" viewBox="0 0 18 15" fill="none" xmlns="http://www.w3.org/2000/svg">
<path d="M15.55 0.439941H2.28003C1.16003 0.439941 0.25 1.34994 0.25 2.46994V12.3999C0.25 13.5199 1.16003 14.4299 2.28003 14.4299H15.55C16.67 14.4299 17.58 13.5199 17.58 12.3999V2.46994C17.58 1.34994 16.67 0.439941 15.55 0.439941ZM14.2 2.41994L8.91998 6.20994L3.79999 2.41994H14.2ZM15.55 12.4399H2.28003C2.28003 12.4399 2.22998 12.4199 2.22998 12.3899V3.71994L8.90002 8.64994L15.59 3.84994V12.3899C15.59 12.3899 15.57 12.4399 15.54 12.4399H15.55Z" fill="white"/>
</svg>
