<svg width="76" height="35" viewBox="0 0 76 35" fill="none" xmlns="http://www.w3.org/2000/svg">
<g clip-path="url(#clip0_3006_19559)">
<path d="M64.87 30.98C64.84 30.9 64.81 30.83 64.77 30.75C64.69 30.59 64.59 30.43 64.48 30.28C64.43 30.22 64.38 30.16 64.33 30.1C64.3 30.06 64.26 30.03 64.23 29.99C64.15 29.91 64.07 29.84 63.99 29.77C63.93 29.72 63.87 29.67 63.8 29.63C63.64 29.52 63.48 29.44 63.3 29.37C63.22 29.34 63.14 29.31 63.06 29.29C62.85 29.23 62.63 29.2 62.4 29.19C62.36 29.19 62.32 29.19 62.27 29.19C62.22 29.19 62.18 29.19 62.13 29.19C61.9 29.19 61.68 29.24 61.47 29.3C61.39 29.32 61.31 29.35 61.23 29.38C61.06 29.45 60.89 29.54 60.73 29.65C60.67 29.69 60.6 29.74 60.54 29.79C60.46 29.86 60.38 29.93 60.3 30.01C60.26 30.05 60.23 30.08 60.19 30.12C60.14 30.18 60.09 30.24 60.04 30.3C59.92 30.45 59.82 30.6 59.75 30.77C59.71 30.84 59.68 30.92 59.65 31C59.58 31.2 59.53 31.4 59.5 31.61C59.49 31.71 59.48 31.81 59.48 31.92V31.96C59.48 32.07 59.48 32.17 59.5 32.27C59.52 32.49 59.57 32.69 59.65 32.89C59.68 32.97 59.71 33.04 59.75 33.12C59.83 33.28 59.93 33.44 60.04 33.59C60.09 33.65 60.13 33.71 60.19 33.77C60.22 33.81 60.26 33.85 60.3 33.89C60.38 33.97 60.45 34.04 60.53 34.11C60.59 34.16 60.65 34.21 60.71 34.25C60.87 34.36 61.03 34.45 61.2 34.52C61.28 34.55 61.36 34.58 61.44 34.61C61.65 34.67 61.87 34.71 62.09 34.72C62.13 34.72 62.16 34.72 62.2 34.72H62.31C62.31 34.72 62.39 34.72 62.43 34.72C62.66 34.72 62.88 34.67 63.08 34.61C63.16 34.59 63.24 34.56 63.32 34.52C63.49 34.45 63.65 34.36 63.81 34.25C63.87 34.21 63.93 34.16 63.99 34.11C64.07 34.04 64.15 33.97 64.22 33.89C64.26 33.85 64.29 33.81 64.33 33.77C64.38 33.71 64.43 33.65 64.48 33.59C64.59 33.44 64.69 33.28 64.77 33.12C64.81 33.05 64.84 32.97 64.87 32.89C64.94 32.69 64.99 32.49 65.01 32.27C65.02 32.17 65.03 32.07 65.03 31.96V31.92C65.03 31.81 65.03 31.71 65.01 31.61C64.99 31.39 64.94 31.19 64.86 30.99" fill="white"/>
<path d="M9.37 27V16.23L17.37 0.0800018H16.29L8.86 14.98L1.29 0.0800018H0L8.18 16.23V27H9.37Z" fill="white"/>
<path d="M26.21 0L13.06 27H14.17L26.38 1.91L38.69 27H39.94L26.76 0H26.21Z" fill="white"/>
<path d="M50.6 0.0800018H37.07V1.12H43.28V27H44.46V1.12H50.6V0.0800018Z" fill="white"/>
<path d="M75.62 15.26C75.75 14.26 75.76 13.23 75.66 12.2C75.66 12.17 75.66 12.14 75.66 12.11C75.66 12.03 75.64 11.94 75.63 11.86C75.63 11.83 75.63 11.81 75.63 11.78C75.63 11.74 75.63 11.71 75.61 11.67C75.61 11.6 75.59 11.53 75.58 11.46C75.57 11.39 75.56 11.32 75.55 11.25C75.55 11.21 75.54 11.17 75.53 11.13C75.53 11.11 75.53 11.09 75.52 11.06C75.51 10.99 75.49 10.92 75.48 10.85C75.48 10.83 75.48 10.81 75.47 10.79C75.47 10.76 75.46 10.72 75.45 10.69V10.66C75.03 8.71 74.17 6.89 72.96 5.32C72.34 4.52 71.62 3.78 70.82 3.13C70.8 3.11 70.78 3.1 70.76 3.08C70.69 3.02 70.62 2.97 70.55 2.91C70.51 2.88 70.48 2.85 70.44 2.83C70.38 2.78 70.31 2.73 70.25 2.68C70.2 2.64 70.15 2.61 70.11 2.58C70.07 2.55 70.03 2.52 69.99 2.49C69.97 2.48 69.95 2.46 69.92 2.44C69.87 2.4 69.82 2.37 69.76 2.33L69.68 2.28C69.68 2.28 69.66 2.26 69.65 2.26C69.63 2.25 69.61 2.23 69.59 2.22C67.91 1.14 66.02 0.449998 64.06 0.199998C63.06 0.0699983 62.03 0.0599983 61.01 0.159998C60.98 0.159998 60.95 0.159998 60.92 0.159998C60.83 0.159998 60.75 0.179998 60.66 0.189998C60.66 0.189998 60.66 0.189998 60.65 0.189998C60.65 0.189998 60.65 0.189998 60.64 0.189998C60.59 0.189998 60.54 0.199998 60.49 0.209998C60.42 0.209998 60.34 0.229998 60.27 0.239998C60.21 0.239998 60.15 0.259998 60.09 0.269998C60.04 0.269998 59.99 0.289998 59.94 0.299998H59.87C59.81 0.319998 59.75 0.339998 59.68 0.349998C59.65 0.349998 59.62 0.359998 59.58 0.369998C59.57 0.369998 59.55 0.369998 59.53 0.369998C59.51 0.369998 59.49 0.369998 59.46 0.379998C57.51 0.809998 55.69 1.66 54.12 2.87C53.32 3.49 52.58 4.21 51.93 5.01C51.91 5.03 51.89 5.06 51.87 5.08C51.82 5.15 51.76 5.21 51.71 5.28C51.68 5.33 51.65 5.37 51.62 5.41C51.57 5.47 51.53 5.53 51.49 5.59C51.45 5.64 51.42 5.69 51.38 5.74C51.35 5.78 51.32 5.82 51.29 5.86L51.25 5.92C51.21 5.97 51.18 6.03 51.14 6.08L51.09 6.16C51.09 6.16 51.07 6.19 51.06 6.2C51.05 6.22 51.03 6.24 51.02 6.25C49.94 7.94 49.26 9.83 49 11.79C48.87 12.79 48.86 13.82 48.96 14.85C48.96 14.88 48.96 14.91 48.96 14.94C48.96 15.03 48.98 15.11 48.99 15.2C48.99 15.2 48.99 15.2 48.99 15.21C48.99 15.26 49 15.31 49.01 15.36C49.01 15.43 49.03 15.51 49.04 15.58C49.04 15.64 49.06 15.7 49.07 15.76C49.07 15.81 49.09 15.86 49.1 15.91C49.1 15.94 49.1 15.96 49.11 15.98C49.12 16.04 49.13 16.1 49.15 16.17C49.15 16.2 49.16 16.23 49.17 16.26C49.17 16.28 49.17 16.29 49.17 16.31C49.17 16.33 49.17 16.35 49.18 16.37C49.6 18.33 50.46 20.15 51.67 21.72C52.29 22.52 53 23.25 53.8 23.91C53.82 23.93 53.85 23.95 53.87 23.97C53.94 24.02 54 24.08 54.07 24.13C54.11 24.16 54.15 24.19 54.19 24.22C54.25 24.27 54.31 24.31 54.37 24.35C54.42 24.39 54.47 24.42 54.52 24.45C54.56 24.48 54.6 24.51 54.64 24.54C54.66 24.56 54.68 24.57 54.7 24.58C54.75 24.62 54.8 24.65 54.86 24.69C54.89 24.71 54.91 24.73 54.94 24.74C54.95 24.74 54.97 24.76 54.98 24.77L55.04 24.81C56.72 25.89 58.61 26.58 60.57 26.83C61.47 26.95 62.39 26.97 63.32 26.9C63.42 26.9 63.52 26.88 63.62 26.87C63.66 26.87 63.69 26.87 63.73 26.86C63.81 26.86 63.89 26.84 63.97 26.83C64.04 26.83 64.11 26.81 64.18 26.8C64.23 26.8 64.28 26.79 64.34 26.78C64.35 26.78 64.36 26.78 64.38 26.78C64.43 26.78 64.48 26.76 64.54 26.75L64.71 26.72C64.71 26.72 64.76 26.72 64.78 26.71C64.84 26.7 64.9 26.69 64.96 26.67C65 26.67 65.04 26.65 65.08 26.65C65.09 26.65 65.1 26.65 65.12 26.65C65.14 26.65 65.16 26.65 65.18 26.64C67.13 26.21 68.95 25.36 70.52 24.15C71.32 23.53 72.05 22.82 72.71 22.02C72.73 22 72.75 21.97 72.77 21.95C72.82 21.88 72.88 21.82 72.93 21.75C72.96 21.71 72.99 21.67 73.02 21.63C73.07 21.57 73.11 21.51 73.16 21.45C73.19 21.4 73.23 21.35 73.26 21.3C73.29 21.26 73.32 21.22 73.35 21.18L73.39 21.12C73.43 21.07 73.46 21.01 73.5 20.96C73.52 20.93 73.54 20.91 73.55 20.88C73.55 20.87 73.57 20.85 73.58 20.84C73.59 20.82 73.6 20.8 73.62 20.79C74.7 19.1 75.38 17.21 75.64 15.25M68.6 24.94C68.32 25.1 68.03 25.24 67.73 25.38C67.22 25.41 66.7 25.4 66.19 25.37C66.37 25.18 66.54 24.99 66.71 24.79C66.71 24.79 66.73 24.77 66.73 24.76C67.4 24.85 68.07 24.88 68.75 24.86C68.73 24.86 68.72 24.88 68.7 24.89C68.66 24.91 68.63 24.93 68.59 24.95M58.67 26.08C58.36 25.99 58.05 25.89 57.75 25.78C57.37 25.44 57.01 25.07 56.67 24.68C56.93 24.68 57.19 24.66 57.45 24.64C57.46 24.64 57.47 24.64 57.49 24.64C57.9 25.17 58.36 25.67 58.85 26.13H58.79C58.79 26.13 58.71 26.09 58.67 26.08ZM50.86 19.85C50.86 19.85 50.8 19.75 50.78 19.7C50.66 19.47 50.54 19.24 50.43 19C50.4 18.49 50.41 17.97 50.44 17.46C50.63 17.64 50.82 17.81 51.02 17.98C51.02 17.98 51.04 17.99 51.05 18C50.96 18.67 50.93 19.34 50.95 20.02C50.95 20.01 50.93 19.99 50.93 19.98C50.9 19.94 50.88 19.89 50.85 19.84M49.73 9.96C49.82 9.64 49.93 9.32 50.04 9.01C50.38 8.63 50.75 8.27 51.14 7.93C51.14 8.19 51.16 8.45 51.18 8.71C51.18 8.72 51.18 8.73 51.18 8.74C50.65 9.15 50.15 9.61 49.69 10.1C49.69 10.08 49.69 10.06 49.7 10.04C49.7 10.01 49.72 9.98 49.73 9.94M55.95 2.11C56.23 1.95 56.52 1.81 56.82 1.67C57.33 1.64 57.85 1.65 58.36 1.68C58.18 1.87 58.01 2.06 57.84 2.26C57.84 2.26 57.83 2.28 57.82 2.29C57.15 2.2 56.48 2.17 55.8 2.19C55.82 2.18 55.84 2.17 55.86 2.15C55.89 2.13 55.92 2.11 55.96 2.1M65.88 0.969998C66.19 1.06 66.5 1.16 66.8 1.27C67.18 1.61 67.54 1.98 67.88 2.37C67.62 2.37 67.36 2.39 67.1 2.41C67.09 2.41 67.08 2.41 67.06 2.41C66.65 1.88 66.19 1.38 65.7 0.919998C65.72 0.919998 65.74 0.919998 65.75 0.929998C65.79 0.939998 65.83 0.949998 65.87 0.959998M73.68 7.18C73.84 7.46 73.98 7.75 74.12 8.05C74.15 8.56 74.14 9.08 74.11 9.59C73.92 9.41 73.73 9.24 73.53 9.07C73.53 9.07 73.51 9.06 73.5 9.05C73.59 8.38 73.62 7.71 73.6 7.03C73.6 7.05 73.62 7.06 73.63 7.08C73.65 7.12 73.67 7.15 73.69 7.19M74.81 17.11C74.72 17.42 74.62 17.73 74.51 18.03C74.17 18.41 73.8 18.77 73.41 19.11C73.41 18.85 73.39 18.59 73.37 18.33C73.37 18.32 73.37 18.31 73.37 18.29C73.9 17.88 74.4 17.42 74.87 16.93C74.87 16.95 74.87 16.97 74.85 16.99C74.84 17.03 74.83 17.07 74.82 17.11M52.57 17.42C52.73 17.81 52.9 18.19 53.11 18.55C51.66 17.72 50.38 16.59 49.38 15.25C49.33 14.89 49.3 14.53 49.28 14.17C50.17 15.44 51.29 16.54 52.58 17.41M49.28 12.92C49.29 12.6 49.32 12.28 49.36 11.97C49.47 12.13 49.59 12.29 49.71 12.44C49.58 12.58 49.46 12.72 49.34 12.86C49.32 12.88 49.3 12.9 49.29 12.92M53.42 4.64C53.64 4.62 53.87 4.6 54.09 4.59C54.04 5.36 54.07 6.14 54.17 6.91C54.16 6.92 54.15 6.94 54.14 6.95C54.14 6.95 54.14 6.95 54.13 6.97C54.05 7.06 53.98 7.16 53.91 7.26C53.91 7.26 53.9 7.28 53.89 7.28C53.89 7.29 53.87 7.3 53.86 7.32C53.65 7.61 53.45 7.91 53.27 8.22C53.14 7.02 53.2 5.81 53.43 4.63M72.04 9.57C71.88 9.18 71.71 8.8 71.5 8.44C72.95 9.27 74.23 10.4 75.23 11.73C75.28 12.09 75.31 12.45 75.33 12.81C74.44 11.54 73.32 10.44 72.03 9.57M75.33 14.06C75.32 14.38 75.29 14.7 75.25 15.01C75.14 14.85 75.02 14.69 74.9 14.54C75.03 14.4 75.15 14.26 75.27 14.12L75.32 14.06M71.19 22.33C70.97 22.35 70.74 22.37 70.52 22.38C70.57 21.61 70.54 20.83 70.44 20.06C70.45 20.05 70.46 20.03 70.47 20.02C70.47 20.02 70.47 20.01 70.48 20C70.56 19.91 70.63 19.81 70.7 19.71C70.7 19.71 70.71 19.69 70.72 19.69C70.72 19.69 70.74 19.66 70.75 19.65C70.96 19.36 71.16 19.06 71.34 18.74C71.47 19.94 71.41 21.15 71.18 22.33M67.69 21.97C67.69 21.97 67.59 22.04 67.54 22.07C66.71 22.57 65.82 22.95 64.9 23.2C64.9 23.2 64.9 23.2 64.89 23.2C64.62 23.27 64.35 23.33 64.07 23.38C63.99 23.39 63.92 23.41 63.84 23.42C63.79 23.42 63.74 23.44 63.68 23.44C62.43 23.61 61.15 23.55 59.92 23.25C59.89 23.25 59.87 23.24 59.85 23.23C59.75 23.2 59.64 23.18 59.54 23.15C59.48 23.13 59.42 23.12 59.36 23.1C59.33 23.1 59.3 23.08 59.27 23.07C58.16 22.72 57.12 22.18 56.19 21.47C56.17 21.46 56.15 21.44 56.14 21.43C56.09 21.39 56.03 21.35 55.98 21.3C55.14 20.62 54.41 19.81 53.82 18.9L53.8 18.87C53.76 18.81 53.73 18.76 53.69 18.7C53.19 17.88 52.81 16.99 52.56 16.06C52.56 16.06 52.56 16.06 52.56 16.05C52.49 15.78 52.43 15.51 52.38 15.23C52.37 15.15 52.35 15.08 52.34 15C52.34 14.95 52.32 14.9 52.32 14.84C52.15 13.59 52.21 12.32 52.51 11.09C52.51 11.06 52.53 11.02 52.53 10.99C52.55 10.9 52.58 10.8 52.61 10.71C52.96 9.49 53.53 8.35 54.3 7.34C54.3 7.34 54.31 7.32 54.32 7.32C54.37 7.25 54.43 7.18 54.48 7.12L54.53 7.06C54.58 7 54.64 6.93 54.69 6.87C54.74 6.81 54.79 6.76 54.84 6.7C54.84 6.7 54.85 6.69 54.86 6.68C55.45 6.03 56.12 5.46 56.86 4.99L56.91 4.96C56.96 4.93 57.01 4.9 57.06 4.86C57.89 4.36 58.78 3.98 59.7 3.73C59.7 3.73 59.7 3.73 59.71 3.73C59.98 3.66 60.25 3.6 60.53 3.55C60.61 3.54 60.68 3.52 60.76 3.51C60.81 3.51 60.86 3.49 60.92 3.49C62.17 3.32 63.45 3.38 64.68 3.68C64.71 3.68 64.73 3.69 64.75 3.7C64.85 3.73 64.96 3.75 65.06 3.78C65.12 3.8 65.18 3.81 65.24 3.83C65.27 3.83 65.3 3.85 65.33 3.86C66.44 4.21 67.49 4.75 68.41 5.46C68.43 5.47 68.44 5.48 68.46 5.49C68.52 5.53 68.57 5.58 68.63 5.63C69.47 6.31 70.19 7.11 70.78 8.02C70.78 8.03 70.8 8.05 70.81 8.06C70.84 8.11 70.87 8.16 70.9 8.21C71.4 9.04 71.78 9.93 72.03 10.85C72.1 11.13 72.16 11.41 72.21 11.68C72.22 11.76 72.24 11.83 72.25 11.91C72.25 11.96 72.27 12.01 72.27 12.07C72.44 13.32 72.38 14.6 72.08 15.83C72.08 15.86 72.07 15.88 72.06 15.9C72.03 16 72.01 16.11 71.98 16.21C71.96 16.27 71.95 16.33 71.93 16.39C71.93 16.42 71.91 16.45 71.9 16.48C71.55 17.59 71.01 18.64 70.3 19.56C70.29 19.57 70.28 19.59 70.26 19.61C70.22 19.67 70.17 19.72 70.12 19.78C69.44 20.62 68.64 21.34 67.73 21.93C67.72 21.93 67.7 21.95 67.69 21.96M72.7 12.36V12.31C72.7 12.31 72.7 12.31 72.7 12.3C72.7 12.27 72.7 12.23 72.69 12.2C72.69 12.16 72.69 12.12 72.68 12.09C72.68 12.04 72.67 11.98 72.66 11.93V11.9C72.66 11.88 72.66 11.86 72.66 11.84C72.6 11.49 72.53 11.13 72.44 10.79C73.38 11.55 74.19 12.44 74.86 13.44C74.72 13.61 74.57 13.78 74.42 13.95C73.91 13.37 73.34 12.84 72.73 12.36M51.91 14.57C51.91 14.57 51.91 14.61 51.91 14.62C51.91 14.62 51.91 14.63 51.91 14.64C51.91 14.67 51.91 14.69 51.91 14.72C51.91 14.77 51.92 14.82 51.93 14.87C51.93 14.91 51.94 14.96 51.95 15V15.02C51.95 15.02 51.96 15.08 51.97 15.11C51.97 15.18 51.99 15.24 52 15.31C52.05 15.59 52.11 15.86 52.18 16.13C51.24 15.37 50.43 14.48 49.76 13.48C49.9 13.31 50.05 13.14 50.2 12.97C50.71 13.55 51.28 14.08 51.9 14.56M72.78 13.37C73.17 13.71 73.55 14.08 73.89 14.47C73.55 14.8 73.18 15.11 72.8 15.39C72.75 15.25 72.71 15.12 72.67 15.01C72.75 14.47 72.79 13.92 72.78 13.36M74.37 15.04C74.55 15.27 74.72 15.51 74.88 15.75C74.4 16.34 73.87 16.87 73.29 17.36C73.28 17.27 73.26 17.19 73.25 17.11C73.25 17.11 73.25 17.09 73.25 17.08C73.23 16.98 73.22 16.89 73.2 16.81C73.18 16.72 73.16 16.63 73.14 16.54L73.11 16.43C73.09 16.35 73.07 16.28 73.05 16.2V16.17C73.05 16.17 73.04 16.16 73.04 16.15C73.51 15.81 73.96 15.44 74.38 15.05M69.66 5.99C70.18 5.95 70.7 5.95 71.23 5.99C71.22 6.47 71.18 6.94 71.11 7.41C70.97 7.34 70.86 7.29 70.75 7.24C70.43 6.8 70.06 6.39 69.67 6M68.91 5.32C68.91 5.32 68.88 5.3 68.87 5.29C68.87 5.29 68.87 5.29 68.86 5.28C68.76 5.2 68.67 5.13 68.57 5.06C68.57 5.06 68.56 5.06 68.55 5.04C68.54 5.04 68.53 5.02 68.51 5.01C68.22 4.79 67.92 4.6 67.61 4.42C68.81 4.29 70.02 4.35 71.2 4.58C71.22 4.8 71.24 5.03 71.25 5.25C70.48 5.2 69.7 5.23 68.93 5.33M62.26 3C62.6 2.61 62.97 2.23 63.36 1.89C63.69 2.23 64 2.6 64.28 2.98C64.14 3.03 64.01 3.07 63.9 3.12C63.36 3.04 62.81 3 62.26 3.01M63.94 1.42C64.17 1.24 64.41 1.07 64.65 0.909998C65.24 1.39 65.77 1.93 66.26 2.5C66.17 2.51 66.09 2.53 66.01 2.54C66.01 2.54 65.99 2.54 65.98 2.54H65.97C65.88 2.56 65.79 2.58 65.71 2.59C65.62 2.61 65.53 2.63 65.45 2.65L65.34 2.68C65.26 2.7 65.19 2.72 65.11 2.74H65.08C65.08 2.74 65.07 2.75 65.06 2.75C64.72 2.28 64.35 1.83 63.96 1.41M63.42 0.879998C63.28 0.749998 63.14 0.629998 63 0.509998C62.98 0.489998 62.96 0.469998 62.94 0.459998C63.26 0.469998 63.58 0.499998 63.89 0.539998C63.73 0.649998 63.57 0.769998 63.42 0.889998M62.84 1.37C62.26 1.88 61.73 2.45 61.25 3.06C61.25 3.06 61.22 3.06 61.2 3.06C61.2 3.06 61.19 3.06 61.18 3.06C61.15 3.06 61.12 3.06 61.1 3.06C61.05 3.06 61 3.07 60.95 3.08C60.91 3.08 60.86 3.09 60.81 3.1C60.81 3.1 60.81 3.1 60.8 3.1C60.8 3.1 60.74 3.1 60.71 3.11C60.64 3.11 60.58 3.13 60.51 3.14C60.23 3.19 59.96 3.25 59.69 3.32C60.45 2.38 61.34 1.57 62.34 0.899998C62.51 1.04 62.68 1.19 62.85 1.34M56.15 5.02C55.71 5.34 55.3 5.71 54.91 6.1C54.88 5.58 54.87 5.05 54.91 4.53C55.39 4.53 55.86 4.58 56.33 4.65C56.26 4.79 56.21 4.9 56.16 5.01M54.98 3.78C55.02 3.49 55.06 3.2 55.12 2.92C55.87 2.85 56.63 2.84 57.38 2.92C57.33 2.99 57.28 3.06 57.23 3.13C57.23 3.13 57.22 3.14 57.21 3.15C57.16 3.23 57.11 3.31 57.06 3.38C57.01 3.46 56.96 3.53 56.91 3.61L56.85 3.71C56.81 3.78 56.77 3.85 56.73 3.91V3.94C56.73 3.94 56.71 3.95 56.71 3.96C56.14 3.86 55.56 3.81 54.98 3.79M53.58 3.83C53.81 3.61 54.06 3.41 54.31 3.21C54.28 3.4 54.25 3.6 54.23 3.79C54.04 3.79 53.86 3.81 53.67 3.82C53.64 3.82 53.61 3.82 53.59 3.82M51.92 13.52C51.53 13.18 51.15 12.81 50.81 12.42C51.15 12.09 51.52 11.78 51.9 11.5C51.95 11.64 51.99 11.77 52.03 11.88C51.95 12.42 51.91 12.97 51.92 13.53M50.33 11.85C50.15 11.62 49.98 11.38 49.82 11.14C50.3 10.55 50.83 10.02 51.41 9.53C51.42 9.62 51.44 9.7 51.45 9.78C51.45 9.78 51.45 9.8 51.45 9.81C51.47 9.91 51.48 10 51.5 10.09C51.52 10.18 51.54 10.27 51.56 10.35L51.59 10.46C51.61 10.54 51.63 10.61 51.65 10.69V10.72C51.65 10.72 51.66 10.73 51.66 10.74C51.19 11.08 50.74 11.45 50.32 11.84M55.04 20.9C54.52 20.94 53.99 20.94 53.47 20.9C53.47 20.42 53.52 19.95 53.59 19.48C53.73 19.55 53.84 19.6 53.95 19.65C54.27 20.09 54.64 20.5 55.03 20.89M55.79 21.57C55.79 21.57 55.82 21.59 55.83 21.6C55.83 21.6 55.84 21.6 55.85 21.61C55.94 21.69 56.04 21.76 56.14 21.83C56.14 21.83 56.16 21.84 56.16 21.85C56.16 21.85 56.18 21.87 56.2 21.88C56.49 22.1 56.8 22.29 57.1 22.47C55.9 22.6 54.69 22.54 53.51 22.31C53.49 22.09 53.47 21.86 53.46 21.64C54.23 21.69 55.01 21.66 55.78 21.56M62.45 23.89C62.11 24.28 61.74 24.66 61.35 25C61.02 24.66 60.71 24.29 60.43 23.91C60.58 23.86 60.7 23.82 60.81 23.78C61.35 23.86 61.9 23.9 62.46 23.89M60.78 25.48C60.55 25.66 60.31 25.83 60.07 25.99C59.48 25.51 58.95 24.97 58.47 24.4C58.55 24.39 58.64 24.37 58.72 24.36C58.72 24.36 58.74 24.36 58.75 24.36H58.76C58.85 24.34 58.93 24.32 59.02 24.31C59.11 24.29 59.2 24.27 59.28 24.25L59.39 24.23C59.47 24.21 59.54 24.19 59.62 24.17H59.65C59.65 24.17 59.66 24.16 59.67 24.16C60.01 24.63 60.38 25.08 60.77 25.5M61.31 26.03C61.45 26.16 61.59 26.28 61.73 26.4C61.75 26.42 61.77 26.44 61.79 26.45C61.47 26.44 61.15 26.41 60.84 26.37C61 26.26 61.16 26.14 61.31 26.02M61.89 25.54C62.47 25.03 63 24.46 63.48 23.85C63.49 23.85 63.51 23.85 63.53 23.85H63.55C63.55 23.85 63.6 23.85 63.62 23.84C63.68 23.84 63.73 23.83 63.79 23.82C63.83 23.82 63.87 23.81 63.91 23.8C63.91 23.8 63.92 23.8 63.93 23.8L64.04 23.78C64.1 23.78 64.16 23.76 64.22 23.75H64.25C64.52 23.7 64.79 23.64 65.05 23.57C64.29 24.51 63.4 25.32 62.4 25.99C62.22 25.85 62.06 25.7 61.89 25.55M68.59 21.87C69.03 21.54 69.44 21.18 69.83 20.79C69.87 21.31 69.87 21.83 69.83 22.36C69.35 22.36 68.88 22.31 68.41 22.24C68.48 22.1 68.53 21.99 68.59 21.88M69.77 23.11C69.73 23.4 69.69 23.68 69.63 23.97C68.88 24.05 68.12 24.05 67.37 23.97C67.42 23.9 67.47 23.83 67.52 23.76C67.52 23.76 67.53 23.74 67.54 23.74C67.59 23.66 67.64 23.58 67.69 23.51C67.74 23.43 67.79 23.36 67.84 23.28L67.9 23.18C67.94 23.11 67.98 23.04 68.02 22.98L68.04 22.95C68.04 22.95 68.04 22.94 68.04 22.93C68.61 23.03 69.19 23.08 69.77 23.1M70.53 23.1C70.72 23.1 70.9 23.08 71.09 23.07C71.12 23.07 71.14 23.07 71.17 23.07C70.93 23.29 70.69 23.49 70.44 23.69C70.47 23.5 70.5 23.3 70.52 23.11M72 17.56C72.16 17.18 72.3 16.78 72.42 16.38C72.86 17.99 72.97 19.7 72.73 21.35C72.51 21.64 72.28 21.91 72.04 22.18C72.31 20.66 72.29 19.09 72 17.56ZM72.48 16.18C72.56 15.87 72.63 15.56 72.69 15.24C72.71 15.31 72.74 15.38 72.76 15.45C72.84 15.7 72.92 15.96 72.99 16.21V16.24C73.02 16.32 73.04 16.39 73.05 16.47L73.08 16.58C73.1 16.67 73.12 16.76 73.14 16.84C73.16 16.93 73.18 17.01 73.19 17.1C73.19 17.1 73.19 17.13 73.19 17.14C73.21 17.23 73.22 17.33 73.24 17.42C73.28 17.7 73.32 17.99 73.35 18.29C73.37 18.57 73.39 18.84 73.39 19.11C73.39 19.44 73.39 19.76 73.37 20.08C73.37 20.22 73.35 20.35 73.34 20.48C73.19 20.72 73.03 20.95 72.86 21.17C73.07 19.51 72.94 17.78 72.48 16.17M71.44 8.22C71.28 7.94 71.11 7.67 70.92 7.41C70.98 7.44 71.05 7.47 71.12 7.51C71.36 7.63 71.59 7.76 71.82 7.89L71.85 7.91C71.92 7.95 71.98 7.99 72.05 8.03L72.15 8.09C72.23 8.14 72.3 8.19 72.38 8.23C72.45 8.28 72.53 8.33 72.6 8.38H72.61C72.61 8.38 72.61 8.4 72.63 8.4C72.71 8.45 72.79 8.51 72.87 8.57C73.1 8.74 73.33 8.92 73.56 9.11C73.77 9.29 73.98 9.47 74.17 9.66C74.41 9.89 74.63 10.12 74.85 10.36C74.94 10.46 75.03 10.56 75.11 10.67C75.17 10.94 75.22 11.22 75.26 11.5C74.23 10.17 72.92 9.05 71.45 8.24M72.9 8.47C72.83 8.42 72.76 8.37 72.69 8.32C72.69 8.32 72.67 8.31 72.67 8.3H72.66C72.59 8.24 72.51 8.19 72.44 8.14C72.36 8.09 72.29 8.04 72.21 7.99L72.11 7.93C72.04 7.89 71.97 7.85 71.91 7.81L71.88 7.79C71.88 7.79 71.87 7.79 71.86 7.79C71.96 7.22 72.01 6.64 72.03 6.06C72.32 6.1 72.61 6.14 72.89 6.2C72.97 6.95 72.97 7.71 72.89 8.46M72.02 5.3C72.02 5.11 72 4.93 71.99 4.74C71.99 4.71 71.99 4.69 71.99 4.66C72.21 4.89 72.41 5.14 72.61 5.39C72.42 5.36 72.22 5.33 72.03 5.31M66.48 3.83C66.1 3.67 65.7 3.53 65.3 3.41C66.91 2.97 68.62 2.86 70.27 3.1C70.56 3.32 70.83 3.55 71.1 3.79C69.57 3.52 68.01 3.54 66.48 3.83ZM65.1 3.35C64.79 3.27 64.48 3.2 64.16 3.14C64.23 3.12 64.3 3.09 64.37 3.07C64.62 2.99 64.88 2.91 65.13 2.84H65.16C65.24 2.81 65.31 2.79 65.39 2.78L65.5 2.75C65.59 2.73 65.68 2.71 65.76 2.69C65.85 2.67 65.93 2.65 66.02 2.64H66.04C66.04 2.64 66.05 2.64 66.06 2.64C66.16 2.62 66.25 2.61 66.35 2.59C66.63 2.54 66.92 2.51 67.22 2.48C67.5 2.46 67.77 2.44 68.04 2.44C68.37 2.44 68.7 2.44 69.01 2.46C69.15 2.46 69.28 2.48 69.41 2.49C69.65 2.64 69.88 2.8 70.1 2.97C68.44 2.76 66.71 2.89 65.1 3.35ZM58.47 3.75C58.08 3.91 57.7 4.08 57.34 4.29C58.17 2.84 59.3 1.56 60.63 0.559998C60.99 0.509998 61.35 0.479998 61.71 0.459998C60.44 1.35 59.34 2.47 58.47 3.76M57.15 4.4C56.87 4.56 56.6 4.73 56.34 4.92C56.37 4.86 56.4 4.79 56.44 4.72C56.56 4.48 56.69 4.25 56.82 4.02L56.84 3.99C56.88 3.92 56.92 3.86 56.96 3.79L57.02 3.69C57.07 3.61 57.12 3.54 57.16 3.46C57.21 3.39 57.26 3.31 57.31 3.24C57.31 3.24 57.31 3.22 57.32 3.21C57.37 3.13 57.43 3.05 57.49 2.97C57.66 2.74 57.84 2.51 58.03 2.28C58.21 2.07 58.39 1.86 58.58 1.67C58.81 1.43 59.04 1.21 59.28 0.999998C59.38 0.909998 59.48 0.819998 59.59 0.739998C59.87 0.679998 60.14 0.629998 60.42 0.589998C59.09 1.62 57.97 2.93 57.16 4.39M52.75 9.36C52.58 9.74 52.44 10.14 52.33 10.54C51.89 8.93 51.79 7.22 52.02 5.57C52.24 5.28 52.47 5.01 52.71 4.74C52.44 6.26 52.46 7.83 52.75 9.36ZM52.27 10.74C52.19 11.05 52.12 11.37 52.06 11.68C52.04 11.61 52.01 11.54 51.99 11.47C51.91 11.22 51.83 10.96 51.76 10.71V10.68C51.73 10.6 51.71 10.53 51.7 10.45L51.67 10.34C51.65 10.25 51.63 10.16 51.61 10.08C51.59 9.99 51.57 9.91 51.56 9.82C51.56 9.82 51.56 9.79 51.56 9.78C51.54 9.68 51.52 9.59 51.51 9.49C51.46 9.21 51.43 8.92 51.4 8.62C51.38 8.34 51.36 8.07 51.36 7.8C51.36 7.47 51.36 7.15 51.38 6.83C51.38 6.7 51.4 6.56 51.41 6.43C51.56 6.19 51.72 5.96 51.89 5.74C51.68 7.4 51.81 9.13 52.27 10.74ZM53.31 18.69C53.47 18.97 53.64 19.24 53.83 19.5C53.77 19.47 53.7 19.44 53.63 19.4C53.39 19.28 53.16 19.15 52.93 19.02L52.9 19C52.83 18.96 52.77 18.92 52.7 18.88L52.6 18.82C52.52 18.77 52.45 18.72 52.37 18.67C52.3 18.62 52.22 18.57 52.15 18.52H52.14C52.14 18.52 52.13 18.5 52.12 18.5C52.04 18.45 51.96 18.39 51.88 18.33C51.65 18.16 51.42 17.98 51.19 17.79C50.98 17.61 50.77 17.43 50.58 17.24C50.34 17.01 50.12 16.78 49.9 16.54C49.81 16.44 49.72 16.34 49.64 16.23C49.58 15.95 49.53 15.68 49.49 15.4C50.52 16.73 51.83 17.85 53.3 18.66M51.85 18.43C51.92 18.48 51.99 18.53 52.06 18.58C52.06 18.58 52.08 18.59 52.08 18.6H52.09C52.16 18.66 52.24 18.71 52.31 18.76C52.39 18.81 52.46 18.86 52.54 18.91L52.64 18.97C52.71 19.01 52.77 19.05 52.84 19.09L52.87 19.11C52.87 19.11 52.88 19.11 52.89 19.11C52.79 19.68 52.74 20.26 52.72 20.84C52.43 20.8 52.14 20.76 51.86 20.7C51.78 19.95 51.78 19.19 51.86 18.44M52.73 21.6C52.73 21.79 52.74 21.97 52.76 22.16C52.76 22.19 52.76 22.22 52.76 22.24C52.54 22.01 52.34 21.76 52.14 21.51C52.33 21.54 52.53 21.57 52.72 21.59M58.27 23.07C58.65 23.23 59.05 23.37 59.45 23.49C57.84 23.93 56.13 24.03 54.48 23.8C54.19 23.58 53.92 23.35 53.65 23.11C55.18 23.38 56.74 23.36 58.27 23.07ZM59.65 23.55C59.96 23.63 60.28 23.7 60.59 23.76C60.52 23.78 60.45 23.81 60.38 23.83C60.13 23.91 59.87 23.99 59.62 24.06H59.59C59.51 24.09 59.44 24.11 59.36 24.12L59.25 24.15C59.16 24.17 59.07 24.19 58.99 24.21C58.9 24.23 58.82 24.25 58.73 24.26H58.72C58.72 24.26 58.71 24.26 58.7 24.26C58.61 24.28 58.51 24.29 58.42 24.31C58.14 24.36 57.85 24.39 57.55 24.42C57.27 24.44 57 24.46 56.73 24.46C56.4 24.46 56.07 24.46 55.76 24.44C55.63 24.44 55.49 24.42 55.36 24.41C55.12 24.26 54.89 24.1 54.66 23.93C56.32 24.14 58.05 24.01 59.66 23.55M66.29 23.15C66.68 22.99 67.06 22.82 67.42 22.61C66.59 24.06 65.46 25.34 64.13 26.34C63.77 26.39 63.41 26.42 63.05 26.44C64.32 25.55 65.42 24.43 66.29 23.14M67.61 22.5C67.89 22.34 68.16 22.17 68.42 21.98C68.39 22.04 68.36 22.11 68.32 22.18C68.2 22.42 68.07 22.65 67.94 22.88L67.92 22.91C67.88 22.98 67.84 23.04 67.8 23.11L67.74 23.21C67.69 23.29 67.64 23.36 67.59 23.44C67.54 23.52 67.49 23.59 67.44 23.66C67.44 23.66 67.44 23.68 67.43 23.69C67.38 23.77 67.32 23.85 67.26 23.93C67.09 24.16 66.91 24.39 66.72 24.62C66.54 24.83 66.36 25.04 66.17 25.23C65.94 25.47 65.71 25.69 65.47 25.9C65.37 25.99 65.27 26.08 65.16 26.16C64.89 26.22 64.61 26.27 64.33 26.31C65.66 25.28 66.78 23.97 67.59 22.5" fill="white"/>
</g>
<defs>
<clipPath id="clip0_3006_19559">
<rect width="75.72" height="34.71" fill="white"/>
</clipPath>
</defs>
</svg>
