<svg width="17" height="16" viewBox="0 0 17 16" fill="none" xmlns="http://www.w3.org/2000/svg">
<path d="M3.13002 0.219971C3.44002 0.219971 3.76 0.279971 4.08 0.329971C4.27 0.349971 4.44002 0.629971 4.54002 0.829971C4.99002 1.88997 5.44 2.93997 5.83 4.02997C6.05 4.59997 5.65001 5.14997 4.81001 6.08997C4.55001 6.38997 4.49002 6.66997 4.69002 7.01997C6.02002 9.29997 7.88002 10.94 10.35 11.91C10.46 11.95 10.56 11.97 10.66 11.97C10.87 11.97 11.05 11.87 11.21 11.67C12.26 10.4 12.56 9.83997 12.99 9.83997C13.1 9.83997 13.21 9.86997 13.35 9.93997C16.65 11.52 16.91 11.58 16.92 11.95C17.01 14.6 14.7 15.64 13.14 15.64C13.06 15.64 12.98 15.64 12.9 15.64C9.71001 15.53 4.63001 13 1.18001 6.93997C-0.0299935 4.78997 0.160004 2.33997 1.99 0.649971C2.34 0.329971 2.74001 0.229969 3.15001 0.229969L3.13002 0.219971Z" fill="white"/>
</svg>
