<svg width="23" height="19" viewBox="0 0 23 19" fill="none" xmlns="http://www.w3.org/2000/svg">
<g style="mix-blend-mode:multiply">
<path d="M6.83997 6.67999C6.54997 6.38999 6.27 6.07999 6 5.75999L1.98999 1.73999C2.25999 2.05999 2.53996 2.36999 2.82996 2.65999L6.83997 6.67999Z" fill="white"/>
</g>
<g style="mix-blend-mode:multiply">
<path d="M2.66003 7.08008L6.67004 11.1001C6.86004 11.2901 7.07005 11.4701 7.30005 11.6301L3.29004 7.61008C3.06004 7.45008 2.85003 7.27008 2.66003 7.08008Z" fill="white"/>
</g>
<g style="mix-blend-mode:multiply">
<path d="M2.62 10.28L6.63 14.3C7.21 14.89 7.94996 15.28 8.82996 15.48L4.81995 11.46C3.93995 11.26 3.21 10.87 2.62 10.28Z" fill="white"/>
</g>
<path d="M22.01 3.01002C21.85 3.25002 21.69 3.47002 21.51 3.69002C21.04 4.27002 20.5 4.78002 19.89 5.22002L19.8101 5.36002C19.8301 6.01002 19.81 6.67002 19.71 7.32002C19.53 8.69002 19.14 10.01 18.55 11.26C17.93 12.55 17.13 13.72 16.13 14.74C14.43 16.49 12.39 17.61 10.02 18.13C9.21002 18.3 8.39005 18.39 7.55005 18.42C7.42005 18.42 7.28002 18.42 7.15002 18.42C4.75002 18.42 2.52999 17.78 0.48999 16.51L0.380005 16.44C0.730005 16.48 1.08004 16.5 1.42004 16.5C2.59004 16.5 3.71006 16.28 4.81006 15.84C5.57006 15.53 6.26004 15.13 6.92004 14.61C4.63004 14.54 3.19996 12.88 2.82996 11.54C3.09996 11.59 3.38002 11.62 3.65002 11.62C4.01002 11.62 4.36997 11.58 4.71997 11.49L4.79004 11.46C3.54004 11.17 2.58994 10.51 1.93994 9.43002C1.49994 8.72002 1.30005 7.93002 1.30005 7.08002C1.93005 7.41002 2.57001 7.59002 3.26001 7.61002C2.33001 6.94002 1.70996 6.05002 1.45996 4.93002C1.20996 3.80002 1.38996 2.74002 1.95996 1.73002C4.32996 4.55002 7.34004 6.10002 11.04 6.35002C11.02 6.17002 10.99 6.02002 10.97 5.86002C10.85 4.82002 11.08 3.85002 11.65 2.97002C12.36 1.86002 13.37 1.18002 14.66 0.970024C14.93 0.920024 15.2 0.900024 15.46 0.900024C16.62 0.900024 17.64 1.34002 18.52 2.20002C18.57 2.25002 18.6201 2.28002 18.6801 2.28002C18.7001 2.28002 18.72 2.28002 18.75 2.28002C19.66 2.09002 20.52 1.76002 21.33 1.30002L21.39 1.27002C21.07 2.30002 20.42 3.09002 19.51 3.68002C20.37 3.59002 21.18 3.36002 21.98 3.02002L22.01 3.01002Z" fill="white"/>
</svg>
