<svg width="21" height="15" viewBox="0 0 21 15" fill="none" xmlns="http://www.w3.org/2000/svg">
<path d="M19.56 2.41C20.27 4.27 20.24 11.05 19.39 12.84C19.16 13.33 18.7899 13.67 18.3199 13.92C17.6599 14.26 13.8 14.43 10.02 14.43C6.54001 14.43 3.12994 14.29 2.32994 14.03C1.58994 13.78 1.08994 13.29 0.829942 12.56C0.189942 10.76 0.0499418 3.23001 1.32994 1.74001C1.75994 1.23001 2.31997 0.940003 2.97997 0.870003C4.49997 0.710003 7.42003 0.630005 10.3 0.630005C13.89 0.630005 17.42 0.750004 18.09 1C18.8 1.25 19.3 1.72 19.56 2.42V2.41ZM7.76 10.5C9.81 9.44 11.84 8.39 13.9 7.32C11.86 6.25 9.83004 5.19 7.81004 4.13C7.79004 6.26 7.78 8.36 7.76 10.5Z" fill="white"/>
</svg>
