<svg width="35" height="45" viewBox="0 0 35 45" fill="none" xmlns="http://www.w3.org/2000/svg">
<g clip-path="url(#clip0_53_12)">
<path d="M20.8329 40.0668C20.7949 39.9679 20.7518 39.869 20.7061 39.7727C20.6013 39.557 20.4738 39.353 20.3258 39.1643C20.2651 39.0846 20.2005 39.008 20.132 38.9349C20.0901 38.8868 20.0445 38.8373 19.9963 38.7891C19.8964 38.6896 19.7911 38.5956 19.6807 38.5077C19.6028 38.4431 19.5216 38.3826 19.4374 38.3265C19.2356 38.1893 19.0197 38.0742 18.7935 37.983C18.6897 37.9422 18.584 37.9067 18.4766 37.8765C18.1985 37.7984 17.9122 37.7533 17.6235 37.7422C17.5704 37.7422 17.5158 37.7422 17.4614 37.7422C17.4068 37.7422 17.3346 37.7422 17.2814 37.7422C16.9935 37.7531 16.7083 37.8 16.4321 37.8816C16.3257 37.912 16.2192 37.9475 16.1165 37.988C15.8907 38.0801 15.6749 38.1951 15.4726 38.3315C15.3903 38.3885 15.3092 38.4494 15.2293 38.5128C15.1202 38.6007 15.0161 38.6946 14.9175 38.7942C14.8693 38.8411 14.8237 38.8905 14.7794 38.9386C14.7096 39.0147 14.645 39.0908 14.5841 39.1681C14.4371 39.3566 14.3097 39.5595 14.2039 39.774C14.1564 39.8705 14.1141 39.9695 14.0771 40.0705C13.9801 40.3264 13.9158 40.5934 13.8857 40.8653C13.8694 40.9977 13.861 41.1311 13.8604 41.2645V41.3203C13.8613 41.4537 13.8693 41.587 13.8845 41.7195C13.914 41.9934 13.9774 42.2625 14.0733 42.5206C14.1105 42.6212 14.1528 42.7197 14.2001 42.816C14.3062 43.0321 14.4336 43.2371 14.5804 43.4282C14.6411 43.508 14.7071 43.5853 14.7717 43.6613C14.8161 43.7133 14.863 43.764 14.9124 43.8147C15.0101 43.9149 15.1114 44.01 15.2141 44.0974C15.2914 44.1607 15.3725 44.2241 15.4523 44.2811C15.6499 44.4228 15.8624 44.5422 16.0861 44.6373C16.188 44.6797 16.2921 44.7165 16.3979 44.7476C16.6722 44.8319 16.9565 44.8796 17.2433 44.8896H17.3866H17.5171H17.6692C17.9563 44.8785 18.2407 44.8312 18.5159 44.7489C18.6223 44.7176 18.7268 44.6804 18.829 44.6373C19.0526 44.5438 19.2652 44.4256 19.4628 44.285C19.5426 44.2292 19.6237 44.1658 19.701 44.1C19.8073 44.0115 19.9088 43.9177 20.0052 43.8186C20.0534 43.7679 20.1016 43.7172 20.1459 43.6652C20.2131 43.5892 20.2727 43.5105 20.336 43.4319C20.4832 43.2409 20.6107 43.0354 20.7162 42.8185C20.7635 42.7219 20.8058 42.6229 20.8431 42.5219C20.9373 42.2629 21.0003 41.9935 21.0306 41.7195C21.0446 41.5928 21.0535 41.4559 21.0547 41.3203V41.2734C21.0535 41.1395 21.045 41.0058 21.0293 40.8729C20.9987 40.5998 20.9357 40.3313 20.8418 40.0731" fill="black"/>
<path d="M34.7613 19.6774C34.9268 18.3627 34.9434 17.0336 34.8107 15.7152C34.8107 15.6759 34.8018 15.6366 34.7967 15.5998C34.7879 15.4908 34.7752 15.3831 34.7613 15.2741C34.7613 15.2411 34.7524 15.2081 34.7486 15.1753C34.7447 15.1423 34.7359 15.084 34.7283 15.0383C34.7173 14.947 34.7046 14.8559 34.6903 14.7646C34.6763 14.6733 34.6599 14.5833 34.6459 14.4908C34.6357 14.4375 34.6269 14.3856 34.6167 14.3323L34.6016 14.2449C34.585 14.1562 34.566 14.0649 34.5483 13.9749C34.5483 13.947 34.5382 13.9217 34.5319 13.8938C34.5255 13.8659 34.514 13.8076 34.5039 13.767L34.4976 13.7303C33.9489 11.2096 32.8461 8.84259 31.2693 6.80088C30.4564 5.75209 29.5273 4.79877 28.4998 3.95915L28.4175 3.88183L28.1462 3.66637H28.1373C28.1346 3.66237 28.1311 3.65893 28.1272 3.65622C28.0802 3.61947 28.0321 3.58525 27.9839 3.54975C27.9003 3.48638 27.8179 3.423 27.7304 3.3609C27.6696 3.31527 27.6037 3.27217 27.5428 3.22654L27.387 3.11627C27.359 3.09726 27.3299 3.07571 27.302 3.05797C27.2349 3.01107 27.1664 2.96671 27.098 2.92108L26.9953 2.85263L26.9496 2.82348C26.9243 2.80573 26.8989 2.78799 26.8698 2.77151L26.8596 2.76391C24.6922 1.37143 22.2421 0.478665 19.6869 0.150329H19.6806C18.3659 -0.0156098 17.0368 -0.0326167 15.7184 0.0996299L15.603 0.113572C15.4915 0.124979 15.3812 0.136387 15.2709 0.150329H15.257H15.2405L15.0428 0.178215C14.9465 0.190889 14.8514 0.204832 14.7577 0.220042C14.6803 0.230181 14.603 0.244125 14.5282 0.258067C14.4534 0.272009 14.4014 0.278346 14.3356 0.291021L14.238 0.308766C14.1569 0.322709 14.077 0.339186 13.9972 0.355663L13.8703 0.379747C13.8504 0.385308 13.8301 0.389543 13.8095 0.392421L13.7246 0.410166H13.7132C11.195 0.955182 8.83006 2.05455 6.79014 3.62834H6.78254C5.73468 4.4382 4.78332 5.36575 3.94715 6.39274L3.86984 6.484C3.80266 6.57147 3.73168 6.65892 3.66323 6.74511C3.66323 6.74511 3.66323 6.75272 3.66323 6.75525L3.65309 6.76919L3.52635 6.92636C3.46804 7.00494 3.40974 7.08099 3.35396 7.15958L3.21708 7.34971C3.17905 7.40167 3.1423 7.45491 3.10554 7.50941L3.04977 7.588C3.00287 7.65644 2.9585 7.72488 2.91288 7.79459L2.84317 7.89726C2.83176 7.91501 2.81909 7.93402 2.80895 7.95176L2.76078 8.02148V8.03162C1.36663 10.1993 0.473335 12.6505 0.145935 15.2069C-0.0200044 16.5215 -0.0370112 17.8507 0.0952354 19.1691C0.0952354 19.2072 0.104108 19.2464 0.109178 19.2857C0.120585 19.3973 0.133259 19.5076 0.145935 19.6165C0.146493 19.6207 0.146493 19.625 0.145935 19.6292C0.145935 19.6355 0.145935 19.6406 0.145935 19.6457C0.154807 19.7116 0.164947 19.7724 0.173819 19.8434C0.187762 19.9398 0.200437 20.0348 0.215647 20.1299C0.230857 20.2249 0.23973 20.2832 0.253672 20.358C0.267615 20.4328 0.27522 20.4848 0.285359 20.5519C0.285359 20.5849 0.298035 20.6166 0.303105 20.6483C0.318315 20.7294 0.334792 20.8093 0.35127 20.8904C0.358875 20.9309 0.367746 20.9727 0.375351 21.0171C0.382956 21.0614 0.384224 21.059 0.388027 21.0817C0.395411 21.1089 0.401335 21.1364 0.405771 21.1641V21.1755C0.952937 23.6938 2.05448 26.0584 3.63028 28.0973C3.6295 28.0994 3.6295 28.1017 3.63028 28.1037C4.44147 29.1508 5.36887 30.1024 6.39469 30.9403L6.48721 31.0151L6.74705 31.2217L6.75973 31.2319L6.77113 31.2394C6.8231 31.2813 6.8776 31.3206 6.93084 31.3662C7.00689 31.4245 7.08421 31.4828 7.16279 31.5386C7.24138 31.5944 7.28954 31.6298 7.35038 31.6742L7.51136 31.7858C7.53692 31.8062 7.56358 31.8253 7.59121 31.8428L7.79527 31.9796C7.8295 32.0038 7.86625 32.0266 7.90048 32.0494C7.91703 32.0616 7.93438 32.0726 7.95244 32.0823L8.02342 32.1305L8.03356 32.1369C10.2016 33.5312 12.6532 34.4245 15.2101 34.7517C16.3917 34.9023 17.5856 34.9312 18.773 34.8379C18.8998 34.8265 19.0265 34.8163 19.1533 34.8036C19.2002 34.8036 19.2484 34.7922 19.2965 34.7885C19.3992 34.7758 19.5019 34.7669 19.6045 34.7529L19.8809 34.7149L20.0824 34.6871L20.1293 34.6782C20.1964 34.6693 20.2636 34.6579 20.3334 34.6452L20.5539 34.6085L20.6426 34.592L20.8721 34.5451L21.0241 34.5147L21.0698 34.5058L21.1522 34.4881H21.1648C23.6828 33.9404 26.0473 32.8389 28.0866 31.2636H28.0929C28.0924 31.2615 28.0924 31.2593 28.0929 31.2573C29.1482 30.449 30.1076 29.5228 30.9524 28.4966C30.9765 28.465 31.0018 28.4345 31.0259 28.4041C31.0969 28.3166 31.1654 28.2317 31.2351 28.143L31.2439 28.1316L31.2528 28.1202L31.3719 27.9617C31.4315 27.8844 31.4899 27.8071 31.5469 27.7285L31.6813 27.5409C31.718 27.4877 31.756 27.4332 31.7953 27.3787L31.8498 27.3001C31.898 27.2317 31.9423 27.1632 31.9867 27.096C32.0108 27.0618 32.0336 27.0263 32.0564 26.9895C32.0665 26.9731 32.0792 26.9553 32.0919 26.9376C32.1046 26.9198 32.1236 26.8907 32.1388 26.8679L32.1451 26.8564C33.5366 24.6879 34.4281 22.237 34.7549 19.6811M25.6289 32.2408C25.2601 32.4449 24.8837 32.6337 24.5034 32.8087C23.84 32.8452 23.1749 32.8392 22.5122 32.7908C22.7403 32.55 22.9684 32.2979 23.189 32.0368L23.2194 31.9999C24.0867 32.1112 24.9616 32.1537 25.8356 32.1267L25.7709 32.1635L25.6289 32.242M12.7816 33.6959C12.3777 33.5793 11.9792 33.4478 11.5864 33.3017C11.0915 32.8586 10.6258 32.384 10.1921 31.8808C10.5255 31.8732 10.8652 31.8542 11.2061 31.8263H11.2517C11.7858 32.5187 12.3751 33.1668 13.0135 33.7643L12.94 33.7466C12.8881 33.7313 12.8361 33.7149 12.7841 33.7009M2.65304 25.622C2.61755 25.5598 2.5808 25.4951 2.54657 25.4318C2.38813 25.1339 2.23984 24.831 2.09661 24.5231C2.06068 23.8592 2.0666 23.1936 2.11436 22.5305C2.35518 22.7587 2.60868 22.9868 2.87485 23.2086L2.91161 23.2365C2.80032 24.1043 2.75794 24.9795 2.78486 25.8539C2.77461 25.8375 2.7653 25.8206 2.75698 25.8032C2.72402 25.7448 2.69107 25.6865 2.65938 25.627M1.20176 12.8253C1.31963 12.4095 1.45526 11.9989 1.60609 11.5983C2.04808 11.1029 2.52232 10.6371 3.02568 10.2041C3.03329 10.5349 3.05231 10.8758 3.08019 11.2181C3.08019 11.2334 3.08019 11.2485 3.08019 11.2625C2.38824 11.793 1.73859 12.3765 1.13712 13.0078C1.13712 12.9838 1.15106 12.9596 1.15613 12.9356C1.1612 12.9115 1.18021 12.8519 1.19289 12.8088M9.26051 2.65491C9.62978 2.4521 10.0041 2.26325 10.3835 2.08833C11.0482 2.05113 11.7146 2.05706 12.3785 2.10608C12.1479 2.34564 11.921 2.59913 11.6991 2.86657L11.6713 2.90333C10.8035 2.79264 9.92834 2.75026 9.05389 2.77658C9.08178 2.76264 9.1084 2.74616 9.13628 2.73095L9.26308 2.66124M22.118 1.19982C22.5227 1.31727 22.9211 1.44867 23.3132 1.59401C23.8078 2.03781 24.2735 2.51282 24.7074 3.01614C24.3766 3.02374 24.0345 3.04276 23.6935 3.07064H23.6478C23.1133 2.37862 22.5241 1.73054 21.886 1.13264C21.91 1.13763 21.9337 1.14398 21.957 1.15165L22.1154 1.19475M32.2377 9.25473C32.4379 9.62355 32.6293 9.99879 32.8017 10.379C32.8387 11.0429 32.8332 11.7084 32.7852 12.3715C32.5444 12.1421 32.2909 11.9152 32.0247 11.6935C32.0133 11.6833 32.0007 11.6756 31.9893 11.6643C32.0998 10.7969 32.1423 9.9222 32.116 9.04815L32.1527 9.11279C32.1807 9.15969 32.206 9.2079 32.2338 9.25473M33.6915 22.111C33.5732 22.5166 33.4414 22.915 33.296 23.3062C32.8533 23.8014 32.3787 24.2672 31.8751 24.7005C31.8676 24.3684 31.8486 24.0287 31.8207 23.6864C31.8207 23.67 31.8207 23.6547 31.8207 23.6409C32.5128 23.1056 33.1613 22.516 33.7599 21.8778C33.7535 21.9031 33.7472 21.9259 33.7397 21.95C33.7257 22.0032 33.7105 22.0552 33.6965 22.1072M4.85088 22.5127C5.05254 23.015 5.28406 23.5047 5.5442 23.9793C3.65845 22.8978 2.0124 21.4441 0.706167 19.7065C0.642793 19.2426 0.59843 18.7788 0.579418 18.3123C1.73709 19.9617 3.1864 21.3856 4.85595 22.514M0.571813 16.6899C0.590826 16.2779 0.622513 15.8648 0.669411 15.4541C0.817708 15.6607 0.969808 15.8648 1.12824 16.0663C0.962203 16.2412 0.799962 16.4224 0.642793 16.6075C0.619978 16.6328 0.597163 16.662 0.571813 16.6899ZM5.92445 5.95926C6.21513 5.93137 6.50581 5.91152 6.79648 5.89969C6.73628 6.90318 6.76938 7.91009 6.89535 8.90745L6.84972 8.96196C6.8456 8.96867 6.84094 8.97504 6.83578 8.98097C6.73818 9.10772 6.64311 9.22691 6.55059 9.35236L6.52778 9.38147L6.52017 9.39166C6.50877 9.40682 6.49863 9.42335 6.48594 9.43978C6.2088 9.81668 5.95198 10.208 5.71658 10.6123C5.55039 9.05965 5.62047 7.49084 5.92445 5.95926ZM30.0462 12.3741C29.8438 11.8719 29.6119 11.3822 29.3515 10.9075C31.2384 11.9874 32.8851 13.4408 34.1909 15.179C34.2542 15.6429 34.2965 16.1077 34.3176 16.5733C33.1606 14.9257 31.7132 13.5028 30.0462 12.3741ZM34.329 18.2045C34.3113 18.6165 34.2796 19.0284 34.2315 19.4391C34.0844 19.2337 33.9311 19.0284 33.7738 18.8282C33.9386 18.6519 34.1022 18.4707 34.2593 18.287L34.329 18.2045ZM28.9777 28.9339C28.6874 28.9618 28.3959 28.9821 28.1056 28.9948C28.165 27.9908 28.1323 26.9836 28.0081 25.9857L28.0511 25.9338C28.0555 25.9265 28.0607 25.9197 28.0664 25.9135C28.1639 25.7867 28.2602 25.6663 28.3528 25.5408L28.3743 25.513V25.5028L28.4098 25.4559C28.6868 25.0778 28.9441 24.6856 29.1804 24.2809C29.345 25.8336 29.2746 27.4022 28.9713 28.9339M24.4413 28.4674C24.3779 28.5105 24.3146 28.5511 24.2449 28.5942C23.1796 29.243 22.0273 29.7364 20.8226 30.0594H20.8061C20.455 30.152 20.1001 30.2292 19.7439 30.2939L19.4423 30.3446C19.3764 30.3561 19.3079 30.3662 19.2421 30.3738C17.6154 30.5998 15.9609 30.5177 14.3647 30.1317C14.3317 30.1317 14.2988 30.1165 14.2684 30.1088C14.134 30.0759 13.9996 30.0378 13.8679 30.0011C13.7918 29.9783 13.7158 29.958 13.6397 29.934C13.6016 29.9238 13.5636 29.9111 13.5269 29.8984C12.0869 29.4427 10.7362 28.7421 9.53427 27.8273L9.46714 27.7754C9.39615 27.7235 9.32645 27.6664 9.25665 27.6106C8.16413 26.7292 7.2201 25.6782 6.4606 24.4976L6.44032 24.4647C6.39342 24.3912 6.34779 24.3202 6.30216 24.2454C5.65625 23.1792 5.16425 22.0271 4.84074 20.8232C4.84074 20.8169 4.84074 20.8117 4.84074 20.8054C4.74821 20.4556 4.67216 20.1019 4.60752 19.7445C4.58977 19.6444 4.57203 19.5443 4.55682 19.4441C4.54542 19.377 4.53653 19.3098 4.5264 19.2401C4.30209 17.6174 4.38334 15.967 4.76595 14.3742C4.7761 14.3311 4.78751 14.2892 4.79765 14.2474C4.82933 14.1207 4.86229 14.0054 4.89524 13.885C5.34676 12.305 6.09007 10.8236 7.08674 9.51711C7.09353 9.50637 7.10115 9.49626 7.10955 9.48671C7.178 9.39671 7.24644 9.31048 7.31869 9.22305L7.377 9.14955C7.44545 9.06716 7.51643 8.98477 7.58613 8.89605C7.65584 8.80732 7.71288 8.75155 7.77753 8.68185L7.7978 8.65903C8.56375 7.81707 9.43591 7.07826 10.3924 6.46119L10.4507 6.42444C10.5166 6.38134 10.5774 6.34205 10.6471 6.29768C11.7125 5.64919 12.8648 5.15582 14.0694 4.83246H14.0871C14.437 4.73866 14.7905 4.66135 15.148 4.59797C15.2482 4.57896 15.347 4.56248 15.4472 4.54727C15.5156 4.53587 15.5827 4.52572 15.6524 4.51685C17.2797 4.29516 18.9341 4.38072 20.5298 4.76909L20.6261 4.79317C20.7605 4.82612 20.8936 4.86288 21.0254 4.9009L21.2548 4.96681C21.2916 4.97695 21.3283 4.99216 21.3663 5.00357C22.8087 5.45858 24.1613 6.16018 25.3641 7.07719L25.4236 7.12156L25.6442 7.29647C26.7327 8.17393 27.674 9.21974 28.4326 10.3942C28.4453 10.4133 28.458 10.4323 28.4694 10.4526C28.5112 10.5159 28.5518 10.5793 28.5962 10.649C29.2454 11.7141 29.7392 12.8665 30.0626 14.0712V14.089C30.1564 14.4375 30.2337 14.7937 30.2971 15.1499C30.3149 15.25 30.3326 15.3501 30.3478 15.4503C30.358 15.5174 30.3694 15.5846 30.3783 15.6531C30.6023 17.2792 30.5206 18.9329 30.1374 20.5292L30.1108 20.6255C30.0779 20.7599 30.0423 20.8929 30.0043 21.026C29.9828 21.1008 29.9612 21.1781 29.9385 21.2541C29.927 21.2909 29.9131 21.3277 29.9016 21.3657C29.4458 22.8074 28.7448 24.1598 27.8293 25.3634L27.7837 25.4217C27.7254 25.4977 27.6671 25.57 27.6075 25.6447C26.7296 26.7311 25.6839 27.6703 24.5097 28.4269C24.4914 28.4397 24.4723 28.4515 24.4527 28.4624M30.9524 16.0156L30.9461 15.9472C30.9454 15.9421 30.9454 15.937 30.9461 15.9319C30.9398 15.8875 30.9334 15.8432 30.9284 15.7963C30.9232 15.7494 30.9157 15.6987 30.9106 15.6492C30.9055 15.5998 30.8915 15.5137 30.8814 15.4465V15.4161C30.8814 15.3907 30.8738 15.3667 30.8713 15.34C30.7978 14.8799 30.7053 14.4262 30.5874 13.98C31.8022 14.9604 32.8612 16.1193 33.7282 17.4175C33.5444 17.643 33.348 17.8636 33.1553 18.0753C32.4852 17.3231 31.7478 16.6337 30.9524 16.0156ZM3.95476 18.8801C3.95476 18.9029 3.95476 18.9258 3.95476 18.9486C3.95537 18.9566 3.95537 18.9646 3.95476 18.9726C3.95476 19.0069 3.96363 19.0411 3.96743 19.0766C3.9763 19.1399 3.98392 19.2033 3.99279 19.268C4.00166 19.3326 4.008 19.3833 4.0156 19.4391V19.4695L4.03461 19.5848C4.04728 19.6723 4.06123 19.7598 4.07644 19.8447C4.07703 19.8489 4.07703 19.8532 4.07644 19.8574C4.13982 20.2161 4.2184 20.5684 4.30966 20.9196C3.09945 19.9374 2.04404 18.7786 1.17895 17.4821C1.364 17.2565 1.55919 17.0359 1.75185 16.823C2.4221 17.5742 3.15945 18.2628 3.95476 18.8801ZM31.0272 17.3351C31.5379 17.7805 32.0189 18.259 32.4671 18.7673C32.0212 19.1941 31.5496 19.5933 31.0551 19.9625C30.9942 19.7762 30.9359 19.6178 30.8814 19.4683C30.986 18.7621 31.0348 18.0488 31.0272 17.3351ZM33.0869 19.5177C33.3188 19.8142 33.5394 20.1222 33.7498 20.4353C33.1271 21.1921 32.434 21.8882 31.68 22.514C31.6622 22.4037 31.6445 22.2922 31.6242 22.1896C31.6242 22.1756 31.6242 22.1642 31.6179 22.1503V22.1337C31.5976 22.0222 31.5747 21.9082 31.5519 21.7953C31.5292 21.6825 31.5038 21.5659 31.4759 21.4506L31.4429 21.3048C31.4189 21.2072 31.3922 21.1084 31.3682 21.0083L31.358 20.969L31.3505 20.9436C31.9615 20.5078 32.5414 20.0296 33.0856 19.5126M26.9712 7.76418C27.6465 7.71998 28.324 7.71998 28.9993 7.76418C28.9851 8.38148 28.9335 8.99735 28.8446 9.6084C28.6672 9.51968 28.5176 9.44741 28.3718 9.38147C27.9463 8.80832 27.4768 8.26926 26.9675 7.76925M25.9813 6.88961L25.928 6.84651C25.9228 6.84073 25.9168 6.83562 25.9103 6.8313C25.7836 6.73371 25.6569 6.6361 25.5301 6.54358L25.5022 6.5233C25.4983 6.5215 25.4949 6.51891 25.492 6.51569C25.4766 6.50345 25.4605 6.49203 25.4439 6.48147C25.0667 6.20448 24.6753 5.94725 24.2715 5.71084C25.8237 5.5463 27.3919 5.61681 28.9231 5.91997C28.9519 6.2098 28.9722 6.50006 28.984 6.79074C27.98 6.73247 26.9729 6.76555 25.975 6.88961M17.3319 3.87423C17.7763 3.36332 18.2544 2.88271 18.7629 2.43563C19.1894 2.881 19.5881 3.35212 19.9569 3.84635C19.7693 3.90846 19.6122 3.96549 19.4638 4.02126C18.7581 3.91684 18.0453 3.86768 17.3319 3.87423ZM19.512 1.81455C19.8086 1.58387 20.1166 1.36332 20.431 1.15165C21.1881 1.77424 21.8857 2.46589 22.5147 3.21767C22.4032 3.23541 22.2916 3.25316 22.1877 3.27343L22.1509 3.27978H22.1345C22.0217 3.30006 21.9063 3.32287 21.7935 3.34695C21.6807 3.37104 21.5653 3.39512 21.4513 3.42173L21.3055 3.45469C21.2079 3.47751 21.1078 3.50412 21.0089 3.52948L20.9683 3.54088H20.943C20.5077 2.92898 20.0295 2.3487 19.512 1.80441M18.8174 1.11363C18.6425 0.947587 18.4613 0.785345 18.2762 0.628175L18.1938 0.557195C18.6057 0.57494 19.019 0.607896 19.4309 0.654793C19.223 0.80309 19.019 0.955191 18.8174 1.11363ZM18.0683 1.74737C17.3173 2.41601 16.6288 3.15166 16.0111 3.94521H16.001L15.9427 3.95155H15.9224C15.887 3.95155 15.8503 3.96169 15.8134 3.96422L15.6233 3.98831L15.4446 4.01366H15.4294L15.3103 4.03267C15.2228 4.04534 15.1353 4.06055 15.0492 4.07577H15.0378C14.6803 4.13998 14.3262 4.21815 13.9756 4.31025C14.9566 3.09567 16.1155 2.03633 17.413 1.16812C17.6387 1.35318 17.8592 1.54837 18.0721 1.74104M9.3809 6.51569C8.80747 6.94078 8.26838 7.41036 7.76866 7.92008C7.72504 7.24479 7.72504 6.56738 7.76866 5.89209C8.38558 5.90445 9.00111 5.95567 9.6116 6.04545C9.52288 6.22163 9.45061 6.37373 9.38596 6.51823M7.86498 4.92245C7.91188 4.54981 7.97272 4.1759 8.0475 3.80325C9.02268 3.7082 10.0046 3.70438 10.9805 3.79184C10.9159 3.88183 10.8538 3.97436 10.7891 4.06183C10.7809 4.07166 10.7737 4.08228 10.7675 4.09351L10.7562 4.10872C10.6928 4.20124 10.6294 4.29757 10.5648 4.39391C10.5001 4.49023 10.438 4.59036 10.3759 4.68923L10.2948 4.81598C10.2415 4.90344 10.1908 4.99089 10.1376 5.07962L10.1186 5.11511L10.106 5.13919C9.36483 5.01514 8.61608 4.94272 7.86498 4.92245ZM6.05247 4.97315C6.35667 4.69431 6.671 4.42432 6.99548 4.16956C6.95112 4.42306 6.9169 4.67655 6.88648 4.93006C6.64312 4.93766 6.40102 4.95076 6.1602 4.96935C6.12345 4.96935 6.08795 4.96935 6.05247 4.97822M3.88251 17.5582C3.36818 17.1145 2.88418 16.6368 2.43377 16.1283C2.8793 15.7016 3.35087 15.3028 3.84576 14.9344C3.9066 15.122 3.96363 15.2791 4.0194 15.4274C3.91432 16.1336 3.86516 16.8468 3.87237 17.5606M1.81269 15.3793C1.58201 15.081 1.36146 14.7747 1.15106 14.4603C1.77322 13.7017 2.46536 13.0031 3.21835 12.3741C3.23609 12.4856 3.2551 12.5971 3.27411 12.7011C3.27411 12.7138 3.27411 12.7239 3.28045 12.7378V12.7555C3.302 12.8671 3.32228 12.9812 3.34636 13.0953C3.37045 13.2093 3.39579 13.3234 3.42114 13.4375L3.45537 13.5833C3.47945 13.6808 3.5048 13.7797 3.53015 13.8798L3.54156 13.9191C3.54156 13.9293 3.54156 13.9368 3.54916 13.9445C2.93713 14.3807 2.35646 14.8593 1.81143 15.3768M7.92709 27.1239C7.25182 27.1681 6.57437 27.1681 5.8991 27.1239C5.91126 26.5069 5.96291 25.8913 6.05373 25.281C6.22865 25.3684 6.38075 25.442 6.52524 25.5066C6.95033 26.08 7.41991 26.6191 7.92963 27.1188M8.91447 27.9985C8.93309 28.0127 8.95087 28.0279 8.9677 28.0441C8.97494 28.048 8.98175 28.0527 8.98799 28.058C9.11473 28.1557 9.23516 28.252 9.36061 28.3445L9.38981 28.366L9.39863 28.3737L9.44556 28.4066C9.82337 28.6837 10.2151 28.9414 10.6192 29.1785C9.06699 29.3431 7.49877 29.2726 5.96754 28.9694C5.93882 28.6787 5.91853 28.388 5.9067 28.0973C6.9102 28.1569 7.91705 28.1238 8.91447 27.9985ZM17.5601 31.0139C17.1152 31.5251 16.6367 32.0062 16.1278 32.4537C15.7006 32.0085 15.3019 31.5369 14.9338 31.0417C15.1214 30.9796 15.2786 30.9226 15.4269 30.8681C16.133 30.9727 16.8463 31.0214 17.5601 31.0139ZM15.3787 33.0748C15.0813 33.3055 14.7749 33.5264 14.4598 33.7377C13.7035 33.1151 13.0067 32.4234 12.3785 31.6717C12.4863 31.6539 12.5979 31.6349 12.7017 31.6147H12.7397H12.7576C12.8703 31.5944 12.9831 31.5715 13.096 31.5475C13.2088 31.5234 13.3254 31.4993 13.4394 31.4727L13.5852 31.441L13.883 31.365L13.921 31.3535L13.949 31.346C14.3846 31.9577 14.8624 32.5384 15.3787 33.0837M16.072 33.7745C16.2495 33.9405 16.4308 34.1027 16.6145 34.2587C16.6424 34.284 16.669 34.3055 16.6969 34.3297C16.2849 34.3118 15.8717 34.2802 15.4623 34.232C15.669 34.085 15.873 33.9316 16.072 33.7745ZM16.8223 33.1407C17.5734 32.4725 18.262 31.7373 18.8795 30.9442H18.8897H18.9492H18.9721L19.0645 30.9327L19.2801 30.9061L19.4398 30.8833H19.4626L19.6008 30.863C19.6793 30.8503 19.7566 30.8376 19.8365 30.8225L19.8809 30.8149C20.2294 30.7527 20.5767 30.6755 20.9189 30.5855C19.9381 31.7997 18.7797 32.859 17.4827 33.7276C17.2559 33.5438 17.0366 33.3473 16.8223 33.1547M25.5136 28.3813C26.0867 27.9558 26.6258 27.4863 27.1259 26.9768C27.1701 27.6521 27.1701 28.3296 27.1259 29.0049C26.5085 28.9917 25.8926 28.9406 25.2816 28.8515C25.3716 28.6754 25.4439 28.5232 25.5085 28.3787M27.0295 29.9745C26.9839 30.3459 26.9218 30.7198 26.8483 31.0924C25.8727 31.1881 24.8903 31.192 23.914 31.1039C23.9799 31.0139 24.0408 30.9213 24.1055 30.8352L24.1282 30.8035L24.1383 30.7895L24.331 30.5031C24.3944 30.4042 24.4577 30.3054 24.5186 30.2065L24.5997 30.0797C24.6517 29.9923 24.7024 29.9035 24.7557 29.8161L24.7771 29.7793C24.7809 29.7714 24.7851 29.7638 24.7898 29.7565C25.5306 29.8801 26.2789 29.9524 27.0295 29.9733M28.0081 29.9733C28.2514 29.9733 28.4935 29.953 28.7356 29.9352L28.8433 29.9251C28.5379 30.2039 28.2235 30.4739 27.899 30.7286C27.9408 30.4752 27.9789 30.2217 28.0081 29.9681M29.9385 22.7675C30.1522 22.2719 30.3363 21.764 30.4898 21.2465C31.0596 23.3446 31.1964 25.5367 30.8915 27.6892C30.6077 28.0593 30.3094 28.4184 29.9967 28.7665C30.3427 26.78 30.323 24.7469 29.9385 22.7675ZM30.5583 20.974C30.666 20.5709 30.7572 20.1641 30.8257 19.7497C30.8574 19.8358 30.8891 19.9245 30.922 20.0247C31.0298 20.3529 31.1286 20.6825 31.2148 21.0083L31.2262 21.0475C31.2515 21.1451 31.2743 21.244 31.2985 21.3404L31.3314 21.4861C31.358 21.5989 31.3833 21.7129 31.4062 21.8258C31.429 21.9386 31.4518 22.0476 31.4721 22.1604V22.1782C31.4748 22.1886 31.4769 22.1991 31.4785 22.2099C31.5013 22.3366 31.5215 22.457 31.543 22.58C31.5989 22.9462 31.6457 23.3227 31.6787 23.7029C31.7091 24.0617 31.7294 24.4204 31.737 24.7689C31.7446 25.1936 31.737 25.6168 31.7091 26.0364C31.699 26.2113 31.685 26.3862 31.6711 26.5599C31.4733 26.8679 31.2655 27.167 31.0501 27.4611C31.325 25.2892 31.1564 23.084 30.5544 20.9791M29.2084 10.6718C28.9996 10.3119 28.7744 9.96032 28.5328 9.61721C28.6152 9.65652 28.7 9.69711 28.7964 9.74404C29.1031 9.8986 29.4048 10.0622 29.6976 10.2307L29.7331 10.2523L29.9866 10.4069L30.1133 10.4855C30.2122 10.5489 30.3098 10.6123 30.4061 10.6731C30.5024 10.7339 30.5975 10.7998 30.6901 10.8632L30.7065 10.8746C30.7146 10.8811 30.723 10.8869 30.7318 10.8924C30.8345 10.9621 30.9372 11.0355 31.0386 11.1091C31.3378 11.3258 31.6382 11.5603 31.9258 11.8062C32.2135 12.0521 32.4684 12.2764 32.7193 12.5198C33.0247 12.8139 33.3201 13.1181 33.5938 13.4299C33.7105 13.5566 33.8233 13.6948 33.9374 13.8291C34.0147 14.1865 34.0819 14.5428 34.1351 14.904C32.7928 13.1743 31.1143 11.7343 29.2007 10.6706M31.0805 10.9722C30.9905 10.9063 30.8992 10.8454 30.8117 10.7821C30.8014 10.7736 30.7903 10.766 30.7788 10.7593L30.7648 10.7504C30.671 10.6844 30.5747 10.6237 30.4784 10.5577C30.382 10.4919 30.2832 10.431 30.183 10.3676L30.0563 10.2878C29.9713 10.2358 29.8813 10.1851 29.7926 10.1306L29.7585 10.1103L29.7344 10.0976C29.8585 9.35704 29.9309 8.60865 29.9511 7.85797C30.3237 7.90487 30.6977 7.9657 31.0691 8.03922C31.1648 9.01437 31.1685 9.99632 31.0805 10.9722ZM29.9486 6.87946C29.9409 6.6361 29.927 6.39274 29.908 6.15192C29.908 6.11643 29.908 6.08094 29.8992 6.04419C30.1793 6.34839 30.4493 6.66399 30.7053 6.9872C30.4517 6.94537 30.1983 6.90862 29.9448 6.87946M22.7492 4.95541C22.2514 4.74213 21.7408 4.55969 21.2206 4.40912C23.3258 3.83766 25.5253 3.70138 27.6848 4.00859C28.0558 4.2925 28.4154 4.59079 28.7634 4.90344C26.7787 4.55712 24.7476 4.57559 22.7695 4.95794M20.9759 4.33813C20.5741 4.2304 20.1673 4.13914 19.7541 4.0707L20.0304 3.97309C20.3561 3.86536 20.6857 3.76776 21.0128 3.68031L21.052 3.67017L21.3448 3.59792L21.4893 3.56369C21.6021 3.53835 21.7161 3.513 21.829 3.49018C21.9418 3.46737 22.0521 3.44455 22.1624 3.423H22.1826H22.2131C22.3398 3.40019 22.4602 3.37864 22.5845 3.35963C22.9494 3.30133 23.3271 3.25696 23.7074 3.22147C24.0661 3.19232 24.4248 3.17204 24.7721 3.1657C25.1968 3.1581 25.6226 3.1657 26.0396 3.19232C26.2145 3.20246 26.3881 3.2164 26.5631 3.23034C26.8685 3.42807 27.1689 3.63467 27.4617 3.85015C25.2897 3.57629 23.0847 3.74531 20.9798 4.34701M12.3823 4.86288C11.879 5.06489 11.3885 5.29727 10.9133 5.55874C11.9943 3.67199 13.4481 2.02503 15.186 0.718168C15.65 0.656483 16.1146 0.614233 16.5803 0.591418C14.9326 1.74973 13.5096 3.19846 12.381 4.86668M10.6725 5.68041C10.3112 5.88955 9.95892 6.11263 9.61665 6.35472C9.65596 6.2736 9.69655 6.18868 9.74338 6.09361C9.89932 5.78562 10.0628 5.48269 10.2327 5.19116L10.2517 5.15567C10.3024 5.06948 10.3556 4.98329 10.4088 4.90217L10.4862 4.77542C10.5482 4.67655 10.6129 4.57896 10.6738 4.48136C10.7346 4.38377 10.8005 4.28998 10.8639 4.19744L10.8753 4.18223C10.8806 4.17297 10.8865 4.16408 10.893 4.15562C10.964 4.05295 11.0363 3.94901 11.1097 3.84888C11.3266 3.54975 11.561 3.24936 11.8069 2.96164C12.0528 2.67392 12.2784 2.41915 12.5205 2.16818C12.8146 1.86145 13.1213 1.56739 13.4318 1.29488C13.5586 1.177 13.6955 1.06419 13.8298 0.951389C14.1855 0.872801 14.5439 0.80647 14.9047 0.75239C13.1758 2.09258 11.7361 3.76893 10.6725 5.68041ZM4.95608 12.1281C4.74225 12.6258 4.5598 13.1363 4.40979 13.6567C3.84072 11.5586 3.70402 9.36668 4.008 7.21408C4.29191 6.84144 4.58977 6.48189 4.90158 6.13544C4.55524 8.11971 4.57371 10.1505 4.95608 12.1281ZM4.33501 13.9204C4.22727 14.3235 4.13728 14.7303 4.0663 15.1436C4.03588 15.0573 4.00419 14.9686 3.97123 14.8685C3.86223 14.5402 3.76464 14.2119 3.67845 13.8862L3.66703 13.8457C3.64169 13.7476 3.61761 13.65 3.5948 13.5528L3.56057 13.4083C3.53522 13.2956 3.50986 13.1815 3.48705 13.0673C3.46424 12.9533 3.44016 12.8455 3.41987 12.7341V12.7162C3.41835 12.7058 3.41835 12.6951 3.41987 12.6846C3.39579 12.5578 3.37425 12.4374 3.35524 12.3133C3.29693 11.9482 3.25003 11.5705 3.21835 11.1915C3.18665 10.8315 3.16891 10.4729 3.16131 10.1242C3.15244 9.70088 3.16131 9.27632 3.18665 8.85676C3.19806 8.68311 3.21201 8.50819 3.22595 8.33455C3.42283 8.02781 3.62944 7.72784 3.84576 7.43463C3.56937 9.60739 3.73579 11.8137 4.33501 13.9204ZM5.68109 24.2264C5.89065 24.5881 6.11542 24.9396 6.3554 25.281C6.27428 25.243 6.18809 25.2011 6.0943 25.1542C5.7863 24.9996 5.48336 24.8361 5.19184 24.6662L5.15634 24.6459C5.07015 24.5952 4.98396 24.5421 4.90284 24.4901L4.7761 24.4128L4.48331 24.2238C4.38698 24.1618 4.29318 24.0971 4.20065 24.0363L4.18418 24.0224C4.17429 24.0181 4.16527 24.0121 4.15756 24.0046C4.05362 23.9349 3.95349 23.8614 3.85083 23.7891C3.5517 23.5712 3.2513 23.3366 2.96357 23.092C2.67586 22.8474 2.42109 22.6205 2.17012 22.3784C1.86339 22.083 1.56934 21.7789 1.29429 21.4671C1.17768 21.3404 1.06614 21.2021 0.953332 21.0691C0.874746 20.7116 0.810103 20.3542 0.754333 19.9942C2.09637 21.7238 3.77492 23.1635 5.68869 24.2264M3.81026 23.9247C3.89899 23.9907 3.99025 24.0515 4.07771 24.1161C4.08785 24.1237 4.09925 24.1301 4.10813 24.1377L4.12333 24.1478C4.21839 24.2125 4.31473 24.2745 4.40979 24.3392C4.50485 24.4038 4.60625 24.4659 4.70512 24.5306L4.83186 24.6092C4.91805 24.6625 5.00678 24.7132 5.09297 24.7663L5.13099 24.7866C5.13815 24.7917 5.14579 24.7959 5.15382 24.7993C5.02965 25.5399 4.95765 26.2883 4.93834 27.039C4.55809 26.9921 4.19051 26.9325 3.81913 26.8577C3.7226 25.8826 3.71922 24.9005 3.809 23.9247M4.94087 28.0187C4.94087 28.2608 4.95988 28.5042 4.97889 28.7451C4.97889 28.7818 4.9865 28.8172 4.98777 28.8528C4.70892 28.5485 4.44105 28.2346 4.18418 27.911C4.43767 27.9532 4.69117 27.9892 4.94468 28.0187M12.1378 29.9428C12.6361 30.1557 13.147 30.3382 13.6676 30.4891C11.5689 31.0576 9.37668 31.1943 7.22363 30.8909C6.85352 30.607 6.49229 30.3091 6.14499 29.9961C8.12924 30.3422 10.16 30.3241 12.1378 29.9428ZM13.9312 30.5626C14.3343 30.6691 14.7424 30.7603 15.1543 30.8313C15.0695 30.8605 14.9795 30.8934 14.8793 30.9264C14.5523 31.0341 14.2227 31.133 13.8957 31.2191L13.8577 31.2306L13.5649 31.3016L13.4204 31.3358C13.3051 31.3611 13.191 31.3878 13.0807 31.4093C12.9704 31.4308 12.8564 31.4562 12.7449 31.4778H12.7271L12.6954 31.4841C12.5686 31.5057 12.4483 31.5272 12.3253 31.5462C11.9578 31.6045 11.5813 31.6514 11.201 31.6844C10.8423 31.7161 10.4849 31.7338 10.1364 31.7401C9.7117 31.7502 9.28714 31.7401 8.86884 31.7161C8.69393 31.7047 8.52028 31.6894 8.34663 31.6768C8.03821 31.479 7.73738 31.2724 7.44418 31.057C9.61665 31.3297 11.8218 31.1606 13.9274 30.5601M22.5273 30.043C23.0306 29.8421 23.5208 29.6102 23.9952 29.3483C22.9142 31.2344 21.4609 32.8809 19.7236 34.1877C19.2598 34.251 18.795 34.2933 18.3295 34.3144C19.9778 33.1563 21.4009 31.7071 22.5286 30.0378M24.2347 29.2089C24.5972 28.9985 24.947 28.7755 25.2892 28.5334C25.2512 28.6158 25.2094 28.7019 25.1625 28.7945C25.0078 29.1038 24.8457 29.4067 24.6745 29.6982L24.6543 29.7324C24.6023 29.8211 24.5516 29.9061 24.4996 29.986L24.421 30.1127C24.3576 30.2115 24.2943 30.3104 24.2322 30.4068C24.17 30.5031 24.1054 30.5981 24.0433 30.6906L24.0319 30.7046C24.0265 30.7142 24.0206 30.7235 24.0142 30.7325C23.9445 30.8364 23.8696 30.9378 23.7974 31.0392C23.5807 31.3371 23.345 31.6375 23.1003 31.9265C22.8556 32.2155 22.6288 32.4677 22.3879 32.7199C22.0927 33.0254 21.7871 33.3194 21.4753 33.5945C21.3486 33.711 21.2117 33.8239 21.0773 33.9367C20.7212 34.0153 20.3625 34.0799 20.0026 34.1357C21.732 32.7937 23.1718 31.1151 24.2347 29.2013" fill="black"/>
</g>
</svg>
