<svg width="32" height="40" viewBox="0 0 32 40" fill="none" xmlns="http://www.w3.org/2000/svg">
<g clip-path="url(#clip0_53_12)">
<path d="M18.5176 35.6151C18.4838 35.5272 18.4455 35.4394 18.405 35.3537C18.3117 35.162 18.1984 34.9807 18.0669 34.8129C18.013 34.7421 17.9555 34.674 17.8946 34.609C17.8574 34.5662 17.8169 34.5222 17.774 34.4794C17.6852 34.391 17.5916 34.3074 17.4935 34.2293C17.4242 34.1719 17.3521 34.1181 17.2772 34.0682C17.0978 33.9463 16.9059 33.8439 16.7048 33.7629C16.6126 33.7266 16.5186 33.695 16.4232 33.6683C16.176 33.5988 15.9215 33.5587 15.6649 33.5488C15.6176 33.5488 15.5691 33.5488 15.5207 33.5488C15.4722 33.5488 15.4081 33.5488 15.3607 33.5488C15.1049 33.5585 14.8513 33.6002 14.6059 33.6727C14.5113 33.6998 14.4166 33.7314 14.3253 33.7674C14.1246 33.8492 13.9327 33.9514 13.753 34.0727C13.6797 34.1234 13.6077 34.1775 13.5366 34.2338C13.4397 34.3119 13.3472 34.3954 13.2595 34.4839C13.2166 34.5256 13.1761 34.5696 13.1367 34.6123C13.0747 34.6799 13.0173 34.7476 12.9632 34.8163C12.8325 34.9838 12.7193 35.1643 12.6252 35.3549C12.583 35.4407 12.5454 35.5287 12.5125 35.6185C12.4263 35.8459 12.3691 36.0832 12.3424 36.3249C12.3279 36.4426 12.3204 36.5612 12.3198 36.6798V36.7294C12.3206 36.8479 12.3277 36.9665 12.3413 37.0843C12.3675 37.3277 12.4239 37.5669 12.5091 37.7963C12.5422 37.8857 12.5797 37.9733 12.6218 38.0589C12.7162 38.251 12.8294 38.4332 12.9598 38.603C13.0139 38.674 13.0725 38.7427 13.1299 38.8103C13.1694 38.8565 13.2111 38.9016 13.255 38.9466C13.3418 39.0357 13.4319 39.1202 13.5232 39.1979C13.5918 39.2542 13.664 39.3105 13.7349 39.3612C13.9105 39.4871 14.0994 39.5933 14.2983 39.6778C14.3888 39.7155 14.4814 39.7483 14.5754 39.7758C14.8193 39.8508 15.072 39.8932 15.3269 39.9021H15.4543H15.5703H15.7055C15.9606 39.8923 16.2135 39.8502 16.4581 39.777C16.5526 39.7492 16.6455 39.7161 16.7364 39.6778C16.9352 39.5947 17.1242 39.4896 17.2997 39.3647C17.3707 39.315 17.4428 39.2587 17.5115 39.2002C17.606 39.1216 17.6962 39.0381 17.7819 38.9501C17.8247 38.905 17.8676 38.8599 17.907 38.8137C17.9667 38.7461 18.0197 38.6763 18.076 38.6064C18.2068 38.4366 18.3202 38.2539 18.4139 38.0611C18.456 37.9752 18.4935 37.8872 18.5267 37.7975C18.6104 37.5672 18.6664 37.3278 18.6934 37.0843C18.7058 36.9716 18.7137 36.8499 18.7148 36.7294V36.6877C18.7137 36.5687 18.7062 36.4498 18.6922 36.3317C18.665 36.0889 18.609 35.8503 18.5255 35.6207" fill="black"/>
<path d="M30.8987 17.4913C31.0459 16.3228 31.0606 15.1413 30.9427 13.9694C30.9427 13.9344 30.9347 13.8995 30.9303 13.8668C30.9224 13.7699 30.9112 13.6742 30.8987 13.5773C30.8987 13.548 30.8908 13.5187 30.8875 13.4894C30.8841 13.4601 30.8762 13.4083 30.8694 13.3677C30.8596 13.2866 30.8484 13.2055 30.8356 13.1244C30.8232 13.0432 30.8086 12.9632 30.7962 12.881C30.7872 12.8337 30.7793 12.7875 30.7703 12.7401L30.7568 12.6624C30.7421 12.5836 30.7252 12.5024 30.7094 12.4224C30.7094 12.3977 30.7005 12.3752 30.6948 12.3503C30.6892 12.3255 30.679 12.2738 30.67 12.2377L30.6644 12.205C30.1766 9.96439 29.1964 7.8604 27.7947 6.04556C27.0722 5.11329 26.2463 4.2659 25.333 3.51957L25.2598 3.45085L25.0187 3.25932H25.0107C25.0084 3.25577 25.0053 3.25271 25.0018 3.2503C24.9601 3.21763 24.9173 3.18721 24.8744 3.15566C24.8001 3.09933 24.7268 3.04299 24.6491 2.98779C24.5951 2.94723 24.5365 2.90892 24.4823 2.86836L24.3438 2.77035C24.319 2.75344 24.2931 2.73429 24.2683 2.71852C24.2086 2.67683 24.1477 2.6374 24.0869 2.59684L23.9956 2.536L23.9551 2.51009C23.9325 2.49431 23.91 2.47854 23.8841 2.46389L23.8751 2.45713C21.9485 1.21938 19.7706 0.425805 17.4993 0.133952H17.4937C16.3251 -0.0135499 15.1436 -0.0286671 13.9717 0.0888854L13.8692 0.101278C13.7701 0.111418 13.6721 0.121558 13.574 0.133952H13.5616H13.547L13.3712 0.158738C13.2856 0.170005 13.2011 0.182398 13.1178 0.195918C13.049 0.204931 12.9803 0.217325 12.9138 0.229718C12.8473 0.242112 12.8011 0.247744 12.7426 0.259011L12.6558 0.274784C12.5837 0.287178 12.5127 0.301824 12.4418 0.316471L12.329 0.337878C12.3113 0.342822 12.2933 0.346586 12.275 0.349144L12.1995 0.364917H12.1894C9.95099 0.849376 7.84878 1.82659 6.03552 3.22551H6.02876C5.09733 3.94539 4.25168 4.76988 3.50842 5.68276L3.43969 5.76388C3.37998 5.84163 3.31688 5.91937 3.25604 5.99598C3.25604 5.99598 3.25604 6.00274 3.25604 6.00499L3.24703 6.01738L3.13437 6.15709C3.08254 6.22694 3.03071 6.29454 2.98114 6.3644L2.85946 6.5334C2.82566 6.57959 2.79299 6.62691 2.76031 6.67536L2.71075 6.74521C2.66906 6.80605 2.62962 6.86689 2.58906 6.92885L2.5271 7.02011C2.51696 7.03589 2.50569 7.05279 2.49668 7.06856L2.45386 7.13053V7.13954C1.21462 9.06635 0.42058 11.2452 0.129557 13.5176C-0.0179444 14.6861 -0.0330616 15.8676 0.0844909 17.0395C0.0844909 17.0734 0.0923775 17.1082 0.0968844 17.1432C0.107024 17.2423 0.11829 17.3404 0.129557 17.4372C0.130053 17.441 0.130053 17.4448 0.129557 17.4485C0.129557 17.4541 0.129557 17.4587 0.129557 17.4632C0.137444 17.5218 0.146457 17.5758 0.154343 17.6389C0.166737 17.7246 0.178004 17.809 0.191524 17.8935C0.205044 17.978 0.212931 18.0299 0.225324 18.0963C0.237717 18.1628 0.244477 18.209 0.25349 18.2687C0.25349 18.298 0.264757 18.3262 0.269264 18.3543C0.282784 18.4264 0.297431 18.4974 0.312077 18.5695C0.318837 18.6056 0.326723 18.6428 0.333483 18.6822C0.340243 18.7216 0.34137 18.7194 0.34475 18.7397C0.351314 18.7638 0.356579 18.7882 0.360523 18.8129V18.823C0.846893 21.0615 1.82604 23.1633 3.22675 24.9757C3.22606 24.9775 3.22606 24.9796 3.22675 24.9814C3.94781 25.9121 4.77217 26.758 5.684 27.5028L5.76625 27.5693L5.99722 27.753L6.00848 27.762L6.01862 27.7687C6.06482 27.8059 6.11326 27.8409 6.16058 27.8814C6.22818 27.9332 6.29691 27.985 6.36676 28.0347C6.43662 28.0842 6.47943 28.1157 6.53351 28.1552L6.6766 28.2543C6.69933 28.2725 6.72302 28.2894 6.74758 28.305L6.92897 28.4267C6.95939 28.4481 6.99206 28.4684 7.02248 28.4887C7.03719 28.4995 7.05262 28.5093 7.06867 28.5179L7.13177 28.5608L7.14078 28.5664C9.06789 29.8059 11.2472 30.5999 13.52 30.8908C14.5703 31.0246 15.6315 31.0503 16.687 30.9673C16.7996 30.9572 16.9123 30.9481 17.025 30.9369C17.0667 30.9369 17.1095 30.9268 17.1523 30.9234C17.2436 30.9121 17.3348 30.9042 17.4261 30.8918L17.6717 30.858L17.8508 30.8333L17.8925 30.8254C17.9522 30.8175 18.012 30.8073 18.0739 30.7961L18.2699 30.7634L18.3488 30.7488L18.5528 30.7071L18.688 30.6801L18.7285 30.6721L18.8018 30.6564H18.813C21.0512 30.1695 23.153 29.1904 24.9657 27.7902H24.9713C24.9708 27.7883 24.9708 27.7863 24.9713 27.7846C25.9094 27.0661 26.7622 26.2428 27.5131 25.3307C27.5345 25.3025 27.557 25.2754 27.5784 25.2484C27.6415 25.1707 27.7024 25.0952 27.7644 25.0163L27.7722 25.0062L27.7801 24.9961L27.886 24.8552C27.939 24.7864 27.9908 24.7178 28.0415 24.6479L28.161 24.4811C28.1936 24.4339 28.2274 24.3854 28.2623 24.337L28.3107 24.2671C28.3536 24.2063 28.393 24.1454 28.4325 24.0857C28.4538 24.0552 28.4742 24.0237 28.4944 23.991C28.5034 23.9764 28.5147 23.9606 28.5259 23.9449C28.5373 23.929 28.5542 23.9032 28.5676 23.8829L28.5733 23.8727C29.8102 21.9451 30.6026 19.7665 30.8931 17.4947M22.7811 28.6588C22.4533 28.8402 22.1187 29.0081 21.7806 29.1636C21.1909 29.1961 20.5997 29.1908 20.0107 29.1477C20.2134 28.9337 20.4162 28.7095 20.6123 28.4774L20.6393 28.4447C21.4103 28.5437 22.1879 28.5814 22.9648 28.5574L22.9073 28.5901L22.7811 28.6599M11.3613 29.9522C11.0023 29.8486 10.6481 29.7317 10.2988 29.6019C9.85891 29.208 9.44495 28.7861 9.05948 28.3388C9.35581 28.3321 9.65777 28.3152 9.96079 28.2903H10.0014C10.4761 28.9059 10.9999 29.4819 11.5674 30.013L11.5021 29.9973C11.4559 29.9837 11.4097 29.9691 11.3635 29.9567M2.35809 22.7754C2.32655 22.7201 2.29388 22.6627 2.26346 22.6063C2.12262 22.3416 1.9908 22.0723 1.86349 21.7986C1.83155 21.2085 1.83682 20.6169 1.87927 20.0274C2.09333 20.2303 2.31866 20.433 2.55526 20.6302L2.58794 20.655C2.48902 21.4263 2.45134 22.2043 2.47527 22.9815C2.46616 22.967 2.45788 22.952 2.45048 22.9365C2.42119 22.8846 2.3919 22.8328 2.36373 22.7799M1.06807 11.4006C1.17284 11.031 1.2934 10.666 1.42747 10.3099C1.82035 9.86953 2.2419 9.45549 2.68933 9.07067C2.69609 9.36472 2.713 9.66774 2.73778 9.97198C2.73778 9.98553 2.73778 9.999 2.73778 10.0114C2.12272 10.483 1.54525 11.0017 1.01061 11.5628C1.01061 11.5415 1.023 11.52 1.0275 11.4986C1.03201 11.4772 1.04892 11.4242 1.06018 11.3859M8.2314 2.36024C8.55964 2.17997 8.89238 2.0121 9.2296 1.85662C9.82046 1.82356 10.4128 1.82882 11.003 1.8724C10.7979 2.08534 10.5963 2.31067 10.3991 2.54839L10.3743 2.58107C9.60291 2.48267 8.82503 2.445 8.04774 2.4684C8.07253 2.456 8.09619 2.44136 8.12097 2.42783L8.23368 2.36587M19.6603 1.06683C20.0201 1.17123 20.3742 1.28803 20.7227 1.41722C21.1623 1.81171 21.5763 2.23395 21.962 2.68134C21.668 2.68809 21.3638 2.705 21.0607 2.72978H21.0201C20.545 2.11466 20.0213 1.53858 19.4541 1.00711C19.4754 1.01156 19.4965 1.0172 19.5172 1.02401L19.658 1.06232M28.6556 8.22676C28.8335 8.55459 29.0036 8.88814 29.1569 9.2261C29.1898 9.81623 29.1849 10.4078 29.1423 10.9972C28.9282 10.7933 28.7028 10.5917 28.4663 10.3945C28.4561 10.3854 28.4449 10.3787 28.4347 10.3686C28.533 9.59753 28.5707 8.82006 28.5474 8.04312L28.5801 8.10058C28.6049 8.14227 28.6274 8.18512 28.6521 8.22676M29.9478 19.6545C29.8427 20.0151 29.7255 20.3692 29.5963 20.717C29.2027 21.1571 28.7809 21.5712 28.3333 21.9563C28.3266 21.6611 28.3097 21.3592 28.2849 21.0549C28.2849 21.0403 28.2849 21.0268 28.2849 21.0144C28.9001 20.5386 29.4765 20.0145 30.0086 19.4472C30.003 19.4698 29.9974 19.49 29.9907 19.5114C29.9783 19.5588 29.9647 19.605 29.9523 19.6512M4.31173 20.0117C4.49098 20.4581 4.69678 20.8934 4.92801 21.3152C3.25179 20.3539 1.78864 19.0618 0.627542 17.5172C0.571208 17.1049 0.531775 16.6926 0.514875 16.2779C1.54391 17.7441 2.83219 19.0098 4.31624 20.0128M0.508115 14.8358C0.525016 14.4696 0.553182 14.1023 0.594869 13.7373C0.726688 13.921 0.861888 14.1023 1.00272 14.2815C0.855129 14.437 0.710915 14.598 0.571208 14.7625C0.550928 14.785 0.530648 14.811 0.508115 14.8358ZM5.26601 5.29745C5.52439 5.27266 5.78278 5.25501 6.04115 5.24449C5.98764 6.13649 6.01706 7.03151 6.12904 7.91806L6.08848 7.96651C6.08482 7.97248 6.08067 7.97814 6.07608 7.98341C5.98933 8.09608 5.90483 8.20202 5.82258 8.31353L5.80231 8.33941L5.79555 8.34847C5.78541 8.36194 5.77639 8.37663 5.76512 8.39125C5.51877 8.72627 5.29048 9.0741 5.08124 9.43345C4.93352 8.05335 4.99582 6.65885 5.26601 5.29745ZM26.7076 10.9995C26.5276 10.5531 26.3215 10.1179 26.0901 9.6959C27.7673 10.6558 29.2311 11.9477 30.3917 13.4928C30.4481 13.9051 30.4856 14.3183 30.5044 14.7321C29.476 13.2677 28.1894 12.0028 26.7076 10.9995ZM30.5145 16.1821C30.4987 16.5483 30.4706 16.9144 30.4278 17.2795C30.2971 17.097 30.1608 16.9144 30.021 16.7365C30.1675 16.5798 30.3129 16.4188 30.4525 16.2554L30.5145 16.1821ZM25.7578 25.7193C25.4997 25.7441 25.2406 25.7622 24.9826 25.7735C25.0354 24.881 25.0063 23.9858 24.8959 23.0988L24.9342 23.0526C24.9381 23.0461 24.9427 23.0401 24.9477 23.0345C25.0344 22.9219 25.1201 22.8148 25.2023 22.7032L25.2214 22.6785V22.6694L25.253 22.6278C25.4992 22.2917 25.7279 21.9431 25.938 21.5833C26.0843 22.9635 26.0217 24.3579 25.7521 25.7193M21.7254 25.3047C21.6691 25.343 21.6128 25.3791 21.5508 25.4174C20.604 25.9941 19.5796 26.4327 18.5088 26.7198H18.4942C18.1821 26.8021 17.8666 26.8708 17.55 26.9282L17.2818 26.9733C17.2233 26.9835 17.1624 26.9925 17.1039 26.9992C15.658 27.2001 14.1873 27.1272 12.7685 26.7841C12.7392 26.7841 12.7098 26.7705 12.6828 26.7637C12.5634 26.7344 12.444 26.7006 12.3268 26.668C12.2592 26.6477 12.1916 26.6297 12.1241 26.6083C12.0902 26.5992 12.0564 26.588 12.0237 26.5767C10.7437 26.1717 9.54315 25.5489 8.47475 24.7357L8.41507 24.6896C8.35197 24.6434 8.29001 24.5927 8.22797 24.5431C7.25684 23.7597 6.4177 22.8254 5.74259 21.776L5.72457 21.7468C5.68288 21.6814 5.64232 21.6183 5.60176 21.5518C5.02762 20.6041 4.59028 19.58 4.30272 18.5099C4.30272 18.5042 4.30272 18.4997 4.30272 18.494C4.22047 18.1831 4.15287 17.8687 4.09541 17.551C4.07964 17.462 4.06386 17.373 4.05035 17.284C4.04021 17.2243 4.03231 17.1646 4.0233 17.1026C3.82392 15.6602 3.89614 14.1932 4.23624 12.7774C4.24526 12.7391 4.2554 12.7019 4.26441 12.6647C4.29257 12.5521 4.32187 12.4495 4.35116 12.3425C4.75252 10.9381 5.41324 9.62129 6.29916 8.45998C6.30519 8.45043 6.31197 8.44145 6.31944 8.43296C6.38028 8.35296 6.44112 8.27631 6.50534 8.19859L6.55717 8.13326C6.61801 8.06002 6.68111 7.98679 6.74306 7.90792C6.80503 7.82906 6.85573 7.77948 6.9132 7.71752L6.93122 7.69724C7.61206 6.94883 8.38732 6.29211 9.23752 5.7436L9.28936 5.71094C9.34789 5.67263 9.40201 5.6377 9.46397 5.59827C10.4109 5.02183 11.4352 4.58328 12.5059 4.29584H12.5217C12.8327 4.21247 13.147 4.14374 13.4647 4.08741C13.5538 4.07051 13.6416 4.05587 13.7307 4.04235C13.7915 4.03221 13.8512 4.02319 13.9131 4.0153C15.3596 3.81825 16.8302 3.8943 18.2485 4.23951L18.3342 4.26092C18.4536 4.29021 18.5719 4.32289 18.6891 4.35668L18.893 4.41527C18.9257 4.42428 18.9583 4.4378 18.9921 4.44795C20.2743 4.8524 21.4765 5.47604 22.5457 6.29116L22.5986 6.3306L22.7947 6.48608C23.7623 7.26605 24.599 8.19565 25.2733 9.23965C25.2845 9.25655 25.2958 9.27345 25.3059 9.29149C25.3432 9.34782 25.3792 9.40414 25.4187 9.4661C25.9957 10.4129 26.4347 11.4372 26.7222 12.5081V12.5239C26.8055 12.8337 26.8743 13.1503 26.9306 13.4669C26.9464 13.5559 26.9622 13.6449 26.9756 13.7339C26.9847 13.7936 26.9948 13.8533 27.0027 13.9142C27.2018 15.3597 27.1293 16.8296 26.7886 18.2485L26.765 18.3341C26.7357 18.4535 26.7041 18.5718 26.6703 18.6901C26.6512 18.7566 26.6321 18.8253 26.6118 18.8929C26.6016 18.9255 26.5893 18.9583 26.5791 18.9921C26.1738 20.2736 25.5507 21.4757 24.737 22.5455L24.6965 22.5974C24.6446 22.665 24.5928 22.7292 24.5398 22.7957C23.7595 23.7613 22.8299 24.5961 21.7863 25.2687C21.7699 25.2801 21.753 25.2906 21.7356 25.3002M27.5131 14.2364L27.5075 14.1756C27.5068 14.1711 27.5068 14.1665 27.5075 14.162C27.5018 14.1226 27.4962 14.0832 27.4917 14.0414C27.4872 13.9998 27.4805 13.9548 27.4759 13.9108C27.4714 13.8668 27.459 13.7903 27.45 13.7305V13.7035C27.45 13.681 27.4432 13.6596 27.441 13.6359C27.3756 13.2269 27.2934 12.8236 27.1886 12.427C28.2685 13.2984 29.2098 14.3286 29.9805 15.4825C29.8171 15.683 29.6425 15.8791 29.4712 16.0672C28.8756 15.3987 28.2201 14.7859 27.5131 14.2364ZM3.51518 16.7827C3.51518 16.8029 3.51518 16.8232 3.51518 16.8435C3.51573 16.8506 3.51573 16.8578 3.51518 16.8649C3.51518 16.8953 3.52306 16.9258 3.52644 16.9573C3.53433 17.0136 3.5411 17.0699 3.54898 17.1274C3.55687 17.1849 3.5625 17.2299 3.56926 17.2795V17.3065L3.58616 17.409C3.59742 17.4868 3.60982 17.5646 3.62334 17.6401C3.62386 17.6438 3.62386 17.6476 3.62334 17.6513C3.67968 17.9702 3.74953 18.2833 3.83065 18.5955C2.7549 17.7224 1.81676 16.6924 1.04779 15.54C1.21228 15.3394 1.38578 15.1433 1.55704 14.9541C2.15281 15.6219 2.80824 16.2339 3.51518 16.7827ZM27.5796 15.4093C28.0335 15.8052 28.4611 16.2305 28.8595 16.6823C28.4632 17.0618 28.044 17.4166 27.6044 17.7448C27.5503 17.5792 27.4984 17.4383 27.45 17.3054C27.543 16.6778 27.5863 16.0437 27.5796 15.4093ZM29.4104 17.3494C29.6165 17.613 29.8126 17.8868 29.9996 18.165C29.4462 18.8378 28.8301 19.4565 28.1598 20.0128C28.1441 19.9148 28.1283 19.8157 28.1103 19.7244C28.1103 19.712 28.1103 19.7019 28.1046 19.6895V19.6748C28.0866 19.5757 28.0663 19.4743 28.046 19.3739C28.0258 19.2737 28.0032 19.17 27.9784 19.0675L27.9491 18.9379C27.9277 18.8512 27.9041 18.7633 27.8827 18.6743L27.8736 18.6394L27.8669 18.6169C28.4101 18.2295 28.9255 17.8044 29.4093 17.3449M23.9743 6.90182C24.5745 6.86253 25.1767 6.86253 25.777 6.90182C25.7644 7.45053 25.7185 7.99797 25.6395 8.54112C25.4818 8.46227 25.3488 8.39802 25.2192 8.33941C24.841 7.82994 24.4236 7.35078 23.9709 6.90632M23.0943 6.12442L23.047 6.08611C23.0423 6.08098 23.037 6.07643 23.0312 6.07259C22.9186 5.98584 22.8059 5.89908 22.6933 5.81684L22.6685 5.79881C22.665 5.79721 22.6619 5.79491 22.6594 5.79205C22.6457 5.78117 22.6314 5.77102 22.6166 5.76163C22.2814 5.51542 21.9334 5.28677 21.5745 5.07663C22.9543 4.93037 24.3482 4.99304 25.7093 5.26252C25.7348 5.52015 25.7529 5.77816 25.7634 6.03654C24.871 5.98474 23.9757 6.01415 23.0887 6.12442M15.406 3.44409C15.801 2.98994 16.2259 2.56273 16.678 2.16533C17.0571 2.56121 17.4115 2.97999 17.7393 3.4193C17.5725 3.47451 17.4329 3.5252 17.301 3.57478C16.6737 3.48196 16.0401 3.43827 15.406 3.44409ZM17.3438 1.61326C17.6075 1.40821 17.8813 1.21217 18.1607 1.02401C18.8337 1.57742 19.4538 2.19223 20.0129 2.86048C19.9138 2.87625 19.8146 2.89202 19.7223 2.91005L19.6895 2.91569H19.6749C19.5747 2.93371 19.4721 2.95399 19.3718 2.97539C19.2716 2.9968 19.169 3.01821 19.0676 3.04187L18.9381 3.07116C18.8513 3.09144 18.7623 3.1151 18.6744 3.13764L18.6383 3.14778H18.6158C18.2289 2.60387 17.8038 2.08806 17.3438 1.60425M16.7264 0.990217C16.571 0.842625 16.4098 0.69841 16.2454 0.558703L16.1721 0.49561C16.5383 0.511383 16.9056 0.540677 17.2717 0.582364C17.087 0.714183 16.9056 0.849384 16.7264 0.990217ZM16.0605 1.55355C15.393 2.14789 14.781 2.8018 14.232 3.50718H14.223L14.1712 3.51281H14.1531C14.1216 3.51281 14.089 3.52183 14.0562 3.52408L13.8872 3.54549L13.7284 3.56802H13.7148L13.6089 3.58492C13.5312 3.59618 13.4534 3.6097 13.3769 3.62323H13.3667C13.049 3.68031 12.7343 3.74979 12.4226 3.83166C13.2946 2.75203 14.3247 1.8104 15.4781 1.03866C15.6787 1.20316 15.8747 1.37666 16.064 1.54791M8.33842 5.79205C7.8287 6.16991 7.34951 6.58731 6.90531 7.0404C6.86654 6.44014 6.86654 5.838 6.90531 5.23774C7.45368 5.24872 8.00083 5.29426 8.54348 5.37406C8.46462 5.53067 8.40038 5.66587 8.34291 5.79431M6.99093 4.37584C7.03262 4.0446 7.0867 3.71223 7.15317 3.38099C8.01999 3.2965 8.89279 3.29311 9.7603 3.37085C9.70283 3.45085 9.64764 3.53309 9.59017 3.61084C9.58283 3.61958 9.57646 3.62902 9.57099 3.639L9.56087 3.65252C9.50454 3.73476 9.44822 3.82039 9.39075 3.90602C9.33328 3.99165 9.27809 4.08065 9.22283 4.16853L9.15075 4.2812C9.1034 4.35894 9.05834 4.43667 9.01107 4.51554L8.99417 4.54709L8.98291 4.56849C8.32413 4.45822 7.65857 4.39386 6.99093 4.37584ZM5.37981 4.4209C5.65021 4.17304 5.92962 3.93306 6.21804 3.7066C6.17861 3.93193 6.14819 4.15726 6.12115 4.3826C5.90484 4.38936 5.68964 4.401 5.47557 4.41752C5.4429 4.41752 5.41135 4.41752 5.37981 4.42541M3.45096 15.6076C2.99377 15.2132 2.56355 14.7886 2.16319 14.3366C2.55921 13.9573 2.97839 13.6028 3.41829 13.2753C3.47237 13.4421 3.52306 13.5818 3.57264 13.7136C3.47924 14.3413 3.43554 14.9752 3.44195 15.6098M1.61112 13.6708C1.40607 13.4057 1.21003 13.1334 1.023 12.8539C1.57604 12.1796 2.19127 11.5587 2.86059 10.9995C2.87636 11.0987 2.89326 11.1978 2.91016 11.2902C2.91016 11.3014 2.91016 11.3104 2.91579 11.3228V11.3386C2.93495 11.4378 2.95297 11.5392 2.97438 11.6406C2.99579 11.7419 3.01832 11.8433 3.04085 11.9448L3.07128 12.0743C3.09268 12.161 3.11521 12.249 3.13775 12.3379L3.14789 12.3729C3.14789 12.3819 3.14789 12.3886 3.15465 12.3954C2.61062 12.7832 2.09447 13.2086 1.60999 13.6686M7.04614 24.1104C6.4459 24.1498 5.84373 24.1498 5.24348 24.1104C5.25429 23.562 5.3002 23.0148 5.38093 22.4723C5.53641 22.55 5.67161 22.6154 5.80005 22.6729C6.17791 23.1826 6.59531 23.6618 7.0484 24.1059M7.92382 24.8879C7.94036 24.9005 7.95617 24.914 7.97113 24.9284C7.97756 24.9319 7.98361 24.9361 7.98916 24.9408C8.10182 25.0276 8.20887 25.1132 8.32038 25.1954L8.34634 25.2146L8.35417 25.2214L8.39589 25.2507C8.73173 25.497 9.07997 25.726 9.43915 25.9368C8.05938 26.0831 6.66542 26.0204 5.30432 25.7509C5.27879 25.4925 5.26075 25.2341 5.25024 24.9757C6.14224 25.0287 7.03722 24.9992 7.92382 24.8879ZM15.6088 27.5682C15.2134 28.0227 14.7881 28.4503 14.3356 28.8481C13.956 28.4523 13.6015 28.0331 13.2743 27.593C13.4411 27.5378 13.5808 27.4871 13.7126 27.4386C14.3403 27.5316 14.9743 27.5749 15.6088 27.5682ZM13.6698 29.4001C13.4054 29.6052 13.1331 29.8016 12.8529 29.9894C12.1807 29.436 11.5614 28.8211 11.003 28.153C11.0987 28.1371 11.1979 28.1202 11.2903 28.1023H11.3241H11.3399C11.4401 28.0842 11.5404 28.0639 11.6407 28.0425C11.741 28.0211 11.8446 27.9997 11.946 27.9761L12.0756 27.9479L12.3403 27.8803L12.3741 27.8701L12.3989 27.8634C12.7862 28.4072 13.2108 28.9233 13.6698 29.4081M14.2861 30.0221C14.4438 30.1697 14.605 30.3139 14.7683 30.4525C14.7931 30.475 14.8167 30.4941 14.8415 30.5156C14.4753 30.4997 14.1081 30.4716 13.7441 30.4288C13.9278 30.2981 14.1092 30.1618 14.2861 30.0221ZM14.953 29.4588C15.6206 28.8648 16.2327 28.2112 16.7816 27.5063H16.7907H16.8436H16.8639L16.9461 27.4961L17.1377 27.4724L17.2796 27.4521H17.2999L17.4227 27.4341C17.4925 27.4228 17.5613 27.4116 17.6323 27.3981L17.6717 27.3913C17.9815 27.3361 18.2903 27.2674 18.5944 27.1874C17.7226 28.2668 16.6929 29.2083 15.5401 29.9804C15.3384 29.817 15.1435 29.6423 14.953 29.4712M22.6786 25.2281C23.1881 24.8499 23.6672 24.4326 24.1117 23.9797C24.1511 24.58 24.1511 25.1822 24.1117 25.7824C23.563 25.7708 23.0155 25.7253 22.4724 25.6461C22.5524 25.4895 22.6166 25.3543 22.6741 25.2259M24.0261 26.6443C23.9855 26.9744 23.9303 27.3068 23.865 27.638C22.9978 27.7231 22.1245 27.7265 21.2567 27.6482C21.3153 27.5682 21.3694 27.4859 21.4269 27.4094L21.4472 27.3812L21.4561 27.3688L21.6274 27.1142C21.6837 27.0263 21.7401 26.9384 21.7942 26.8505L21.8663 26.7379C21.9125 26.6601 21.9575 26.5812 22.0049 26.5035L22.024 26.4708C22.0273 26.4638 22.0311 26.457 22.0352 26.4505C22.6937 26.5604 23.3588 26.6247 24.0261 26.6432M24.8959 26.6432C25.1122 26.6432 25.3274 26.6252 25.5426 26.6094L25.6383 26.6004C25.3668 26.8482 25.0874 27.0882 24.799 27.3147C24.8361 27.0894 24.8699 26.8641 24.8959 26.6387M26.6118 20.2381C26.8018 19.7975 26.9654 19.3461 27.1018 18.8861C27.6084 20.7511 27.7299 22.6996 27.459 24.613C27.2067 24.9419 26.9415 25.2611 26.6636 25.5706C26.9712 23.8048 26.9536 21.9976 26.6118 20.2381ZM27.1627 18.6439C27.2585 18.2856 27.3396 17.924 27.4005 17.5556C27.4286 17.6321 27.4568 17.711 27.4861 17.8001C27.5818 18.0918 27.6697 18.3848 27.7463 18.6743L27.7565 18.7092C27.779 18.796 27.7992 18.8839 27.8207 18.9695L27.85 19.0991C27.8736 19.1993 27.8961 19.3007 27.9165 19.401C27.9367 19.5013 27.957 19.5982 27.9751 19.6984V19.7143C27.9774 19.7235 27.9793 19.7329 27.9807 19.7424C28.001 19.8551 28.019 19.9621 28.0381 20.0714C28.0877 20.397 28.1294 20.7316 28.1587 21.0696C28.1857 21.3885 28.2037 21.7073 28.2105 22.0171C28.2173 22.3946 28.2105 22.7708 28.1857 23.1438C28.1767 23.2992 28.1643 23.4548 28.1519 23.6091C27.9761 23.8829 27.7914 24.1488 27.5999 24.4102C27.8443 22.4796 27.6944 20.5194 27.1593 18.6484M25.9628 9.48635C25.7773 9.16643 25.5771 8.85394 25.3623 8.54896C25.4356 8.5839 25.511 8.61998 25.5966 8.6617C25.8693 8.79908 26.1374 8.94447 26.3977 9.09427L26.4293 9.11345L26.6546 9.25092L26.7672 9.3208C26.8552 9.37712 26.9418 9.43345 27.0275 9.48749C27.1131 9.54161 27.1976 9.60014 27.2799 9.65647L27.2945 9.66667C27.3017 9.67239 27.3092 9.67761 27.317 9.68243C27.4083 9.74439 27.4996 9.80969 27.5897 9.87508C27.8556 10.0677 28.1227 10.2761 28.3783 10.4948C28.6341 10.7133 28.8606 10.9127 29.0836 11.129C29.3552 11.3904 29.6177 11.6609 29.861 11.938C29.9647 12.0507 30.065 12.1734 30.1664 12.2929C30.2352 12.6106 30.2948 12.9272 30.3422 13.2483C29.149 11.7108 27.657 10.4308 25.9561 9.48529M27.6269 9.75337C27.5469 9.69484 27.4658 9.64072 27.3881 9.58439C27.3788 9.57688 27.369 9.5701 27.3587 9.56414L27.3463 9.55623C27.263 9.49761 27.1774 9.44357 27.0917 9.38496C27.0061 9.32643 26.9183 9.27231 26.8292 9.21598L26.7165 9.14504C26.641 9.09884 26.561 9.05378 26.4822 9.00529L26.4518 8.98725L26.4304 8.97598C26.5407 8.31769 26.6051 7.65246 26.6231 6.98519C26.9543 7.02688 27.2867 7.08095 27.6168 7.1463C27.7018 8.0131 27.7052 8.88594 27.6269 9.75337ZM26.6208 6.1154C26.614 5.89908 26.6016 5.68276 26.5847 5.4687C26.5847 5.43716 26.5847 5.4056 26.5769 5.37294C26.8258 5.64334 27.0658 5.92387 27.2934 6.21117C27.0681 6.17399 26.8427 6.14132 26.6174 6.1154M20.2214 4.40513C19.7788 4.21556 19.325 4.05338 18.8626 3.91954C20.7338 3.41158 22.689 3.29044 24.6085 3.56352C24.9383 3.81588 25.2579 4.08102 25.5673 4.35894C23.8032 4.0511 21.9977 4.06751 20.2394 4.40738M18.6451 3.85645C18.288 3.76068 17.9263 3.67956 17.5591 3.61872L17.8046 3.53196C18.0942 3.4362 18.3872 3.34945 18.6778 3.27171L18.7127 3.2627L18.973 3.19848L19.1014 3.16805C19.2017 3.14552 19.3031 3.12299 19.4034 3.10271C19.5036 3.08243 19.6017 3.06215 19.6997 3.04299H19.7177H19.7448C19.8574 3.02271 19.9645 3.00356 20.0749 2.98667C20.3993 2.93484 20.7351 2.8954 21.0731 2.86386C21.392 2.83794 21.7107 2.81991 22.0195 2.81428C22.397 2.80752 22.7755 2.81428 23.1462 2.83794C23.3016 2.84696 23.456 2.85935 23.6115 2.87174C23.883 3.0475 24.15 3.23115 24.4103 3.42268C22.4796 3.17925 20.5196 3.32949 18.6485 3.86433M11.0063 4.32289C10.559 4.50245 10.1229 4.70901 9.70054 4.94143C10.6614 3.26431 11.9537 1.80036 13.4985 0.638697C13.9109 0.583866 14.324 0.546311 14.7378 0.526031C13.2733 1.55564 12.0084 2.8434 11.0052 4.32627M9.4865 5.04958C9.16536 5.23548 8.85222 5.43378 8.54797 5.64897C8.58291 5.57686 8.61899 5.50138 8.66062 5.41687C8.79924 5.1431 8.94454 4.87383 9.09556 4.61469L9.11246 4.58315C9.15752 4.50653 9.20479 4.42991 9.25213 4.35781L9.32087 4.24515C9.37605 4.15726 9.43352 4.07051 9.48764 3.98376C9.54168 3.89701 9.6003 3.81364 9.65662 3.73138L9.66675 3.71787C9.67148 3.70963 9.67671 3.70173 9.6825 3.69421C9.7456 3.60294 9.80985 3.51056 9.87515 3.42156C10.0679 3.15566 10.2763 2.88864 10.4948 2.63289C10.7134 2.37714 10.914 2.15068 11.1292 1.9276C11.3906 1.65494 11.6632 1.39356 11.9392 1.15133C12.0519 1.04655 12.1736 0.946274 12.293 0.846005C12.6092 0.776149 12.9277 0.717187 13.2485 0.669116C11.7116 1.8604 10.432 3.35049 9.4865 5.04958ZM4.40524 10.7809C4.21517 11.2232 4.05299 11.677 3.91965 12.1397C3.41381 10.2747 3.2923 8.32627 3.5625 6.41285C3.81487 6.0816 4.07964 5.762 4.35679 5.45405C4.04894 7.21785 4.06536 9.023 4.40524 10.7809ZM3.85318 12.374C3.75742 12.7323 3.67742 13.0939 3.61433 13.4613C3.58728 13.3846 3.55912 13.3058 3.52982 13.2168C3.43293 12.925 3.34618 12.6331 3.26957 12.3436L3.25942 12.3076C3.23689 12.2204 3.21549 12.1337 3.19521 12.0472L3.16479 11.9188C3.14226 11.8186 3.11972 11.7172 3.09944 11.6157C3.07916 11.5143 3.05776 11.4186 3.03973 11.3195V11.3037C3.03837 11.2943 3.03837 11.2849 3.03973 11.2755C3.01832 11.1628 2.99917 11.0558 2.98227 10.9455C2.93044 10.621 2.88875 10.2852 2.86059 9.94831C2.83242 9.62831 2.81665 9.30953 2.80989 8.99965C2.802 8.62333 2.80989 8.24594 2.83242 7.873C2.84256 7.71865 2.85496 7.56316 2.86735 7.40881C3.04235 7.13616 3.226 6.86952 3.41829 6.60889C3.17261 8.54023 3.32054 10.5014 3.85318 12.374ZM5.04969 21.5349C5.23597 21.8564 5.43577 22.1689 5.64908 22.4723C5.57697 22.4385 5.50036 22.4013 5.41699 22.3597C5.14321 22.2222 4.87394 22.0769 4.6148 21.9259L4.58325 21.9078C4.50664 21.8628 4.43003 21.8155 4.35792 21.7693L4.24526 21.7006L3.985 21.5326C3.89937 21.4775 3.81599 21.42 3.73375 21.3659L3.71911 21.3535C3.71031 21.3498 3.7023 21.3444 3.69545 21.3378C3.60306 21.2758 3.51405 21.2104 3.42279 21.1462C3.1569 20.9525 2.88988 20.744 2.63413 20.5265C2.37838 20.3091 2.15191 20.1074 1.92884 19.8922C1.65618 19.6297 1.3948 19.3593 1.15031 19.0822C1.04666 18.9695 0.947513 18.8467 0.847244 18.7284C0.777389 18.4107 0.719929 18.093 0.670355 17.773C1.86328 19.3103 3.35533 20.5901 5.05645 21.5349M3.38674 21.2668C3.4656 21.3254 3.54673 21.3794 3.62447 21.4369C3.63348 21.4437 3.64362 21.4493 3.65151 21.4561L3.66502 21.465C3.74952 21.5225 3.83515 21.5777 3.91965 21.6352C4.00415 21.6926 4.09428 21.7478 4.18217 21.8053L4.29483 21.8752C4.37144 21.9225 4.4503 21.9676 4.52693 22.0148L4.56072 22.0329C4.56708 22.0374 4.57387 22.0411 4.58101 22.0441C4.47064 22.7024 4.40664 23.3677 4.38947 24.035C4.05147 23.9933 3.72474 23.9403 3.39462 23.8739C3.30882 23.0071 3.30581 22.1341 3.38561 21.2668M4.39173 24.9059C4.39173 25.121 4.40862 25.3374 4.42552 25.5515C4.42552 25.5841 4.43228 25.6157 4.43341 25.6472C4.18555 25.3768 3.94744 25.0978 3.71911 24.8101C3.94444 24.8477 4.16977 24.8796 4.3951 24.9059M10.789 26.6161C11.232 26.8054 11.6861 26.9676 12.1488 27.1018C10.2833 27.6071 8.33466 27.7286 6.42084 27.4589C6.09186 27.2065 5.77076 26.9418 5.46205 26.6635C7.22583 26.9712 9.03091 26.9551 10.789 26.6161ZM12.3832 27.1671C12.7414 27.2618 13.1042 27.3428 13.4703 27.4059C13.3949 27.4319 13.3149 27.4611 13.2258 27.4904C12.9352 27.5862 12.6423 27.6741 12.3516 27.7507L12.3178 27.7609L12.0575 27.824L11.9291 27.8543C11.8266 27.8769 11.7252 27.9006 11.6272 27.9197C11.5291 27.9388 11.4277 27.9614 11.3286 27.9806H11.3128L11.2846 27.9862C11.172 28.0054 11.065 28.0245 10.9556 28.0414C10.629 28.0932 10.2943 28.1349 9.9563 28.1642C9.63744 28.1924 9.31973 28.2081 9.00993 28.2138C8.63246 28.2228 8.25507 28.2138 7.88325 28.1924C7.72777 28.1823 7.57342 28.1687 7.41906 28.1575C7.14491 27.9817 6.87751 27.798 6.61688 27.6065C8.54797 27.849 10.5081 27.6987 12.3797 27.1649M20.0241 26.7052C20.4715 26.5267 20.9072 26.3205 21.3289 26.0877C20.3681 27.7642 19.0762 29.2278 17.532 30.3894C17.1196 30.4457 16.7065 30.4832 16.2927 30.502C17.7578 29.4726 19.0228 28.1844 20.0253 26.7006M21.5418 25.9638C21.8641 25.7768 22.175 25.5785 22.4792 25.3633C22.4454 25.4366 22.4082 25.5131 22.3665 25.5954C22.229 25.8703 22.0849 26.1396 21.9327 26.3988L21.9147 26.4291C21.8685 26.508 21.8235 26.5835 21.7773 26.6545L21.7074 26.7672C21.6511 26.855 21.5947 26.9429 21.5396 27.0286C21.4843 27.1142 21.4268 27.1987 21.3716 27.2809L21.3615 27.2933C21.3567 27.3019 21.3515 27.3101 21.3458 27.3181C21.2838 27.4104 21.2173 27.5006 21.1531 27.5908C20.9605 27.8555 20.7509 28.1225 20.5334 28.3794C20.316 28.6363 20.1143 28.8605 19.9002 29.0847C19.6378 29.3562 19.3662 29.6176 19.089 29.8621C18.9764 29.9657 18.8547 30.066 18.7352 30.1663C18.4187 30.2361 18.0998 30.2936 17.7799 30.3432C19.3172 29.1503 20.597 27.6582 21.5418 25.957" fill="black"/>
</g>
<defs>
<clipPath id="clip0_53_12">
<rect width="31.0204" height="40" fill="white"/>
</clipPath>
</defs>
</svg>
