<svg width="6" height="6" viewBox="0 0 6 6" fill="none" xmlns="http://www.w3.org/2000/svg">
<path d="M5.81419 2.4919C5.78716 2.42156 5.75653 2.35129 5.72407 2.28279C5.64949 2.12938 5.55885 1.98434 5.45364 1.85013C5.41047 1.79345 5.3645 1.73898 5.31578 1.687C5.286 1.65278 5.25361 1.61758 5.21932 1.58336C5.14827 1.51257 5.07336 1.44576 4.99486 1.38326C4.93948 1.33729 4.88175 1.29425 4.82187 1.25434C4.67832 1.15684 4.52486 1.07495 4.36394 1.0101C4.29014 0.981106 4.21498 0.955831 4.13864 0.934411C3.94089 0.878835 3.73726 0.846769 3.53201 0.838867C3.49419 0.838867 3.4554 0.838867 3.41668 0.838867C3.37788 0.838867 3.32655 0.838867 3.28868 0.838867C3.08401 0.846639 2.88117 0.879946 2.68479 0.938003C2.6091 0.95962 2.53334 0.984892 2.46033 1.01369C2.29974 1.07913 2.14628 1.16096 2.00247 1.25794C1.94389 1.29849 1.88623 1.34179 1.82941 1.38685C1.75183 1.44935 1.67783 1.51616 1.6077 1.58695C1.57341 1.62032 1.54102 1.65546 1.50947 1.68968C1.45984 1.74375 1.41393 1.79789 1.37063 1.85288C1.26608 1.98688 1.1755 2.13121 1.10027 2.2837C1.0665 2.35234 1.0364 2.42274 1.01008 2.49457C0.941116 2.67652 0.895402 2.86636 0.873982 3.05973C0.862423 3.1539 0.856414 3.24873 0.855957 3.34362V3.38333C0.85661 3.47815 0.862292 3.57297 0.873133 3.66721C0.894096 3.86195 0.939222 4.0533 1.0074 4.23688C1.03385 4.30839 1.06389 4.37846 1.09752 4.4469C1.17302 4.60057 1.2636 4.7464 1.36796 4.88223C1.41119 4.93898 1.45808 4.99397 1.50406 5.04804C1.5356 5.08501 1.56897 5.12106 1.6041 5.1571C1.67352 5.22835 1.74562 5.29595 1.81863 5.35812C1.87356 5.40318 1.93129 5.44824 1.98804 5.48879C2.12851 5.5895 2.27963 5.67446 2.43872 5.74205C2.51114 5.77222 2.5852 5.79841 2.66043 5.82048C2.8555 5.88044 3.05769 5.9144 3.26164 5.92145H3.36352H3.45632H3.56446C3.76861 5.91361 3.97086 5.87998 4.16659 5.8214C4.24221 5.79913 4.31653 5.77268 4.38921 5.74205C4.54823 5.67557 4.69942 5.59152 4.83989 5.49154C4.89664 5.45183 4.95431 5.40677 5.0093 5.35995C5.08492 5.29706 5.15708 5.23031 5.22565 5.15985C5.25988 5.1238 5.29416 5.08775 5.3257 5.05079C5.37344 4.99671 5.41583 4.94081 5.46089 4.88491C5.56557 4.74907 5.65622 4.60292 5.73126 4.44866C5.76489 4.37996 5.79493 4.30956 5.82144 4.23779C5.88845 4.05356 5.93325 3.86202 5.9548 3.66721C5.96472 3.57709 5.97106 3.47972 5.97191 3.38333V3.34995C5.97106 3.25474 5.96505 3.15965 5.95388 3.06515C5.93214 2.87093 5.88734 2.68004 5.82053 2.4964" fill="black"/>
</svg>
