<svg width="25" height="25" viewBox="0 0 25 25" fill="none" xmlns="http://www.w3.org/2000/svg">
<path d="M24.7188 13.9933C24.8365 13.0584 24.8483 12.1132 24.7539 11.1757C24.7539 11.1477 24.7476 11.1198 24.744 11.0937C24.7377 11.0161 24.7287 10.9395 24.7188 10.862C24.7188 10.8386 24.7125 10.8151 24.7098 10.7918C24.707 10.7683 24.7008 10.7268 24.6954 10.6944C24.6875 10.6295 24.6785 10.5646 24.6683 10.4997C24.6584 10.4348 24.6467 10.3708 24.6368 10.305C24.6295 10.2672 24.6233 10.2302 24.616 10.1923L24.6052 10.1301C24.5935 10.0671 24.58 10.0021 24.5674 9.93814C24.5674 9.91835 24.5602 9.90033 24.5557 9.88047C24.5512 9.86062 24.543 9.81922 24.5358 9.79035L24.5313 9.76423C24.1411 7.97171 23.3569 6.28852 22.2356 4.83664C21.6576 4.09083 20.9969 3.41291 20.2662 2.81585L20.2076 2.76087L20.0147 2.60765H20.0084C20.0065 2.60481 20.004 2.60236 20.0012 2.60043C19.9678 2.5743 19.9336 2.54997 19.8993 2.52472C19.8399 2.47966 19.7813 2.43459 19.7191 2.39043C19.6759 2.35798 19.629 2.32733 19.5857 2.29489L19.4748 2.21647C19.455 2.20295 19.4343 2.18763 19.4144 2.17501C19.3667 2.14166 19.318 2.11012 19.2693 2.07767L19.1963 2.02899L19.1639 2.00826C19.1458 1.99564 19.1278 1.98302 19.1071 1.97131L19.0999 1.9659C17.5586 0.975696 15.8163 0.34084 13.9993 0.107357H13.9948C13.0599 -0.0106446 12.1147 -0.0227384 11.1772 0.0713036L11.0952 0.0812177C11.0159 0.0893294 10.9374 0.0974418 10.859 0.107357H10.8491H10.8374L10.6968 0.127186C10.6283 0.136199 10.5607 0.146114 10.494 0.15693C10.439 0.16414 10.384 0.174056 10.3308 0.18397C10.2777 0.193885 10.2407 0.198391 10.1939 0.207404L10.1244 0.220023C10.0668 0.229937 10.01 0.241655 9.95322 0.253372L9.86303 0.270498C9.84886 0.274453 9.83443 0.277464 9.8198 0.279511L9.75939 0.292129H9.75129C7.9606 0.679696 6.27883 1.46147 4.82822 2.58061H4.82281C4.07767 3.15651 3.40115 3.8161 2.80654 4.54641L2.75156 4.6113C2.70379 4.6735 2.65331 4.73569 2.60464 4.79698C2.60464 4.79698 2.60464 4.80239 2.60464 4.80419L2.59743 4.8141L2.5073 4.92587C2.46584 4.98175 2.42438 5.03583 2.38471 5.09171L2.28738 5.22692C2.26033 5.26387 2.2342 5.30172 2.20805 5.34048L2.1684 5.39637C2.13505 5.44504 2.1035 5.4937 2.07106 5.54328L2.02148 5.61628C2.01337 5.62891 2.00436 5.64243 1.99715 5.65504L1.9629 5.70462V5.71183C0.971497 7.25327 0.336269 8.99636 0.10345 10.8143C-0.0145509 11.7491 -0.0266446 12.6943 0.0673974 13.6318C0.0673974 13.6589 0.0737067 13.6868 0.0773122 13.7147C0.0854239 13.7941 0.0944368 13.8725 0.10345 13.95C0.103847 13.953 0.103847 13.956 0.10345 13.959C0.10345 13.9635 0.10345 13.9671 0.10345 13.9707C0.10976 14.0176 0.11697 14.0608 0.123279 14.1113C0.133194 14.1798 0.142208 14.2474 0.153024 14.315C0.16384 14.3826 0.170149 14.4241 0.180064 14.4772C0.189978 14.5305 0.195386 14.5674 0.202597 14.6152C0.202597 14.6386 0.21161 14.6611 0.215216 14.6837C0.226032 14.7413 0.237749 14.7982 0.249466 14.8558C0.254874 14.8847 0.261183 14.9144 0.266591 14.9459C0.271999 14.9775 0.272901 14.9757 0.275604 14.9919C0.280856 15.0112 0.285068 15.0308 0.288223 15.0505V15.0586C0.677319 16.8494 1.46064 18.5309 2.58121 19.9808C2.58065 19.9822 2.58065 19.9839 2.58121 19.9853C3.15805 20.7299 3.81754 21.4066 4.54701 22.0025L4.6128 22.0556L4.79758 22.2026L4.80659 22.2098L4.8147 22.2152C4.85166 22.2449 4.89041 22.2729 4.92827 22.3053C4.98235 22.3468 5.03733 22.3882 5.09321 22.4279C5.1491 22.4676 5.18335 22.4928 5.22661 22.5243L5.34108 22.6037C5.35926 22.6182 5.37822 22.6318 5.39787 22.6442L5.54298 22.7415C5.56732 22.7587 5.59345 22.7749 5.61779 22.7912C5.62956 22.7998 5.6419 22.8076 5.65474 22.8145L5.70522 22.8488L5.71243 22.8533C7.25412 23.8449 8.99753 24.4801 10.8158 24.7128C11.656 24.8198 12.505 24.8404 13.3494 24.7741C13.4395 24.766 13.5296 24.7587 13.6198 24.7497C13.6531 24.7497 13.6874 24.7416 13.7216 24.7389C13.7947 24.7299 13.8677 24.7236 13.9407 24.7136L14.1372 24.6866L14.2805 24.6668L14.3138 24.6605C14.3616 24.6542 14.4094 24.6461 14.4589 24.637L14.6157 24.6109L14.6788 24.5992L14.842 24.5659L14.9502 24.5442L14.9826 24.5379L15.0412 24.5253H15.0502C16.8408 24.1358 18.5222 23.3525 19.9724 22.2323H19.9769C19.9765 22.2308 19.9765 22.2293 19.9769 22.2278C20.7273 21.6531 21.4095 20.9945 22.0103 20.2647C22.0274 20.2422 22.0454 20.2205 22.0625 20.1989C22.113 20.1367 22.1617 20.0763 22.2113 20.0132L22.2176 20.0051L22.2239 19.997L22.3086 19.8843C22.351 19.8293 22.3925 19.7744 22.433 19.7185L22.5286 19.5851C22.5547 19.5473 22.5817 19.5085 22.6097 19.4698L22.6484 19.4139C22.6827 19.3652 22.7142 19.3165 22.7458 19.2687C22.7629 19.2444 22.7791 19.2192 22.7953 19.193C22.8025 19.1813 22.8115 19.1687 22.8205 19.1561C22.8296 19.1434 22.8431 19.1227 22.8539 19.1065L22.8584 19.0984C23.8479 17.5563 24.4819 15.8134 24.7143 13.9959M18.2247 22.9273C17.9624 23.0724 17.6947 23.2066 17.4243 23.3311C16.9525 23.357 16.4796 23.3528 16.0083 23.3184C16.1706 23.1472 16.3328 22.9678 16.4896 22.7822L16.5113 22.756C17.128 22.8351 17.7501 22.8653 18.3716 22.8461L18.3257 22.8723L18.2247 22.9281M9.08883 23.962C8.80161 23.879 8.51825 23.7856 8.23887 23.6817C7.88693 23.3666 7.55576 23.0291 7.24739 22.6713C7.48445 22.6658 7.72602 22.6523 7.96843 22.6325H8.00089C8.38071 23.1249 8.79972 23.5857 9.25372 24.0106L9.20148 23.998C9.16452 23.9872 9.12755 23.9755 9.09059 23.9656M1.88628 18.2205C1.86104 18.1763 1.83491 18.1303 1.81057 18.0853C1.6979 17.8735 1.59245 17.658 1.4906 17.4391C1.46505 16.967 1.46926 16.4937 1.50322 16.0221C1.67447 16.1844 1.85474 16.3466 2.04401 16.5043L2.07015 16.5242C1.99102 17.1413 1.96088 17.7636 1.98002 18.3854C1.97273 18.3738 1.96611 18.3618 1.96019 18.3494C1.93675 18.3079 1.91332 18.2664 1.89079 18.2241M0.854259 9.12064C0.938079 8.825 1.03452 8.53301 1.14178 8.24815C1.45609 7.89582 1.79332 7.56459 2.15127 7.25673C2.15668 7.49197 2.1702 7.73438 2.19003 7.97778C2.19003 7.98862 2.19003 7.9994 2.19003 8.00932C1.69798 8.3866 1.23601 8.80155 0.80829 9.25047C0.80829 9.23335 0.818204 9.21618 0.821809 9.19907C0.825413 9.18196 0.838938 9.13957 0.847951 9.10895M6.58492 1.88839C6.84752 1.74417 7.11371 1.60988 7.38349 1.48549C7.85617 1.45904 8.33003 1.46325 8.8022 1.49811C8.63815 1.66846 8.47684 1.84873 8.31906 2.03891L8.29927 2.06505C7.68213 1.98633 7.05983 1.9562 6.438 1.97491C6.45783 1.965 6.47676 1.95328 6.49658 1.94246L6.58675 1.89289M15.728 0.853659C16.0158 0.937179 16.2991 1.03062 16.5779 1.13397C16.9297 1.44956 17.2608 1.78735 17.5694 2.14526C17.3342 2.15067 17.0909 2.1642 16.8484 2.18402H16.8159C16.4358 1.69192 16.0168 1.23106 15.5631 0.805887C15.5801 0.80944 15.597 0.813952 15.6136 0.819405L15.7262 0.850054M22.9243 6.5816C23.0666 6.84387 23.2027 7.11071 23.3253 7.38108C23.3516 7.85318 23.3477 8.32645 23.3136 8.79796C23.1424 8.63482 22.9621 8.47352 22.7728 8.3158C22.7647 8.30855 22.7557 8.30313 22.7476 8.29504C22.8262 7.67822 22.8564 7.05624 22.8377 6.43469L22.8638 6.48066C22.8837 6.51401 22.9017 6.54829 22.9215 6.5816M23.958 15.7238C23.8739 16.0123 23.7802 16.2956 23.6768 16.5738C23.362 16.9259 23.0245 17.2571 22.6664 17.5652C22.6611 17.3291 22.6476 17.0875 22.6277 16.8441C22.6277 16.8324 22.6277 16.8216 22.6277 16.8117C23.1199 16.4311 23.581 16.0118 24.0067 15.558C24.0022 15.576 23.9977 15.5922 23.9923 15.6093C23.9824 15.6472 23.9716 15.6842 23.9616 15.7211M3.44919 16.0095C3.59259 16.3667 3.75723 16.7149 3.94221 17.0524C2.60124 16.2833 1.43072 15.2496 0.501838 14.014C0.456771 13.6841 0.425225 13.3542 0.411705 13.0225C1.23494 14.1954 2.26556 15.208 3.4528 16.0104M0.406297 11.8688C0.419817 11.5759 0.442351 11.2821 0.4757 10.99C0.581155 11.137 0.689315 11.2821 0.801982 11.4254C0.683908 11.5498 0.568536 11.6786 0.456771 11.8102C0.440547 11.8282 0.424323 11.849 0.406297 11.8688ZM4.21261 4.23815C4.41932 4.21832 4.62603 4.2042 4.83273 4.19579C4.78992 4.90938 4.81346 5.62541 4.90304 6.33464L4.87059 6.3734C4.86766 6.37818 4.86434 6.3827 4.86067 6.38692C4.79127 6.47706 4.72367 6.56181 4.65787 6.65102L4.64165 6.67172L4.63624 6.67897C4.62813 6.68975 4.62092 6.7015 4.6119 6.71319C4.41482 6.98121 4.23219 7.25948 4.0648 7.54695C3.94662 6.44288 3.99646 5.32728 4.21261 4.23815ZM21.3659 8.79979C21.2219 8.44269 21.057 8.09448 20.8719 7.75691C22.2137 8.52485 23.3847 9.55838 24.3132 10.7944C24.3582 11.1243 24.3883 11.4548 24.4033 11.7859C23.5806 10.6143 22.5513 9.60246 21.3659 8.79979ZM24.4114 12.9459C24.3988 13.2388 24.3763 13.5317 24.3421 13.8238C24.2375 13.6778 24.1284 13.5317 24.0166 13.3894C24.1338 13.264 24.2501 13.1352 24.3618 13.0045L24.4114 12.9459ZM20.606 20.5757C20.3996 20.5955 20.1923 20.6099 19.9859 20.619C20.0281 19.905 20.0049 19.1888 19.9165 18.4792L19.9471 18.4422C19.9503 18.4371 19.9539 18.4322 19.958 18.4278C20.0273 18.3377 20.0958 18.2521 20.1617 18.1628L20.177 18.143V18.1358L20.2022 18.1024C20.3992 17.8336 20.5821 17.5547 20.7502 17.2669C20.8672 18.371 20.8172 19.4865 20.6015 20.5757M17.3802 20.244C17.3351 20.2746 17.29 20.3035 17.2405 20.3341C16.483 20.7955 15.6635 21.1464 14.8068 21.376H14.7951C14.5455 21.4419 14.2931 21.4968 14.0398 21.5428L13.8253 21.5788C13.7785 21.587 13.7297 21.5942 13.6829 21.5996C12.5262 21.7603 11.3497 21.7019 10.2146 21.4274C10.1911 21.4274 10.1677 21.4166 10.1461 21.4112C10.0505 21.3877 9.95498 21.3607 9.86127 21.3346C9.80719 21.3184 9.75312 21.304 9.69905 21.2868C9.67194 21.2796 9.64491 21.2706 9.61878 21.2616C8.59478 20.9375 7.63433 20.4393 6.7796 19.7888L6.73186 19.7519C6.68138 19.7149 6.63181 19.6744 6.58218 19.6347C5.80528 19.0079 5.13397 18.2605 4.59388 17.421L4.57946 17.3976C4.54611 17.3453 4.51366 17.2948 4.48121 17.2416C4.0219 16.4834 3.67203 15.6642 3.44198 14.8081C3.44198 14.8036 3.44198 14.7999 3.44198 14.7954C3.37618 14.5467 3.3221 14.2952 3.27613 14.041C3.26351 13.9698 3.2509 13.8986 3.24008 13.8274C3.23197 13.7796 3.22565 13.7318 3.21845 13.6823C3.05894 12.5284 3.11672 11.3548 3.3888 10.2221C3.39601 10.1915 3.40412 10.1617 3.41133 10.132C3.43386 10.0418 3.4573 9.95982 3.48073 9.8742C3.80182 8.75068 4.33039 7.69722 5.03913 6.76818C5.04396 6.76054 5.04938 6.75336 5.05536 6.74656C5.10403 6.68256 5.1527 6.62124 5.20408 6.55907L5.24554 6.5068C5.29421 6.44821 5.34469 6.38963 5.39426 6.32653C5.44383 6.26344 5.48439 6.22378 5.53036 6.17421L5.54478 6.15799C6.08945 5.55926 6.70966 5.03388 7.38982 4.59508L7.43129 4.56894C7.47812 4.5383 7.52141 4.51036 7.57098 4.47881C8.32853 4.01766 9.14799 3.66682 10.0045 3.43687H10.0172C10.266 3.37017 10.5174 3.31519 10.7716 3.27012C10.8428 3.2566 10.9131 3.24489 10.9843 3.23407C11.033 3.22596 11.0807 3.21875 11.1303 3.21244C12.2875 3.05479 13.4639 3.11563 14.5986 3.39181L14.6671 3.40893C14.7627 3.43236 14.8573 3.4585 14.9511 3.48554L15.1142 3.53241C15.1404 3.53962 15.1665 3.55044 15.1935 3.55855C16.2192 3.88211 17.181 4.38102 18.0364 5.03313L18.0787 5.06468L18.2355 5.18906C19.0096 5.81303 19.679 6.55672 20.2184 7.39192C20.2274 7.40544 20.2364 7.41895 20.2445 7.43339C20.2743 7.47845 20.3032 7.52351 20.3347 7.57308C20.7964 8.3305 21.1475 9.14996 21.3775 10.0066V10.0193C21.4442 10.2672 21.4992 10.5204 21.5443 10.7737C21.5569 10.8449 21.5695 10.9161 21.5803 10.9873C21.5876 11.0351 21.5957 11.0828 21.602 11.1315C21.7613 12.2879 21.7032 13.4639 21.4307 14.599L21.4118 14.6675C21.3884 14.763 21.3631 14.8576 21.3361 14.9523C21.3208 15.0054 21.3054 15.0604 21.2892 15.1145C21.2811 15.1406 21.2712 15.1668 21.2631 15.1938C20.9389 16.2191 20.4404 17.1808 19.7894 18.0366L19.757 18.0781C19.7155 18.1322 19.674 18.1836 19.6316 18.2367C19.0074 19.0092 18.2637 19.6771 17.4288 20.2152C17.4157 20.2242 17.4022 20.2327 17.3883 20.2404M22.0103 11.3893L22.0058 11.3407C22.0053 11.3371 22.0053 11.3334 22.0058 11.3298C22.0013 11.2983 21.9968 11.2667 21.9932 11.2334C21.9895 11.2 21.9842 11.164 21.9805 11.1288C21.9769 11.0937 21.967 11.0324 21.9598 10.9846V10.963C21.9598 10.945 21.9544 10.9279 21.9526 10.9089C21.9003 10.5817 21.8346 10.2591 21.7507 9.9418C22.6146 10.6389 23.3676 11.4631 23.9842 12.3862C23.8535 12.5466 23.7138 12.7035 23.5768 12.854C23.1003 12.3191 22.5759 11.8289 22.0103 11.3893ZM2.81195 13.4263C2.81195 13.4425 2.81195 13.4588 2.81195 13.475C2.81238 13.4807 2.81238 13.4864 2.81195 13.4921C2.81195 13.5165 2.81826 13.5408 2.82096 13.566C2.82727 13.6111 2.83268 13.6561 2.83899 13.7021C2.8453 13.7481 2.84981 13.7841 2.85521 13.8238V13.8454L2.86873 13.9274C2.87774 13.9897 2.88766 14.0518 2.89848 14.1122C2.8989 14.1152 2.8989 14.1183 2.89848 14.1213C2.94355 14.3763 2.99943 14.6269 3.06432 14.8766C2.20373 14.1781 1.45321 13.3541 0.838037 12.4322C0.969629 12.2717 1.10843 12.1149 1.24544 11.9635C1.72205 12.4977 2.2464 12.9873 2.81195 13.4263ZM22.0635 12.3276C22.4266 12.6444 22.7687 12.9846 23.0874 13.3461C22.7703 13.6496 22.435 13.9335 22.0833 14.196C22.04 14.0635 21.9985 13.9509 21.9598 13.8446C22.0342 13.3424 22.0689 12.8352 22.0635 12.3276ZM23.5281 13.8797C23.693 14.0906 23.8499 14.3096 23.9995 14.5322C23.5567 15.0704 23.0639 15.5654 22.5276 16.0104C22.515 15.932 22.5024 15.8527 22.488 15.7797C22.488 15.7698 22.488 15.7617 22.4835 15.7518V15.74C22.4691 15.6607 22.4528 15.5796 22.4366 15.4993C22.4204 15.4192 22.4024 15.3362 22.3825 15.2542L22.3591 15.1505C22.342 15.0811 22.323 15.0109 22.3059 14.9397L22.2987 14.9117L22.2933 14.8937C22.7279 14.5838 23.1402 14.2437 23.5272 13.8761M19.1792 5.52165C19.6594 5.49022 20.1412 5.49022 20.6214 5.52165C20.6113 5.96062 20.5746 6.39857 20.5114 6.83309C20.3852 6.77001 20.2788 6.71861 20.1752 6.67172C19.8726 6.26415 19.5387 5.88082 19.1765 5.52525M18.4753 4.89973L18.4374 4.86908C18.4337 4.86498 18.4294 4.86134 18.4248 4.85827C18.3347 4.78887 18.2445 4.71946 18.1544 4.65366L18.1346 4.63925C18.1318 4.63797 18.1293 4.63612 18.1273 4.63384C18.1164 4.62513 18.1049 4.61701 18.0931 4.6095C17.8249 4.41253 17.5466 4.22961 17.2594 4.0615C18.3632 3.94449 19.4784 3.99463 20.5672 4.21021C20.5877 4.41632 20.6021 4.62272 20.6105 4.82942C19.8966 4.78799 19.1804 4.81152 18.4708 4.89973M12.3246 2.75546C12.6406 2.39215 12.9805 2.05038 13.3422 1.73246C13.6455 2.04917 13.929 2.38419 14.1913 2.73564C14.0578 2.7798 13.9461 2.82036 13.8406 2.86002C13.3388 2.78577 12.8319 2.75081 12.3246 2.75546ZM13.8749 1.2908C14.0858 1.12676 14.3048 0.96993 14.5284 0.819405C15.0668 1.26214 15.5628 1.75398 16.0101 2.28858C15.9308 2.30119 15.8515 2.31381 15.7776 2.32823L15.7514 2.33274H15.7397C15.6595 2.34716 15.5775 2.36339 15.4972 2.38051C15.4171 2.39764 15.335 2.41476 15.2539 2.43369L15.1503 2.45713C15.0809 2.47335 15.0097 2.49227 14.9393 2.51031L14.9105 2.51842H14.8924C14.5829 2.08329 14.2429 1.67064 13.8749 1.28359M13.3809 0.792369C13.2566 0.674295 13.1277 0.558924 12.9961 0.447158L12.9375 0.396684C13.2304 0.409302 13.5243 0.432737 13.8172 0.466086C13.6694 0.571542 13.5243 0.679703 13.3809 0.792369ZM12.8482 1.24303C12.3142 1.71851 11.8246 2.24164 11.3854 2.80594H11.3782L11.3367 2.81045H11.3223C11.2971 2.81045 11.271 2.81766 11.2448 2.81946L11.1096 2.83659L10.9825 2.85461H10.9717L10.887 2.86813C10.8248 2.87714 10.7626 2.88796 10.7013 2.89878H10.6932C10.439 2.94444 10.1872 3.00003 9.93787 3.06552C10.6355 2.20182 11.4596 1.44851 12.3823 0.831121C12.5427 0.96272 12.6995 1.10152 12.851 1.23853M6.67054 4.63384C6.26276 4.93612 5.87941 5.27004 5.52405 5.63251C5.49304 5.1523 5.49304 4.67059 5.52405 4.19038C5.96275 4.19917 6.40047 4.2356 6.83459 4.29944C6.7715 4.42473 6.72011 4.53289 6.67413 4.63564M5.59255 3.50087C5.6259 3.23588 5.66916 2.96998 5.72234 2.70499C6.4158 2.6374 7.11403 2.63468 7.80804 2.69688C7.76207 2.76087 7.71792 2.82667 7.67194 2.88886C7.66607 2.89586 7.66097 2.90341 7.6566 2.9114L7.6485 2.92221C7.60344 2.98801 7.55838 3.05651 7.5124 3.12501C7.46643 3.19351 7.42228 3.26471 7.37807 3.33502L7.3204 3.42515C7.28252 3.48734 7.24647 3.54953 7.20866 3.61263L7.19514 3.63787L7.18613 3.65499C6.65911 3.56678 6.12666 3.51528 5.59255 3.50087ZM4.30365 3.53692C4.51997 3.33863 4.7435 3.14664 4.97424 2.96548C4.94269 3.14574 4.91836 3.326 4.89673 3.50628C4.72367 3.51168 4.55151 3.521 4.38026 3.53421C4.35413 3.53421 4.32888 3.53421 4.30365 3.54052M2.76057 12.4863C2.39482 12.1708 2.05065 11.8311 1.73035 11.4695C2.04717 11.166 2.38251 10.8825 2.73444 10.6205C2.7777 10.7539 2.81826 10.8656 2.85792 10.9711C2.78319 11.4732 2.74823 11.9804 2.75336 12.488M1.2887 10.9369C1.12466 10.7248 0.967826 10.5069 0.818204 10.2833C1.26063 9.74385 1.75282 9.24713 2.28828 8.79979C2.30089 8.87913 2.31441 8.95842 2.32793 9.03234C2.32793 9.04135 2.32793 9.04854 2.33244 9.05846V9.07107C2.34776 9.15042 2.36218 9.23153 2.37931 9.31264C2.39644 9.39375 2.41446 9.47486 2.43249 9.55603L2.45683 9.65967C2.47395 9.72903 2.49197 9.79936 2.51 9.87055L2.51812 9.8985C2.51812 9.90575 2.51812 9.9111 2.52352 9.91652C2.0883 10.2267 1.67538 10.567 1.2878 10.935M5.63672 19.2885C5.15652 19.32 4.67478 19.32 4.19459 19.2885C4.20324 18.8498 4.23996 18.4121 4.30455 17.978C4.42893 18.0402 4.53709 18.0925 4.63985 18.1385C4.94213 18.5463 5.27605 18.9296 5.63852 19.2849M6.33886 19.9105C6.35209 19.9206 6.36474 19.9314 6.37671 19.9429C6.38185 19.9457 6.38669 19.949 6.39113 19.9528C6.48126 20.0223 6.5669 20.0908 6.65611 20.1565L6.67687 20.1719L6.68314 20.1773L6.71652 20.2007C6.98518 20.3978 7.26378 20.581 7.55113 20.7496C6.44731 20.8667 5.33214 20.8165 4.24326 20.6009C4.22283 20.3942 4.20841 20.1875 4.2 19.9808C4.9136 20.0232 5.62958 19.9996 6.33886 19.9105ZM12.4868 22.0548C12.1705 22.4183 11.8302 22.7604 11.4683 23.0786C11.1646 22.762 10.881 22.4267 10.6193 22.0746C10.7527 22.0304 10.8644 21.9899 10.9699 21.9511C11.472 22.0255 11.9793 22.0601 12.4868 22.0548ZM10.9356 23.5203C10.7242 23.6844 10.5063 23.8415 10.2822 23.9917C9.74437 23.549 9.24889 23.0571 8.8022 22.5226C8.8788 22.5099 8.95815 22.4964 9.03201 22.482H9.05905H9.07172C9.15191 22.4676 9.23211 22.4513 9.31237 22.4342C9.39256 22.4171 9.4755 22.4 9.55661 22.381L9.66025 22.3585L9.87204 22.3044L9.89908 22.2963L9.91893 22.2909C10.2287 22.7259 10.5685 23.1389 10.9356 23.5266M11.4287 24.0179C11.5548 24.136 11.6838 24.2513 11.8144 24.3622C11.8343 24.3802 11.8532 24.3955 11.873 24.4127C11.5801 24.4 11.2862 24.3775 10.9951 24.3432C11.142 24.2387 11.2872 24.1296 11.4287 24.0179ZM11.9622 23.5672C12.4963 23.092 12.986 22.5692 13.4251 22.0052H13.4323H13.4747H13.4909L13.5567 21.997L13.71 21.9781L13.8235 21.9619H13.8397L13.938 21.9475C13.9938 21.9385 14.0488 21.9295 14.1056 21.9187L14.1372 21.9133C14.385 21.869 14.632 21.8141 14.8753 21.7501C14.1779 22.6136 13.3541 23.3668 12.4318 23.9845C12.2705 23.8538 12.1146 23.7141 11.9622 23.5771M18.1427 20.1827C18.5502 19.8801 18.9336 19.5462 19.2892 19.184C19.3207 19.6642 19.3207 20.1459 19.2892 20.6261C18.8502 20.6168 18.4122 20.5804 17.9777 20.5171C18.0417 20.3918 18.0931 20.2836 18.1391 20.1809M19.2207 21.3156C19.1882 21.5797 19.1441 21.8457 19.0918 22.1106C18.398 22.1787 17.6994 22.1814 17.0052 22.1188C17.0521 22.0548 17.0954 21.9889 17.1413 21.9277L17.1575 21.9052L17.1647 21.8952L17.3017 21.6915C17.3468 21.6212 17.3918 21.5509 17.4351 21.4806L17.4928 21.3905C17.5298 21.3283 17.5658 21.2652 17.6037 21.203L17.619 21.1769C17.6217 21.1712 17.6247 21.1658 17.628 21.1606C18.1548 21.2485 18.6869 21.3 19.2207 21.3148M19.9165 21.3148C20.0896 21.3148 20.2617 21.3004 20.4339 21.2877L20.5105 21.2805C20.2933 21.4788 20.0697 21.6708 19.839 21.8519C19.8687 21.6717 19.8957 21.4914 19.9165 21.3111M21.2892 16.1907C21.4412 15.8382 21.5722 15.4771 21.6813 15.1091C22.0865 16.6011 22.1837 18.1599 21.967 19.6906C21.7651 19.9537 21.553 20.2091 21.3307 20.4567C21.5767 19.044 21.5627 17.5983 21.2892 16.1907ZM21.73 14.9153C21.8066 14.6287 21.8715 14.3394 21.9202 14.0447C21.9427 14.1059 21.9652 14.169 21.9887 14.2402C22.0653 14.4736 22.1356 14.708 22.1969 14.9397L22.205 14.9676C22.223 15.037 22.2392 15.1073 22.2564 15.1758L22.2798 15.2795C22.2987 15.3597 22.3167 15.4408 22.333 15.521C22.3492 15.6012 22.3654 15.6787 22.3799 15.7589V15.7716C22.3818 15.779 22.3833 15.7865 22.3844 15.7941C22.4006 15.8843 22.415 15.9699 22.4303 16.0573C22.47 16.3178 22.5033 16.5855 22.5267 16.8559C22.5484 17.111 22.5628 17.3661 22.5682 17.6139C22.5736 17.9159 22.5682 18.2169 22.5484 18.5152C22.5412 18.6396 22.5312 18.764 22.5213 18.8875C22.3807 19.1065 22.2329 19.3192 22.0797 19.5283C22.2752 17.9839 22.1553 16.4157 21.7273 14.9189M20.7701 7.58927C20.6216 7.33334 20.4615 7.08335 20.2897 6.83936C20.3483 6.86731 20.4086 6.89618 20.4771 6.92955C20.6952 7.03946 20.9098 7.15577 21.118 7.27561L21.1432 7.29095L21.3235 7.40093L21.4136 7.45683C21.4839 7.50189 21.5533 7.54695 21.6218 7.59019C21.6903 7.63349 21.7579 7.68031 21.8237 7.72537L21.8354 7.73353C21.8412 7.73811 21.8472 7.74229 21.8534 7.74614C21.9264 7.79571 21.9995 7.84795 22.0716 7.90026C22.2843 8.05438 22.4979 8.22111 22.7025 8.396C22.9071 8.57082 23.0883 8.73037 23.2667 8.90343C23.4839 9.11254 23.694 9.3289 23.8886 9.55061C23.9716 9.64073 24.0518 9.73895 24.1329 9.8345C24.1879 10.0887 24.2357 10.342 24.2735 10.5988C23.319 9.36887 22.1254 8.34487 20.7646 7.58842M22.1013 7.80289C22.0373 7.75606 21.9724 7.71277 21.9102 7.66771C21.9029 7.6617 21.895 7.65628 21.8868 7.65151L21.8769 7.64518C21.8102 7.59829 21.7417 7.55505 21.6732 7.50816C21.6047 7.46134 21.5344 7.41804 21.4632 7.37298L21.373 7.31623C21.3126 7.27926 21.2486 7.24322 21.1855 7.20442L21.1612 7.18999L21.1441 7.18098C21.2324 6.65435 21.2839 6.12216 21.2983 5.58835C21.5632 5.6217 21.8291 5.66496 22.0932 5.71723C22.1613 6.41067 22.164 7.10895 22.1013 7.80289ZM21.2964 4.89252C21.291 4.71946 21.2811 4.54641 21.2676 4.37515C21.2676 4.34992 21.2676 4.32468 21.2613 4.29854C21.4605 4.51486 21.6525 4.73929 21.8346 4.96913C21.6542 4.93939 21.474 4.91325 21.2938 4.89252M16.1769 3.5243C15.8229 3.37264 15.4598 3.2429 15.0899 3.13583C16.5869 2.72946 18.151 2.63255 19.6866 2.85101C19.9505 3.0529 20.2061 3.26502 20.4537 3.48734C19.0423 3.24107 17.598 3.25421 16.1913 3.5261M14.9159 3.08535C14.6302 3.00874 14.3409 2.94385 14.0471 2.89517L14.2435 2.82577C14.4751 2.74916 14.7095 2.67975 14.9421 2.61756L14.97 2.61035L15.1782 2.55898L15.281 2.53464C15.3612 2.51661 15.4423 2.49859 15.5225 2.48236C15.6027 2.46614 15.6812 2.44992 15.7596 2.43459H15.774H15.7956C15.8858 2.41837 15.9714 2.40305 16.0597 2.38953C16.3193 2.34807 16.5879 2.31652 16.8583 2.29128C17.1134 2.27055 17.3684 2.25613 17.6154 2.25162C17.9174 2.24621 18.2202 2.25162 18.5167 2.27055C18.6411 2.27776 18.7646 2.28768 18.889 2.29759C19.1062 2.43819 19.3198 2.58511 19.528 2.73834C17.9835 2.5436 16.4155 2.66379 14.9186 3.09166M8.80487 3.4585C8.447 3.60216 8.09813 3.7674 7.76024 3.95334C8.52896 2.61165 9.56275 1.44048 10.7986 0.511153C11.1285 0.467288 11.459 0.437244 11.7901 0.42102C10.6184 1.24471 9.60651 2.27492 8.80396 3.46121M7.58901 4.03986C7.33209 4.18858 7.08158 4.34722 6.83818 4.51937C6.86613 4.46168 6.895 4.4013 6.9283 4.33369C7.03919 4.11467 7.15544 3.89926 7.27625 3.69195L7.28977 3.66671C7.32582 3.60542 7.36363 3.54413 7.40151 3.48644L7.4565 3.39631C7.50065 3.326 7.54662 3.2566 7.58992 3.1872C7.63315 3.1178 7.68004 3.05111 7.7251 2.9853L7.7332 2.97449C7.73699 2.9679 7.74117 2.96158 7.74581 2.95556C7.79629 2.88255 7.84768 2.80864 7.89993 2.73744C8.05412 2.52472 8.22084 2.31111 8.39567 2.10651C8.57056 1.90191 8.73101 1.72074 8.90316 1.54227C9.11227 1.32415 9.33039 1.11505 9.55119 0.921257C9.64132 0.837437 9.73869 0.757214 9.83423 0.676999C10.0872 0.621115 10.342 0.573945 10.5986 0.535488C9.36912 1.48851 8.34538 2.68058 7.58901 4.03986ZM3.524 8.6249C3.37194 8.97879 3.2422 9.34183 3.13553 9.71192C2.73085 8.21993 2.63364 6.66121 2.84981 5.13047C3.0517 4.86548 3.26351 4.6098 3.48524 4.36344C3.23896 5.77447 3.25209 7.2186 3.524 8.6249ZM3.08235 9.89941C3.00574 10.186 2.94174 10.4753 2.89127 10.7692C2.86963 10.7079 2.8471 10.6448 2.82366 10.5736C2.74615 10.3402 2.67675 10.1067 2.61546 9.87505L2.60734 9.84625C2.58932 9.77651 2.5722 9.70715 2.55597 9.63799L2.53163 9.53527C2.51361 9.45507 2.49558 9.37396 2.47936 9.29278C2.46313 9.21167 2.44601 9.13507 2.43158 9.05579V9.04312C2.4305 9.03567 2.4305 9.0281 2.43158 9.02059C2.41446 8.93046 2.39914 8.84485 2.38562 8.75655C2.34416 8.49696 2.31081 8.22836 2.28828 7.95884C2.26574 7.70284 2.25312 7.44782 2.24772 7.19992C2.24141 6.89886 2.24772 6.59695 2.26574 6.2986C2.27385 6.17511 2.28377 6.05073 2.29368 5.92725C2.43369 5.70912 2.58061 5.49581 2.73444 5.2873C2.53789 6.83238 2.65624 8.40129 3.08235 9.89941ZM4.03956 17.2281C4.18858 17.4853 4.34842 17.7353 4.51907 17.978C4.46138 17.951 4.40009 17.9212 4.3334 17.8879C4.11437 17.7779 3.89895 17.6617 3.69165 17.5409L3.66641 17.5264C3.60512 17.4904 3.54383 17.4526 3.48614 17.4156L3.39601 17.3606L3.1878 17.2263C3.1193 17.1822 3.0526 17.1362 2.9868 17.0929L2.97509 17.083C2.96806 17.08 2.96164 17.0757 2.95616 17.0704C2.88225 17.0208 2.81105 16.9685 2.73804 16.9171C2.52533 16.7622 2.31171 16.5954 2.1071 16.4214C1.90251 16.2475 1.72134 16.0861 1.54287 15.914C1.32475 15.704 1.11565 15.4877 0.920055 15.2659C0.837136 15.1758 0.757815 15.0775 0.6776 14.9829C0.621716 14.7287 0.575747 14.4746 0.536089 14.2186C1.49043 15.4485 2.68406 16.4723 4.04497 17.2281M2.70919 17.0136C2.77229 17.0605 2.83719 17.1037 2.89938 17.1497C2.90659 17.1551 2.9147 17.1596 2.92101 17.165L2.93182 17.1722C2.99942 17.2182 3.06793 17.2624 3.13553 17.3083C3.20312 17.3543 3.27523 17.3984 3.34554 17.4444L3.43567 17.5003C3.49696 17.5382 3.56005 17.5743 3.62134 17.6121L3.64838 17.6265C3.65347 17.6301 3.6589 17.6331 3.66461 17.6355C3.57632 18.1621 3.52512 18.6944 3.51138 19.2282C3.24098 19.1948 2.97959 19.1524 2.7155 19.0993C2.64686 18.4059 2.64445 17.7075 2.70829 17.0136M3.51318 19.9249C3.51318 20.097 3.5267 20.2701 3.54022 20.4414C3.54022 20.4675 3.54563 20.4927 3.54653 20.518C3.34824 20.3016 3.15776 20.0784 2.97509 19.8483C3.15535 19.8783 3.33562 19.9039 3.51589 19.9249M8.63096 21.2931C8.98538 21.4445 9.34868 21.5743 9.71883 21.6816C8.22646 22.0859 6.66754 22.183 5.13648 21.9673C4.87329 21.7654 4.61641 21.5536 4.36945 21.331C5.78047 21.5771 7.22453 21.5643 8.63096 21.2931ZM9.90633 21.7339C10.193 21.8096 10.4832 21.8745 10.7761 21.9249C10.7157 21.9457 10.6517 21.9691 10.5805 21.9925C10.348 22.0691 10.1136 22.1395 9.88105 22.2007L9.85402 22.2089L9.64582 22.2594L9.54309 22.2837C9.46107 22.3017 9.37996 22.3206 9.30153 22.336C9.2231 22.3513 9.14198 22.3693 9.0627 22.3846H9.05003L9.0275 22.3891C8.93738 22.4045 8.85176 22.4198 8.76432 22.4333C8.50296 22.4748 8.23527 22.5081 7.96484 22.5316C7.70976 22.5541 7.45558 22.5667 7.20775 22.5712C6.90577 22.5784 6.60386 22.5712 6.30641 22.5541C6.18202 22.546 6.05854 22.5352 5.93506 22.5262C5.71573 22.3856 5.50181 22.2386 5.29331 22.0854C6.83818 22.2794 8.40631 22.1591 9.90358 21.7321M16.0191 21.3644C16.377 21.2215 16.7256 21.0566 17.0629 20.8704C16.2942 22.2116 15.2608 23.3824 14.0254 24.3117C13.6955 24.3568 13.365 24.3868 13.034 24.4018C14.2061 23.5783 15.2181 22.5477 16.02 21.3607M17.2332 20.7712C17.491 20.6216 17.7398 20.463 17.9831 20.2909C17.9561 20.3494 17.9264 20.4107 17.893 20.4765C17.783 20.6965 17.6677 20.9119 17.546 21.1192L17.5316 21.1435C17.4946 21.2066 17.4586 21.267 17.4216 21.3238L17.3657 21.4139C17.3207 21.4842 17.2756 21.5545 17.2315 21.623C17.1872 21.6915 17.1413 21.7591 17.0971 21.8249L17.089 21.8348C17.0852 21.8417 17.081 21.8483 17.0764 21.8547C17.0268 21.9285 16.9736 22.0007 16.9223 22.0728C16.7682 22.2846 16.6005 22.4982 16.4266 22.7037C16.2526 22.9092 16.0913 23.0886 15.92 23.268C15.71 23.4852 15.4927 23.6943 15.271 23.8899C15.1809 23.9728 15.0835 24.053 14.988 24.1332C14.7347 24.1891 14.4796 24.2351 14.2237 24.2747C15.4536 23.3204 16.4774 22.1267 17.2332 20.7658" fill="black"/>
</svg>
